<svg xmlns="http://www.w3.org/2000/svg" version="1.1" width="386" height="131">
<path d="M 26.435547 106.254883 L 26.435547 107.355957 Q 25.941406 107.039062 25.444580 106.877930 Q 24.947754 106.716797 24.442871 106.716797 Q 23.674805 106.716797 23.229004 107.073975 Q 22.783203 107.431152 22.783203 108.038086 Q 22.783203 108.569824 23.075928 108.849121 Q 23.368652 109.128418 24.168945 109.316406 L 24.738281 109.445312 Q 25.866211 109.708496 26.381836 110.272461 Q 26.897461 110.836426 26.897461 111.808594 Q 26.897461 112.952637 26.188477 113.554199 Q 25.479492 114.155762 24.125977 114.155762 Q 23.562012 114.155762 22.992676 114.034912 Q 22.423340 113.914062 21.848633 113.672363 L 21.848633 112.517578 Q 22.466309 112.909668 23.016846 113.092285 Q 23.567383 113.274902 24.125977 113.274902 Q 24.947754 113.274902 25.404297 112.906982 Q 25.860840 112.539062 25.860840 111.878418 Q 25.860840 111.276855 25.546631 110.959961 Q 25.232422 110.643066 24.453613 110.471191 L 23.873535 110.336914 Q 22.756348 110.084473 22.251465 109.574219 Q 21.746582 109.063965 21.746582 108.204590 Q 21.746582 107.130371 22.468994 106.483154 Q 23.191406 105.835938 24.389160 105.835938 Q 24.851074 105.835938 25.361328 105.940674 Q 25.871582 106.045410 26.435547 106.254883 Z " fill="rgb(0, 0, 0)" fill-opacity="1.000000" />
<path d="M 34.015625 110.498047 L 34.015625 110.981445 L 29.734863 110.981445 L 29.734863 111.013672 Q 29.691895 112.243652 30.204834 112.780762 Q 30.717773 113.317871 31.652344 113.317871 Q 32.125000 113.317871 32.640625 113.167480 Q 33.156250 113.017090 33.741699 112.710938 L 33.741699 113.693848 Q 33.177734 113.924805 32.654053 114.040283 Q 32.130371 114.155762 31.641602 114.155762 Q 30.239746 114.155762 29.450195 113.315186 Q 28.660645 112.474609 28.660645 110.997559 Q 28.660645 109.558105 29.434082 108.698730 Q 30.207520 107.839355 31.496582 107.839355 Q 32.645996 107.839355 33.309326 108.618164 Q 33.972656 109.396973 34.015625 110.498047 Z M 33.027344 110.208008 Q 32.962891 109.584961 32.573486 109.131104 Q 32.184082 108.677246 31.453613 108.677246 Q 30.739258 108.677246 30.277344 109.149902 Q 29.815430 109.622559 29.772461 110.213379 Z " fill="rgb(0, 0, 0)" fill-opacity="1.000000" />
<path d="M 41.203613 109.225098 Q 40.886719 108.978027 40.559082 108.865234 Q 40.231445 108.752441 39.839355 108.752441 Q 38.915527 108.752441 38.426758 109.332520 Q 37.937988 109.912598 37.937988 111.008301 L 37.937988 114.000000 L 36.944336 114.000000 L 36.944336 107.984375 L 37.937988 107.984375 L 37.937988 109.160645 Q 38.185059 108.521484 38.697998 108.180420 Q 39.210938 107.839355 39.914551 107.839355 Q 40.279785 107.839355 40.596680 107.930664 Q 40.913574 108.021973 41.203613 108.215332 Z " fill="rgb(0, 0, 0)" fill-opacity="1.000000" />
<path d="M 43.697266 108.005859 L 46.227051 108.005859 L 46.227051 113.231934 L 48.187500 113.231934 L 48.187500 114.000000 L 43.278320 114.000000 L 43.278320 113.231934 L 45.238770 113.231934 L 45.238770 108.773926 L 43.697266 108.773926 Z M 45.238770 105.669434 L 46.227051 105.669434 L 46.227051 106.915527 L 45.238770 106.915527 Z " fill="rgb(0, 0, 0)" fill-opacity="1.000000" />
<path d="M 55.015625 110.498047 L 55.015625 110.981445 L 50.734863 110.981445 L 50.734863 111.013672 Q 50.691895 112.243652 51.204834 112.780762 Q 51.717773 113.317871 52.652344 113.317871 Q 53.125000 113.317871 53.640625 113.167480 Q 54.156250 113.017090 54.741699 112.710938 L 54.741699 113.693848 Q 54.177734 113.924805 53.654053 114.040283 Q 53.130371 114.155762 52.641602 114.155762 Q 51.239746 114.155762 50.450195 113.315186 Q 49.660645 112.474609 49.660645 110.997559 Q 49.660645 109.558105 50.434082 108.698730 Q 51.207520 107.839355 52.496582 107.839355 Q 53.645996 107.839355 54.309326 108.618164 Q 54.972656 109.396973 55.015625 110.498047 Z M 54.027344 110.208008 Q 53.962891 109.584961 53.573486 109.131104 Q 53.184082 108.677246 52.453613 108.677246 Q 51.739258 108.677246 51.277344 109.149902 Q 50.815430 109.622559 50.772461 110.213379 Z " fill="rgb(0, 0, 0)" fill-opacity="1.000000" />
<path d="M 61.226074 108.193848 L 61.226074 109.160645 Q 60.801758 108.913574 60.372070 108.790039 Q 59.942383 108.666504 59.496582 108.666504 Q 58.825195 108.666504 58.494873 108.884033 Q 58.164551 109.101562 58.164551 109.547363 Q 58.164551 109.950195 58.411621 110.148926 Q 58.658691 110.347656 59.641602 110.535645 L 60.039062 110.610840 Q 60.774902 110.750488 61.153564 111.169434 Q 61.532227 111.588379 61.532227 112.259766 Q 61.532227 113.151367 60.898438 113.653564 Q 60.264648 114.155762 59.136719 114.155762 Q 58.690918 114.155762 58.202148 114.061768 Q 57.713379 113.967773 57.144043 113.779785 L 57.144043 112.759277 Q 57.697266 113.043945 58.202148 113.186279 Q 58.707031 113.328613 59.158203 113.328613 Q 59.813477 113.328613 60.173340 113.062744 Q 60.533203 112.796875 60.533203 112.318848 Q 60.533203 111.631348 59.217285 111.368164 L 59.174316 111.357422 L 58.803711 111.282227 Q 57.949707 111.115723 57.557617 110.720947 Q 57.165527 110.326172 57.165527 109.644043 Q 57.165527 108.779297 57.750977 108.309326 Q 58.336426 107.839355 59.421387 107.839355 Q 59.904785 107.839355 60.350586 107.927979 Q 60.796387 108.016602 61.226074 108.193848 Z " fill="rgb(0, 0, 0)" fill-opacity="1.000000" />
<path d="M 180.435547 106.254883 L 180.435547 107.355957 Q 179.941406 107.039062 179.444580 106.877930 Q 178.947754 106.716797 178.442871 106.716797 Q 177.674805 106.716797 177.229004 107.073975 Q 176.783203 107.431152 176.783203 108.038086 Q 176.783203 108.569824 177.075928 108.849121 Q 177.368652 109.128418 178.168945 109.316406 L 178.738281 109.445312 Q 179.866211 109.708496 180.381836 110.272461 Q 180.897461 110.836426 180.897461 111.808594 Q 180.897461 112.952637 180.188477 113.554199 Q 179.479492 114.155762 178.125977 114.155762 Q 177.562012 114.155762 176.992676 114.034912 Q 176.423340 113.914062 175.848633 113.672363 L 175.848633 112.517578 Q 176.466309 112.909668 177.016846 113.092285 Q 177.567383 113.274902 178.125977 113.274902 Q 178.947754 113.274902 179.404297 112.906982 Q 179.860840 112.539062 179.860840 111.878418 Q 179.860840 111.276855 179.546631 110.959961 Q 179.232422 110.643066 178.453613 110.471191 L 177.873535 110.336914 Q 176.756348 110.084473 176.251465 109.574219 Q 175.746582 109.063965 175.746582 108.204590 Q 175.746582 107.130371 176.468994 106.483154 Q 177.191406 105.835938 178.389160 105.835938 Q 178.851074 105.835938 179.361328 105.940674 Q 179.871582 106.045410 180.435547 106.254883 Z " fill="rgb(0, 0, 0)" fill-opacity="1.000000" />
<path d="M 188.015625 110.498047 L 188.015625 110.981445 L 183.734863 110.981445 L 183.734863 111.013672 Q 183.691895 112.243652 184.204834 112.780762 Q 184.717773 113.317871 185.652344 113.317871 Q 186.125000 113.317871 186.640625 113.167480 Q 187.156250 113.017090 187.741699 112.710938 L 187.741699 113.693848 Q 187.177734 113.924805 186.654053 114.040283 Q 186.130371 114.155762 185.641602 114.155762 Q 184.239746 114.155762 183.450195 113.315186 Q 182.660645 112.474609 182.660645 110.997559 Q 182.660645 109.558105 183.434082 108.698730 Q 184.207520 107.839355 185.496582 107.839355 Q 186.645996 107.839355 187.309326 108.618164 Q 187.972656 109.396973 188.015625 110.498047 Z M 187.027344 110.208008 Q 186.962891 109.584961 186.573486 109.131104 Q 186.184082 108.677246 185.453613 108.677246 Q 184.739258 108.677246 184.277344 109.149902 Q 183.815430 109.622559 183.772461 110.213379 Z " fill="rgb(0, 0, 0)" fill-opacity="1.000000" />
<path d="M 195.203613 109.225098 Q 194.886719 108.978027 194.559082 108.865234 Q 194.231445 108.752441 193.839355 108.752441 Q 192.915527 108.752441 192.426758 109.332520 Q 191.937988 109.912598 191.937988 111.008301 L 191.937988 114.000000 L 190.944336 114.000000 L 190.944336 107.984375 L 191.937988 107.984375 L 191.937988 109.160645 Q 192.185059 108.521484 192.697998 108.180420 Q 193.210938 107.839355 193.914551 107.839355 Q 194.279785 107.839355 194.596680 107.930664 Q 194.913574 108.021973 195.203613 108.215332 Z " fill="rgb(0, 0, 0)" fill-opacity="1.000000" />
<path d="M 197.697266 108.005859 L 200.227051 108.005859 L 200.227051 113.231934 L 202.187500 113.231934 L 202.187500 114.000000 L 197.278320 114.000000 L 197.278320 113.231934 L 199.238770 113.231934 L 199.238770 108.773926 L 197.697266 108.773926 Z M 199.238770 105.669434 L 200.227051 105.669434 L 200.227051 106.915527 L 199.238770 106.915527 Z " fill="rgb(0, 0, 0)" fill-opacity="1.000000" />
<path d="M 209.015625 110.498047 L 209.015625 110.981445 L 204.734863 110.981445 L 204.734863 111.013672 Q 204.691895 112.243652 205.204834 112.780762 Q 205.717773 113.317871 206.652344 113.317871 Q 207.125000 113.317871 207.640625 113.167480 Q 208.156250 113.017090 208.741699 112.710938 L 208.741699 113.693848 Q 208.177734 113.924805 207.654053 114.040283 Q 207.130371 114.155762 206.641602 114.155762 Q 205.239746 114.155762 204.450195 113.315186 Q 203.660645 112.474609 203.660645 110.997559 Q 203.660645 109.558105 204.434082 108.698730 Q 205.207520 107.839355 206.496582 107.839355 Q 207.645996 107.839355 208.309326 108.618164 Q 208.972656 109.396973 209.015625 110.498047 Z M 208.027344 110.208008 Q 207.962891 109.584961 207.573486 109.131104 Q 207.184082 108.677246 206.453613 108.677246 Q 205.739258 108.677246 205.277344 109.149902 Q 204.815430 109.622559 204.772461 110.213379 Z " fill="rgb(0, 0, 0)" fill-opacity="1.000000" />
<path d="M 215.226074 108.193848 L 215.226074 109.160645 Q 214.801758 108.913574 214.372070 108.790039 Q 213.942383 108.666504 213.496582 108.666504 Q 212.825195 108.666504 212.494873 108.884033 Q 212.164551 109.101562 212.164551 109.547363 Q 212.164551 109.950195 212.411621 110.148926 Q 212.658691 110.347656 213.641602 110.535645 L 214.039062 110.610840 Q 214.774902 110.750488 215.153564 111.169434 Q 215.532227 111.588379 215.532227 112.259766 Q 215.532227 113.151367 214.898438 113.653564 Q 214.264648 114.155762 213.136719 114.155762 Q 212.690918 114.155762 212.202148 114.061768 Q 211.713379 113.967773 211.144043 113.779785 L 211.144043 112.759277 Q 211.697266 113.043945 212.202148 113.186279 Q 212.707031 113.328613 213.158203 113.328613 Q 213.813477 113.328613 214.173340 113.062744 Q 214.533203 112.796875 214.533203 112.318848 Q 214.533203 111.631348 213.217285 111.368164 L 213.174316 111.357422 L 212.803711 111.282227 Q 211.949707 111.115723 211.557617 110.720947 Q 211.165527 110.326172 211.165527 109.644043 Q 211.165527 108.779297 211.750977 108.309326 Q 212.336426 107.839355 213.421387 107.839355 Q 213.904785 107.839355 214.350586 107.927979 Q 214.796387 108.016602 215.226074 108.193848 Z " fill="rgb(0, 0, 0)" fill-opacity="1.000000" />
<path d="M 310.341797 113.108398 Q 311.711426 113.108398 312.253906 112.434326 Q 312.796387 111.760254 312.796387 109.998535 Q 312.796387 108.220703 312.256592 107.546631 Q 311.716797 106.872559 310.341797 106.872559 L 309.826172 106.872559 L 309.826172 113.108398 Z M 310.363281 105.980957 Q 312.200195 105.980957 313.070312 106.958496 Q 313.940430 107.936035 313.940430 109.998535 Q 313.940430 112.050293 313.070312 113.025146 Q 312.200195 114.000000 310.363281 114.000000 L 308.735840 114.000000 L 308.735840 105.980957 Z " fill="rgb(0, 0, 0)" fill-opacity="1.000000" />
<path d="M 318.770508 110.976074 L 318.442871 110.976074 Q 317.578125 110.976074 317.140381 111.279541 Q 316.702637 111.583008 316.702637 112.184570 Q 316.702637 112.727051 317.030273 113.027832 Q 317.357910 113.328613 317.937988 113.328613 Q 318.754395 113.328613 319.221680 112.761963 Q 319.688965 112.195312 319.694336 111.196289 L 319.694336 110.976074 Z M 320.687988 110.567871 L 320.687988 114.000000 L 319.694336 114.000000 L 319.694336 113.108398 Q 319.377441 113.645508 318.896729 113.900635 Q 318.416016 114.155762 317.728516 114.155762 Q 316.810059 114.155762 316.262207 113.637451 Q 315.714355 113.119141 315.714355 112.249023 Q 315.714355 111.244629 316.388428 110.723633 Q 317.062500 110.202637 318.367676 110.202637 L 319.694336 110.202637 L 319.694336 110.046875 Q 319.688965 109.327148 319.329102 109.002197 Q 318.969238 108.677246 318.179688 108.677246 Q 317.674805 108.677246 317.159180 108.822266 Q 316.643555 108.967285 316.154785 109.246582 L 316.154785 108.258301 Q 316.702637 108.048828 317.204834 107.944092 Q 317.707031 107.839355 318.179688 107.839355 Q 318.926270 107.839355 319.455322 108.059570 Q 319.984375 108.279785 320.312012 108.720215 Q 320.516113 108.988770 320.602051 109.383545 Q 320.687988 109.778320 320.687988 110.567871 Z " fill="rgb(0, 0, 0)" fill-opacity="1.000000" />
<path d="M 325.297852 106.276367 L 325.297852 107.984375 L 327.542969 107.984375 L 327.542969 108.752441 L 325.297852 108.752441 L 325.297852 112.018066 Q 325.297852 112.684082 325.550293 112.947266 Q 325.802734 113.210449 326.431152 113.210449 L 327.542969 113.210449 L 327.542969 114.000000 L 326.334473 114.000000 Q 325.222656 114.000000 324.766113 113.554199 Q 324.309570 113.108398 324.309570 112.018066 L 324.309570 108.752441 L 322.703613 108.752441 L 322.703613 107.984375 L 324.309570 107.984375 L 324.309570 106.276367 Z " fill="rgb(0, 0, 0)" fill-opacity="1.000000" />
<path d="M 332.770508 110.976074 L 332.442871 110.976074 Q 331.578125 110.976074 331.140381 111.279541 Q 330.702637 111.583008 330.702637 112.184570 Q 330.702637 112.727051 331.030273 113.027832 Q 331.357910 113.328613 331.937988 113.328613 Q 332.754395 113.328613 333.221680 112.761963 Q 333.688965 112.195312 333.694336 111.196289 L 333.694336 110.976074 Z M 334.687988 110.567871 L 334.687988 114.000000 L 333.694336 114.000000 L 333.694336 113.108398 Q 333.377441 113.645508 332.896729 113.900635 Q 332.416016 114.155762 331.728516 114.155762 Q 330.810059 114.155762 330.262207 113.637451 Q 329.714355 113.119141 329.714355 112.249023 Q 329.714355 111.244629 330.388428 110.723633 Q 331.062500 110.202637 332.367676 110.202637 L 333.694336 110.202637 L 333.694336 110.046875 Q 333.688965 109.327148 333.329102 109.002197 Q 332.969238 108.677246 332.179688 108.677246 Q 331.674805 108.677246 331.159180 108.822266 Q 330.643555 108.967285 330.154785 109.246582 L 330.154785 108.258301 Q 330.702637 108.048828 331.204834 107.944092 Q 331.707031 107.839355 332.179688 107.839355 Q 332.926270 107.839355 333.455322 108.059570 Q 333.984375 108.279785 334.312012 108.720215 Q 334.516113 108.988770 334.602051 109.383545 Q 334.687988 109.778320 334.687988 110.567871 Z " fill="rgb(0, 0, 0)" fill-opacity="1.000000" />
<path d="M 337.251465 105.980957 L 341.972656 105.980957 L 341.972656 106.894043 L 338.341797 106.894043 L 338.341797 109.042480 L 341.634277 109.042480 L 341.634277 109.955566 L 338.341797 109.955566 L 338.341797 114.000000 L 337.251465 114.000000 Z " fill="rgb(0, 0, 0)" fill-opacity="1.000000" />
<path d="M 349.203613 109.225098 Q 348.886719 108.978027 348.559082 108.865234 Q 348.231445 108.752441 347.839355 108.752441 Q 346.915527 108.752441 346.426758 109.332520 Q 345.937988 109.912598 345.937988 111.008301 L 345.937988 114.000000 L 344.944336 114.000000 L 344.944336 107.984375 L 345.937988 107.984375 L 345.937988 109.160645 Q 346.185059 108.521484 346.697998 108.180420 Q 347.210938 107.839355 347.914551 107.839355 Q 348.279785 107.839355 348.596680 107.930664 Q 348.913574 108.021973 349.203613 108.215332 Z " fill="rgb(0, 0, 0)" fill-opacity="1.000000" />
<path d="M 353.770508 110.976074 L 353.442871 110.976074 Q 352.578125 110.976074 352.140381 111.279541 Q 351.702637 111.583008 351.702637 112.184570 Q 351.702637 112.727051 352.030273 113.027832 Q 352.357910 113.328613 352.937988 113.328613 Q 353.754395 113.328613 354.221680 112.761963 Q 354.688965 112.195312 354.694336 111.196289 L 354.694336 110.976074 Z M 355.687988 110.567871 L 355.687988 114.000000 L 354.694336 114.000000 L 354.694336 113.108398 Q 354.377441 113.645508 353.896729 113.900635 Q 353.416016 114.155762 352.728516 114.155762 Q 351.810059 114.155762 351.262207 113.637451 Q 350.714355 113.119141 350.714355 112.249023 Q 350.714355 111.244629 351.388428 110.723633 Q 352.062500 110.202637 353.367676 110.202637 L 354.694336 110.202637 L 354.694336 110.046875 Q 354.688965 109.327148 354.329102 109.002197 Q 353.969238 108.677246 353.179688 108.677246 Q 352.674805 108.677246 352.159180 108.822266 Q 351.643555 108.967285 351.154785 109.246582 L 351.154785 108.258301 Q 351.702637 108.048828 352.204834 107.944092 Q 352.707031 107.839355 353.179688 107.839355 Q 353.926270 107.839355 354.455322 108.059570 Q 354.984375 108.279785 355.312012 108.720215 Q 355.516113 108.988770 355.602051 109.383545 Q 355.687988 109.778320 355.687988 110.567871 Z " fill="rgb(0, 0, 0)" fill-opacity="1.000000" />
<path d="M 360.630859 108.596680 Q 360.813477 108.209961 361.095459 108.024658 Q 361.377441 107.839355 361.774902 107.839355 Q 362.500000 107.839355 362.798096 108.400635 Q 363.096191 108.961914 363.096191 110.514160 L 363.096191 114.000000 L 362.193848 114.000000 L 362.193848 110.557129 Q 362.193848 109.284180 362.051514 108.975342 Q 361.909180 108.666504 361.533203 108.666504 Q 361.103516 108.666504 360.945068 108.996826 Q 360.786621 109.327148 360.786621 110.557129 L 360.786621 114.000000 L 359.884277 114.000000 L 359.884277 110.557129 Q 359.884277 109.268066 359.731201 108.967285 Q 359.578125 108.666504 359.180664 108.666504 Q 358.788574 108.666504 358.635498 108.996826 Q 358.482422 109.327148 358.482422 110.557129 L 358.482422 114.000000 L 357.585449 114.000000 L 357.585449 107.984375 L 358.482422 107.984375 L 358.482422 108.500000 Q 358.659668 108.177734 358.925537 108.008545 Q 359.191406 107.839355 359.529785 107.839355 Q 359.937988 107.839355 360.209229 108.027344 Q 360.480469 108.215332 360.630859 108.596680 Z " fill="rgb(0, 0, 0)" fill-opacity="1.000000" />
<path d="M 370.015625 110.498047 L 370.015625 110.981445 L 365.734863 110.981445 L 365.734863 111.013672 Q 365.691895 112.243652 366.204834 112.780762 Q 366.717773 113.317871 367.652344 113.317871 Q 368.125000 113.317871 368.640625 113.167480 Q 369.156250 113.017090 369.741699 112.710938 L 369.741699 113.693848 Q 369.177734 113.924805 368.654053 114.040283 Q 368.130371 114.155762 367.641602 114.155762 Q 366.239746 114.155762 365.450195 113.315186 Q 364.660645 112.474609 364.660645 110.997559 Q 364.660645 109.558105 365.434082 108.698730 Q 366.207520 107.839355 367.496582 107.839355 Q 368.645996 107.839355 369.309326 108.618164 Q 369.972656 109.396973 370.015625 110.498047 Z M 369.027344 110.208008 Q 368.962891 109.584961 368.573486 109.131104 Q 368.184082 108.677246 367.453613 108.677246 Q 366.739258 108.677246 366.277344 109.149902 Q 365.815430 109.622559 365.772461 110.213379 Z " fill="rgb(0, 0, 0)" fill-opacity="1.000000" />
<path d="M 16.878906 13.319336 L 16.878906 6.412109 L 20.729980 6.412109 L 20.729980 7.335938 L 17.738281 7.335938 L 17.738281 13.319336 Z " fill="rgb(0, 0, 0)" fill-opacity="1.000000" />
<path d="M 16.878906 26.319336 L 16.878906 12.300781 L 17.738281 12.300781 L 17.738281 26.319336 Z " fill="rgb(0, 0, 0)" fill-opacity="1.000000" />
<path d="M 16.878906 39.319336 L 16.878906 25.300781 L 17.738281 25.300781 L 17.738281 32.412109 L 20.729980 32.412109 L 20.729980 33.335938 L 17.738281 33.335938 L 17.738281 39.319336 Z " fill="rgb(0, 0, 0)" fill-opacity="1.000000" />
<path d="M 16.878906 52.319336 L 16.878906 38.300781 L 17.738281 38.300781 L 17.738281 52.319336 Z " fill="rgb(0, 0, 0)" fill-opacity="1.000000" />
<path d="M 16.878906 65.319336 L 16.878906 51.300781 L 17.738281 51.300781 L 17.738281 58.412109 L 20.729980 58.412109 L 20.729980 59.335938 L 17.738281 59.335938 L 17.738281 65.319336 Z " fill="rgb(0, 0, 0)" fill-opacity="1.000000" />
<path d="M 16.878906 78.319336 L 16.878906 64.300781 L 17.738281 64.300781 L 17.738281 78.319336 Z " fill="rgb(0, 0, 0)" fill-opacity="1.000000" />
<path d="M 16.878906 85.335938 L 16.878906 77.300781 L 17.738281 77.300781 L 17.738281 84.412109 L 20.729980 84.412109 L 20.729980 85.335938 Z " fill="rgb(0, 0, 0)" fill-opacity="1.000000" />
<path d="M 20.892578 85.335938 L 20.892578 84.412109 L 27.729980 84.412109 L 27.729980 85.335938 Z " fill="rgb(0, 0, 0)" fill-opacity="1.000000" />
<path d="M 27.892578 85.335938 L 27.892578 84.412109 L 34.729980 84.412109 L 34.729980 85.335938 Z " fill="rgb(0, 0, 0)" fill-opacity="1.000000" />
<path d="M 34.892578 85.335938 L 34.892578 84.412109 L 41.729980 84.412109 L 41.729980 85.335938 Z " fill="rgb(0, 0, 0)" fill-opacity="1.000000" />
<path d="M 41.892578 85.335938 L 41.892578 84.412109 L 44.878906 84.412109 L 44.878906 77.300781 L 45.738281 77.300781 L 45.738281 84.412109 L 48.729980 84.412109 L 48.729980 85.335938 Z " fill="rgb(0, 0, 0)" fill-opacity="1.000000" />
<path d="M 48.892578 85.335938 L 48.892578 84.412109 L 55.729980 84.412109 L 55.729980 85.335938 Z " fill="rgb(0, 0, 0)" fill-opacity="1.000000" />
<path d="M 55.892578 85.335938 L 55.892578 84.412109 L 62.729980 84.412109 L 62.729980 85.335938 Z " fill="rgb(0, 0, 0)" fill-opacity="1.000000" />
<path d="M 62.892578 85.335938 L 62.892578 84.412109 L 69.729980 84.412109 L 69.729980 85.335938 Z " fill="rgb(0, 0, 0)" fill-opacity="1.000000" />
<path d="M 69.892578 85.335938 L 69.892578 84.412109 L 72.878906 84.412109 L 72.878906 77.300781 L 73.738281 77.300781 L 73.738281 85.335938 Z " fill="rgb(0, 0, 0)" fill-opacity="1.000000" />
<path d="M 170.878906 85.335938 L 170.878906 77.300781 L 171.738281 77.300781 L 171.738281 84.412109 L 174.729980 84.412109 L 174.729980 85.335938 Z " fill="rgb(0, 0, 0)" fill-opacity="1.000000" />
<path d="M 174.892578 85.335938 L 174.892578 84.412109 L 181.729980 84.412109 L 181.729980 85.335938 Z " fill="rgb(0, 0, 0)" fill-opacity="1.000000" />
<path d="M 181.892578 85.335938 L 181.892578 84.412109 L 188.729980 84.412109 L 188.729980 85.335938 Z " fill="rgb(0, 0, 0)" fill-opacity="1.000000" />
<path d="M 188.892578 85.335938 L 188.892578 84.412109 L 195.729980 84.412109 L 195.729980 85.335938 Z " fill="rgb(0, 0, 0)" fill-opacity="1.000000" />
<path d="M 195.892578 85.335938 L 195.892578 84.412109 L 198.878906 84.412109 L 198.878906 77.300781 L 199.738281 77.300781 L 199.738281 84.412109 L 202.729980 84.412109 L 202.729980 85.335938 Z " fill="rgb(0, 0, 0)" fill-opacity="1.000000" />
<path d="M 202.892578 85.335938 L 202.892578 84.412109 L 209.729980 84.412109 L 209.729980 85.335938 Z " fill="rgb(0, 0, 0)" fill-opacity="1.000000" />
<path d="M 209.892578 85.335938 L 209.892578 84.412109 L 216.729980 84.412109 L 216.729980 85.335938 Z " fill="rgb(0, 0, 0)" fill-opacity="1.000000" />
<path d="M 216.892578 85.335938 L 216.892578 84.412109 L 223.729980 84.412109 L 223.729980 85.335938 Z " fill="rgb(0, 0, 0)" fill-opacity="1.000000" />
<path d="M 223.892578 85.335938 L 223.892578 84.412109 L 226.878906 84.412109 L 226.878906 77.300781 L 227.738281 77.300781 L 227.738281 85.335938 Z " fill="rgb(0, 0, 0)" fill-opacity="1.000000" />
<path d="M 296.878906 85.335938 L 296.878906 77.300781 L 297.738281 77.300781 L 297.738281 84.412109 L 300.729980 84.412109 L 300.729980 85.335938 Z " fill="rgb(0, 0, 0)" fill-opacity="1.000000" />
<path d="M 300.892578 85.335938 L 300.892578 84.412109 L 307.729980 84.412109 L 307.729980 85.335938 Z " fill="rgb(0, 0, 0)" fill-opacity="1.000000" />
<path d="M 307.892578 85.335938 L 307.892578 84.412109 L 314.729980 84.412109 L 314.729980 85.335938 Z " fill="rgb(0, 0, 0)" fill-opacity="1.000000" />
<path d="M 314.892578 85.335938 L 314.892578 84.412109 L 321.729980 84.412109 L 321.729980 85.335938 Z " fill="rgb(0, 0, 0)" fill-opacity="1.000000" />
<path d="M 321.892578 85.335938 L 321.892578 84.412109 L 324.878906 84.412109 L 324.878906 77.300781 L 325.738281 77.300781 L 325.738281 84.412109 L 328.729980 84.412109 L 328.729980 85.335938 Z " fill="rgb(0, 0, 0)" fill-opacity="1.000000" />
<path d="M 328.892578 85.335938 L 328.892578 84.412109 L 335.729980 84.412109 L 335.729980 85.335938 Z " fill="rgb(0, 0, 0)" fill-opacity="1.000000" />
<path d="M 335.892578 85.335938 L 335.892578 84.412109 L 342.729980 84.412109 L 342.729980 85.335938 Z " fill="rgb(0, 0, 0)" fill-opacity="1.000000" />
<path d="M 342.892578 85.335938 L 342.892578 84.412109 L 349.729980 84.412109 L 349.729980 85.335938 Z " fill="rgb(0, 0, 0)" fill-opacity="1.000000" />
<path d="M 349.892578 85.335938 L 349.892578 84.412109 L 352.878906 84.412109 L 352.878906 77.300781 L 353.738281 77.300781 L 353.738281 84.412109 L 356.729980 84.412109 L 356.729980 85.335938 Z " fill="rgb(0, 0, 0)" fill-opacity="1.000000" />
<path d="M 356.892578 85.335938 L 356.892578 84.412109 L 363.729980 84.412109 L 363.729980 85.335938 Z " fill="rgb(0, 0, 0)" fill-opacity="1.000000" />
<path d="M 363.892578 85.335938 L 363.892578 84.412109 L 370.729980 84.412109 L 370.729980 85.335938 Z " fill="rgb(0, 0, 0)" fill-opacity="1.000000" />
<path d="M 370.892578 85.335938 L 370.892578 84.412109 L 377.729980 84.412109 L 377.729980 85.335938 Z " fill="rgb(0, 0, 0)" fill-opacity="1.000000" />
<path d="M 377.892578 85.335938 L 377.892578 84.412109 L 380.878906 84.412109 L 380.878906 77.300781 L 381.738281 77.300781 L 381.738281 85.335938 Z " fill="rgb(0, 0, 0)" fill-opacity="1.000000" />
<path d="M 29.981934 70.955566 L 29.981934 74.108398 L 31.265625 74.108398 Q 32.210938 74.108398 32.613770 73.778076 Q 33.016602 73.447754 33.016602 72.690430 Q 33.016602 71.691406 32.592285 71.323486 Q 32.167969 70.955566 31.265625 70.955566 Z M 29.981934 67.872559 L 29.981934 70.074707 L 31.244141 70.074707 Q 32.028320 70.074707 32.380127 69.773926 Q 32.731934 69.473145 32.731934 69.016602 Q 32.731934 68.409668 32.385498 68.141113 Q 32.039062 67.872559 31.244141 67.872559 Z M 28.891602 66.980957 L 31.265625 66.980957 Q 32.495605 66.980957 33.161621 67.512695 Q 33.827637 68.044434 33.827637 69.016602 Q 33.827637 69.537598 33.475830 69.961914 Q 33.124023 70.386230 32.420410 70.493652 Q 33.209961 70.611816 33.658447 71.167725 Q 34.106934 71.723633 34.106934 72.797852 Q 34.106934 73.888184 33.392578 74.444092 Q 32.678223 75.000000 31.265625 75.000000 L 28.891602 75.000000 Z " fill="rgb(170, 120, 0)" fill-opacity="1.000000" />
<path d="M 44.878906 78.319336 L 44.878906 64.300781 L 45.738281 64.300781 L 45.738281 78.319336 Z " fill="rgb(0, 0, 0)" fill-opacity="1.000000" />
<path d="M 57.450195 74.092285 L 59.136719 74.092285 L 59.136719 68.033691 L 57.117188 69.005859 L 57.117188 67.963867 L 59.125977 67.007812 L 60.210938 67.007812 L 60.210938 74.092285 L 61.875977 74.092285 L 61.875977 75.000000 L 57.450195 75.000000 Z " fill="rgb(0, 0, 0)" fill-opacity="1.000000" />
<path d="M 72.878906 78.319336 L 72.878906 64.300781 L 73.738281 64.300781 L 73.738281 78.319336 Z " fill="rgb(0, 0, 0)" fill-opacity="1.000000" />
<path d="M 170.878906 78.319336 L 170.878906 64.300781 L 171.738281 64.300781 L 171.738281 78.319336 Z " fill="rgb(0, 0, 0)" fill-opacity="1.000000" />
<path d="M 185.308594 67.937012 L 184.164551 72.040527 L 186.452637 72.040527 Z M 184.653320 66.980957 L 185.969238 66.980957 L 188.423828 75.000000 L 187.301270 75.000000 L 186.710449 72.910645 L 183.901367 72.910645 L 183.321289 75.000000 L 182.198730 75.000000 Z " fill="rgb(0, 118, 0)" fill-opacity="1.000000" />
<path d="M 198.878906 78.319336 L 198.878906 64.300781 L 199.738281 64.300781 L 199.738281 78.319336 Z " fill="rgb(0, 0, 0)" fill-opacity="1.000000" />
<path d="M 212.003418 74.086914 L 215.687988 74.086914 L 215.687988 75.000000 L 210.816406 75.000000 L 210.816406 74.086914 Q 211.820801 73.028809 212.572754 72.217773 Q 213.324707 71.406738 213.609375 71.073730 Q 214.146484 70.418457 214.334473 70.012939 Q 214.522461 69.607422 214.522461 69.183105 Q 214.522461 68.511719 214.127686 68.130371 Q 213.732910 67.749023 213.045410 67.749023 Q 212.556641 67.749023 212.019531 67.926270 Q 211.482422 68.103516 210.880859 68.463379 L 210.880859 67.367676 Q 211.434082 67.104492 211.968506 66.970215 Q 212.502930 66.835938 213.023926 66.835938 Q 214.200195 66.835938 214.917236 67.461670 Q 215.634277 68.087402 215.634277 69.102539 Q 215.634277 69.618164 215.395264 70.133789 Q 215.156250 70.649414 214.619141 71.272461 Q 214.318359 71.621582 213.746338 72.239258 Q 213.174316 72.856934 212.003418 74.086914 Z " fill="rgb(0, 0, 0)" fill-opacity="1.000000" />
<path d="M 226.878906 78.319336 L 226.878906 64.300781 L 227.738281 64.300781 L 227.738281 78.319336 Z " fill="rgb(0, 0, 0)" fill-opacity="1.000000" />
<path d="M 296.878906 78.319336 L 296.878906 64.300781 L 297.738281 64.300781 L 297.738281 78.319336 Z " fill="rgb(0, 0, 0)" fill-opacity="1.000000" />
<path d="M 309.981934 70.955566 L 309.981934 74.108398 L 311.265625 74.108398 Q 312.210938 74.108398 312.613770 73.778076 Q 313.016602 73.447754 313.016602 72.690430 Q 313.016602 71.691406 312.592285 71.323486 Q 312.167969 70.955566 311.265625 70.955566 Z M 309.981934 67.872559 L 309.981934 70.074707 L 311.244141 70.074707 Q 312.028320 70.074707 312.380127 69.773926 Q 312.731934 69.473145 312.731934 69.016602 Q 312.731934 68.409668 312.385498 68.141113 Q 312.039062 67.872559 311.244141 67.872559 Z M 308.891602 66.980957 L 311.265625 66.980957 Q 312.495605 66.980957 313.161621 67.512695 Q 313.827637 68.044434 313.827637 69.016602 Q 313.827637 69.537598 313.475830 69.961914 Q 313.124023 70.386230 312.420410 70.493652 Q 313.209961 70.611816 313.658447 71.167725 Q 314.106934 71.723633 314.106934 72.797852 Q 314.106934 73.888184 313.392578 74.444092 Q 312.678223 75.000000 311.265625 75.000000 L 308.891602 75.000000 Z " fill="rgb(170, 120, 0)" fill-opacity="1.000000" />
<path d="M 324.878906 78.319336 L 324.878906 64.300781 L 325.738281 64.300781 L 325.738281 78.319336 Z " fill="rgb(0, 0, 0)" fill-opacity="1.000000" />
<path d="M 337.450195 74.092285 L 339.136719 74.092285 L 339.136719 68.033691 L 337.117188 69.005859 L 337.117188 67.963867 L 339.125977 67.007812 L 340.210938 67.007812 L 340.210938 74.092285 L 341.875977 74.092285 L 341.875977 75.000000 L 337.450195 75.000000 Z " fill="rgb(0, 0, 0)" fill-opacity="1.000000" />
<path d="M 352.878906 78.319336 L 352.878906 64.300781 L 353.738281 64.300781 L 353.738281 78.319336 Z " fill="rgb(0, 0, 0)" fill-opacity="1.000000" />
<path d="M 365.450195 74.092285 L 367.136719 74.092285 L 367.136719 68.033691 L 365.117188 69.005859 L 365.117188 67.963867 L 367.125977 67.007812 L 368.210938 67.007812 L 368.210938 74.092285 L 369.875977 74.092285 L 369.875977 75.000000 L 365.450195 75.000000 Z " fill="rgb(0, 0, 0)" fill-opacity="1.000000" />
<path d="M 380.878906 78.319336 L 380.878906 64.300781 L 381.738281 64.300781 L 381.738281 78.319336 Z " fill="rgb(0, 0, 0)" fill-opacity="1.000000" />
<path d="M 20.892578 59.335938 L 20.892578 58.412109 L 27.729980 58.412109 L 27.729980 59.335938 Z " fill="rgb(0, 0, 0)" fill-opacity="1.000000" />
<path d="M 27.892578 59.335938 L 27.892578 58.412109 L 34.729980 58.412109 L 34.729980 59.335938 Z " fill="rgb(0, 0, 0)" fill-opacity="1.000000" />
<path d="M 34.892578 59.335938 L 34.892578 58.412109 L 41.729980 58.412109 L 41.729980 59.335938 Z " fill="rgb(0, 0, 0)" fill-opacity="1.000000" />
<path d="M 45.738281 59.335938 L 45.738281 65.319336 L 44.878906 65.319336 L 44.878906 59.335938 L 41.892578 59.335938 L 41.892578 58.412109 L 44.878906 58.412109 L 44.878906 51.300781 L 45.738281 51.300781 L 45.738281 58.412109 L 48.729980 58.412109 L 48.729980 59.335938 Z " fill="rgb(0, 0, 0)" fill-opacity="1.000000" />
<path d="M 48.892578 59.335938 L 48.892578 58.412109 L 55.729980 58.412109 L 55.729980 59.335938 Z " fill="rgb(0, 0, 0)" fill-opacity="1.000000" />
<path d="M 55.892578 59.335938 L 55.892578 58.412109 L 62.729980 58.412109 L 62.729980 59.335938 Z " fill="rgb(0, 0, 0)" fill-opacity="1.000000" />
<path d="M 62.892578 59.335938 L 62.892578 58.412109 L 69.729980 58.412109 L 69.729980 59.335938 Z " fill="rgb(0, 0, 0)" fill-opacity="1.000000" />
<path d="M 72.878906 65.319336 L 72.878906 59.335938 L 69.892578 59.335938 L 69.892578 58.412109 L 72.878906 58.412109 L 72.878906 51.300781 L 73.738281 51.300781 L 73.738281 65.319336 Z " fill="rgb(0, 0, 0)" fill-opacity="1.000000" />
<path d="M 170.878906 65.319336 L 170.878906 51.300781 L 171.738281 51.300781 L 171.738281 58.412109 L 174.729980 58.412109 L 174.729980 59.335938 L 171.738281 59.335938 L 171.738281 65.319336 Z " fill="rgb(0, 0, 0)" fill-opacity="1.000000" />
<path d="M 174.892578 59.335938 L 174.892578 58.412109 L 181.729980 58.412109 L 181.729980 59.335938 Z " fill="rgb(0, 0, 0)" fill-opacity="1.000000" />
<path d="M 181.892578 59.335938 L 181.892578 58.412109 L 188.729980 58.412109 L 188.729980 59.335938 Z " fill="rgb(0, 0, 0)" fill-opacity="1.000000" />
<path d="M 188.892578 59.335938 L 188.892578 58.412109 L 195.729980 58.412109 L 195.729980 59.335938 Z " fill="rgb(0, 0, 0)" fill-opacity="1.000000" />
<path d="M 199.738281 59.335938 L 199.738281 65.319336 L 198.878906 65.319336 L 198.878906 59.335938 L 195.892578 59.335938 L 195.892578 58.412109 L 198.878906 58.412109 L 198.878906 51.300781 L 199.738281 51.300781 L 199.738281 58.412109 L 202.729980 58.412109 L 202.729980 59.335938 Z " fill="rgb(0, 0, 0)" fill-opacity="1.000000" />
<path d="M 202.892578 59.335938 L 202.892578 58.412109 L 209.729980 58.412109 L 209.729980 59.335938 Z " fill="rgb(0, 0, 0)" fill-opacity="1.000000" />
<path d="M 209.892578 59.335938 L 209.892578 58.412109 L 216.729980 58.412109 L 216.729980 59.335938 Z " fill="rgb(0, 0, 0)" fill-opacity="1.000000" />
<path d="M 216.892578 59.335938 L 216.892578 58.412109 L 223.729980 58.412109 L 223.729980 59.335938 Z " fill="rgb(0, 0, 0)" fill-opacity="1.000000" />
<path d="M 226.878906 65.319336 L 226.878906 59.335938 L 223.892578 59.335938 L 223.892578 58.412109 L 226.878906 58.412109 L 226.878906 51.300781 L 227.738281 51.300781 L 227.738281 65.319336 Z " fill="rgb(0, 0, 0)" fill-opacity="1.000000" />
<path d="M 254.878906 59.335938 L 254.878906 51.300781 L 255.738281 51.300781 L 255.738281 58.412109 L 258.729980 58.412109 L 258.729980 59.335938 Z " fill="rgb(254, 255, 255)" fill-opacity="1.000000" />
<path d="M 258.892578 59.335938 L 258.892578 58.412109 L 265.729980 58.412109 L 265.729980 59.335938 Z " fill="rgb(254, 255, 255)" fill-opacity="1.000000" />
<path d="M 265.892578 59.335938 L 265.892578 58.412109 L 268.878906 58.412109 L 268.878906 51.300781 L 269.738281 51.300781 L 269.738281 59.335938 Z " fill="rgb(254, 255, 255)" fill-opacity="1.000000" />
<path d="M 296.878906 65.319336 L 296.878906 51.300781 L 297.738281 51.300781 L 297.738281 58.412109 L 300.729980 58.412109 L 300.729980 59.335938 L 297.738281 59.335938 L 297.738281 65.319336 Z " fill="rgb(0, 0, 0)" fill-opacity="1.000000" />
<path d="M 300.892578 59.335938 L 300.892578 58.412109 L 307.729980 58.412109 L 307.729980 59.335938 Z " fill="rgb(0, 0, 0)" fill-opacity="1.000000" />
<path d="M 307.892578 59.335938 L 307.892578 58.412109 L 314.729980 58.412109 L 314.729980 59.335938 Z " fill="rgb(0, 0, 0)" fill-opacity="1.000000" />
<path d="M 314.892578 59.335938 L 314.892578 58.412109 L 321.729980 58.412109 L 321.729980 59.335938 Z " fill="rgb(0, 0, 0)" fill-opacity="1.000000" />
<path d="M 325.738281 59.335938 L 325.738281 65.319336 L 324.878906 65.319336 L 324.878906 59.335938 L 321.892578 59.335938 L 321.892578 58.412109 L 324.878906 58.412109 L 324.878906 51.300781 L 325.738281 51.300781 L 325.738281 58.412109 L 328.729980 58.412109 L 328.729980 59.335938 Z " fill="rgb(0, 0, 0)" fill-opacity="1.000000" />
<path d="M 328.892578 59.335938 L 328.892578 58.412109 L 335.729980 58.412109 L 335.729980 59.335938 Z " fill="rgb(0, 0, 0)" fill-opacity="1.000000" />
<path d="M 335.892578 59.335938 L 335.892578 58.412109 L 342.729980 58.412109 L 342.729980 59.335938 Z " fill="rgb(0, 0, 0)" fill-opacity="1.000000" />
<path d="M 342.892578 59.335938 L 342.892578 58.412109 L 349.729980 58.412109 L 349.729980 59.335938 Z " fill="rgb(0, 0, 0)" fill-opacity="1.000000" />
<path d="M 353.738281 59.335938 L 353.738281 65.319336 L 352.878906 65.319336 L 352.878906 59.335938 L 349.892578 59.335938 L 349.892578 58.412109 L 352.878906 58.412109 L 352.878906 51.300781 L 353.738281 51.300781 L 353.738281 58.412109 L 356.729980 58.412109 L 356.729980 59.335938 Z " fill="rgb(0, 0, 0)" fill-opacity="1.000000" />
<path d="M 356.892578 59.335938 L 356.892578 58.412109 L 363.729980 58.412109 L 363.729980 59.335938 Z " fill="rgb(0, 0, 0)" fill-opacity="1.000000" />
<path d="M 363.892578 59.335938 L 363.892578 58.412109 L 370.729980 58.412109 L 370.729980 59.335938 Z " fill="rgb(0, 0, 0)" fill-opacity="1.000000" />
<path d="M 370.892578 59.335938 L 370.892578 58.412109 L 377.729980 58.412109 L 377.729980 59.335938 Z " fill="rgb(0, 0, 0)" fill-opacity="1.000000" />
<path d="M 380.878906 65.319336 L 380.878906 59.335938 L 377.892578 59.335938 L 377.892578 58.412109 L 380.878906 58.412109 L 380.878906 51.300781 L 381.738281 51.300781 L 381.738281 65.319336 Z " fill="rgb(0, 0, 0)" fill-opacity="1.000000" />
<path d="M 31.308594 41.937012 L 30.164551 46.040527 L 32.452637 46.040527 Z M 30.653320 40.980957 L 31.969238 40.980957 L 34.423828 49.000000 L 33.301270 49.000000 L 32.710449 46.910645 L 29.901367 46.910645 L 29.321289 49.000000 L 28.198730 49.000000 Z " fill="rgb(64, 118, 0)" fill-opacity="1.000000" />
<path d="M 44.878906 52.319336 L 44.878906 38.300781 L 45.738281 38.300781 L 45.738281 52.319336 Z " fill="rgb(0, 0, 0)" fill-opacity="1.000000" />
<path d="M 58.003418 48.086914 L 61.687988 48.086914 L 61.687988 49.000000 L 56.816406 49.000000 L 56.816406 48.086914 Q 57.820801 47.028809 58.572754 46.217773 Q 59.324707 45.406738 59.609375 45.073730 Q 60.146484 44.418457 60.334473 44.012939 Q 60.522461 43.607422 60.522461 43.183105 Q 60.522461 42.511719 60.127686 42.130371 Q 59.732910 41.749023 59.045410 41.749023 Q 58.556641 41.749023 58.019531 41.926270 Q 57.482422 42.103516 56.880859 42.463379 L 56.880859 41.367676 Q 57.434082 41.104492 57.968506 40.970215 Q 58.502930 40.835938 59.023926 40.835938 Q 60.200195 40.835938 60.917236 41.461670 Q 61.634277 42.087402 61.634277 43.102539 Q 61.634277 43.618164 61.395264 44.133789 Q 61.156250 44.649414 60.619141 45.272461 Q 60.318359 45.621582 59.746338 46.239258 Q 59.174316 46.856934 58.003418 48.086914 Z " fill="rgb(0, 0, 0)" fill-opacity="1.000000" />
<path d="M 72.878906 52.319336 L 72.878906 38.300781 L 73.738281 38.300781 L 73.738281 52.319336 Z " fill="rgb(0, 0, 0)" fill-opacity="1.000000" />
<path d="M 84.032227 46.142578 L 90.590332 42.866211 L 90.590332 49.418945 Z " fill="rgb(0, 0, 0)" fill-opacity="1.000000" />
<path d="M 90.892578 45.412109 L 90.892578 44.488281 L 97.729980 44.488281 L 97.729980 45.412109 Z M 90.892578 47.259766 L 90.892578 46.335938 L 97.729980 46.335938 L 97.729980 47.259766 Z " fill="rgb(0, 0, 0)" fill-opacity="1.000000" />
<path d="M 97.892578 45.412109 L 97.892578 44.488281 L 104.729980 44.488281 L 104.729980 45.412109 Z M 97.892578 47.259766 L 97.892578 46.335938 L 104.729980 46.335938 L 104.729980 47.259766 Z " fill="rgb(0, 0, 0)" fill-opacity="1.000000" />
<path d="M 104.892578 45.412109 L 104.892578 44.488281 L 111.729980 44.488281 L 111.729980 45.412109 Z M 104.892578 47.259766 L 104.892578 46.335938 L 111.729980 46.335938 L 111.729980 47.259766 Z " fill="rgb(0, 0, 0)" fill-opacity="1.000000" />
<path d="M 111.892578 45.412109 L 111.892578 44.488281 L 118.729980 44.488281 L 118.729980 45.412109 Z M 111.892578 47.259766 L 111.892578 46.335938 L 118.729980 46.335938 L 118.729980 47.259766 Z " fill="rgb(0, 0, 0)" fill-opacity="1.000000" />
<path d="M 118.892578 45.412109 L 118.892578 44.488281 L 125.729980 44.488281 L 125.729980 45.412109 Z M 118.892578 47.259766 L 118.892578 46.335938 L 125.729980 46.335938 L 125.729980 47.259766 Z " fill="rgb(0, 0, 0)" fill-opacity="1.000000" />
<path d="M 125.892578 45.412109 L 125.892578 44.488281 L 132.729980 44.488281 L 132.729980 45.412109 Z M 125.892578 47.259766 L 125.892578 46.335938 L 132.729980 46.335938 L 132.729980 47.259766 Z " fill="rgb(0, 0, 0)" fill-opacity="1.000000" />
<path d="M 132.892578 45.412109 L 132.892578 44.488281 L 139.729980 44.488281 L 139.729980 45.412109 Z M 132.892578 47.259766 L 132.892578 46.335938 L 139.729980 46.335938 L 139.729980 47.259766 Z " fill="rgb(0, 0, 0)" fill-opacity="1.000000" />
<path d="M 139.892578 45.412109 L 139.892578 44.488281 L 146.729980 44.488281 L 146.729980 45.412109 Z M 139.892578 47.259766 L 139.892578 46.335938 L 146.729980 46.335938 L 146.729980 47.259766 Z " fill="rgb(0, 0, 0)" fill-opacity="1.000000" />
<path d="M 146.892578 45.412109 L 146.892578 44.488281 L 153.729980 44.488281 L 153.729980 45.412109 Z M 146.892578 47.259766 L 146.892578 46.335938 L 153.729980 46.335938 L 153.729980 47.259766 Z " fill="rgb(0, 0, 0)" fill-opacity="1.000000" />
<path d="M 154.032227 49.418945 L 154.032227 42.866211 L 160.590332 46.142578 Z " fill="rgb(0, 0, 0)" fill-opacity="1.000000" />
<path d="M 170.878906 52.319336 L 170.878906 38.300781 L 171.738281 38.300781 L 171.738281 52.319336 Z " fill="rgb(0, 0, 0)" fill-opacity="1.000000" />
<path d="M 183.981934 44.955566 L 183.981934 48.108398 L 185.265625 48.108398 Q 186.210938 48.108398 186.613770 47.778076 Q 187.016602 47.447754 187.016602 46.690430 Q 187.016602 45.691406 186.592285 45.323486 Q 186.167969 44.955566 185.265625 44.955566 Z M 183.981934 41.872559 L 183.981934 44.074707 L 185.244141 44.074707 Q 186.028320 44.074707 186.380127 43.773926 Q 186.731934 43.473145 186.731934 43.016602 Q 186.731934 42.409668 186.385498 42.141113 Q 186.039062 41.872559 185.244141 41.872559 Z M 182.891602 40.980957 L 185.265625 40.980957 Q 186.495605 40.980957 187.161621 41.512695 Q 187.827637 42.044434 187.827637 43.016602 Q 187.827637 43.537598 187.475830 43.961914 Q 187.124023 44.386230 186.420410 44.493652 Q 187.209961 44.611816 187.658447 45.167725 Q 188.106934 45.723633 188.106934 46.797852 Q 188.106934 47.888184 187.392578 48.444092 Q 186.678223 49.000000 185.265625 49.000000 L 182.891602 49.000000 Z " fill="rgb(170, 120, 0)" fill-opacity="1.000000" />
<path d="M 198.878906 52.319336 L 198.878906 38.300781 L 199.738281 38.300781 L 199.738281 52.319336 Z " fill="rgb(0, 0, 0)" fill-opacity="1.000000" />
<path d="M 211.450195 48.092285 L 213.136719 48.092285 L 213.136719 42.033691 L 211.117188 43.005859 L 211.117188 41.963867 L 213.125977 41.007812 L 214.210938 41.007812 L 214.210938 48.092285 L 215.875977 48.092285 L 215.875977 49.000000 L 211.450195 49.000000 Z " fill="rgb(0, 0, 0)" fill-opacity="1.000000" />
<path d="M 226.878906 52.319336 L 226.878906 38.300781 L 227.738281 38.300781 L 227.738281 52.319336 Z " fill="rgb(0, 0, 0)" fill-opacity="1.000000" />
<path d="M 254.878906 52.319336 L 254.878906 38.300781 L 255.738281 38.300781 L 255.738281 52.319336 Z " fill="rgb(254, 255, 255)" fill-opacity="1.000000" />
<path d="M 259.472656 46.314453 L 265.149902 46.314453 L 265.149902 47.222168 L 259.472656 47.222168 Z M 259.472656 43.784668 L 265.149902 43.784668 L 265.149902 44.692383 L 259.472656 44.692383 Z " fill="rgb(0, 0, 0)" fill-opacity="1.000000" />
<path d="M 268.878906 52.319336 L 268.878906 38.300781 L 269.738281 38.300781 L 269.738281 52.319336 Z " fill="rgb(254, 255, 255)" fill-opacity="1.000000" />
<path d="M 296.878906 52.319336 L 296.878906 38.300781 L 297.738281 38.300781 L 297.738281 52.319336 Z " fill="rgb(0, 0, 0)" fill-opacity="1.000000" />
<path d="M 311.308594 41.937012 L 310.164551 46.040527 L 312.452637 46.040527 Z M 310.653320 40.980957 L 311.969238 40.980957 L 314.423828 49.000000 L 313.301270 49.000000 L 312.710449 46.910645 L 309.901367 46.910645 L 309.321289 49.000000 L 308.198730 49.000000 Z " fill="rgb(0, 118, 0)" fill-opacity="1.000000" />
<path d="M 324.878906 52.319336 L 324.878906 38.300781 L 325.738281 38.300781 L 325.738281 52.319336 Z " fill="rgb(0, 0, 0)" fill-opacity="1.000000" />
<path d="M 338.003418 48.086914 L 341.687988 48.086914 L 341.687988 49.000000 L 336.816406 49.000000 L 336.816406 48.086914 Q 337.820801 47.028809 338.572754 46.217773 Q 339.324707 45.406738 339.609375 45.073730 Q 340.146484 44.418457 340.334473 44.012939 Q 340.522461 43.607422 340.522461 43.183105 Q 340.522461 42.511719 340.127686 42.130371 Q 339.732910 41.749023 339.045410 41.749023 Q 338.556641 41.749023 338.019531 41.926270 Q 337.482422 42.103516 336.880859 42.463379 L 336.880859 41.367676 Q 337.434082 41.104492 337.968506 40.970215 Q 338.502930 40.835938 339.023926 40.835938 Q 340.200195 40.835938 340.917236 41.461670 Q 341.634277 42.087402 341.634277 43.102539 Q 341.634277 43.618164 341.395264 44.133789 Q 341.156250 44.649414 340.619141 45.272461 Q 340.318359 45.621582 339.746338 46.239258 Q 339.174316 46.856934 338.003418 48.086914 Z " fill="rgb(0, 0, 0)" fill-opacity="1.000000" />
<path d="M 352.878906 52.319336 L 352.878906 38.300781 L 353.738281 38.300781 L 353.738281 52.319336 Z " fill="rgb(0, 0, 0)" fill-opacity="1.000000" />
<path d="M 366.003418 48.086914 L 369.687988 48.086914 L 369.687988 49.000000 L 364.816406 49.000000 L 364.816406 48.086914 Q 365.820801 47.028809 366.572754 46.217773 Q 367.324707 45.406738 367.609375 45.073730 Q 368.146484 44.418457 368.334473 44.012939 Q 368.522461 43.607422 368.522461 43.183105 Q 368.522461 42.511719 368.127686 42.130371 Q 367.732910 41.749023 367.045410 41.749023 Q 366.556641 41.749023 366.019531 41.926270 Q 365.482422 42.103516 364.880859 42.463379 L 364.880859 41.367676 Q 365.434082 41.104492 365.968506 40.970215 Q 366.502930 40.835938 367.023926 40.835938 Q 368.200195 40.835938 368.917236 41.461670 Q 369.634277 42.087402 369.634277 43.102539 Q 369.634277 43.618164 369.395264 44.133789 Q 369.156250 44.649414 368.619141 45.272461 Q 368.318359 45.621582 367.746338 46.239258 Q 367.174316 46.856934 366.003418 48.086914 Z " fill="rgb(0, 0, 0)" fill-opacity="1.000000" />
<path d="M 380.878906 52.319336 L 380.878906 38.300781 L 381.738281 38.300781 L 381.738281 52.319336 Z " fill="rgb(0, 0, 0)" fill-opacity="1.000000" />
<path d="M 20.892578 33.335938 L 20.892578 32.412109 L 27.729980 32.412109 L 27.729980 33.335938 Z " fill="rgb(0, 0, 0)" fill-opacity="1.000000" />
<path d="M 27.892578 33.335938 L 27.892578 32.412109 L 34.729980 32.412109 L 34.729980 33.335938 Z " fill="rgb(0, 0, 0)" fill-opacity="1.000000" />
<path d="M 34.892578 33.335938 L 34.892578 32.412109 L 41.729980 32.412109 L 41.729980 33.335938 Z " fill="rgb(0, 0, 0)" fill-opacity="1.000000" />
<path d="M 44.878906 39.319336 L 44.878906 33.335938 L 41.892578 33.335938 L 41.892578 32.412109 L 48.729980 32.412109 L 48.729980 33.335938 L 45.738281 33.335938 L 45.738281 39.319336 Z " fill="rgb(0, 0, 0)" fill-opacity="1.000000" />
<path d="M 48.892578 33.335938 L 48.892578 32.412109 L 55.729980 32.412109 L 55.729980 33.335938 Z " fill="rgb(0, 0, 0)" fill-opacity="1.000000" />
<path d="M 55.892578 33.335938 L 55.892578 32.412109 L 62.729980 32.412109 L 62.729980 33.335938 Z " fill="rgb(0, 0, 0)" fill-opacity="1.000000" />
<path d="M 62.892578 33.335938 L 62.892578 32.412109 L 69.729980 32.412109 L 69.729980 33.335938 Z " fill="rgb(0, 0, 0)" fill-opacity="1.000000" />
<path d="M 72.878906 39.319336 L 72.878906 33.335938 L 69.892578 33.335938 L 69.892578 32.412109 L 72.878906 32.412109 L 72.878906 25.300781 L 73.738281 25.300781 L 73.738281 39.319336 Z " fill="rgb(0, 0, 0)" fill-opacity="1.000000" />
<path d="M 105.193359 28.007812 L 106.643555 28.007812 L 108.029297 32.079102 L 109.425781 28.007812 L 110.881348 28.007812 L 110.881348 36.000000 L 109.876953 36.000000 L 109.876953 28.937012 L 108.448242 33.147949 L 107.626465 33.147949 L 106.192383 28.937012 L 106.192383 36.000000 L 105.193359 36.000000 Z " fill="rgb(0, 0, 0)" fill-opacity="1.000000" />
<path d="M 113.058105 27.980957 L 117.816895 27.980957 L 117.816895 28.894043 L 114.143066 28.894043 L 114.143066 31.053223 L 117.655762 31.053223 L 117.655762 31.966309 L 114.143066 31.966309 L 114.143066 35.086914 L 117.918945 35.086914 L 117.918945 36.000000 L 113.058105 36.000000 Z " fill="rgb(0, 0, 0)" fill-opacity="1.000000" />
<path d="M 123.082031 32.213379 Q 123.500977 32.320801 123.796387 32.618896 Q 124.091797 32.916992 124.532227 33.808594 L 125.622559 36.000000 L 124.457031 36.000000 L 123.500977 33.975098 Q 123.087402 33.110352 122.757080 32.860596 Q 122.426758 32.610840 121.895020 32.610840 L 120.858398 32.610840 L 120.858398 36.000000 L 119.768066 36.000000 L 119.768066 27.980957 L 122.002441 27.980957 Q 123.323730 27.980957 124.027344 28.577148 Q 124.730957 29.173340 124.730957 30.301270 Q 124.730957 31.096191 124.298584 31.598389 Q 123.866211 32.100586 123.082031 32.213379 Z M 120.858398 28.872559 L 120.858398 31.719238 L 122.045410 31.719238 Q 122.824219 31.719238 123.205566 31.370117 Q 123.586914 31.020996 123.586914 30.301270 Q 123.586914 29.608398 123.181396 29.240479 Q 122.775879 28.872559 122.002441 28.872559 Z " fill="rgb(0, 0, 0)" fill-opacity="1.000000" />
<path d="M 131.929688 35.339355 Q 131.494629 35.742188 130.949463 35.948975 Q 130.404297 36.155762 129.770508 36.155762 Q 128.245117 36.155762 127.396484 35.062744 Q 126.547852 33.969727 126.547852 31.998535 Q 126.547852 30.032715 127.407227 28.934326 Q 128.266602 27.835938 129.797363 27.835938 Q 130.302246 27.835938 130.764160 27.978271 Q 131.226074 28.120605 131.655762 28.410645 L 131.655762 29.522461 Q 131.220703 29.108887 130.764160 28.912842 Q 130.307617 28.716797 129.797363 28.716797 Q 128.739258 28.716797 128.210205 29.535889 Q 127.681152 30.354980 127.681152 31.998535 Q 127.681152 33.668945 128.194092 34.471924 Q 128.707031 35.274902 129.770508 35.274902 Q 130.130371 35.274902 130.401611 35.191650 Q 130.672852 35.108398 130.893066 34.931152 L 130.893066 32.777344 L 129.727539 32.777344 L 129.727539 31.885742 L 131.929688 31.885742 Z " fill="rgb(0, 0, 0)" fill-opacity="1.000000" />
<path d="M 134.058105 27.980957 L 138.816895 27.980957 L 138.816895 28.894043 L 135.143066 28.894043 L 135.143066 31.053223 L 138.655762 31.053223 L 138.655762 31.966309 L 135.143066 31.966309 L 135.143066 35.086914 L 138.918945 35.086914 L 138.918945 36.000000 L 134.058105 36.000000 Z " fill="rgb(0, 0, 0)" fill-opacity="1.000000" />
<path d="M 170.878906 39.319336 L 170.878906 25.300781 L 171.738281 25.300781 L 171.738281 32.412109 L 174.729980 32.412109 L 174.729980 33.335938 L 171.738281 33.335938 L 171.738281 39.319336 Z " fill="rgb(0, 0, 0)" fill-opacity="1.000000" />
<path d="M 174.892578 33.335938 L 174.892578 32.412109 L 181.729980 32.412109 L 181.729980 33.335938 Z " fill="rgb(0, 0, 0)" fill-opacity="1.000000" />
<path d="M 181.892578 33.335938 L 181.892578 32.412109 L 188.729980 32.412109 L 188.729980 33.335938 Z " fill="rgb(0, 0, 0)" fill-opacity="1.000000" />
<path d="M 188.892578 33.335938 L 188.892578 32.412109 L 195.729980 32.412109 L 195.729980 33.335938 Z " fill="rgb(0, 0, 0)" fill-opacity="1.000000" />
<path d="M 198.878906 39.319336 L 198.878906 33.335938 L 195.892578 33.335938 L 195.892578 32.412109 L 202.729980 32.412109 L 202.729980 33.335938 L 199.738281 33.335938 L 199.738281 39.319336 Z " fill="rgb(0, 0, 0)" fill-opacity="1.000000" />
<path d="M 202.892578 33.335938 L 202.892578 32.412109 L 209.729980 32.412109 L 209.729980 33.335938 Z " fill="rgb(0, 0, 0)" fill-opacity="1.000000" />
<path d="M 209.892578 33.335938 L 209.892578 32.412109 L 216.729980 32.412109 L 216.729980 33.335938 Z " fill="rgb(0, 0, 0)" fill-opacity="1.000000" />
<path d="M 216.892578 33.335938 L 216.892578 32.412109 L 223.729980 32.412109 L 223.729980 33.335938 Z " fill="rgb(0, 0, 0)" fill-opacity="1.000000" />
<path d="M 226.878906 39.319336 L 226.878906 33.335938 L 223.892578 33.335938 L 223.892578 32.412109 L 226.878906 32.412109 L 226.878906 25.300781 L 227.738281 25.300781 L 227.738281 39.319336 Z " fill="rgb(0, 0, 0)" fill-opacity="1.000000" />
<path d="M 254.878906 39.319336 L 254.878906 32.412109 L 258.729980 32.412109 L 258.729980 33.335938 L 255.738281 33.335938 L 255.738281 39.319336 Z " fill="rgb(254, 255, 255)" fill-opacity="1.000000" />
<path d="M 258.892578 33.335938 L 258.892578 32.412109 L 265.729980 32.412109 L 265.729980 33.335938 Z " fill="rgb(254, 255, 255)" fill-opacity="1.000000" />
<path d="M 268.878906 39.319336 L 268.878906 33.335938 L 265.892578 33.335938 L 265.892578 32.412109 L 269.738281 32.412109 L 269.738281 39.319336 Z " fill="rgb(254, 255, 255)" fill-opacity="1.000000" />
<path d="M 296.878906 39.319336 L 296.878906 32.412109 L 300.729980 32.412109 L 300.729980 33.335938 L 297.738281 33.335938 L 297.738281 39.319336 Z " fill="rgb(0, 0, 0)" fill-opacity="1.000000" />
<path d="M 300.892578 33.335938 L 300.892578 32.412109 L 307.729980 32.412109 L 307.729980 33.335938 Z " fill="rgb(0, 0, 0)" fill-opacity="1.000000" />
<path d="M 307.892578 33.335938 L 307.892578 32.412109 L 314.729980 32.412109 L 314.729980 33.335938 Z " fill="rgb(0, 0, 0)" fill-opacity="1.000000" />
<path d="M 314.892578 33.335938 L 314.892578 32.412109 L 321.729980 32.412109 L 321.729980 33.335938 Z " fill="rgb(0, 0, 0)" fill-opacity="1.000000" />
<path d="M 325.738281 33.335938 L 325.738281 39.319336 L 324.878906 39.319336 L 324.878906 33.335938 L 321.892578 33.335938 L 321.892578 32.412109 L 324.878906 32.412109 L 324.878906 25.300781 L 325.738281 25.300781 L 325.738281 32.412109 L 328.729980 32.412109 L 328.729980 33.335938 Z " fill="rgb(0, 0, 0)" fill-opacity="1.000000" />
<path d="M 328.892578 33.335938 L 328.892578 32.412109 L 335.729980 32.412109 L 335.729980 33.335938 Z " fill="rgb(0, 0, 0)" fill-opacity="1.000000" />
<path d="M 335.892578 33.335938 L 335.892578 32.412109 L 342.729980 32.412109 L 342.729980 33.335938 Z " fill="rgb(0, 0, 0)" fill-opacity="1.000000" />
<path d="M 342.892578 33.335938 L 342.892578 32.412109 L 349.729980 32.412109 L 349.729980 33.335938 Z " fill="rgb(0, 0, 0)" fill-opacity="1.000000" />
<path d="M 353.738281 33.335938 L 353.738281 39.319336 L 352.878906 39.319336 L 352.878906 33.335938 L 349.892578 33.335938 L 349.892578 32.412109 L 352.878906 32.412109 L 352.878906 25.300781 L 353.738281 25.300781 L 353.738281 32.412109 L 356.729980 32.412109 L 356.729980 33.335938 Z " fill="rgb(0, 0, 0)" fill-opacity="1.000000" />
<path d="M 356.892578 33.335938 L 356.892578 32.412109 L 363.729980 32.412109 L 363.729980 33.335938 Z " fill="rgb(0, 0, 0)" fill-opacity="1.000000" />
<path d="M 363.892578 33.335938 L 363.892578 32.412109 L 370.729980 32.412109 L 370.729980 33.335938 Z " fill="rgb(0, 0, 0)" fill-opacity="1.000000" />
<path d="M 370.892578 33.335938 L 370.892578 32.412109 L 377.729980 32.412109 L 377.729980 33.335938 Z " fill="rgb(0, 0, 0)" fill-opacity="1.000000" />
<path d="M 380.878906 39.319336 L 380.878906 33.335938 L 377.892578 33.335938 L 377.892578 32.412109 L 380.878906 32.412109 L 380.878906 25.300781 L 381.738281 25.300781 L 381.738281 39.319336 Z " fill="rgb(0, 0, 0)" fill-opacity="1.000000" />
<path d="M 26.226074 17.193848 L 26.226074 18.160645 Q 25.801758 17.913574 25.372070 17.790039 Q 24.942383 17.666504 24.496582 17.666504 Q 23.825195 17.666504 23.494873 17.884033 Q 23.164551 18.101562 23.164551 18.547363 Q 23.164551 18.950195 23.411621 19.148926 Q 23.658691 19.347656 24.641602 19.535645 L 25.039062 19.610840 Q 25.774902 19.750488 26.153564 20.169434 Q 26.532227 20.588379 26.532227 21.259766 Q 26.532227 22.151367 25.898438 22.653564 Q 25.264648 23.155762 24.136719 23.155762 Q 23.690918 23.155762 23.202148 23.061768 Q 22.713379 22.967773 22.144043 22.779785 L 22.144043 21.759277 Q 22.697266 22.043945 23.202148 22.186279 Q 23.707031 22.328613 24.158203 22.328613 Q 24.813477 22.328613 25.173340 22.062744 Q 25.533203 21.796875 25.533203 21.318848 Q 25.533203 20.631348 24.217285 20.368164 L 24.174316 20.357422 L 23.803711 20.282227 Q 22.949707 20.115723 22.557617 19.720947 Q 22.165527 19.326172 22.165527 18.644043 Q 22.165527 17.779297 22.750977 17.309326 Q 23.336426 16.839355 24.421387 16.839355 Q 24.904785 16.839355 25.350586 16.927979 Q 25.796387 17.016602 26.226074 17.193848 Z " fill="rgb(0, 0, 0)" fill-opacity="1.000000" />
<path d="M 29.450195 22.092285 L 31.136719 22.092285 L 31.136719 16.033691 L 29.117188 17.005859 L 29.117188 15.963867 L 31.125977 15.007812 L 32.210938 15.007812 L 32.210938 22.092285 L 33.875977 22.092285 L 33.875977 23.000000 L 29.450195 23.000000 Z " fill="rgb(0, 0, 0)" fill-opacity="1.000000" />
<path d="M 72.878906 26.319336 L 72.878906 12.300781 L 73.738281 12.300781 L 73.738281 26.319336 Z " fill="rgb(0, 0, 0)" fill-opacity="1.000000" />
<path d="M 170.878906 26.319336 L 170.878906 12.300781 L 171.738281 12.300781 L 171.738281 26.319336 Z " fill="rgb(0, 0, 0)" fill-opacity="1.000000" />
<path d="M 180.226074 17.193848 L 180.226074 18.160645 Q 179.801758 17.913574 179.372070 17.790039 Q 178.942383 17.666504 178.496582 17.666504 Q 177.825195 17.666504 177.494873 17.884033 Q 177.164551 18.101562 177.164551 18.547363 Q 177.164551 18.950195 177.411621 19.148926 Q 177.658691 19.347656 178.641602 19.535645 L 179.039062 19.610840 Q 179.774902 19.750488 180.153564 20.169434 Q 180.532227 20.588379 180.532227 21.259766 Q 180.532227 22.151367 179.898438 22.653564 Q 179.264648 23.155762 178.136719 23.155762 Q 177.690918 23.155762 177.202148 23.061768 Q 176.713379 22.967773 176.144043 22.779785 L 176.144043 21.759277 Q 176.697266 22.043945 177.202148 22.186279 Q 177.707031 22.328613 178.158203 22.328613 Q 178.813477 22.328613 179.173340 22.062744 Q 179.533203 21.796875 179.533203 21.318848 Q 179.533203 20.631348 178.217285 20.368164 L 178.174316 20.357422 L 177.803711 20.282227 Q 176.949707 20.115723 176.557617 19.720947 Q 176.165527 19.326172 176.165527 18.644043 Q 176.165527 17.779297 176.750977 17.309326 Q 177.336426 16.839355 178.421387 16.839355 Q 178.904785 16.839355 179.350586 16.927979 Q 179.796387 17.016602 180.226074 17.193848 Z " fill="rgb(0, 0, 0)" fill-opacity="1.000000" />
<path d="M 184.003418 22.086914 L 187.687988 22.086914 L 187.687988 23.000000 L 182.816406 23.000000 L 182.816406 22.086914 Q 183.820801 21.028809 184.572754 20.217773 Q 185.324707 19.406738 185.609375 19.073730 Q 186.146484 18.418457 186.334473 18.012939 Q 186.522461 17.607422 186.522461 17.183105 Q 186.522461 16.511719 186.127686 16.130371 Q 185.732910 15.749023 185.045410 15.749023 Q 184.556641 15.749023 184.019531 15.926270 Q 183.482422 16.103516 182.880859 16.463379 L 182.880859 15.367676 Q 183.434082 15.104492 183.968506 14.970215 Q 184.502930 14.835938 185.023926 14.835938 Q 186.200195 14.835938 186.917236 15.461670 Q 187.634277 16.087402 187.634277 17.102539 Q 187.634277 17.618164 187.395264 18.133789 Q 187.156250 18.649414 186.619141 19.272461 Q 186.318359 19.621582 185.746338 20.239258 Q 185.174316 20.856934 184.003418 22.086914 Z " fill="rgb(0, 0, 0)" fill-opacity="1.000000" />
<path d="M 226.878906 26.319336 L 226.878906 12.300781 L 227.738281 12.300781 L 227.738281 26.319336 Z " fill="rgb(0, 0, 0)" fill-opacity="1.000000" />
<path d="M 324.878906 26.319336 L 324.878906 12.300781 L 325.738281 12.300781 L 325.738281 26.319336 Z " fill="rgb(0, 0, 0)" fill-opacity="1.000000" />
<path d="M 334.226074 17.193848 L 334.226074 18.160645 Q 333.801758 17.913574 333.372070 17.790039 Q 332.942383 17.666504 332.496582 17.666504 Q 331.825195 17.666504 331.494873 17.884033 Q 331.164551 18.101562 331.164551 18.547363 Q 331.164551 18.950195 331.411621 19.148926 Q 331.658691 19.347656 332.641602 19.535645 L 333.039062 19.610840 Q 333.774902 19.750488 334.153564 20.169434 Q 334.532227 20.588379 334.532227 21.259766 Q 334.532227 22.151367 333.898438 22.653564 Q 333.264648 23.155762 332.136719 23.155762 Q 331.690918 23.155762 331.202148 23.061768 Q 330.713379 22.967773 330.144043 22.779785 L 330.144043 21.759277 Q 330.697266 22.043945 331.202148 22.186279 Q 331.707031 22.328613 332.158203 22.328613 Q 332.813477 22.328613 333.173340 22.062744 Q 333.533203 21.796875 333.533203 21.318848 Q 333.533203 20.631348 332.217285 20.368164 L 332.174316 20.357422 L 331.803711 20.282227 Q 330.949707 20.115723 330.557617 19.720947 Q 330.165527 19.326172 330.165527 18.644043 Q 330.165527 17.779297 330.750977 17.309326 Q 331.336426 16.839355 332.421387 16.839355 Q 332.904785 16.839355 333.350586 16.927979 Q 333.796387 17.016602 334.226074 17.193848 Z " fill="rgb(0, 0, 0)" fill-opacity="1.000000" />
<path d="M 337.450195 22.092285 L 339.136719 22.092285 L 339.136719 16.033691 L 337.117188 17.005859 L 337.117188 15.963867 L 339.125977 15.007812 L 340.210938 15.007812 L 340.210938 22.092285 L 341.875977 22.092285 L 341.875977 23.000000 L 337.450195 23.000000 Z " fill="rgb(0, 0, 0)" fill-opacity="1.000000" />
<path d="M 352.878906 26.319336 L 352.878906 12.300781 L 353.738281 12.300781 L 353.738281 26.319336 Z " fill="rgb(0, 0, 0)" fill-opacity="1.000000" />
<path d="M 362.226074 17.193848 L 362.226074 18.160645 Q 361.801758 17.913574 361.372070 17.790039 Q 360.942383 17.666504 360.496582 17.666504 Q 359.825195 17.666504 359.494873 17.884033 Q 359.164551 18.101562 359.164551 18.547363 Q 359.164551 18.950195 359.411621 19.148926 Q 359.658691 19.347656 360.641602 19.535645 L 361.039062 19.610840 Q 361.774902 19.750488 362.153564 20.169434 Q 362.532227 20.588379 362.532227 21.259766 Q 362.532227 22.151367 361.898438 22.653564 Q 361.264648 23.155762 360.136719 23.155762 Q 359.690918 23.155762 359.202148 23.061768 Q 358.713379 22.967773 358.144043 22.779785 L 358.144043 21.759277 Q 358.697266 22.043945 359.202148 22.186279 Q 359.707031 22.328613 360.158203 22.328613 Q 360.813477 22.328613 361.173340 22.062744 Q 361.533203 21.796875 361.533203 21.318848 Q 361.533203 20.631348 360.217285 20.368164 L 360.174316 20.357422 L 359.803711 20.282227 Q 358.949707 20.115723 358.557617 19.720947 Q 358.165527 19.326172 358.165527 18.644043 Q 358.165527 17.779297 358.750977 17.309326 Q 359.336426 16.839355 360.421387 16.839355 Q 360.904785 16.839355 361.350586 16.927979 Q 361.796387 17.016602 362.226074 17.193848 Z " fill="rgb(0, 0, 0)" fill-opacity="1.000000" />
<path d="M 366.003418 22.086914 L 369.687988 22.086914 L 369.687988 23.000000 L 364.816406 23.000000 L 364.816406 22.086914 Q 365.820801 21.028809 366.572754 20.217773 Q 367.324707 19.406738 367.609375 19.073730 Q 368.146484 18.418457 368.334473 18.012939 Q 368.522461 17.607422 368.522461 17.183105 Q 368.522461 16.511719 368.127686 16.130371 Q 367.732910 15.749023 367.045410 15.749023 Q 366.556641 15.749023 366.019531 15.926270 Q 365.482422 16.103516 364.880859 16.463379 L 364.880859 15.367676 Q 365.434082 15.104492 365.968506 14.970215 Q 366.502930 14.835938 367.023926 14.835938 Q 368.200195 14.835938 368.917236 15.461670 Q 369.634277 16.087402 369.634277 17.102539 Q 369.634277 17.618164 369.395264 18.133789 Q 369.156250 18.649414 368.619141 19.272461 Q 368.318359 19.621582 367.746338 20.239258 Q 367.174316 20.856934 366.003418 22.086914 Z " fill="rgb(0, 0, 0)" fill-opacity="1.000000" />
<path d="M 380.878906 26.319336 L 380.878906 12.300781 L 381.738281 12.300781 L 381.738281 26.319336 Z " fill="rgb(0, 0, 0)" fill-opacity="1.000000" />
<path d="M 20.892578 7.335938 L 20.892578 6.412109 L 27.729980 6.412109 L 27.729980 7.335938 Z " fill="rgb(0, 0, 0)" fill-opacity="1.000000" />
<path d="M 27.892578 7.335938 L 27.892578 6.412109 L 34.729980 6.412109 L 34.729980 7.335938 Z " fill="rgb(0, 0, 0)" fill-opacity="1.000000" />
<path d="M 34.892578 7.335938 L 34.892578 6.412109 L 41.729980 6.412109 L 41.729980 7.335938 Z " fill="rgb(0, 0, 0)" fill-opacity="1.000000" />
<path d="M 41.892578 7.335938 L 41.892578 6.412109 L 48.729980 6.412109 L 48.729980 7.335938 Z " fill="rgb(0, 0, 0)" fill-opacity="1.000000" />
<path d="M 48.892578 7.335938 L 48.892578 6.412109 L 55.729980 6.412109 L 55.729980 7.335938 Z " fill="rgb(0, 0, 0)" fill-opacity="1.000000" />
<path d="M 55.892578 7.335938 L 55.892578 6.412109 L 62.729980 6.412109 L 62.729980 7.335938 Z " fill="rgb(0, 0, 0)" fill-opacity="1.000000" />
<path d="M 62.892578 7.335938 L 62.892578 6.412109 L 69.729980 6.412109 L 69.729980 7.335938 Z " fill="rgb(0, 0, 0)" fill-opacity="1.000000" />
<path d="M 72.878906 13.319336 L 72.878906 7.335938 L 69.892578 7.335938 L 69.892578 6.412109 L 73.738281 6.412109 L 73.738281 13.319336 Z " fill="rgb(0, 0, 0)" fill-opacity="1.000000" />
<path d="M 170.878906 13.319336 L 170.878906 6.412109 L 174.729980 6.412109 L 174.729980 7.335938 L 171.738281 7.335938 L 171.738281 13.319336 Z " fill="rgb(0, 0, 0)" fill-opacity="1.000000" />
<path d="M 174.892578 7.335938 L 174.892578 6.412109 L 181.729980 6.412109 L 181.729980 7.335938 Z " fill="rgb(0, 0, 0)" fill-opacity="1.000000" />
<path d="M 181.892578 7.335938 L 181.892578 6.412109 L 188.729980 6.412109 L 188.729980 7.335938 Z " fill="rgb(0, 0, 0)" fill-opacity="1.000000" />
<path d="M 188.892578 7.335938 L 188.892578 6.412109 L 195.729980 6.412109 L 195.729980 7.335938 Z " fill="rgb(0, 0, 0)" fill-opacity="1.000000" />
<path d="M 195.892578 7.335938 L 195.892578 6.412109 L 202.729980 6.412109 L 202.729980 7.335938 Z " fill="rgb(0, 0, 0)" fill-opacity="1.000000" />
<path d="M 202.892578 7.335938 L 202.892578 6.412109 L 209.729980 6.412109 L 209.729980 7.335938 Z " fill="rgb(0, 0, 0)" fill-opacity="1.000000" />
<path d="M 209.892578 7.335938 L 209.892578 6.412109 L 216.729980 6.412109 L 216.729980 7.335938 Z " fill="rgb(0, 0, 0)" fill-opacity="1.000000" />
<path d="M 216.892578 7.335938 L 216.892578 6.412109 L 223.729980 6.412109 L 223.729980 7.335938 Z " fill="rgb(0, 0, 0)" fill-opacity="1.000000" />
<path d="M 226.878906 13.319336 L 226.878906 7.335938 L 223.892578 7.335938 L 223.892578 6.412109 L 227.738281 6.412109 L 227.738281 13.319336 Z " fill="rgb(0, 0, 0)" fill-opacity="1.000000" />
<path d="M 324.878906 13.319336 L 324.878906 6.412109 L 328.729980 6.412109 L 328.729980 7.335938 L 325.738281 7.335938 L 325.738281 13.319336 Z " fill="rgb(0, 0, 0)" fill-opacity="1.000000" />
<path d="M 328.892578 7.335938 L 328.892578 6.412109 L 335.729980 6.412109 L 335.729980 7.335938 Z " fill="rgb(0, 0, 0)" fill-opacity="1.000000" />
<path d="M 335.892578 7.335938 L 335.892578 6.412109 L 342.729980 6.412109 L 342.729980 7.335938 Z " fill="rgb(0, 0, 0)" fill-opacity="1.000000" />
<path d="M 342.892578 7.335938 L 342.892578 6.412109 L 349.729980 6.412109 L 349.729980 7.335938 Z " fill="rgb(0, 0, 0)" fill-opacity="1.000000" />
<path d="M 352.878906 13.319336 L 352.878906 7.335938 L 349.892578 7.335938 L 349.892578 6.412109 L 356.729980 6.412109 L 356.729980 7.335938 L 353.738281 7.335938 L 353.738281 13.319336 Z " fill="rgb(0, 0, 0)" fill-opacity="1.000000" />
<path d="M 356.892578 7.335938 L 356.892578 6.412109 L 363.729980 6.412109 L 363.729980 7.335938 Z " fill="rgb(0, 0, 0)" fill-opacity="1.000000" />
<path d="M 363.892578 7.335938 L 363.892578 6.412109 L 370.729980 6.412109 L 370.729980 7.335938 Z " fill="rgb(0, 0, 0)" fill-opacity="1.000000" />
<path d="M 370.892578 7.335938 L 370.892578 6.412109 L 377.729980 6.412109 L 377.729980 7.335938 Z " fill="rgb(0, 0, 0)" fill-opacity="1.000000" />
<path d="M 380.878906 13.319336 L 380.878906 7.335938 L 377.892578 7.335938 L 377.892578 6.412109 L 381.738281 6.412109 L 381.738281 13.319336 Z " fill="rgb(0, 0, 0)" fill-opacity="1.000000" />
</svg>