<svg xmlns="http://www.w3.org/2000/svg" version="1.1" width="344" height="144">
<path d="M 2.878906 52.319336 L 2.878906 45.412109 L 6.729980 45.412109 L 6.729980 46.335938 L 3.738281 46.335938 L 3.738281 52.319336 Z " fill="rgb(0, 0, 0)" fill-opacity="1.000000" />
<path d="M 2.878906 65.319336 L 2.878906 51.300781 L 3.738281 51.300781 L 3.738281 65.319336 Z " fill="rgb(0, 0, 0)" fill-opacity="1.000000" />
<path d="M 2.878906 78.319336 L 2.878906 64.300781 L 3.738281 64.300781 L 3.738281 71.412109 L 6.729980 71.412109 L 6.729980 72.335938 L 3.738281 72.335938 L 3.738281 78.319336 Z " fill="rgb(0, 0, 0)" fill-opacity="1.000000" />
<path d="M 2.878906 91.319336 L 2.878906 77.300781 L 3.738281 77.300781 L 3.738281 91.319336 Z " fill="rgb(0, 0, 0)" fill-opacity="1.000000" />
<path d="M 2.878906 98.335938 L 2.878906 90.300781 L 3.738281 90.300781 L 3.738281 97.412109 L 6.729980 97.412109 L 6.729980 98.335938 Z " fill="rgb(0, 0, 0)" fill-opacity="1.000000" />
<path d="M 232.154785 118.980957 L 233.245117 118.980957 L 233.245117 126.086914 L 237.117676 126.086914 L 237.117676 127.000000 L 232.154785 127.000000 Z " fill="rgb(0, 0, 0)" fill-opacity="1.000000" />
<path d="M 282.878906 137.335938 L 282.878906 129.300781 L 283.738281 129.300781 L 283.738281 136.412109 L 286.729980 136.412109 L 286.729980 137.335938 Z " fill="rgb(0, 0, 0)" fill-opacity="1.000000" />
<path d="M 286.892578 137.335938 L 286.892578 136.412109 L 293.729980 136.412109 L 293.729980 137.335938 Z " fill="rgb(0, 0, 0)" fill-opacity="1.000000" />
<path d="M 293.892578 137.335938 L 293.892578 136.412109 L 300.729980 136.412109 L 300.729980 137.335938 Z " fill="rgb(0, 0, 0)" fill-opacity="1.000000" />
<path d="M 300.892578 137.335938 L 300.892578 136.412109 L 307.729980 136.412109 L 307.729980 137.335938 Z " fill="rgb(0, 0, 0)" fill-opacity="1.000000" />
<path d="M 307.892578 137.335938 L 307.892578 136.412109 L 310.878906 136.412109 L 310.878906 129.300781 L 311.738281 129.300781 L 311.738281 136.412109 L 314.729980 136.412109 L 314.729980 137.335938 Z " fill="rgb(0, 0, 0)" fill-opacity="1.000000" />
<path d="M 314.892578 137.335938 L 314.892578 136.412109 L 321.729980 136.412109 L 321.729980 137.335938 Z " fill="rgb(0, 0, 0)" fill-opacity="1.000000" />
<path d="M 321.892578 137.335938 L 321.892578 136.412109 L 328.729980 136.412109 L 328.729980 137.335938 Z " fill="rgb(0, 0, 0)" fill-opacity="1.000000" />
<path d="M 328.892578 137.335938 L 328.892578 136.412109 L 335.729980 136.412109 L 335.729980 137.335938 Z " fill="rgb(0, 0, 0)" fill-opacity="1.000000" />
<path d="M 335.892578 137.335938 L 335.892578 136.412109 L 338.878906 136.412109 L 338.878906 129.300781 L 339.738281 129.300781 L 339.738281 137.335938 Z " fill="rgb(0, 0, 0)" fill-opacity="1.000000" />
<path d="M 241.770508 123.976074 L 241.442871 123.976074 Q 240.578125 123.976074 240.140381 124.279541 Q 239.702637 124.583008 239.702637 125.184570 Q 239.702637 125.727051 240.030273 126.027832 Q 240.357910 126.328613 240.937988 126.328613 Q 241.754395 126.328613 242.221680 125.761963 Q 242.688965 125.195312 242.694336 124.196289 L 242.694336 123.976074 Z M 243.687988 123.567871 L 243.687988 127.000000 L 242.694336 127.000000 L 242.694336 126.108398 Q 242.377441 126.645508 241.896729 126.900635 Q 241.416016 127.155762 240.728516 127.155762 Q 239.810059 127.155762 239.262207 126.637451 Q 238.714355 126.119141 238.714355 125.249023 Q 238.714355 124.244629 239.388428 123.723633 Q 240.062500 123.202637 241.367676 123.202637 L 242.694336 123.202637 L 242.694336 123.046875 Q 242.688965 122.327148 242.329102 122.002197 Q 241.969238 121.677246 241.179688 121.677246 Q 240.674805 121.677246 240.159180 121.822266 Q 239.643555 121.967285 239.154785 122.246582 L 239.154785 121.258301 Q 239.702637 121.048828 240.204834 120.944092 Q 240.707031 120.839355 241.179688 120.839355 Q 241.926270 120.839355 242.455322 121.059570 Q 242.984375 121.279785 243.312012 121.720215 Q 243.516113 121.988770 243.602051 122.383545 Q 243.687988 122.778320 243.687988 123.567871 Z " fill="rgb(0, 0, 0)" fill-opacity="1.000000" />
<path d="M 249.930664 123.997559 Q 249.930664 122.848145 249.565430 122.262695 Q 249.200195 121.677246 248.485840 121.677246 Q 247.766113 121.677246 247.395508 122.265381 Q 247.024902 122.853516 247.024902 123.997559 Q 247.024902 125.136230 247.395508 125.727051 Q 247.766113 126.317871 248.485840 126.317871 Q 249.200195 126.317871 249.565430 125.732422 Q 249.930664 125.146973 249.930664 123.997559 Z M 247.024902 121.752441 Q 247.261230 121.312012 247.677490 121.075684 Q 248.093750 120.839355 248.641602 120.839355 Q 249.726562 120.839355 250.349609 121.674561 Q 250.972656 122.509766 250.972656 123.976074 Q 250.972656 125.463867 250.346924 126.309814 Q 249.721191 127.155762 248.630859 127.155762 Q 248.093750 127.155762 247.682861 126.922119 Q 247.271973 126.688477 247.024902 126.242676 L 247.024902 127.000000 L 246.036621 127.000000 L 246.036621 118.642578 L 247.024902 118.642578 Z " fill="rgb(0, 0, 0)" fill-opacity="1.000000" />
<path d="M 258.015625 123.498047 L 258.015625 123.981445 L 253.734863 123.981445 L 253.734863 124.013672 Q 253.691895 125.243652 254.204834 125.780762 Q 254.717773 126.317871 255.652344 126.317871 Q 256.125000 126.317871 256.640625 126.167480 Q 257.156250 126.017090 257.741699 125.710938 L 257.741699 126.693848 Q 257.177734 126.924805 256.654053 127.040283 Q 256.130371 127.155762 255.641602 127.155762 Q 254.239746 127.155762 253.450195 126.315186 Q 252.660645 125.474609 252.660645 123.997559 Q 252.660645 122.558105 253.434082 121.698730 Q 254.207520 120.839355 255.496582 120.839355 Q 256.645996 120.839355 257.309326 121.618164 Q 257.972656 122.396973 258.015625 123.498047 Z M 257.027344 123.208008 Q 256.962891 122.584961 256.573486 122.131104 Q 256.184082 121.677246 255.453613 121.677246 Q 254.739258 121.677246 254.277344 122.149902 Q 253.815430 122.622559 253.772461 123.213379 Z " fill="rgb(0, 0, 0)" fill-opacity="1.000000" />
<path d="M 262.861816 124.824707 Q 262.861816 125.490723 263.106201 125.829102 Q 263.350586 126.167480 263.828613 126.167480 L 264.983398 126.167480 L 264.983398 127.000000 L 263.731934 127.000000 Q 262.845703 127.000000 262.359619 126.433350 Q 261.873535 125.866699 261.873535 124.824707 L 261.873535 119.383789 L 260.289062 119.383789 L 260.289062 118.610352 L 262.861816 118.610352 Z " fill="rgb(0, 0, 0)" fill-opacity="1.000000" />
<path d="M 265.892578 124.335938 L 265.892578 123.412109 L 272.729980 123.412109 L 272.729980 124.335938 Z " fill="rgb(0, 0, 0)" fill-opacity="1.000000" />
<path d="M 272.892578 124.335938 L 272.892578 123.412109 L 279.729980 123.412109 L 279.729980 124.335938 Z " fill="rgb(0, 0, 0)" fill-opacity="1.000000" />
<path d="M 280.032227 127.418945 L 280.032227 120.866211 L 286.590332 124.142578 Z " fill="rgb(0, 0, 0)" fill-opacity="1.000000" />
<path d="M 298.608398 121.752441 L 298.608398 118.642578 L 299.596680 118.642578 L 299.596680 127.000000 L 298.608398 127.000000 L 298.608398 126.242676 Q 298.361328 126.688477 297.950439 126.922119 Q 297.539551 127.155762 297.002441 127.155762 Q 295.912109 127.155762 295.286377 126.309814 Q 294.660645 125.463867 294.660645 123.976074 Q 294.660645 122.509766 295.289062 121.674561 Q 295.917480 120.839355 297.002441 120.839355 Q 297.544922 120.839355 297.958496 121.072998 Q 298.372070 121.306641 298.608398 121.752441 Z M 295.702637 123.997559 Q 295.702637 125.146973 296.067871 125.732422 Q 296.433105 126.317871 297.147461 126.317871 Q 297.861816 126.317871 298.235107 125.727051 Q 298.608398 125.136230 298.608398 123.997559 Q 298.608398 122.853516 298.235107 122.265381 Q 297.861816 121.677246 297.147461 121.677246 Q 296.433105 121.677246 296.067871 122.262695 Q 295.702637 122.848145 295.702637 123.997559 Z " fill="rgb(147, 81, 0)" fill-opacity="1.000000" />
<path d="M 310.878906 130.319336 L 310.878906 116.300781 L 311.738281 116.300781 L 311.738281 130.319336 Z " fill="rgb(0, 0, 0)" fill-opacity="1.000000" />
<path d="M 323.111816 118.980957 L 327.172363 118.980957 L 327.172363 119.894043 L 324.100098 119.894043 L 324.100098 121.865234 Q 324.331055 121.779297 324.564697 121.739014 Q 324.798340 121.698730 325.034668 121.698730 Q 326.280762 121.698730 327.011230 122.434570 Q 327.741699 123.170410 327.741699 124.427246 Q 327.741699 125.694824 326.976318 126.425293 Q 326.210938 127.155762 324.884277 127.155762 Q 324.245117 127.155762 323.716064 127.069824 Q 323.187012 126.983887 322.768066 126.812012 L 322.768066 125.710938 Q 323.262207 125.979492 323.761719 126.111084 Q 324.261230 126.242676 324.782227 126.242676 Q 325.679199 126.242676 326.165283 125.770020 Q 326.651367 125.297363 326.651367 124.427246 Q 326.651367 123.567871 326.149170 123.089844 Q 325.646973 122.611816 324.750000 122.611816 Q 324.314941 122.611816 323.901367 122.711182 Q 323.487793 122.810547 323.111816 123.009277 Z " fill="rgb(0, 0, 0)" fill-opacity="1.000000" />
<path d="M 338.878906 130.319336 L 338.878906 116.300781 L 339.738281 116.300781 L 339.738281 130.319336 Z " fill="rgb(0, 0, 0)" fill-opacity="1.000000" />
<path d="M 282.878906 117.319336 L 282.878906 103.300781 L 283.738281 103.300781 L 283.738281 110.412109 L 286.729980 110.412109 L 286.729980 111.335938 L 283.738281 111.335938 L 283.738281 117.319336 Z " fill="rgb(0, 0, 0)" fill-opacity="1.000000" />
<path d="M 286.892578 111.335938 L 286.892578 110.412109 L 293.729980 110.412109 L 293.729980 111.335938 Z " fill="rgb(0, 0, 0)" fill-opacity="1.000000" />
<path d="M 293.892578 111.335938 L 293.892578 110.412109 L 300.729980 110.412109 L 300.729980 111.335938 Z " fill="rgb(0, 0, 0)" fill-opacity="1.000000" />
<path d="M 300.892578 111.335938 L 300.892578 110.412109 L 307.729980 110.412109 L 307.729980 111.335938 Z " fill="rgb(0, 0, 0)" fill-opacity="1.000000" />
<path d="M 311.738281 111.335938 L 311.738281 117.319336 L 310.878906 117.319336 L 310.878906 111.335938 L 307.892578 111.335938 L 307.892578 110.412109 L 310.878906 110.412109 L 310.878906 103.300781 L 311.738281 103.300781 L 311.738281 110.412109 L 314.729980 110.412109 L 314.729980 111.335938 Z " fill="rgb(0, 0, 0)" fill-opacity="1.000000" />
<path d="M 314.892578 111.335938 L 314.892578 110.412109 L 321.729980 110.412109 L 321.729980 111.335938 Z " fill="rgb(0, 0, 0)" fill-opacity="1.000000" />
<path d="M 321.892578 111.335938 L 321.892578 110.412109 L 328.729980 110.412109 L 328.729980 111.335938 Z " fill="rgb(0, 0, 0)" fill-opacity="1.000000" />
<path d="M 328.892578 111.335938 L 328.892578 110.412109 L 335.729980 110.412109 L 335.729980 111.335938 Z " fill="rgb(0, 0, 0)" fill-opacity="1.000000" />
<path d="M 338.878906 117.319336 L 338.878906 111.335938 L 335.892578 111.335938 L 335.892578 110.412109 L 338.878906 110.412109 L 338.878906 103.300781 L 339.738281 103.300781 L 339.738281 117.319336 Z " fill="rgb(0, 0, 0)" fill-opacity="1.000000" />
<path d="M 6.892578 98.335938 L 6.892578 97.412109 L 13.729980 97.412109 L 13.729980 98.335938 Z " fill="rgb(0, 0, 0)" fill-opacity="1.000000" />
<path d="M 13.892578 98.335938 L 13.892578 97.412109 L 20.729980 97.412109 L 20.729980 98.335938 Z " fill="rgb(0, 0, 0)" fill-opacity="1.000000" />
<path d="M 20.892578 98.335938 L 20.892578 97.412109 L 27.729980 97.412109 L 27.729980 98.335938 Z " fill="rgb(0, 0, 0)" fill-opacity="1.000000" />
<path d="M 27.892578 98.335938 L 27.892578 97.412109 L 30.878906 97.412109 L 30.878906 90.300781 L 31.738281 90.300781 L 31.738281 97.412109 L 34.729980 97.412109 L 34.729980 98.335938 Z " fill="rgb(0, 0, 0)" fill-opacity="1.000000" />
<path d="M 34.892578 98.335938 L 34.892578 97.412109 L 41.729980 97.412109 L 41.729980 98.335938 Z " fill="rgb(0, 0, 0)" fill-opacity="1.000000" />
<path d="M 41.892578 98.335938 L 41.892578 97.412109 L 48.729980 97.412109 L 48.729980 98.335938 Z " fill="rgb(0, 0, 0)" fill-opacity="1.000000" />
<path d="M 48.892578 98.335938 L 48.892578 97.412109 L 55.729980 97.412109 L 55.729980 98.335938 Z " fill="rgb(0, 0, 0)" fill-opacity="1.000000" />
<path d="M 55.892578 98.335938 L 55.892578 97.412109 L 58.878906 97.412109 L 58.878906 90.300781 L 59.738281 90.300781 L 59.738281 97.412109 L 62.729980 97.412109 L 62.729980 98.335938 Z " fill="rgb(0, 0, 0)" fill-opacity="1.000000" />
<path d="M 62.892578 98.335938 L 62.892578 97.412109 L 69.729980 97.412109 L 69.729980 98.335938 Z " fill="rgb(0, 0, 0)" fill-opacity="1.000000" />
<path d="M 69.892578 98.335938 L 69.892578 97.412109 L 76.729980 97.412109 L 76.729980 98.335938 Z " fill="rgb(0, 0, 0)" fill-opacity="1.000000" />
<path d="M 76.892578 98.335938 L 76.892578 97.412109 L 83.729980 97.412109 L 83.729980 98.335938 Z " fill="rgb(0, 0, 0)" fill-opacity="1.000000" />
<path d="M 83.892578 98.335938 L 83.892578 97.412109 L 86.878906 97.412109 L 86.878906 90.300781 L 87.738281 90.300781 L 87.738281 97.412109 L 90.729980 97.412109 L 90.729980 98.335938 Z " fill="rgb(0, 0, 0)" fill-opacity="1.000000" />
<path d="M 90.892578 98.335938 L 90.892578 97.412109 L 97.729980 97.412109 L 97.729980 98.335938 Z " fill="rgb(0, 0, 0)" fill-opacity="1.000000" />
<path d="M 97.892578 98.335938 L 97.892578 97.412109 L 104.729980 97.412109 L 104.729980 98.335938 Z " fill="rgb(0, 0, 0)" fill-opacity="1.000000" />
<path d="M 104.892578 98.335938 L 104.892578 97.412109 L 111.729980 97.412109 L 111.729980 98.335938 Z " fill="rgb(0, 0, 0)" fill-opacity="1.000000" />
<path d="M 111.892578 98.335938 L 111.892578 97.412109 L 114.878906 97.412109 L 114.878906 90.300781 L 115.738281 90.300781 L 115.738281 98.335938 Z " fill="rgb(0, 0, 0)" fill-opacity="1.000000" />
<path d="M 142.878906 98.335938 L 142.878906 90.300781 L 143.738281 90.300781 L 143.738281 97.412109 L 146.729980 97.412109 L 146.729980 98.335938 Z " fill="rgb(147, 81, 0)" fill-opacity="1.000000" />
<path d="M 146.892578 98.335938 L 146.892578 97.412109 L 153.729980 97.412109 L 153.729980 98.335938 Z " fill="rgb(147, 81, 0)" fill-opacity="1.000000" />
<path d="M 153.892578 98.335938 L 153.892578 97.412109 L 160.729980 97.412109 L 160.729980 98.335938 Z " fill="rgb(147, 81, 0)" fill-opacity="1.000000" />
<path d="M 160.892578 98.335938 L 160.892578 97.412109 L 167.729980 97.412109 L 167.729980 98.335938 Z " fill="rgb(147, 81, 0)" fill-opacity="1.000000" />
<path d="M 167.892578 98.335938 L 167.892578 97.412109 L 170.878906 97.412109 L 170.878906 90.300781 L 171.738281 90.300781 L 171.738281 97.412109 L 174.729980 97.412109 L 174.729980 98.335938 Z " fill="rgb(147, 81, 0)" fill-opacity="1.000000" />
<path d="M 174.892578 98.335938 L 174.892578 97.412109 L 181.729980 97.412109 L 181.729980 98.335938 Z " fill="rgb(147, 81, 0)" fill-opacity="1.000000" />
<path d="M 181.892578 98.335938 L 181.892578 97.412109 L 188.729980 97.412109 L 188.729980 98.335938 Z " fill="rgb(147, 81, 0)" fill-opacity="1.000000" />
<path d="M 188.892578 98.335938 L 188.892578 97.412109 L 195.729980 97.412109 L 195.729980 98.335938 Z " fill="rgb(147, 81, 0)" fill-opacity="1.000000" />
<path d="M 195.892578 98.335938 L 195.892578 97.412109 L 198.878906 97.412109 L 198.878906 90.300781 L 199.738281 90.300781 L 199.738281 97.412109 L 202.729980 97.412109 L 202.729980 98.335938 Z " fill="rgb(147, 81, 0)" fill-opacity="1.000000" />
<path d="M 202.892578 98.335938 L 202.892578 97.412109 L 209.729980 97.412109 L 209.729980 98.335938 Z " fill="rgb(147, 81, 0)" fill-opacity="1.000000" />
<path d="M 209.892578 98.335938 L 209.892578 97.412109 L 216.729980 97.412109 L 216.729980 98.335938 Z " fill="rgb(147, 81, 0)" fill-opacity="1.000000" />
<path d="M 216.892578 98.335938 L 216.892578 97.412109 L 223.729980 97.412109 L 223.729980 98.335938 Z " fill="rgb(147, 81, 0)" fill-opacity="1.000000" />
<path d="M 223.892578 98.335938 L 223.892578 97.412109 L 226.878906 97.412109 L 226.878906 90.300781 L 227.738281 90.300781 L 227.738281 97.412109 L 230.729980 97.412109 L 230.729980 98.335938 Z " fill="rgb(147, 81, 0)" fill-opacity="1.000000" />
<path d="M 230.892578 98.335938 L 230.892578 97.412109 L 237.729980 97.412109 L 237.729980 98.335938 Z " fill="rgb(147, 81, 0)" fill-opacity="1.000000" />
<path d="M 237.892578 98.335938 L 237.892578 97.412109 L 244.729980 97.412109 L 244.729980 98.335938 Z " fill="rgb(147, 81, 0)" fill-opacity="1.000000" />
<path d="M 244.892578 98.335938 L 244.892578 97.412109 L 251.729980 97.412109 L 251.729980 98.335938 Z " fill="rgb(147, 81, 0)" fill-opacity="1.000000" />
<path d="M 251.892578 98.335938 L 251.892578 97.412109 L 254.878906 97.412109 L 254.878906 90.300781 L 255.738281 90.300781 L 255.738281 98.335938 Z " fill="rgb(147, 81, 0)" fill-opacity="1.000000" />
<path d="M 282.878906 104.319336 L 282.878906 90.300781 L 283.738281 90.300781 L 283.738281 104.319336 Z " fill="rgb(0, 0, 0)" fill-opacity="1.000000" />
<path d="M 299.698730 100.693848 Q 299.301270 100.924805 298.879639 101.040283 Q 298.458008 101.155762 298.017578 101.155762 Q 296.621094 101.155762 295.834229 100.317871 Q 295.047363 99.479980 295.047363 97.997559 Q 295.047363 96.515137 295.834229 95.677246 Q 296.621094 94.839355 298.017578 94.839355 Q 298.452637 94.839355 298.866211 94.952148 Q 299.279785 95.064941 299.698730 95.301270 L 299.698730 96.337891 Q 299.306641 95.988770 298.911865 95.833008 Q 298.517090 95.677246 298.017578 95.677246 Q 297.088379 95.677246 296.588867 96.278809 Q 296.089355 96.880371 296.089355 97.997559 Q 296.089355 99.109375 296.591553 99.713623 Q 297.093750 100.317871 298.017578 100.317871 Q 298.533203 100.317871 298.941406 100.159424 Q 299.349609 100.000977 299.698730 99.667969 Z " fill="rgb(147, 81, 0)" fill-opacity="1.000000" />
<path d="M 310.878906 104.319336 L 310.878906 90.300781 L 311.738281 90.300781 L 311.738281 104.319336 Z " fill="rgb(0, 0, 0)" fill-opacity="1.000000" />
<path d="M 322.746582 92.980957 L 327.795410 92.980957 L 327.795410 93.442871 L 324.927246 101.000000 L 323.793945 101.000000 L 326.586914 93.894043 L 322.746582 93.894043 Z " fill="rgb(0, 0, 0)" fill-opacity="1.000000" />
<path d="M 338.878906 104.319336 L 338.878906 90.300781 L 339.738281 90.300781 L 339.738281 104.319336 Z " fill="rgb(0, 0, 0)" fill-opacity="1.000000" />
<path d="M 17.308594 84.191895 Q 16.583496 84.191895 16.188721 84.597412 Q 15.793945 85.002930 15.793945 85.744141 Q 15.793945 86.485352 16.194092 86.896240 Q 16.594238 87.307129 17.308594 87.307129 Q 18.039062 87.307129 18.433838 86.901611 Q 18.828613 86.496094 18.828613 85.744141 Q 18.828613 85.008301 18.428467 84.600098 Q 18.028320 84.191895 17.308594 84.191895 Z M 16.363281 83.740723 Q 15.670410 83.563477 15.281006 83.080078 Q 14.891602 82.596680 14.891602 81.914551 Q 14.891602 80.958496 15.541504 80.397217 Q 16.191406 79.835938 17.308594 79.835938 Q 18.431152 79.835938 19.081055 80.397217 Q 19.730957 80.958496 19.730957 81.914551 Q 19.730957 82.596680 19.341553 83.080078 Q 18.952148 83.563477 18.259277 83.740723 Q 19.064941 83.917969 19.491943 84.455078 Q 19.918945 84.992188 19.918945 85.846191 Q 19.918945 86.931152 19.226074 87.543457 Q 18.533203 88.155762 17.308594 88.155762 Q 16.083984 88.155762 15.393799 87.546143 Q 14.703613 86.936523 14.703613 85.856934 Q 14.703613 84.997559 15.130615 84.457764 Q 15.557617 83.917969 16.363281 83.740723 Z M 15.971191 82.016602 Q 15.971191 82.661133 16.314941 82.999512 Q 16.658691 83.337891 17.308594 83.337891 Q 17.963867 83.337891 18.307617 82.999512 Q 18.651367 82.661133 18.651367 82.016602 Q 18.651367 81.361328 18.310303 81.017578 Q 17.969238 80.673828 17.308594 80.673828 Q 16.658691 80.673828 16.314941 81.020264 Q 15.971191 81.366699 15.971191 82.016602 Z " fill="rgb(0, 0, 0)" fill-opacity="1.000000" />
<path d="M 30.878906 91.319336 L 30.878906 77.300781 L 31.738281 77.300781 L 31.738281 91.319336 Z " fill="rgb(0, 0, 0)" fill-opacity="1.000000" />
<path d="M 45.201172 84.444336 Q 45.894043 84.444336 46.288818 83.944824 Q 46.683594 83.445312 46.683594 82.564453 Q 46.683594 81.683594 46.288818 81.184082 Q 45.894043 80.684570 45.201172 80.684570 Q 44.481445 80.684570 44.116211 81.159912 Q 43.750977 81.635254 43.750977 82.564453 Q 43.750977 83.499023 44.113525 83.971680 Q 44.476074 84.444336 45.201172 84.444336 Z M 43.267578 87.833496 L 43.267578 86.834473 Q 43.605957 87.033203 43.987305 87.137939 Q 44.368652 87.242676 44.782227 87.242676 Q 45.813477 87.242676 46.342529 86.466553 Q 46.871582 85.690430 46.871582 84.181152 Q 46.619141 84.718262 46.162598 85.005615 Q 45.706055 85.292969 45.115234 85.292969 Q 43.955078 85.292969 43.318604 84.578613 Q 42.682129 83.864258 42.682129 82.553711 Q 42.682129 81.259277 43.334717 80.547607 Q 43.987305 79.835938 45.179688 79.835938 Q 46.576172 79.835938 47.226074 80.840332 Q 47.875977 81.844727 47.875977 83.998535 Q 47.875977 86.023438 47.094482 87.089600 Q 46.312988 88.155762 44.825195 88.155762 Q 44.433105 88.155762 44.035645 88.072510 Q 43.638184 87.989258 43.267578 87.833496 Z " fill="rgb(0, 0, 0)" fill-opacity="1.000000" />
<path d="M 58.878906 91.319336 L 58.878906 77.300781 L 59.738281 77.300781 L 59.738281 91.319336 Z " fill="rgb(0, 0, 0)" fill-opacity="1.000000" />
<path d="M 70.746582 79.980957 L 75.795410 79.980957 L 75.795410 80.442871 L 72.927246 88.000000 L 71.793945 88.000000 L 74.586914 80.894043 L 70.746582 80.894043 Z " fill="rgb(0, 0, 0)" fill-opacity="1.000000" />
<path d="M 86.878906 91.319336 L 86.878906 77.300781 L 87.738281 77.300781 L 87.738281 91.319336 Z " fill="rgb(0, 0, 0)" fill-opacity="1.000000" />
<path d="M 99.111816 79.980957 L 103.172363 79.980957 L 103.172363 80.894043 L 100.100098 80.894043 L 100.100098 82.865234 Q 100.331055 82.779297 100.564697 82.739014 Q 100.798340 82.698730 101.034668 82.698730 Q 102.280762 82.698730 103.011230 83.434570 Q 103.741699 84.170410 103.741699 85.427246 Q 103.741699 86.694824 102.976318 87.425293 Q 102.210938 88.155762 100.884277 88.155762 Q 100.245117 88.155762 99.716064 88.069824 Q 99.187012 87.983887 98.768066 87.812012 L 98.768066 86.710938 Q 99.262207 86.979492 99.761719 87.111084 Q 100.261230 87.242676 100.782227 87.242676 Q 101.679199 87.242676 102.165283 86.770020 Q 102.651367 86.297363 102.651367 85.427246 Q 102.651367 84.567871 102.149170 84.089844 Q 101.646973 83.611816 100.750000 83.611816 Q 100.314941 83.611816 99.901367 83.711182 Q 99.487793 83.810547 99.111816 84.009277 Z " fill="rgb(0, 0, 0)" fill-opacity="1.000000" />
<path d="M 114.878906 91.319336 L 114.878906 77.300781 L 115.738281 77.300781 L 115.738281 91.319336 Z " fill="rgb(0, 0, 0)" fill-opacity="1.000000" />
<path d="M 142.878906 91.319336 L 142.878906 77.300781 L 143.738281 77.300781 L 143.738281 91.319336 Z " fill="rgb(147, 81, 0)" fill-opacity="1.000000" />
<path d="M 157.770508 84.976074 L 157.442871 84.976074 Q 156.578125 84.976074 156.140381 85.279541 Q 155.702637 85.583008 155.702637 86.184570 Q 155.702637 86.727051 156.030273 87.027832 Q 156.357910 87.328613 156.937988 87.328613 Q 157.754395 87.328613 158.221680 86.761963 Q 158.688965 86.195312 158.694336 85.196289 L 158.694336 84.976074 Z M 159.687988 84.567871 L 159.687988 88.000000 L 158.694336 88.000000 L 158.694336 87.108398 Q 158.377441 87.645508 157.896729 87.900635 Q 157.416016 88.155762 156.728516 88.155762 Q 155.810059 88.155762 155.262207 87.637451 Q 154.714355 87.119141 154.714355 86.249023 Q 154.714355 85.244629 155.388428 84.723633 Q 156.062500 84.202637 157.367676 84.202637 L 158.694336 84.202637 L 158.694336 84.046875 Q 158.688965 83.327148 158.329102 83.002197 Q 157.969238 82.677246 157.179688 82.677246 Q 156.674805 82.677246 156.159180 82.822266 Q 155.643555 82.967285 155.154785 83.246582 L 155.154785 82.258301 Q 155.702637 82.048828 156.204834 81.944092 Q 156.707031 81.839355 157.179688 81.839355 Q 157.926270 81.839355 158.455322 82.059570 Q 158.984375 82.279785 159.312012 82.720215 Q 159.516113 82.988770 159.602051 83.383545 Q 159.687988 83.778320 159.687988 84.567871 Z " fill="rgb(147, 81, 0)" fill-opacity="1.000000" />
<path d="M 170.878906 91.319336 L 170.878906 77.300781 L 171.738281 77.300781 L 171.738281 91.319336 Z " fill="rgb(147, 81, 0)" fill-opacity="1.000000" />
<path d="M 186.930664 84.997559 Q 186.930664 83.848145 186.565430 83.262695 Q 186.200195 82.677246 185.485840 82.677246 Q 184.766113 82.677246 184.395508 83.265381 Q 184.024902 83.853516 184.024902 84.997559 Q 184.024902 86.136230 184.395508 86.727051 Q 184.766113 87.317871 185.485840 87.317871 Q 186.200195 87.317871 186.565430 86.732422 Q 186.930664 86.146973 186.930664 84.997559 Z M 184.024902 82.752441 Q 184.261230 82.312012 184.677490 82.075684 Q 185.093750 81.839355 185.641602 81.839355 Q 186.726562 81.839355 187.349609 82.674561 Q 187.972656 83.509766 187.972656 84.976074 Q 187.972656 86.463867 187.346924 87.309814 Q 186.721191 88.155762 185.630859 88.155762 Q 185.093750 88.155762 184.682861 87.922119 Q 184.271973 87.688477 184.024902 87.242676 L 184.024902 88.000000 L 183.036621 88.000000 L 183.036621 79.642578 L 184.024902 79.642578 Z " fill="rgb(147, 81, 0)" fill-opacity="1.000000" />
<path d="M 198.878906 91.319336 L 198.878906 77.300781 L 199.738281 77.300781 L 199.738281 91.319336 Z " fill="rgb(147, 81, 0)" fill-opacity="1.000000" />
<path d="M 215.698730 87.693848 Q 215.301270 87.924805 214.879639 88.040283 Q 214.458008 88.155762 214.017578 88.155762 Q 212.621094 88.155762 211.834229 87.317871 Q 211.047363 86.479980 211.047363 84.997559 Q 211.047363 83.515137 211.834229 82.677246 Q 212.621094 81.839355 214.017578 81.839355 Q 214.452637 81.839355 214.866211 81.952148 Q 215.279785 82.064941 215.698730 82.301270 L 215.698730 83.337891 Q 215.306641 82.988770 214.911865 82.833008 Q 214.517090 82.677246 214.017578 82.677246 Q 213.088379 82.677246 212.588867 83.278809 Q 212.089355 83.880371 212.089355 84.997559 Q 212.089355 86.109375 212.591553 86.713623 Q 213.093750 87.317871 214.017578 87.317871 Q 214.533203 87.317871 214.941406 87.159424 Q 215.349609 87.000977 215.698730 86.667969 Z " fill="rgb(147, 81, 0)" fill-opacity="1.000000" />
<path d="M 226.878906 91.319336 L 226.878906 77.300781 L 227.738281 77.300781 L 227.738281 91.319336 Z " fill="rgb(147, 81, 0)" fill-opacity="1.000000" />
<path d="M 242.608398 82.752441 L 242.608398 79.642578 L 243.596680 79.642578 L 243.596680 88.000000 L 242.608398 88.000000 L 242.608398 87.242676 Q 242.361328 87.688477 241.950439 87.922119 Q 241.539551 88.155762 241.002441 88.155762 Q 239.912109 88.155762 239.286377 87.309814 Q 238.660645 86.463867 238.660645 84.976074 Q 238.660645 83.509766 239.289062 82.674561 Q 239.917480 81.839355 241.002441 81.839355 Q 241.544922 81.839355 241.958496 82.072998 Q 242.372070 82.306641 242.608398 82.752441 Z M 239.702637 84.997559 Q 239.702637 86.146973 240.067871 86.732422 Q 240.433105 87.317871 241.147461 87.317871 Q 241.861816 87.317871 242.235107 86.727051 Q 242.608398 86.136230 242.608398 84.997559 Q 242.608398 83.853516 242.235107 83.265381 Q 241.861816 82.677246 241.147461 82.677246 Q 240.433105 82.677246 240.067871 83.262695 Q 239.702637 83.848145 239.702637 84.997559 Z " fill="rgb(147, 81, 0)" fill-opacity="1.000000" />
<path d="M 254.878906 91.319336 L 254.878906 77.300781 L 255.738281 77.300781 L 255.738281 91.319336 Z " fill="rgb(147, 81, 0)" fill-opacity="1.000000" />
<path d="M 282.878906 91.319336 L 282.878906 77.300781 L 283.738281 77.300781 L 283.738281 84.412109 L 286.729980 84.412109 L 286.729980 85.335938 L 283.738281 85.335938 L 283.738281 91.319336 Z " fill="rgb(0, 0, 0)" fill-opacity="1.000000" />
<path d="M 286.892578 85.335938 L 286.892578 84.412109 L 293.729980 84.412109 L 293.729980 85.335938 Z " fill="rgb(0, 0, 0)" fill-opacity="1.000000" />
<path d="M 293.892578 85.335938 L 293.892578 84.412109 L 300.729980 84.412109 L 300.729980 85.335938 Z " fill="rgb(0, 0, 0)" fill-opacity="1.000000" />
<path d="M 300.892578 85.335938 L 300.892578 84.412109 L 307.729980 84.412109 L 307.729980 85.335938 Z " fill="rgb(0, 0, 0)" fill-opacity="1.000000" />
<path d="M 311.738281 85.335938 L 311.738281 91.319336 L 310.878906 91.319336 L 310.878906 85.335938 L 307.892578 85.335938 L 307.892578 84.412109 L 310.878906 84.412109 L 310.878906 77.300781 L 311.738281 77.300781 L 311.738281 84.412109 L 314.729980 84.412109 L 314.729980 85.335938 Z " fill="rgb(0, 0, 0)" fill-opacity="1.000000" />
<path d="M 314.892578 85.335938 L 314.892578 84.412109 L 321.729980 84.412109 L 321.729980 85.335938 Z " fill="rgb(0, 0, 0)" fill-opacity="1.000000" />
<path d="M 321.892578 85.335938 L 321.892578 84.412109 L 328.729980 84.412109 L 328.729980 85.335938 Z " fill="rgb(0, 0, 0)" fill-opacity="1.000000" />
<path d="M 328.892578 85.335938 L 328.892578 84.412109 L 335.729980 84.412109 L 335.729980 85.335938 Z " fill="rgb(0, 0, 0)" fill-opacity="1.000000" />
<path d="M 338.878906 91.319336 L 338.878906 85.335938 L 335.892578 85.335938 L 335.892578 84.412109 L 338.878906 84.412109 L 338.878906 77.300781 L 339.738281 77.300781 L 339.738281 91.319336 Z " fill="rgb(0, 0, 0)" fill-opacity="1.000000" />
<path d="M 6.892578 72.335938 L 6.892578 71.412109 L 13.729980 71.412109 L 13.729980 72.335938 Z " fill="rgb(0, 0, 0)" fill-opacity="1.000000" />
<path d="M 13.892578 72.335938 L 13.892578 71.412109 L 20.729980 71.412109 L 20.729980 72.335938 Z " fill="rgb(0, 0, 0)" fill-opacity="1.000000" />
<path d="M 20.892578 72.335938 L 20.892578 71.412109 L 27.729980 71.412109 L 27.729980 72.335938 Z " fill="rgb(0, 0, 0)" fill-opacity="1.000000" />
<path d="M 30.878906 78.319336 L 30.878906 72.335938 L 27.892578 72.335938 L 27.892578 71.412109 L 34.729980 71.412109 L 34.729980 72.335938 L 31.738281 72.335938 L 31.738281 78.319336 Z " fill="rgb(0, 0, 0)" fill-opacity="1.000000" />
<path d="M 34.892578 72.335938 L 34.892578 71.412109 L 41.729980 71.412109 L 41.729980 72.335938 Z " fill="rgb(0, 0, 0)" fill-opacity="1.000000" />
<path d="M 41.892578 72.335938 L 41.892578 71.412109 L 48.729980 71.412109 L 48.729980 72.335938 Z " fill="rgb(0, 0, 0)" fill-opacity="1.000000" />
<path d="M 48.892578 72.335938 L 48.892578 71.412109 L 55.729980 71.412109 L 55.729980 72.335938 Z " fill="rgb(0, 0, 0)" fill-opacity="1.000000" />
<path d="M 58.878906 78.319336 L 58.878906 72.335938 L 55.892578 72.335938 L 55.892578 71.412109 L 62.729980 71.412109 L 62.729980 72.335938 L 59.738281 72.335938 L 59.738281 78.319336 Z " fill="rgb(0, 0, 0)" fill-opacity="1.000000" />
<path d="M 62.892578 72.335938 L 62.892578 71.412109 L 69.729980 71.412109 L 69.729980 72.335938 Z " fill="rgb(0, 0, 0)" fill-opacity="1.000000" />
<path d="M 69.892578 72.335938 L 69.892578 71.412109 L 76.729980 71.412109 L 76.729980 72.335938 Z " fill="rgb(0, 0, 0)" fill-opacity="1.000000" />
<path d="M 76.892578 72.335938 L 76.892578 71.412109 L 83.729980 71.412109 L 83.729980 72.335938 Z " fill="rgb(0, 0, 0)" fill-opacity="1.000000" />
<path d="M 86.878906 78.319336 L 86.878906 72.335938 L 83.892578 72.335938 L 83.892578 71.412109 L 90.729980 71.412109 L 90.729980 72.335938 L 87.738281 72.335938 L 87.738281 78.319336 Z " fill="rgb(0, 0, 0)" fill-opacity="1.000000" />
<path d="M 90.892578 72.335938 L 90.892578 71.412109 L 97.729980 71.412109 L 97.729980 72.335938 Z " fill="rgb(0, 0, 0)" fill-opacity="1.000000" />
<path d="M 97.892578 72.335938 L 97.892578 71.412109 L 104.729980 71.412109 L 104.729980 72.335938 Z " fill="rgb(0, 0, 0)" fill-opacity="1.000000" />
<path d="M 104.892578 72.335938 L 104.892578 71.412109 L 111.729980 71.412109 L 111.729980 72.335938 Z " fill="rgb(0, 0, 0)" fill-opacity="1.000000" />
<path d="M 114.878906 78.319336 L 114.878906 72.335938 L 111.892578 72.335938 L 111.892578 71.412109 L 114.878906 71.412109 L 114.878906 64.300781 L 115.738281 64.300781 L 115.738281 78.319336 Z " fill="rgb(0, 0, 0)" fill-opacity="1.000000" />
<path d="M 129.867188 68.672852 L 129.867188 71.052246 L 132.257324 71.052246 L 132.257324 71.959961 L 129.867188 71.959961 L 129.867188 74.339355 L 128.964844 74.339355 L 128.964844 71.959961 L 126.580078 71.959961 L 126.580078 71.052246 L 128.964844 71.052246 L 128.964844 68.672852 Z " fill="rgb(0, 0, 0)" fill-opacity="1.000000" />
<path d="M 142.878906 78.319336 L 142.878906 64.300781 L 143.738281 64.300781 L 143.738281 71.412109 L 146.729980 71.412109 L 146.729980 72.335938 L 143.738281 72.335938 L 143.738281 78.319336 Z " fill="rgb(147, 81, 0)" fill-opacity="1.000000" />
<path d="M 146.892578 72.335938 L 146.892578 71.412109 L 153.729980 71.412109 L 153.729980 72.335938 Z " fill="rgb(147, 81, 0)" fill-opacity="1.000000" />
<path d="M 153.892578 72.335938 L 153.892578 71.412109 L 160.729980 71.412109 L 160.729980 72.335938 Z " fill="rgb(147, 81, 0)" fill-opacity="1.000000" />
<path d="M 160.892578 72.335938 L 160.892578 71.412109 L 167.729980 71.412109 L 167.729980 72.335938 Z " fill="rgb(147, 81, 0)" fill-opacity="1.000000" />
<path d="M 170.878906 78.319336 L 170.878906 72.335938 L 167.892578 72.335938 L 167.892578 71.412109 L 174.729980 71.412109 L 174.729980 72.335938 L 171.738281 72.335938 L 171.738281 78.319336 Z " fill="rgb(147, 81, 0)" fill-opacity="1.000000" />
<path d="M 174.892578 72.335938 L 174.892578 71.412109 L 181.729980 71.412109 L 181.729980 72.335938 Z " fill="rgb(147, 81, 0)" fill-opacity="1.000000" />
<path d="M 181.892578 72.335938 L 181.892578 71.412109 L 188.729980 71.412109 L 188.729980 72.335938 Z " fill="rgb(147, 81, 0)" fill-opacity="1.000000" />
<path d="M 188.892578 72.335938 L 188.892578 71.412109 L 195.729980 71.412109 L 195.729980 72.335938 Z " fill="rgb(147, 81, 0)" fill-opacity="1.000000" />
<path d="M 198.878906 78.319336 L 198.878906 72.335938 L 195.892578 72.335938 L 195.892578 71.412109 L 202.729980 71.412109 L 202.729980 72.335938 L 199.738281 72.335938 L 199.738281 78.319336 Z " fill="rgb(147, 81, 0)" fill-opacity="1.000000" />
<path d="M 202.892578 72.335938 L 202.892578 71.412109 L 209.729980 71.412109 L 209.729980 72.335938 Z " fill="rgb(147, 81, 0)" fill-opacity="1.000000" />
<path d="M 209.892578 72.335938 L 209.892578 71.412109 L 216.729980 71.412109 L 216.729980 72.335938 Z " fill="rgb(147, 81, 0)" fill-opacity="1.000000" />
<path d="M 216.892578 72.335938 L 216.892578 71.412109 L 223.729980 71.412109 L 223.729980 72.335938 Z " fill="rgb(147, 81, 0)" fill-opacity="1.000000" />
<path d="M 226.878906 78.319336 L 226.878906 72.335938 L 223.892578 72.335938 L 223.892578 71.412109 L 230.729980 71.412109 L 230.729980 72.335938 L 227.738281 72.335938 L 227.738281 78.319336 Z " fill="rgb(147, 81, 0)" fill-opacity="1.000000" />
<path d="M 230.892578 72.335938 L 230.892578 71.412109 L 237.729980 71.412109 L 237.729980 72.335938 Z " fill="rgb(147, 81, 0)" fill-opacity="1.000000" />
<path d="M 237.892578 72.335938 L 237.892578 71.412109 L 244.729980 71.412109 L 244.729980 72.335938 Z " fill="rgb(147, 81, 0)" fill-opacity="1.000000" />
<path d="M 244.892578 72.335938 L 244.892578 71.412109 L 251.729980 71.412109 L 251.729980 72.335938 Z " fill="rgb(147, 81, 0)" fill-opacity="1.000000" />
<path d="M 254.878906 78.319336 L 254.878906 72.335938 L 251.892578 72.335938 L 251.892578 71.412109 L 254.878906 71.412109 L 254.878906 64.300781 L 255.738281 64.300781 L 255.738281 78.319336 Z " fill="rgb(147, 81, 0)" fill-opacity="1.000000" />
<path d="M 266.472656 72.314453 L 272.149902 72.314453 L 272.149902 73.222168 L 266.472656 73.222168 Z M 266.472656 69.784668 L 272.149902 69.784668 L 272.149902 70.692383 L 266.472656 70.692383 Z " fill="rgb(0, 0, 0)" fill-opacity="1.000000" />
<path d="M 282.878906 78.319336 L 282.878906 64.300781 L 283.738281 64.300781 L 283.738281 78.319336 Z " fill="rgb(0, 0, 0)" fill-opacity="1.000000" />
<path d="M 298.930664 71.997559 Q 298.930664 70.848145 298.565430 70.262695 Q 298.200195 69.677246 297.485840 69.677246 Q 296.766113 69.677246 296.395508 70.265381 Q 296.024902 70.853516 296.024902 71.997559 Q 296.024902 73.136230 296.395508 73.727051 Q 296.766113 74.317871 297.485840 74.317871 Q 298.200195 74.317871 298.565430 73.732422 Q 298.930664 73.146973 298.930664 71.997559 Z M 296.024902 69.752441 Q 296.261230 69.312012 296.677490 69.075684 Q 297.093750 68.839355 297.641602 68.839355 Q 298.726562 68.839355 299.349609 69.674561 Q 299.972656 70.509766 299.972656 71.976074 Q 299.972656 73.463867 299.346924 74.309814 Q 298.721191 75.155762 297.630859 75.155762 Q 297.093750 75.155762 296.682861 74.922119 Q 296.271973 74.688477 296.024902 74.242676 L 296.024902 75.000000 L 295.036621 75.000000 L 295.036621 66.642578 L 296.024902 66.642578 Z " fill="rgb(147, 81, 0)" fill-opacity="1.000000" />
<path d="M 310.878906 78.319336 L 310.878906 64.300781 L 311.738281 64.300781 L 311.738281 78.319336 Z " fill="rgb(0, 0, 0)" fill-opacity="1.000000" />
<path d="M 325.201172 71.444336 Q 325.894043 71.444336 326.288818 70.944824 Q 326.683594 70.445312 326.683594 69.564453 Q 326.683594 68.683594 326.288818 68.184082 Q 325.894043 67.684570 325.201172 67.684570 Q 324.481445 67.684570 324.116211 68.159912 Q 323.750977 68.635254 323.750977 69.564453 Q 323.750977 70.499023 324.113525 70.971680 Q 324.476074 71.444336 325.201172 71.444336 Z M 323.267578 74.833496 L 323.267578 73.834473 Q 323.605957 74.033203 323.987305 74.137939 Q 324.368652 74.242676 324.782227 74.242676 Q 325.813477 74.242676 326.342529 73.466553 Q 326.871582 72.690430 326.871582 71.181152 Q 326.619141 71.718262 326.162598 72.005615 Q 325.706055 72.292969 325.115234 72.292969 Q 323.955078 72.292969 323.318604 71.578613 Q 322.682129 70.864258 322.682129 69.553711 Q 322.682129 68.259277 323.334717 67.547607 Q 323.987305 66.835938 325.179688 66.835938 Q 326.576172 66.835938 327.226074 67.840332 Q 327.875977 68.844727 327.875977 70.998535 Q 327.875977 73.023438 327.094482 74.089600 Q 326.312988 75.155762 324.825195 75.155762 Q 324.433105 75.155762 324.035645 75.072510 Q 323.638184 74.989258 323.267578 74.833496 Z " fill="rgb(0, 0, 0)" fill-opacity="1.000000" />
<path d="M 338.878906 78.319336 L 338.878906 64.300781 L 339.738281 64.300781 L 339.738281 78.319336 Z " fill="rgb(0, 0, 0)" fill-opacity="1.000000" />
<path d="M 11.608398 56.752441 L 11.608398 53.642578 L 12.596680 53.642578 L 12.596680 62.000000 L 11.608398 62.000000 L 11.608398 61.242676 Q 11.361328 61.688477 10.950439 61.922119 Q 10.539551 62.155762 10.002441 62.155762 Q 8.912109 62.155762 8.286377 61.309814 Q 7.660645 60.463867 7.660645 58.976074 Q 7.660645 57.509766 8.289062 56.674561 Q 8.917480 55.839355 10.002441 55.839355 Q 10.544922 55.839355 10.958496 56.072998 Q 11.372070 56.306641 11.608398 56.752441 Z M 8.702637 58.997559 Q 8.702637 60.146973 9.067871 60.732422 Q 9.433105 61.317871 10.147461 61.317871 Q 10.861816 61.317871 11.235107 60.727051 Q 11.608398 60.136230 11.608398 58.997559 Q 11.608398 57.853516 11.235107 57.265381 Q 10.861816 56.677246 10.147461 56.677246 Q 9.433105 56.677246 9.067871 57.262695 Q 8.702637 57.848145 8.702637 58.997559 Z " fill="rgb(0, 0, 0)" fill-opacity="1.000000" />
<path d="M 17.770508 58.976074 L 17.442871 58.976074 Q 16.578125 58.976074 16.140381 59.279541 Q 15.702637 59.583008 15.702637 60.184570 Q 15.702637 60.727051 16.030273 61.027832 Q 16.357910 61.328613 16.937988 61.328613 Q 17.754395 61.328613 18.221680 60.761963 Q 18.688965 60.195312 18.694336 59.196289 L 18.694336 58.976074 Z M 19.687988 58.567871 L 19.687988 62.000000 L 18.694336 62.000000 L 18.694336 61.108398 Q 18.377441 61.645508 17.896729 61.900635 Q 17.416016 62.155762 16.728516 62.155762 Q 15.810059 62.155762 15.262207 61.637451 Q 14.714355 61.119141 14.714355 60.249023 Q 14.714355 59.244629 15.388428 58.723633 Q 16.062500 58.202637 17.367676 58.202637 L 18.694336 58.202637 L 18.694336 58.046875 Q 18.688965 57.327148 18.329102 57.002197 Q 17.969238 56.677246 17.179688 56.677246 Q 16.674805 56.677246 16.159180 56.822266 Q 15.643555 56.967285 15.154785 57.246582 L 15.154785 56.258301 Q 15.702637 56.048828 16.204834 55.944092 Q 16.707031 55.839355 17.179688 55.839355 Q 17.926270 55.839355 18.455322 56.059570 Q 18.984375 56.279785 19.312012 56.720215 Q 19.516113 56.988770 19.602051 57.383545 Q 19.687988 57.778320 19.687988 58.567871 Z " fill="rgb(0, 0, 0)" fill-opacity="1.000000" />
<path d="M 24.297852 54.276367 L 24.297852 55.984375 L 26.542969 55.984375 L 26.542969 56.752441 L 24.297852 56.752441 L 24.297852 60.018066 Q 24.297852 60.684082 24.550293 60.947266 Q 24.802734 61.210449 25.431152 61.210449 L 26.542969 61.210449 L 26.542969 62.000000 L 25.334473 62.000000 Q 24.222656 62.000000 23.766113 61.554199 Q 23.309570 61.108398 23.309570 60.018066 L 23.309570 56.752441 L 21.703613 56.752441 L 21.703613 55.984375 L 23.309570 55.984375 L 23.309570 54.276367 Z " fill="rgb(0, 0, 0)" fill-opacity="1.000000" />
<path d="M 31.770508 58.976074 L 31.442871 58.976074 Q 30.578125 58.976074 30.140381 59.279541 Q 29.702637 59.583008 29.702637 60.184570 Q 29.702637 60.727051 30.030273 61.027832 Q 30.357910 61.328613 30.937988 61.328613 Q 31.754395 61.328613 32.221680 60.761963 Q 32.688965 60.195312 32.694336 59.196289 L 32.694336 58.976074 Z M 33.687988 58.567871 L 33.687988 62.000000 L 32.694336 62.000000 L 32.694336 61.108398 Q 32.377441 61.645508 31.896729 61.900635 Q 31.416016 62.155762 30.728516 62.155762 Q 29.810059 62.155762 29.262207 61.637451 Q 28.714355 61.119141 28.714355 60.249023 Q 28.714355 59.244629 29.388428 58.723633 Q 30.062500 58.202637 31.367676 58.202637 L 32.694336 58.202637 L 32.694336 58.046875 Q 32.688965 57.327148 32.329102 57.002197 Q 31.969238 56.677246 31.179688 56.677246 Q 30.674805 56.677246 30.159180 56.822266 Q 29.643555 56.967285 29.154785 57.246582 L 29.154785 56.258301 Q 29.702637 56.048828 30.204834 55.944092 Q 30.707031 55.839355 31.179688 55.839355 Q 31.926270 55.839355 32.455322 56.059570 Q 32.984375 56.279785 33.312012 56.720215 Q 33.516113 56.988770 33.602051 57.383545 Q 33.687988 57.778320 33.687988 58.567871 Z " fill="rgb(0, 0, 0)" fill-opacity="1.000000" />
<path d="M 114.878906 65.319336 L 114.878906 51.300781 L 115.738281 51.300781 L 115.738281 65.319336 Z " fill="rgb(0, 0, 0)" fill-opacity="1.000000" />
<path d="M 142.878906 65.319336 L 142.878906 51.300781 L 143.738281 51.300781 L 143.738281 65.319336 Z " fill="rgb(147, 81, 0)" fill-opacity="1.000000" />
<path d="M 148.697266 56.005859 L 151.227051 56.005859 L 151.227051 61.231934 L 153.187500 61.231934 L 153.187500 62.000000 L 148.278320 62.000000 L 148.278320 61.231934 L 150.238770 61.231934 L 150.238770 56.773926 L 148.697266 56.773926 Z M 150.238770 53.669434 L 151.227051 53.669434 L 151.227051 54.915527 L 150.238770 54.915527 Z " fill="rgb(147, 81, 0)" fill-opacity="1.000000" />
<path d="M 159.645020 58.272461 L 159.645020 62.000000 L 158.651367 62.000000 L 158.651367 58.272461 Q 158.651367 57.461426 158.366699 57.080078 Q 158.082031 56.698730 157.475098 56.698730 Q 156.782227 56.698730 156.408936 57.190186 Q 156.035645 57.681641 156.035645 58.600098 L 156.035645 62.000000 L 155.047363 62.000000 L 155.047363 55.984375 L 156.035645 55.984375 L 156.035645 56.886719 Q 156.298828 56.371094 156.750000 56.105225 Q 157.201172 55.839355 157.818848 55.839355 Q 158.737305 55.839355 159.191162 56.443604 Q 159.645020 57.047852 159.645020 58.272461 Z " fill="rgb(147, 81, 0)" fill-opacity="1.000000" />
<path d="M 165.608398 56.752441 L 165.608398 53.642578 L 166.596680 53.642578 L 166.596680 62.000000 L 165.608398 62.000000 L 165.608398 61.242676 Q 165.361328 61.688477 164.950439 61.922119 Q 164.539551 62.155762 164.002441 62.155762 Q 162.912109 62.155762 162.286377 61.309814 Q 161.660645 60.463867 161.660645 58.976074 Q 161.660645 57.509766 162.289062 56.674561 Q 162.917480 55.839355 164.002441 55.839355 Q 164.544922 55.839355 164.958496 56.072998 Q 165.372070 56.306641 165.608398 56.752441 Z M 162.702637 58.997559 Q 162.702637 60.146973 163.067871 60.732422 Q 163.433105 61.317871 164.147461 61.317871 Q 164.861816 61.317871 165.235107 60.727051 Q 165.608398 60.136230 165.608398 58.997559 Q 165.608398 57.853516 165.235107 57.265381 Q 164.861816 56.677246 164.147461 56.677246 Q 163.433105 56.677246 163.067871 57.262695 Q 162.702637 57.848145 162.702637 58.997559 Z " fill="rgb(147, 81, 0)" fill-opacity="1.000000" />
<path d="M 174.015625 58.498047 L 174.015625 58.981445 L 169.734863 58.981445 L 169.734863 59.013672 Q 169.691895 60.243652 170.204834 60.780762 Q 170.717773 61.317871 171.652344 61.317871 Q 172.125000 61.317871 172.640625 61.167480 Q 173.156250 61.017090 173.741699 60.710938 L 173.741699 61.693848 Q 173.177734 61.924805 172.654053 62.040283 Q 172.130371 62.155762 171.641602 62.155762 Q 170.239746 62.155762 169.450195 61.315186 Q 168.660645 60.474609 168.660645 58.997559 Q 168.660645 57.558105 169.434082 56.698730 Q 170.207520 55.839355 171.496582 55.839355 Q 172.645996 55.839355 173.309326 56.618164 Q 173.972656 57.396973 174.015625 58.498047 Z M 173.027344 58.208008 Q 172.962891 57.584961 172.573486 57.131104 Q 172.184082 56.677246 171.453613 56.677246 Q 170.739258 56.677246 170.277344 57.149902 Q 169.815430 57.622559 169.772461 58.213379 Z " fill="rgb(147, 81, 0)" fill-opacity="1.000000" />
<path d="M 181.004883 55.984375 L 178.851074 58.863281 L 181.214355 62.000000 L 180.070312 62.000000 L 178.308594 59.588379 L 176.552246 62.000000 L 175.408203 62.000000 L 177.771484 58.863281 L 175.617676 55.984375 L 176.713379 55.984375 L 178.308594 58.159668 L 179.893066 55.984375 Z " fill="rgb(147, 81, 0)" fill-opacity="1.000000" />
<path d="M 254.878906 65.319336 L 254.878906 51.300781 L 255.738281 51.300781 L 255.738281 65.319336 Z " fill="rgb(147, 81, 0)" fill-opacity="1.000000" />
<path d="M 282.878906 65.319336 L 282.878906 51.300781 L 283.738281 51.300781 L 283.738281 58.412109 L 286.729980 58.412109 L 286.729980 59.335938 L 283.738281 59.335938 L 283.738281 65.319336 Z " fill="rgb(0, 0, 0)" fill-opacity="1.000000" />
<path d="M 286.892578 59.335938 L 286.892578 58.412109 L 293.729980 58.412109 L 293.729980 59.335938 Z " fill="rgb(0, 0, 0)" fill-opacity="1.000000" />
<path d="M 293.892578 59.335938 L 293.892578 58.412109 L 300.729980 58.412109 L 300.729980 59.335938 Z " fill="rgb(0, 0, 0)" fill-opacity="1.000000" />
<path d="M 300.892578 59.335938 L 300.892578 58.412109 L 307.729980 58.412109 L 307.729980 59.335938 Z " fill="rgb(0, 0, 0)" fill-opacity="1.000000" />
<path d="M 311.738281 59.335938 L 311.738281 65.319336 L 310.878906 65.319336 L 310.878906 59.335938 L 307.892578 59.335938 L 307.892578 58.412109 L 310.878906 58.412109 L 310.878906 51.300781 L 311.738281 51.300781 L 311.738281 58.412109 L 314.729980 58.412109 L 314.729980 59.335938 Z " fill="rgb(0, 0, 0)" fill-opacity="1.000000" />
<path d="M 314.892578 59.335938 L 314.892578 58.412109 L 321.729980 58.412109 L 321.729980 59.335938 Z " fill="rgb(0, 0, 0)" fill-opacity="1.000000" />
<path d="M 321.892578 59.335938 L 321.892578 58.412109 L 328.729980 58.412109 L 328.729980 59.335938 Z " fill="rgb(0, 0, 0)" fill-opacity="1.000000" />
<path d="M 328.892578 59.335938 L 328.892578 58.412109 L 335.729980 58.412109 L 335.729980 59.335938 Z " fill="rgb(0, 0, 0)" fill-opacity="1.000000" />
<path d="M 338.878906 65.319336 L 338.878906 59.335938 L 335.892578 59.335938 L 335.892578 58.412109 L 338.878906 58.412109 L 338.878906 51.300781 L 339.738281 51.300781 L 339.738281 65.319336 Z " fill="rgb(0, 0, 0)" fill-opacity="1.000000" />
<path d="M 6.892578 46.335938 L 6.892578 45.412109 L 13.729980 45.412109 L 13.729980 46.335938 Z " fill="rgb(0, 0, 0)" fill-opacity="1.000000" />
<path d="M 13.892578 46.335938 L 13.892578 45.412109 L 20.729980 45.412109 L 20.729980 46.335938 Z " fill="rgb(0, 0, 0)" fill-opacity="1.000000" />
<path d="M 20.892578 46.335938 L 20.892578 45.412109 L 27.729980 45.412109 L 27.729980 46.335938 Z " fill="rgb(0, 0, 0)" fill-opacity="1.000000" />
<path d="M 27.892578 46.335938 L 27.892578 45.412109 L 34.729980 45.412109 L 34.729980 46.335938 Z " fill="rgb(0, 0, 0)" fill-opacity="1.000000" />
<path d="M 34.892578 46.335938 L 34.892578 45.412109 L 41.729980 45.412109 L 41.729980 46.335938 Z " fill="rgb(0, 0, 0)" fill-opacity="1.000000" />
<path d="M 41.892578 46.335938 L 41.892578 45.412109 L 48.729980 45.412109 L 48.729980 46.335938 Z " fill="rgb(0, 0, 0)" fill-opacity="1.000000" />
<path d="M 48.892578 46.335938 L 48.892578 45.412109 L 55.729980 45.412109 L 55.729980 46.335938 Z " fill="rgb(0, 0, 0)" fill-opacity="1.000000" />
<path d="M 55.892578 46.335938 L 55.892578 45.412109 L 62.729980 45.412109 L 62.729980 46.335938 Z " fill="rgb(0, 0, 0)" fill-opacity="1.000000" />
<path d="M 62.892578 46.335938 L 62.892578 45.412109 L 69.729980 45.412109 L 69.729980 46.335938 Z " fill="rgb(0, 0, 0)" fill-opacity="1.000000" />
<path d="M 69.892578 46.335938 L 69.892578 45.412109 L 76.729980 45.412109 L 76.729980 46.335938 Z " fill="rgb(0, 0, 0)" fill-opacity="1.000000" />
<path d="M 76.892578 46.335938 L 76.892578 45.412109 L 83.729980 45.412109 L 83.729980 46.335938 Z " fill="rgb(0, 0, 0)" fill-opacity="1.000000" />
<path d="M 83.892578 46.335938 L 83.892578 45.412109 L 90.729980 45.412109 L 90.729980 46.335938 Z " fill="rgb(0, 0, 0)" fill-opacity="1.000000" />
<path d="M 90.892578 46.335938 L 90.892578 45.412109 L 97.729980 45.412109 L 97.729980 46.335938 Z " fill="rgb(0, 0, 0)" fill-opacity="1.000000" />
<path d="M 97.892578 46.335938 L 97.892578 45.412109 L 104.729980 45.412109 L 104.729980 46.335938 Z " fill="rgb(0, 0, 0)" fill-opacity="1.000000" />
<path d="M 104.892578 46.335938 L 104.892578 45.412109 L 111.729980 45.412109 L 111.729980 46.335938 Z " fill="rgb(0, 0, 0)" fill-opacity="1.000000" />
<path d="M 114.878906 52.319336 L 114.878906 46.335938 L 111.892578 46.335938 L 111.892578 45.412109 L 115.738281 45.412109 L 115.738281 52.319336 Z " fill="rgb(0, 0, 0)" fill-opacity="1.000000" />
<path d="M 142.878906 52.319336 L 142.878906 45.412109 L 146.729980 45.412109 L 146.729980 46.335938 L 143.738281 46.335938 L 143.738281 52.319336 Z " fill="rgb(147, 81, 0)" fill-opacity="1.000000" />
<path d="M 146.892578 46.335938 L 146.892578 45.412109 L 153.729980 45.412109 L 153.729980 46.335938 Z " fill="rgb(147, 81, 0)" fill-opacity="1.000000" />
<path d="M 153.892578 46.335938 L 153.892578 45.412109 L 160.729980 45.412109 L 160.729980 46.335938 Z " fill="rgb(147, 81, 0)" fill-opacity="1.000000" />
<path d="M 160.892578 46.335938 L 160.892578 45.412109 L 167.729980 45.412109 L 167.729980 46.335938 Z " fill="rgb(147, 81, 0)" fill-opacity="1.000000" />
<path d="M 167.892578 46.335938 L 167.892578 45.412109 L 174.729980 45.412109 L 174.729980 46.335938 Z " fill="rgb(147, 81, 0)" fill-opacity="1.000000" />
<path d="M 174.892578 46.335938 L 174.892578 45.412109 L 181.729980 45.412109 L 181.729980 46.335938 Z " fill="rgb(147, 81, 0)" fill-opacity="1.000000" />
<path d="M 181.892578 46.335938 L 181.892578 45.412109 L 188.729980 45.412109 L 188.729980 46.335938 Z " fill="rgb(147, 81, 0)" fill-opacity="1.000000" />
<path d="M 188.892578 46.335938 L 188.892578 45.412109 L 195.729980 45.412109 L 195.729980 46.335938 Z " fill="rgb(147, 81, 0)" fill-opacity="1.000000" />
<path d="M 195.892578 46.335938 L 195.892578 45.412109 L 202.729980 45.412109 L 202.729980 46.335938 Z " fill="rgb(147, 81, 0)" fill-opacity="1.000000" />
<path d="M 202.892578 46.335938 L 202.892578 45.412109 L 209.729980 45.412109 L 209.729980 46.335938 Z " fill="rgb(147, 81, 0)" fill-opacity="1.000000" />
<path d="M 209.892578 46.335938 L 209.892578 45.412109 L 216.729980 45.412109 L 216.729980 46.335938 Z " fill="rgb(147, 81, 0)" fill-opacity="1.000000" />
<path d="M 216.892578 46.335938 L 216.892578 45.412109 L 223.729980 45.412109 L 223.729980 46.335938 Z " fill="rgb(147, 81, 0)" fill-opacity="1.000000" />
<path d="M 223.892578 46.335938 L 223.892578 45.412109 L 230.729980 45.412109 L 230.729980 46.335938 Z " fill="rgb(147, 81, 0)" fill-opacity="1.000000" />
<path d="M 230.892578 46.335938 L 230.892578 45.412109 L 237.729980 45.412109 L 237.729980 46.335938 Z " fill="rgb(147, 81, 0)" fill-opacity="1.000000" />
<path d="M 237.892578 46.335938 L 237.892578 45.412109 L 244.729980 45.412109 L 244.729980 46.335938 Z " fill="rgb(147, 81, 0)" fill-opacity="1.000000" />
<path d="M 244.892578 46.335938 L 244.892578 45.412109 L 251.729980 45.412109 L 251.729980 46.335938 Z " fill="rgb(147, 81, 0)" fill-opacity="1.000000" />
<path d="M 254.878906 52.319336 L 254.878906 46.335938 L 251.892578 46.335938 L 251.892578 45.412109 L 255.738281 45.412109 L 255.738281 52.319336 Z " fill="rgb(147, 81, 0)" fill-opacity="1.000000" />
<path d="M 282.878906 52.319336 L 282.878906 38.300781 L 283.738281 38.300781 L 283.738281 52.319336 Z " fill="rgb(0, 0, 0)" fill-opacity="1.000000" />
<path d="M 297.770508 45.976074 L 297.442871 45.976074 Q 296.578125 45.976074 296.140381 46.279541 Q 295.702637 46.583008 295.702637 47.184570 Q 295.702637 47.727051 296.030273 48.027832 Q 296.357910 48.328613 296.937988 48.328613 Q 297.754395 48.328613 298.221680 47.761963 Q 298.688965 47.195312 298.694336 46.196289 L 298.694336 45.976074 Z M 299.687988 45.567871 L 299.687988 49.000000 L 298.694336 49.000000 L 298.694336 48.108398 Q 298.377441 48.645508 297.896729 48.900635 Q 297.416016 49.155762 296.728516 49.155762 Q 295.810059 49.155762 295.262207 48.637451 Q 294.714355 48.119141 294.714355 47.249023 Q 294.714355 46.244629 295.388428 45.723633 Q 296.062500 45.202637 297.367676 45.202637 L 298.694336 45.202637 L 298.694336 45.046875 Q 298.688965 44.327148 298.329102 44.002197 Q 297.969238 43.677246 297.179688 43.677246 Q 296.674805 43.677246 296.159180 43.822266 Q 295.643555 43.967285 295.154785 44.246582 L 295.154785 43.258301 Q 295.702637 43.048828 296.204834 42.944092 Q 296.707031 42.839355 297.179688 42.839355 Q 297.926270 42.839355 298.455322 43.059570 Q 298.984375 43.279785 299.312012 43.720215 Q 299.516113 43.988770 299.602051 44.383545 Q 299.687988 44.778320 299.687988 45.567871 Z " fill="rgb(147, 81, 0)" fill-opacity="1.000000" />
<path d="M 310.878906 52.319336 L 310.878906 38.300781 L 311.738281 38.300781 L 311.738281 52.319336 Z " fill="rgb(0, 0, 0)" fill-opacity="1.000000" />
<path d="M 325.308594 45.191895 Q 324.583496 45.191895 324.188721 45.597412 Q 323.793945 46.002930 323.793945 46.744141 Q 323.793945 47.485352 324.194092 47.896240 Q 324.594238 48.307129 325.308594 48.307129 Q 326.039062 48.307129 326.433838 47.901611 Q 326.828613 47.496094 326.828613 46.744141 Q 326.828613 46.008301 326.428467 45.600098 Q 326.028320 45.191895 325.308594 45.191895 Z M 324.363281 44.740723 Q 323.670410 44.563477 323.281006 44.080078 Q 322.891602 43.596680 322.891602 42.914551 Q 322.891602 41.958496 323.541504 41.397217 Q 324.191406 40.835938 325.308594 40.835938 Q 326.431152 40.835938 327.081055 41.397217 Q 327.730957 41.958496 327.730957 42.914551 Q 327.730957 43.596680 327.341553 44.080078 Q 326.952148 44.563477 326.259277 44.740723 Q 327.064941 44.917969 327.491943 45.455078 Q 327.918945 45.992188 327.918945 46.846191 Q 327.918945 47.931152 327.226074 48.543457 Q 326.533203 49.155762 325.308594 49.155762 Q 324.083984 49.155762 323.393799 48.546143 Q 322.703613 47.936523 322.703613 46.856934 Q 322.703613 45.997559 323.130615 45.457764 Q 323.557617 44.917969 324.363281 44.740723 Z M 323.971191 43.016602 Q 323.971191 43.661133 324.314941 43.999512 Q 324.658691 44.337891 325.308594 44.337891 Q 325.963867 44.337891 326.307617 43.999512 Q 326.651367 43.661133 326.651367 43.016602 Q 326.651367 42.361328 326.310303 42.017578 Q 325.969238 41.673828 325.308594 41.673828 Q 324.658691 41.673828 324.314941 42.020264 Q 323.971191 42.366699 323.971191 43.016602 Z " fill="rgb(0, 0, 0)" fill-opacity="1.000000" />
<path d="M 338.878906 52.319336 L 338.878906 38.300781 L 339.738281 38.300781 L 339.738281 52.319336 Z " fill="rgb(0, 0, 0)" fill-opacity="1.000000" />
<path d="M 282.878906 13.319336 L 282.878906 6.412109 L 286.729980 6.412109 L 286.729980 7.335938 L 283.738281 7.335938 L 283.738281 13.319336 Z " fill="rgb(0, 0, 0)" fill-opacity="1.000000" />
<path d="M 282.878906 26.319336 L 282.878906 12.300781 L 283.738281 12.300781 L 283.738281 26.319336 Z " fill="rgb(0, 0, 0)" fill-opacity="1.000000" />
<path d="M 282.878906 39.319336 L 282.878906 25.300781 L 283.738281 25.300781 L 283.738281 32.412109 L 286.729980 32.412109 L 286.729980 33.335938 L 283.738281 33.335938 L 283.738281 39.319336 Z " fill="rgb(0, 0, 0)" fill-opacity="1.000000" />
<path d="M 286.892578 33.335938 L 286.892578 32.412109 L 293.729980 32.412109 L 293.729980 33.335938 Z " fill="rgb(0, 0, 0)" fill-opacity="1.000000" />
<path d="M 293.892578 33.335938 L 293.892578 32.412109 L 300.729980 32.412109 L 300.729980 33.335938 Z " fill="rgb(0, 0, 0)" fill-opacity="1.000000" />
<path d="M 300.892578 33.335938 L 300.892578 32.412109 L 307.729980 32.412109 L 307.729980 33.335938 Z " fill="rgb(0, 0, 0)" fill-opacity="1.000000" />
<path d="M 310.878906 39.319336 L 310.878906 33.335938 L 307.892578 33.335938 L 307.892578 32.412109 L 314.729980 32.412109 L 314.729980 33.335938 L 311.738281 33.335938 L 311.738281 39.319336 Z " fill="rgb(0, 0, 0)" fill-opacity="1.000000" />
<path d="M 314.892578 33.335938 L 314.892578 32.412109 L 321.729980 32.412109 L 321.729980 33.335938 Z " fill="rgb(0, 0, 0)" fill-opacity="1.000000" />
<path d="M 321.892578 33.335938 L 321.892578 32.412109 L 328.729980 32.412109 L 328.729980 33.335938 Z " fill="rgb(0, 0, 0)" fill-opacity="1.000000" />
<path d="M 328.892578 33.335938 L 328.892578 32.412109 L 335.729980 32.412109 L 335.729980 33.335938 Z " fill="rgb(0, 0, 0)" fill-opacity="1.000000" />
<path d="M 338.878906 39.319336 L 338.878906 33.335938 L 335.892578 33.335938 L 335.892578 32.412109 L 338.878906 32.412109 L 338.878906 25.300781 L 339.738281 25.300781 L 339.738281 39.319336 Z " fill="rgb(0, 0, 0)" fill-opacity="1.000000" />
<path d="M 292.226074 17.193848 L 292.226074 18.160645 Q 291.801758 17.913574 291.372070 17.790039 Q 290.942383 17.666504 290.496582 17.666504 Q 289.825195 17.666504 289.494873 17.884033 Q 289.164551 18.101562 289.164551 18.547363 Q 289.164551 18.950195 289.411621 19.148926 Q 289.658691 19.347656 290.641602 19.535645 L 291.039062 19.610840 Q 291.774902 19.750488 292.153564 20.169434 Q 292.532227 20.588379 292.532227 21.259766 Q 292.532227 22.151367 291.898438 22.653564 Q 291.264648 23.155762 290.136719 23.155762 Q 289.690918 23.155762 289.202148 23.061768 Q 288.713379 22.967773 288.144043 22.779785 L 288.144043 21.759277 Q 288.697266 22.043945 289.202148 22.186279 Q 289.707031 22.328613 290.158203 22.328613 Q 290.813477 22.328613 291.173340 22.062744 Q 291.533203 21.796875 291.533203 21.318848 Q 291.533203 20.631348 290.217285 20.368164 L 290.174316 20.357422 L 289.803711 20.282227 Q 288.949707 20.115723 288.557617 19.720947 Q 288.165527 19.326172 288.165527 18.644043 Q 288.165527 17.779297 288.750977 17.309326 Q 289.336426 16.839355 290.421387 16.839355 Q 290.904785 16.839355 291.350586 16.927979 Q 291.796387 17.016602 292.226074 17.193848 Z " fill="rgb(0, 0, 0)" fill-opacity="1.000000" />
<path d="M 300.015625 19.498047 L 300.015625 19.981445 L 295.734863 19.981445 L 295.734863 20.013672 Q 295.691895 21.243652 296.204834 21.780762 Q 296.717773 22.317871 297.652344 22.317871 Q 298.125000 22.317871 298.640625 22.167480 Q 299.156250 22.017090 299.741699 21.710938 L 299.741699 22.693848 Q 299.177734 22.924805 298.654053 23.040283 Q 298.130371 23.155762 297.641602 23.155762 Q 296.239746 23.155762 295.450195 22.315186 Q 294.660645 21.474609 294.660645 19.997559 Q 294.660645 18.558105 295.434082 17.698730 Q 296.207520 16.839355 297.496582 16.839355 Q 298.645996 16.839355 299.309326 17.618164 Q 299.972656 18.396973 300.015625 19.498047 Z M 299.027344 19.208008 Q 298.962891 18.584961 298.573486 18.131104 Q 298.184082 17.677246 297.453613 17.677246 Q 296.739258 17.677246 296.277344 18.149902 Q 295.815430 18.622559 295.772461 19.213379 Z " fill="rgb(0, 0, 0)" fill-opacity="1.000000" />
<path d="M 307.203613 18.225098 Q 306.886719 17.978027 306.559082 17.865234 Q 306.231445 17.752441 305.839355 17.752441 Q 304.915527 17.752441 304.426758 18.332520 Q 303.937988 18.912598 303.937988 20.008301 L 303.937988 23.000000 L 302.944336 23.000000 L 302.944336 16.984375 L 303.937988 16.984375 L 303.937988 18.160645 Q 304.185059 17.521484 304.697998 17.180420 Q 305.210938 16.839355 305.914551 16.839355 Q 306.279785 16.839355 306.596680 16.930664 Q 306.913574 17.021973 307.203613 17.215332 Z " fill="rgb(0, 0, 0)" fill-opacity="1.000000" />
<path d="M 309.697266 17.005859 L 312.227051 17.005859 L 312.227051 22.231934 L 314.187500 22.231934 L 314.187500 23.000000 L 309.278320 23.000000 L 309.278320 22.231934 L 311.238770 22.231934 L 311.238770 17.773926 L 309.697266 17.773926 Z M 311.238770 14.669434 L 312.227051 14.669434 L 312.227051 15.915527 L 311.238770 15.915527 Z " fill="rgb(0, 0, 0)" fill-opacity="1.000000" />
<path d="M 321.015625 19.498047 L 321.015625 19.981445 L 316.734863 19.981445 L 316.734863 20.013672 Q 316.691895 21.243652 317.204834 21.780762 Q 317.717773 22.317871 318.652344 22.317871 Q 319.125000 22.317871 319.640625 22.167480 Q 320.156250 22.017090 320.741699 21.710938 L 320.741699 22.693848 Q 320.177734 22.924805 319.654053 23.040283 Q 319.130371 23.155762 318.641602 23.155762 Q 317.239746 23.155762 316.450195 22.315186 Q 315.660645 21.474609 315.660645 19.997559 Q 315.660645 18.558105 316.434082 17.698730 Q 317.207520 16.839355 318.496582 16.839355 Q 319.645996 16.839355 320.309326 17.618164 Q 320.972656 18.396973 321.015625 19.498047 Z M 320.027344 19.208008 Q 319.962891 18.584961 319.573486 18.131104 Q 319.184082 17.677246 318.453613 17.677246 Q 317.739258 17.677246 317.277344 18.149902 Q 316.815430 18.622559 316.772461 19.213379 Z " fill="rgb(0, 0, 0)" fill-opacity="1.000000" />
<path d="M 327.226074 17.193848 L 327.226074 18.160645 Q 326.801758 17.913574 326.372070 17.790039 Q 325.942383 17.666504 325.496582 17.666504 Q 324.825195 17.666504 324.494873 17.884033 Q 324.164551 18.101562 324.164551 18.547363 Q 324.164551 18.950195 324.411621 19.148926 Q 324.658691 19.347656 325.641602 19.535645 L 326.039062 19.610840 Q 326.774902 19.750488 327.153564 20.169434 Q 327.532227 20.588379 327.532227 21.259766 Q 327.532227 22.151367 326.898438 22.653564 Q 326.264648 23.155762 325.136719 23.155762 Q 324.690918 23.155762 324.202148 23.061768 Q 323.713379 22.967773 323.144043 22.779785 L 323.144043 21.759277 Q 323.697266 22.043945 324.202148 22.186279 Q 324.707031 22.328613 325.158203 22.328613 Q 325.813477 22.328613 326.173340 22.062744 Q 326.533203 21.796875 326.533203 21.318848 Q 326.533203 20.631348 325.217285 20.368164 L 325.174316 20.357422 L 324.803711 20.282227 Q 323.949707 20.115723 323.557617 19.720947 Q 323.165527 19.326172 323.165527 18.644043 Q 323.165527 17.779297 323.750977 17.309326 Q 324.336426 16.839355 325.421387 16.839355 Q 325.904785 16.839355 326.350586 16.927979 Q 326.796387 17.016602 327.226074 17.193848 Z " fill="rgb(0, 0, 0)" fill-opacity="1.000000" />
<path d="M 338.878906 26.319336 L 338.878906 12.300781 L 339.738281 12.300781 L 339.738281 26.319336 Z " fill="rgb(0, 0, 0)" fill-opacity="1.000000" />
<path d="M 286.892578 7.335938 L 286.892578 6.412109 L 293.729980 6.412109 L 293.729980 7.335938 Z " fill="rgb(0, 0, 0)" fill-opacity="1.000000" />
<path d="M 293.892578 7.335938 L 293.892578 6.412109 L 300.729980 6.412109 L 300.729980 7.335938 Z " fill="rgb(0, 0, 0)" fill-opacity="1.000000" />
<path d="M 300.892578 7.335938 L 300.892578 6.412109 L 307.729980 6.412109 L 307.729980 7.335938 Z " fill="rgb(0, 0, 0)" fill-opacity="1.000000" />
<path d="M 307.892578 7.335938 L 307.892578 6.412109 L 314.729980 6.412109 L 314.729980 7.335938 Z " fill="rgb(0, 0, 0)" fill-opacity="1.000000" />
<path d="M 314.892578 7.335938 L 314.892578 6.412109 L 321.729980 6.412109 L 321.729980 7.335938 Z " fill="rgb(0, 0, 0)" fill-opacity="1.000000" />
<path d="M 321.892578 7.335938 L 321.892578 6.412109 L 328.729980 6.412109 L 328.729980 7.335938 Z " fill="rgb(0, 0, 0)" fill-opacity="1.000000" />
<path d="M 328.892578 7.335938 L 328.892578 6.412109 L 335.729980 6.412109 L 335.729980 7.335938 Z " fill="rgb(0, 0, 0)" fill-opacity="1.000000" />
<path d="M 338.878906 13.319336 L 338.878906 7.335938 L 335.892578 7.335938 L 335.892578 6.412109 L 339.738281 6.412109 L 339.738281 13.319336 Z " fill="rgb(0, 0, 0)" fill-opacity="1.000000" />
</svg>