<svg xmlns="http://www.w3.org/2000/svg" version="1.1" width="211" height="92">
<path d="M 2.878906 13.319336 L 2.878906 6.412109 L 6.729980 6.412109 L 6.729980 7.335938 L 3.738281 7.335938 L 3.738281 13.319336 Z " fill="rgb(0, 0, 0)" fill-opacity="1.000000" />
<path d="M 2.878906 26.319336 L 2.878906 12.300781 L 3.738281 12.300781 L 3.738281 26.319336 Z " fill="rgb(0, 0, 0)" fill-opacity="1.000000" />
<path d="M 2.878906 39.319336 L 2.878906 25.300781 L 3.738281 25.300781 L 3.738281 32.412109 L 6.729980 32.412109 L 6.729980 33.335938 L 3.738281 33.335938 L 3.738281 39.319336 Z " fill="rgb(0, 0, 0)" fill-opacity="1.000000" />
<path d="M 2.878906 52.319336 L 2.878906 38.300781 L 3.738281 38.300781 L 3.738281 52.319336 Z " fill="rgb(0, 0, 0)" fill-opacity="1.000000" />
<path d="M 2.878906 65.319336 L 2.878906 51.300781 L 3.738281 51.300781 L 3.738281 58.412109 L 6.729980 58.412109 L 6.729980 59.335938 L 3.738281 59.335938 L 3.738281 65.319336 Z " fill="rgb(0, 0, 0)" fill-opacity="1.000000" />
<path d="M 2.878906 78.319336 L 2.878906 64.300781 L 3.738281 64.300781 L 3.738281 78.319336 Z " fill="rgb(0, 0, 0)" fill-opacity="1.000000" />
<path d="M 2.878906 85.335938 L 2.878906 77.300781 L 3.738281 77.300781 L 3.738281 84.412109 L 6.729980 84.412109 L 6.729980 85.335938 Z " fill="rgb(0, 0, 0)" fill-opacity="1.000000" />
<path d="M 6.892578 85.335938 L 6.892578 84.412109 L 13.729980 84.412109 L 13.729980 85.335938 Z " fill="rgb(0, 0, 0)" fill-opacity="1.000000" />
<path d="M 13.892578 85.335938 L 13.892578 84.412109 L 20.729980 84.412109 L 20.729980 85.335938 Z " fill="rgb(0, 0, 0)" fill-opacity="1.000000" />
<path d="M 20.892578 85.335938 L 20.892578 84.412109 L 27.729980 84.412109 L 27.729980 85.335938 Z " fill="rgb(0, 0, 0)" fill-opacity="1.000000" />
<path d="M 27.892578 85.335938 L 27.892578 84.412109 L 30.878906 84.412109 L 30.878906 77.300781 L 31.738281 77.300781 L 31.738281 84.412109 L 34.729980 84.412109 L 34.729980 85.335938 Z " fill="rgb(0, 0, 0)" fill-opacity="1.000000" />
<path d="M 34.892578 85.335938 L 34.892578 84.412109 L 41.729980 84.412109 L 41.729980 85.335938 Z " fill="rgb(0, 0, 0)" fill-opacity="1.000000" />
<path d="M 41.892578 85.335938 L 41.892578 84.412109 L 48.729980 84.412109 L 48.729980 85.335938 Z " fill="rgb(0, 0, 0)" fill-opacity="1.000000" />
<path d="M 48.892578 85.335938 L 48.892578 84.412109 L 55.729980 84.412109 L 55.729980 85.335938 Z " fill="rgb(0, 0, 0)" fill-opacity="1.000000" />
<path d="M 55.892578 85.335938 L 55.892578 84.412109 L 58.878906 84.412109 L 58.878906 77.300781 L 59.738281 77.300781 L 59.738281 85.335938 Z " fill="rgb(0, 0, 0)" fill-opacity="1.000000" />
<path d="M 149.878906 85.335938 L 149.878906 77.300781 L 150.738281 77.300781 L 150.738281 84.412109 L 153.729980 84.412109 L 153.729980 85.335938 Z " fill="rgb(0, 0, 0)" fill-opacity="1.000000" />
<path d="M 153.892578 85.335938 L 153.892578 84.412109 L 160.729980 84.412109 L 160.729980 85.335938 Z " fill="rgb(0, 0, 0)" fill-opacity="1.000000" />
<path d="M 160.892578 85.335938 L 160.892578 84.412109 L 167.729980 84.412109 L 167.729980 85.335938 Z " fill="rgb(0, 0, 0)" fill-opacity="1.000000" />
<path d="M 167.892578 85.335938 L 167.892578 84.412109 L 174.729980 84.412109 L 174.729980 85.335938 Z " fill="rgb(0, 0, 0)" fill-opacity="1.000000" />
<path d="M 174.892578 85.335938 L 174.892578 84.412109 L 177.878906 84.412109 L 177.878906 77.300781 L 178.738281 77.300781 L 178.738281 84.412109 L 181.729980 84.412109 L 181.729980 85.335938 Z " fill="rgb(0, 0, 0)" fill-opacity="1.000000" />
<path d="M 181.892578 85.335938 L 181.892578 84.412109 L 188.729980 84.412109 L 188.729980 85.335938 Z " fill="rgb(0, 0, 0)" fill-opacity="1.000000" />
<path d="M 188.892578 85.335938 L 188.892578 84.412109 L 195.729980 84.412109 L 195.729980 85.335938 Z " fill="rgb(0, 0, 0)" fill-opacity="1.000000" />
<path d="M 195.892578 85.335938 L 195.892578 84.412109 L 202.729980 84.412109 L 202.729980 85.335938 Z " fill="rgb(0, 0, 0)" fill-opacity="1.000000" />
<path d="M 202.892578 85.335938 L 202.892578 84.412109 L 205.878906 84.412109 L 205.878906 77.300781 L 206.738281 77.300781 L 206.738281 85.335938 Z " fill="rgb(0, 0, 0)" fill-opacity="1.000000" />
<path d="M 15.981934 70.955566 L 15.981934 74.108398 L 17.265625 74.108398 Q 18.210938 74.108398 18.613770 73.778076 Q 19.016602 73.447754 19.016602 72.690430 Q 19.016602 71.691406 18.592285 71.323486 Q 18.167969 70.955566 17.265625 70.955566 Z M 15.981934 67.872559 L 15.981934 70.074707 L 17.244141 70.074707 Q 18.028320 70.074707 18.380127 69.773926 Q 18.731934 69.473145 18.731934 69.016602 Q 18.731934 68.409668 18.385498 68.141113 Q 18.039062 67.872559 17.244141 67.872559 Z M 14.891602 66.980957 L 17.265625 66.980957 Q 18.495605 66.980957 19.161621 67.512695 Q 19.827637 68.044434 19.827637 69.016602 Q 19.827637 69.537598 19.475830 69.961914 Q 19.124023 70.386230 18.420410 70.493652 Q 19.209961 70.611816 19.658447 71.167725 Q 20.106934 71.723633 20.106934 72.797852 Q 20.106934 73.888184 19.392578 74.444092 Q 18.678223 75.000000 17.265625 75.000000 L 14.891602 75.000000 Z " fill="rgb(170, 120, 0)" fill-opacity="1.000000" />
<path d="M 30.878906 78.319336 L 30.878906 64.300781 L 31.738281 64.300781 L 31.738281 78.319336 Z " fill="rgb(0, 0, 0)" fill-opacity="1.000000" />
<path d="M 43.450195 74.092285 L 45.136719 74.092285 L 45.136719 68.033691 L 43.117188 69.005859 L 43.117188 67.963867 L 45.125977 67.007812 L 46.210938 67.007812 L 46.210938 74.092285 L 47.875977 74.092285 L 47.875977 75.000000 L 43.450195 75.000000 Z " fill="rgb(0, 0, 0)" fill-opacity="1.000000" />
<path d="M 58.878906 78.319336 L 58.878906 64.300781 L 59.738281 64.300781 L 59.738281 78.319336 Z " fill="rgb(0, 0, 0)" fill-opacity="1.000000" />
<path d="M 149.878906 78.319336 L 149.878906 64.300781 L 150.738281 64.300781 L 150.738281 78.319336 Z " fill="rgb(0, 0, 0)" fill-opacity="1.000000" />
<path d="M 164.308594 67.937012 L 163.164551 72.040527 L 165.452637 72.040527 Z M 163.653320 66.980957 L 164.969238 66.980957 L 167.423828 75.000000 L 166.301270 75.000000 L 165.710449 72.910645 L 162.901367 72.910645 L 162.321289 75.000000 L 161.198730 75.000000 Z " fill="rgb(0, 118, 0)" fill-opacity="1.000000" />
<path d="M 177.878906 78.319336 L 177.878906 64.300781 L 178.738281 64.300781 L 178.738281 78.319336 Z " fill="rgb(0, 0, 0)" fill-opacity="1.000000" />
<path d="M 191.003418 74.086914 L 194.687988 74.086914 L 194.687988 75.000000 L 189.816406 75.000000 L 189.816406 74.086914 Q 190.820801 73.028809 191.572754 72.217773 Q 192.324707 71.406738 192.609375 71.073730 Q 193.146484 70.418457 193.334473 70.012939 Q 193.522461 69.607422 193.522461 69.183105 Q 193.522461 68.511719 193.127686 68.130371 Q 192.732910 67.749023 192.045410 67.749023 Q 191.556641 67.749023 191.019531 67.926270 Q 190.482422 68.103516 189.880859 68.463379 L 189.880859 67.367676 Q 190.434082 67.104492 190.968506 66.970215 Q 191.502930 66.835938 192.023926 66.835938 Q 193.200195 66.835938 193.917236 67.461670 Q 194.634277 68.087402 194.634277 69.102539 Q 194.634277 69.618164 194.395264 70.133789 Q 194.156250 70.649414 193.619141 71.272461 Q 193.318359 71.621582 192.746338 72.239258 Q 192.174316 72.856934 191.003418 74.086914 Z " fill="rgb(0, 0, 0)" fill-opacity="1.000000" />
<path d="M 205.878906 78.319336 L 205.878906 64.300781 L 206.738281 64.300781 L 206.738281 78.319336 Z " fill="rgb(0, 0, 0)" fill-opacity="1.000000" />
<path d="M 6.892578 59.335938 L 6.892578 58.412109 L 13.729980 58.412109 L 13.729980 59.335938 Z " fill="rgb(0, 0, 0)" fill-opacity="1.000000" />
<path d="M 13.892578 59.335938 L 13.892578 58.412109 L 20.729980 58.412109 L 20.729980 59.335938 Z " fill="rgb(0, 0, 0)" fill-opacity="1.000000" />
<path d="M 20.892578 59.335938 L 20.892578 58.412109 L 27.729980 58.412109 L 27.729980 59.335938 Z " fill="rgb(0, 0, 0)" fill-opacity="1.000000" />
<path d="M 31.738281 59.335938 L 31.738281 65.319336 L 30.878906 65.319336 L 30.878906 59.335938 L 27.892578 59.335938 L 27.892578 58.412109 L 30.878906 58.412109 L 30.878906 51.300781 L 31.738281 51.300781 L 31.738281 58.412109 L 34.729980 58.412109 L 34.729980 59.335938 Z " fill="rgb(0, 0, 0)" fill-opacity="1.000000" />
<path d="M 34.892578 59.335938 L 34.892578 58.412109 L 41.729980 58.412109 L 41.729980 59.335938 Z " fill="rgb(0, 0, 0)" fill-opacity="1.000000" />
<path d="M 41.892578 59.335938 L 41.892578 58.412109 L 48.729980 58.412109 L 48.729980 59.335938 Z " fill="rgb(0, 0, 0)" fill-opacity="1.000000" />
<path d="M 48.892578 59.335938 L 48.892578 58.412109 L 55.729980 58.412109 L 55.729980 59.335938 Z " fill="rgb(0, 0, 0)" fill-opacity="1.000000" />
<path d="M 58.878906 65.319336 L 58.878906 59.335938 L 55.892578 59.335938 L 55.892578 58.412109 L 58.878906 58.412109 L 58.878906 51.300781 L 59.738281 51.300781 L 59.738281 65.319336 Z " fill="rgb(0, 0, 0)" fill-opacity="1.000000" />
<path d="M 149.878906 65.319336 L 149.878906 51.300781 L 150.738281 51.300781 L 150.738281 58.412109 L 153.729980 58.412109 L 153.729980 59.335938 L 150.738281 59.335938 L 150.738281 65.319336 Z " fill="rgb(0, 0, 0)" fill-opacity="1.000000" />
<path d="M 153.892578 59.335938 L 153.892578 58.412109 L 160.729980 58.412109 L 160.729980 59.335938 Z " fill="rgb(0, 0, 0)" fill-opacity="1.000000" />
<path d="M 160.892578 59.335938 L 160.892578 58.412109 L 167.729980 58.412109 L 167.729980 59.335938 Z " fill="rgb(0, 0, 0)" fill-opacity="1.000000" />
<path d="M 167.892578 59.335938 L 167.892578 58.412109 L 174.729980 58.412109 L 174.729980 59.335938 Z " fill="rgb(0, 0, 0)" fill-opacity="1.000000" />
<path d="M 178.738281 59.335938 L 178.738281 65.319336 L 177.878906 65.319336 L 177.878906 59.335938 L 174.892578 59.335938 L 174.892578 58.412109 L 177.878906 58.412109 L 177.878906 51.300781 L 178.738281 51.300781 L 178.738281 58.412109 L 181.729980 58.412109 L 181.729980 59.335938 Z " fill="rgb(0, 0, 0)" fill-opacity="1.000000" />
<path d="M 181.892578 59.335938 L 181.892578 58.412109 L 188.729980 58.412109 L 188.729980 59.335938 Z " fill="rgb(0, 0, 0)" fill-opacity="1.000000" />
<path d="M 188.892578 59.335938 L 188.892578 58.412109 L 195.729980 58.412109 L 195.729980 59.335938 Z " fill="rgb(0, 0, 0)" fill-opacity="1.000000" />
<path d="M 195.892578 59.335938 L 195.892578 58.412109 L 202.729980 58.412109 L 202.729980 59.335938 Z " fill="rgb(0, 0, 0)" fill-opacity="1.000000" />
<path d="M 205.878906 65.319336 L 205.878906 59.335938 L 202.892578 59.335938 L 202.892578 58.412109 L 205.878906 58.412109 L 205.878906 51.300781 L 206.738281 51.300781 L 206.738281 65.319336 Z " fill="rgb(0, 0, 0)" fill-opacity="1.000000" />
<path d="M 17.308594 41.937012 L 16.164551 46.040527 L 18.452637 46.040527 Z M 16.653320 40.980957 L 17.969238 40.980957 L 20.423828 49.000000 L 19.301270 49.000000 L 18.710449 46.910645 L 15.901367 46.910645 L 15.321289 49.000000 L 14.198730 49.000000 Z " fill="rgb(64, 118, 0)" fill-opacity="1.000000" />
<path d="M 30.878906 52.319336 L 30.878906 38.300781 L 31.738281 38.300781 L 31.738281 52.319336 Z " fill="rgb(0, 0, 0)" fill-opacity="1.000000" />
<path d="M 44.003418 48.086914 L 47.687988 48.086914 L 47.687988 49.000000 L 42.816406 49.000000 L 42.816406 48.086914 Q 43.820801 47.028809 44.572754 46.217773 Q 45.324707 45.406738 45.609375 45.073730 Q 46.146484 44.418457 46.334473 44.012939 Q 46.522461 43.607422 46.522461 43.183105 Q 46.522461 42.511719 46.127686 42.130371 Q 45.732910 41.749023 45.045410 41.749023 Q 44.556641 41.749023 44.019531 41.926270 Q 43.482422 42.103516 42.880859 42.463379 L 42.880859 41.367676 Q 43.434082 41.104492 43.968506 40.970215 Q 44.502930 40.835938 45.023926 40.835938 Q 46.200195 40.835938 46.917236 41.461670 Q 47.634277 42.087402 47.634277 43.102539 Q 47.634277 43.618164 47.395264 44.133789 Q 47.156250 44.649414 46.619141 45.272461 Q 46.318359 45.621582 45.746338 46.239258 Q 45.174316 46.856934 44.003418 48.086914 Z " fill="rgb(0, 0, 0)" fill-opacity="1.000000" />
<path d="M 58.878906 52.319336 L 58.878906 38.300781 L 59.738281 38.300781 L 59.738281 52.319336 Z " fill="rgb(0, 0, 0)" fill-opacity="1.000000" />
<path d="M 70.032227 46.142578 L 76.590332 42.866211 L 76.590332 49.418945 Z " fill="rgb(0, 0, 0)" fill-opacity="1.000000" />
<path d="M 76.892578 45.412109 L 76.892578 44.488281 L 83.729980 44.488281 L 83.729980 45.412109 Z M 76.892578 47.259766 L 76.892578 46.335938 L 83.729980 46.335938 L 83.729980 47.259766 Z " fill="rgb(0, 0, 0)" fill-opacity="1.000000" />
<path d="M 83.892578 45.412109 L 83.892578 44.488281 L 90.729980 44.488281 L 90.729980 45.412109 Z M 83.892578 47.259766 L 83.892578 46.335938 L 90.729980 46.335938 L 90.729980 47.259766 Z " fill="rgb(0, 0, 0)" fill-opacity="1.000000" />
<path d="M 90.892578 45.412109 L 90.892578 44.488281 L 97.729980 44.488281 L 97.729980 45.412109 Z M 90.892578 47.259766 L 90.892578 46.335938 L 97.729980 46.335938 L 97.729980 47.259766 Z " fill="rgb(0, 0, 0)" fill-opacity="1.000000" />
<path d="M 97.892578 45.412109 L 97.892578 44.488281 L 104.729980 44.488281 L 104.729980 45.412109 Z M 97.892578 47.259766 L 97.892578 46.335938 L 104.729980 46.335938 L 104.729980 47.259766 Z " fill="rgb(0, 0, 0)" fill-opacity="1.000000" />
<path d="M 104.892578 45.412109 L 104.892578 44.488281 L 111.729980 44.488281 L 111.729980 45.412109 Z M 104.892578 47.259766 L 104.892578 46.335938 L 111.729980 46.335938 L 111.729980 47.259766 Z " fill="rgb(0, 0, 0)" fill-opacity="1.000000" />
<path d="M 111.892578 45.412109 L 111.892578 44.488281 L 118.729980 44.488281 L 118.729980 45.412109 Z M 111.892578 47.259766 L 111.892578 46.335938 L 118.729980 46.335938 L 118.729980 47.259766 Z " fill="rgb(0, 0, 0)" fill-opacity="1.000000" />
<path d="M 118.892578 45.412109 L 118.892578 44.488281 L 125.729980 44.488281 L 125.729980 45.412109 Z M 118.892578 47.259766 L 118.892578 46.335938 L 125.729980 46.335938 L 125.729980 47.259766 Z " fill="rgb(0, 0, 0)" fill-opacity="1.000000" />
<path d="M 125.892578 45.412109 L 125.892578 44.488281 L 132.729980 44.488281 L 132.729980 45.412109 Z M 125.892578 47.259766 L 125.892578 46.335938 L 132.729980 46.335938 L 132.729980 47.259766 Z " fill="rgb(0, 0, 0)" fill-opacity="1.000000" />
<path d="M 133.032227 49.418945 L 133.032227 42.866211 L 139.590332 46.142578 Z " fill="rgb(0, 0, 0)" fill-opacity="1.000000" />
<path d="M 149.878906 52.319336 L 149.878906 38.300781 L 150.738281 38.300781 L 150.738281 52.319336 Z " fill="rgb(0, 0, 0)" fill-opacity="1.000000" />
<path d="M 162.981934 44.955566 L 162.981934 48.108398 L 164.265625 48.108398 Q 165.210938 48.108398 165.613770 47.778076 Q 166.016602 47.447754 166.016602 46.690430 Q 166.016602 45.691406 165.592285 45.323486 Q 165.167969 44.955566 164.265625 44.955566 Z M 162.981934 41.872559 L 162.981934 44.074707 L 164.244141 44.074707 Q 165.028320 44.074707 165.380127 43.773926 Q 165.731934 43.473145 165.731934 43.016602 Q 165.731934 42.409668 165.385498 42.141113 Q 165.039062 41.872559 164.244141 41.872559 Z M 161.891602 40.980957 L 164.265625 40.980957 Q 165.495605 40.980957 166.161621 41.512695 Q 166.827637 42.044434 166.827637 43.016602 Q 166.827637 43.537598 166.475830 43.961914 Q 166.124023 44.386230 165.420410 44.493652 Q 166.209961 44.611816 166.658447 45.167725 Q 167.106934 45.723633 167.106934 46.797852 Q 167.106934 47.888184 166.392578 48.444092 Q 165.678223 49.000000 164.265625 49.000000 L 161.891602 49.000000 Z " fill="rgb(170, 120, 0)" fill-opacity="1.000000" />
<path d="M 177.878906 52.319336 L 177.878906 38.300781 L 178.738281 38.300781 L 178.738281 52.319336 Z " fill="rgb(0, 0, 0)" fill-opacity="1.000000" />
<path d="M 190.450195 48.092285 L 192.136719 48.092285 L 192.136719 42.033691 L 190.117188 43.005859 L 190.117188 41.963867 L 192.125977 41.007812 L 193.210938 41.007812 L 193.210938 48.092285 L 194.875977 48.092285 L 194.875977 49.000000 L 190.450195 49.000000 Z " fill="rgb(0, 0, 0)" fill-opacity="1.000000" />
<path d="M 205.878906 52.319336 L 205.878906 38.300781 L 206.738281 38.300781 L 206.738281 52.319336 Z " fill="rgb(0, 0, 0)" fill-opacity="1.000000" />
<path d="M 6.892578 33.335938 L 6.892578 32.412109 L 13.729980 32.412109 L 13.729980 33.335938 Z " fill="rgb(0, 0, 0)" fill-opacity="1.000000" />
<path d="M 13.892578 33.335938 L 13.892578 32.412109 L 20.729980 32.412109 L 20.729980 33.335938 Z " fill="rgb(0, 0, 0)" fill-opacity="1.000000" />
<path d="M 20.892578 33.335938 L 20.892578 32.412109 L 27.729980 32.412109 L 27.729980 33.335938 Z " fill="rgb(0, 0, 0)" fill-opacity="1.000000" />
<path d="M 30.878906 39.319336 L 30.878906 33.335938 L 27.892578 33.335938 L 27.892578 32.412109 L 34.729980 32.412109 L 34.729980 33.335938 L 31.738281 33.335938 L 31.738281 39.319336 Z " fill="rgb(0, 0, 0)" fill-opacity="1.000000" />
<path d="M 34.892578 33.335938 L 34.892578 32.412109 L 41.729980 32.412109 L 41.729980 33.335938 Z " fill="rgb(0, 0, 0)" fill-opacity="1.000000" />
<path d="M 41.892578 33.335938 L 41.892578 32.412109 L 48.729980 32.412109 L 48.729980 33.335938 Z " fill="rgb(0, 0, 0)" fill-opacity="1.000000" />
<path d="M 48.892578 33.335938 L 48.892578 32.412109 L 55.729980 32.412109 L 55.729980 33.335938 Z " fill="rgb(0, 0, 0)" fill-opacity="1.000000" />
<path d="M 58.878906 39.319336 L 58.878906 33.335938 L 55.892578 33.335938 L 55.892578 32.412109 L 58.878906 32.412109 L 58.878906 25.300781 L 59.738281 25.300781 L 59.738281 39.319336 Z " fill="rgb(0, 0, 0)" fill-opacity="1.000000" />
<path d="M 94.673828 33.846191 L 93.653320 33.846191 L 93.653320 33.019043 Q 93.653320 32.492676 93.817139 32.124756 Q 93.980957 31.756836 94.432129 31.316406 L 94.915527 30.838379 Q 95.248535 30.521484 95.374756 30.285156 Q 95.500977 30.048828 95.500977 29.785645 Q 95.500977 29.307617 95.149170 29.012207 Q 94.797363 28.716797 94.211914 28.716797 Q 93.792969 28.716797 93.314941 28.902100 Q 92.836914 29.087402 92.310547 29.452637 L 92.310547 28.442871 Q 92.815430 28.136719 93.328369 27.986328 Q 93.841309 27.835938 94.399902 27.835938 Q 95.398926 27.835938 95.992432 28.351562 Q 96.585938 28.867188 96.585938 29.731934 Q 96.585938 30.140137 96.406006 30.491943 Q 96.226074 30.843750 95.721191 31.337891 L 95.248535 31.799805 Q 94.877930 32.154297 94.775879 32.379883 Q 94.673828 32.605469 94.673828 32.933105 L 94.673828 33.185547 Z M 93.615723 34.635742 L 94.706055 34.635742 L 94.706055 36.000000 L 93.615723 36.000000 Z " fill="rgb(0, 0, 0)" fill-opacity="1.000000" />
<path d="M 101.673828 33.846191 L 100.653320 33.846191 L 100.653320 33.019043 Q 100.653320 32.492676 100.817139 32.124756 Q 100.980957 31.756836 101.432129 31.316406 L 101.915527 30.838379 Q 102.248535 30.521484 102.374756 30.285156 Q 102.500977 30.048828 102.500977 29.785645 Q 102.500977 29.307617 102.149170 29.012207 Q 101.797363 28.716797 101.211914 28.716797 Q 100.792969 28.716797 100.314941 28.902100 Q 99.836914 29.087402 99.310547 29.452637 L 99.310547 28.442871 Q 99.815430 28.136719 100.328369 27.986328 Q 100.841309 27.835938 101.399902 27.835938 Q 102.398926 27.835938 102.992432 28.351562 Q 103.585938 28.867188 103.585938 29.731934 Q 103.585938 30.140137 103.406006 30.491943 Q 103.226074 30.843750 102.721191 31.337891 L 102.248535 31.799805 Q 101.877930 32.154297 101.775879 32.379883 Q 101.673828 32.605469 101.673828 32.933105 L 101.673828 33.185547 Z M 100.615723 34.635742 L 101.706055 34.635742 L 101.706055 36.000000 L 100.615723 36.000000 Z " fill="rgb(0, 0, 0)" fill-opacity="1.000000" />
<path d="M 108.673828 33.846191 L 107.653320 33.846191 L 107.653320 33.019043 Q 107.653320 32.492676 107.817139 32.124756 Q 107.980957 31.756836 108.432129 31.316406 L 108.915527 30.838379 Q 109.248535 30.521484 109.374756 30.285156 Q 109.500977 30.048828 109.500977 29.785645 Q 109.500977 29.307617 109.149170 29.012207 Q 108.797363 28.716797 108.211914 28.716797 Q 107.792969 28.716797 107.314941 28.902100 Q 106.836914 29.087402 106.310547 29.452637 L 106.310547 28.442871 Q 106.815430 28.136719 107.328369 27.986328 Q 107.841309 27.835938 108.399902 27.835938 Q 109.398926 27.835938 109.992432 28.351562 Q 110.585938 28.867188 110.585938 29.731934 Q 110.585938 30.140137 110.406006 30.491943 Q 110.226074 30.843750 109.721191 31.337891 L 109.248535 31.799805 Q 108.877930 32.154297 108.775879 32.379883 Q 108.673828 32.605469 108.673828 32.933105 L 108.673828 33.185547 Z M 107.615723 34.635742 L 108.706055 34.635742 L 108.706055 36.000000 L 107.615723 36.000000 Z " fill="rgb(0, 0, 0)" fill-opacity="1.000000" />
<path d="M 115.673828 33.846191 L 114.653320 33.846191 L 114.653320 33.019043 Q 114.653320 32.492676 114.817139 32.124756 Q 114.980957 31.756836 115.432129 31.316406 L 115.915527 30.838379 Q 116.248535 30.521484 116.374756 30.285156 Q 116.500977 30.048828 116.500977 29.785645 Q 116.500977 29.307617 116.149170 29.012207 Q 115.797363 28.716797 115.211914 28.716797 Q 114.792969 28.716797 114.314941 28.902100 Q 113.836914 29.087402 113.310547 29.452637 L 113.310547 28.442871 Q 113.815430 28.136719 114.328369 27.986328 Q 114.841309 27.835938 115.399902 27.835938 Q 116.398926 27.835938 116.992432 28.351562 Q 117.585938 28.867188 117.585938 29.731934 Q 117.585938 30.140137 117.406006 30.491943 Q 117.226074 30.843750 116.721191 31.337891 L 116.248535 31.799805 Q 115.877930 32.154297 115.775879 32.379883 Q 115.673828 32.605469 115.673828 32.933105 L 115.673828 33.185547 Z M 114.615723 34.635742 L 115.706055 34.635742 L 115.706055 36.000000 L 114.615723 36.000000 Z " fill="rgb(0, 0, 0)" fill-opacity="1.000000" />
<path d="M 149.878906 39.319336 L 149.878906 25.300781 L 150.738281 25.300781 L 150.738281 32.412109 L 153.729980 32.412109 L 153.729980 33.335938 L 150.738281 33.335938 L 150.738281 39.319336 Z " fill="rgb(0, 0, 0)" fill-opacity="1.000000" />
<path d="M 153.892578 33.335938 L 153.892578 32.412109 L 160.729980 32.412109 L 160.729980 33.335938 Z " fill="rgb(0, 0, 0)" fill-opacity="1.000000" />
<path d="M 160.892578 33.335938 L 160.892578 32.412109 L 167.729980 32.412109 L 167.729980 33.335938 Z " fill="rgb(0, 0, 0)" fill-opacity="1.000000" />
<path d="M 167.892578 33.335938 L 167.892578 32.412109 L 174.729980 32.412109 L 174.729980 33.335938 Z " fill="rgb(0, 0, 0)" fill-opacity="1.000000" />
<path d="M 177.878906 39.319336 L 177.878906 33.335938 L 174.892578 33.335938 L 174.892578 32.412109 L 181.729980 32.412109 L 181.729980 33.335938 L 178.738281 33.335938 L 178.738281 39.319336 Z " fill="rgb(0, 0, 0)" fill-opacity="1.000000" />
<path d="M 181.892578 33.335938 L 181.892578 32.412109 L 188.729980 32.412109 L 188.729980 33.335938 Z " fill="rgb(0, 0, 0)" fill-opacity="1.000000" />
<path d="M 188.892578 33.335938 L 188.892578 32.412109 L 195.729980 32.412109 L 195.729980 33.335938 Z " fill="rgb(0, 0, 0)" fill-opacity="1.000000" />
<path d="M 195.892578 33.335938 L 195.892578 32.412109 L 202.729980 32.412109 L 202.729980 33.335938 Z " fill="rgb(0, 0, 0)" fill-opacity="1.000000" />
<path d="M 205.878906 39.319336 L 205.878906 33.335938 L 202.892578 33.335938 L 202.892578 32.412109 L 205.878906 32.412109 L 205.878906 25.300781 L 206.738281 25.300781 L 206.738281 39.319336 Z " fill="rgb(0, 0, 0)" fill-opacity="1.000000" />
<path d="M 12.226074 17.193848 L 12.226074 18.160645 Q 11.801758 17.913574 11.372070 17.790039 Q 10.942383 17.666504 10.496582 17.666504 Q 9.825195 17.666504 9.494873 17.884033 Q 9.164551 18.101562 9.164551 18.547363 Q 9.164551 18.950195 9.411621 19.148926 Q 9.658691 19.347656 10.641602 19.535645 L 11.039062 19.610840 Q 11.774902 19.750488 12.153564 20.169434 Q 12.532227 20.588379 12.532227 21.259766 Q 12.532227 22.151367 11.898438 22.653564 Q 11.264648 23.155762 10.136719 23.155762 Q 9.690918 23.155762 9.202148 23.061768 Q 8.713379 22.967773 8.144043 22.779785 L 8.144043 21.759277 Q 8.697266 22.043945 9.202148 22.186279 Q 9.707031 22.328613 10.158203 22.328613 Q 10.813477 22.328613 11.173340 22.062744 Q 11.533203 21.796875 11.533203 21.318848 Q 11.533203 20.631348 10.217285 20.368164 L 10.174316 20.357422 L 9.803711 20.282227 Q 8.949707 20.115723 8.557617 19.720947 Q 8.165527 19.326172 8.165527 18.644043 Q 8.165527 17.779297 8.750977 17.309326 Q 9.336426 16.839355 10.421387 16.839355 Q 10.904785 16.839355 11.350586 16.927979 Q 11.796387 17.016602 12.226074 17.193848 Z " fill="rgb(0, 0, 0)" fill-opacity="1.000000" />
<path d="M 15.450195 22.092285 L 17.136719 22.092285 L 17.136719 16.033691 L 15.117188 17.005859 L 15.117188 15.963867 L 17.125977 15.007812 L 18.210938 15.007812 L 18.210938 22.092285 L 19.875977 22.092285 L 19.875977 23.000000 L 15.450195 23.000000 Z " fill="rgb(0, 0, 0)" fill-opacity="1.000000" />
<path d="M 58.878906 26.319336 L 58.878906 12.300781 L 59.738281 12.300781 L 59.738281 26.319336 Z " fill="rgb(0, 0, 0)" fill-opacity="1.000000" />
<path d="M 149.878906 26.319336 L 149.878906 12.300781 L 150.738281 12.300781 L 150.738281 26.319336 Z " fill="rgb(0, 0, 0)" fill-opacity="1.000000" />
<path d="M 159.226074 17.193848 L 159.226074 18.160645 Q 158.801758 17.913574 158.372070 17.790039 Q 157.942383 17.666504 157.496582 17.666504 Q 156.825195 17.666504 156.494873 17.884033 Q 156.164551 18.101562 156.164551 18.547363 Q 156.164551 18.950195 156.411621 19.148926 Q 156.658691 19.347656 157.641602 19.535645 L 158.039062 19.610840 Q 158.774902 19.750488 159.153564 20.169434 Q 159.532227 20.588379 159.532227 21.259766 Q 159.532227 22.151367 158.898438 22.653564 Q 158.264648 23.155762 157.136719 23.155762 Q 156.690918 23.155762 156.202148 23.061768 Q 155.713379 22.967773 155.144043 22.779785 L 155.144043 21.759277 Q 155.697266 22.043945 156.202148 22.186279 Q 156.707031 22.328613 157.158203 22.328613 Q 157.813477 22.328613 158.173340 22.062744 Q 158.533203 21.796875 158.533203 21.318848 Q 158.533203 20.631348 157.217285 20.368164 L 157.174316 20.357422 L 156.803711 20.282227 Q 155.949707 20.115723 155.557617 19.720947 Q 155.165527 19.326172 155.165527 18.644043 Q 155.165527 17.779297 155.750977 17.309326 Q 156.336426 16.839355 157.421387 16.839355 Q 157.904785 16.839355 158.350586 16.927979 Q 158.796387 17.016602 159.226074 17.193848 Z " fill="rgb(0, 0, 0)" fill-opacity="1.000000" />
<path d="M 163.003418 22.086914 L 166.687988 22.086914 L 166.687988 23.000000 L 161.816406 23.000000 L 161.816406 22.086914 Q 162.820801 21.028809 163.572754 20.217773 Q 164.324707 19.406738 164.609375 19.073730 Q 165.146484 18.418457 165.334473 18.012939 Q 165.522461 17.607422 165.522461 17.183105 Q 165.522461 16.511719 165.127686 16.130371 Q 164.732910 15.749023 164.045410 15.749023 Q 163.556641 15.749023 163.019531 15.926270 Q 162.482422 16.103516 161.880859 16.463379 L 161.880859 15.367676 Q 162.434082 15.104492 162.968506 14.970215 Q 163.502930 14.835938 164.023926 14.835938 Q 165.200195 14.835938 165.917236 15.461670 Q 166.634277 16.087402 166.634277 17.102539 Q 166.634277 17.618164 166.395264 18.133789 Q 166.156250 18.649414 165.619141 19.272461 Q 165.318359 19.621582 164.746338 20.239258 Q 164.174316 20.856934 163.003418 22.086914 Z " fill="rgb(0, 0, 0)" fill-opacity="1.000000" />
<path d="M 205.878906 26.319336 L 205.878906 12.300781 L 206.738281 12.300781 L 206.738281 26.319336 Z " fill="rgb(0, 0, 0)" fill-opacity="1.000000" />
<path d="M 6.892578 7.335938 L 6.892578 6.412109 L 13.729980 6.412109 L 13.729980 7.335938 Z " fill="rgb(0, 0, 0)" fill-opacity="1.000000" />
<path d="M 13.892578 7.335938 L 13.892578 6.412109 L 20.729980 6.412109 L 20.729980 7.335938 Z " fill="rgb(0, 0, 0)" fill-opacity="1.000000" />
<path d="M 20.892578 7.335938 L 20.892578 6.412109 L 27.729980 6.412109 L 27.729980 7.335938 Z " fill="rgb(0, 0, 0)" fill-opacity="1.000000" />
<path d="M 27.892578 7.335938 L 27.892578 6.412109 L 34.729980 6.412109 L 34.729980 7.335938 Z " fill="rgb(0, 0, 0)" fill-opacity="1.000000" />
<path d="M 34.892578 7.335938 L 34.892578 6.412109 L 41.729980 6.412109 L 41.729980 7.335938 Z " fill="rgb(0, 0, 0)" fill-opacity="1.000000" />
<path d="M 41.892578 7.335938 L 41.892578 6.412109 L 48.729980 6.412109 L 48.729980 7.335938 Z " fill="rgb(0, 0, 0)" fill-opacity="1.000000" />
<path d="M 48.892578 7.335938 L 48.892578 6.412109 L 55.729980 6.412109 L 55.729980 7.335938 Z " fill="rgb(0, 0, 0)" fill-opacity="1.000000" />
<path d="M 58.878906 13.319336 L 58.878906 7.335938 L 55.892578 7.335938 L 55.892578 6.412109 L 59.738281 6.412109 L 59.738281 13.319336 Z " fill="rgb(0, 0, 0)" fill-opacity="1.000000" />
<path d="M 149.878906 13.319336 L 149.878906 6.412109 L 153.729980 6.412109 L 153.729980 7.335938 L 150.738281 7.335938 L 150.738281 13.319336 Z " fill="rgb(0, 0, 0)" fill-opacity="1.000000" />
<path d="M 153.892578 7.335938 L 153.892578 6.412109 L 160.729980 6.412109 L 160.729980 7.335938 Z " fill="rgb(0, 0, 0)" fill-opacity="1.000000" />
<path d="M 160.892578 7.335938 L 160.892578 6.412109 L 167.729980 6.412109 L 167.729980 7.335938 Z " fill="rgb(0, 0, 0)" fill-opacity="1.000000" />
<path d="M 167.892578 7.335938 L 167.892578 6.412109 L 174.729980 6.412109 L 174.729980 7.335938 Z " fill="rgb(0, 0, 0)" fill-opacity="1.000000" />
<path d="M 174.892578 7.335938 L 174.892578 6.412109 L 181.729980 6.412109 L 181.729980 7.335938 Z " fill="rgb(0, 0, 0)" fill-opacity="1.000000" />
<path d="M 181.892578 7.335938 L 181.892578 6.412109 L 188.729980 6.412109 L 188.729980 7.335938 Z " fill="rgb(0, 0, 0)" fill-opacity="1.000000" />
<path d="M 188.892578 7.335938 L 188.892578 6.412109 L 195.729980 6.412109 L 195.729980 7.335938 Z " fill="rgb(0, 0, 0)" fill-opacity="1.000000" />
<path d="M 195.892578 7.335938 L 195.892578 6.412109 L 202.729980 6.412109 L 202.729980 7.335938 Z " fill="rgb(0, 0, 0)" fill-opacity="1.000000" />
<path d="M 205.878906 13.319336 L 205.878906 7.335938 L 202.892578 7.335938 L 202.892578 6.412109 L 206.738281 6.412109 L 206.738281 13.319336 Z " fill="rgb(0, 0, 0)" fill-opacity="1.000000" />
</svg>