<svg xmlns="http://www.w3.org/2000/svg" version="1.1" width="372" height="209">
<path d="M 2.449219 52.319336 L 2.449219 44.950195 L 6.729980 44.950195 L 6.729980 46.797852 L 4.167969 46.797852 L 4.167969 52.319336 Z " fill="rgb(0, 118, 0)" fill-opacity="1.000000" />
<path d="M 2.449219 65.319336 L 2.449219 51.300781 L 4.167969 51.300781 L 4.167969 65.319336 Z " fill="rgb(0, 118, 0)" fill-opacity="1.000000" />
<path d="M 2.449219 72.797852 L 2.449219 64.300781 L 4.167969 64.300781 L 4.167969 70.950195 L 6.729980 70.950195 L 6.729980 72.797852 Z " fill="rgb(0, 118, 0)" fill-opacity="1.000000" />
<path d="M 2.449219 169.319336 L 2.449219 161.950195 L 6.729980 161.950195 L 6.729980 163.797852 L 4.167969 163.797852 L 4.167969 169.319336 Z " fill="rgb(170, 120, 0)" fill-opacity="1.000000" />
<path d="M 2.449219 182.319336 L 2.449219 168.300781 L 4.167969 168.300781 L 4.167969 182.319336 Z " fill="rgb(170, 120, 0)" fill-opacity="1.000000" />
<path d="M 2.449219 189.797852 L 2.449219 181.300781 L 4.167969 181.300781 L 4.167969 187.950195 L 6.729980 187.950195 L 6.729980 189.797852 Z " fill="rgb(170, 120, 0)" fill-opacity="1.000000" />
<path d="M 23.878906 202.335938 L 23.878906 194.300781 L 24.738281 194.300781 L 24.738281 201.412109 L 27.729980 201.412109 L 27.729980 202.335938 Z " fill="rgb(0, 0, 0)" fill-opacity="1.000000" />
<path d="M 27.892578 202.335938 L 27.892578 201.412109 L 34.729980 201.412109 L 34.729980 202.335938 Z " fill="rgb(0, 0, 0)" fill-opacity="1.000000" />
<path d="M 34.892578 202.335938 L 34.892578 201.412109 L 41.729980 201.412109 L 41.729980 202.335938 Z " fill="rgb(0, 0, 0)" fill-opacity="1.000000" />
<path d="M 41.892578 202.335938 L 41.892578 201.412109 L 48.729980 201.412109 L 48.729980 202.335938 Z " fill="rgb(0, 0, 0)" fill-opacity="1.000000" />
<path d="M 48.892578 202.335938 L 48.892578 201.412109 L 51.878906 201.412109 L 51.878906 194.300781 L 52.738281 194.300781 L 52.738281 201.412109 L 55.729980 201.412109 L 55.729980 202.335938 Z " fill="rgb(0, 0, 0)" fill-opacity="1.000000" />
<path d="M 55.892578 202.335938 L 55.892578 201.412109 L 62.729980 201.412109 L 62.729980 202.335938 Z " fill="rgb(0, 0, 0)" fill-opacity="1.000000" />
<path d="M 62.892578 202.335938 L 62.892578 201.412109 L 69.729980 201.412109 L 69.729980 202.335938 Z " fill="rgb(0, 0, 0)" fill-opacity="1.000000" />
<path d="M 69.892578 202.335938 L 69.892578 201.412109 L 76.729980 201.412109 L 76.729980 202.335938 Z " fill="rgb(0, 0, 0)" fill-opacity="1.000000" />
<path d="M 76.892578 202.335938 L 76.892578 201.412109 L 79.878906 201.412109 L 79.878906 194.300781 L 80.738281 194.300781 L 80.738281 202.335938 Z " fill="rgb(0, 0, 0)" fill-opacity="1.000000" />
<path d="M 170.878906 202.335938 L 170.878906 194.300781 L 171.738281 194.300781 L 171.738281 201.412109 L 174.729980 201.412109 L 174.729980 202.335938 Z " fill="rgb(0, 0, 0)" fill-opacity="1.000000" />
<path d="M 174.892578 202.335938 L 174.892578 201.412109 L 181.729980 201.412109 L 181.729980 202.335938 Z " fill="rgb(0, 0, 0)" fill-opacity="1.000000" />
<path d="M 181.892578 202.335938 L 181.892578 201.412109 L 188.729980 201.412109 L 188.729980 202.335938 Z " fill="rgb(0, 0, 0)" fill-opacity="1.000000" />
<path d="M 188.892578 202.335938 L 188.892578 201.412109 L 195.729980 201.412109 L 195.729980 202.335938 Z " fill="rgb(0, 0, 0)" fill-opacity="1.000000" />
<path d="M 195.892578 202.335938 L 195.892578 201.412109 L 198.878906 201.412109 L 198.878906 194.300781 L 199.738281 194.300781 L 199.738281 201.412109 L 202.729980 201.412109 L 202.729980 202.335938 Z " fill="rgb(0, 0, 0)" fill-opacity="1.000000" />
<path d="M 202.892578 202.335938 L 202.892578 201.412109 L 209.729980 201.412109 L 209.729980 202.335938 Z " fill="rgb(0, 0, 0)" fill-opacity="1.000000" />
<path d="M 209.892578 202.335938 L 209.892578 201.412109 L 216.729980 201.412109 L 216.729980 202.335938 Z " fill="rgb(0, 0, 0)" fill-opacity="1.000000" />
<path d="M 216.892578 202.335938 L 216.892578 201.412109 L 223.729980 201.412109 L 223.729980 202.335938 Z " fill="rgb(0, 0, 0)" fill-opacity="1.000000" />
<path d="M 223.892578 202.335938 L 223.892578 201.412109 L 226.878906 201.412109 L 226.878906 194.300781 L 227.738281 194.300781 L 227.738281 202.335938 Z " fill="rgb(0, 0, 0)" fill-opacity="1.000000" />
<path d="M 310.878906 202.335938 L 310.878906 194.300781 L 311.738281 194.300781 L 311.738281 201.412109 L 314.729980 201.412109 L 314.729980 202.335938 Z " fill="rgb(0, 0, 0)" fill-opacity="1.000000" />
<path d="M 314.892578 202.335938 L 314.892578 201.412109 L 321.729980 201.412109 L 321.729980 202.335938 Z " fill="rgb(0, 0, 0)" fill-opacity="1.000000" />
<path d="M 321.892578 202.335938 L 321.892578 201.412109 L 328.729980 201.412109 L 328.729980 202.335938 Z " fill="rgb(0, 0, 0)" fill-opacity="1.000000" />
<path d="M 328.892578 202.335938 L 328.892578 201.412109 L 335.729980 201.412109 L 335.729980 202.335938 Z " fill="rgb(0, 0, 0)" fill-opacity="1.000000" />
<path d="M 335.892578 202.335938 L 335.892578 201.412109 L 338.878906 201.412109 L 338.878906 194.300781 L 339.738281 194.300781 L 339.738281 201.412109 L 342.729980 201.412109 L 342.729980 202.335938 Z " fill="rgb(0, 0, 0)" fill-opacity="1.000000" />
<path d="M 342.892578 202.335938 L 342.892578 201.412109 L 349.729980 201.412109 L 349.729980 202.335938 Z " fill="rgb(0, 0, 0)" fill-opacity="1.000000" />
<path d="M 349.892578 202.335938 L 349.892578 201.412109 L 356.729980 201.412109 L 356.729980 202.335938 Z " fill="rgb(0, 0, 0)" fill-opacity="1.000000" />
<path d="M 356.892578 202.335938 L 356.892578 201.412109 L 363.729980 201.412109 L 363.729980 202.335938 Z " fill="rgb(0, 0, 0)" fill-opacity="1.000000" />
<path d="M 363.892578 202.335938 L 363.892578 201.412109 L 366.878906 201.412109 L 366.878906 194.300781 L 367.738281 194.300781 L 367.738281 202.335938 Z " fill="rgb(0, 0, 0)" fill-opacity="1.000000" />
<path d="M 6.892578 189.797852 L 6.892578 187.950195 L 13.729980 187.950195 L 13.729980 189.797852 Z " fill="rgb(170, 120, 0)" fill-opacity="1.000000" />
<path d="M 13.892578 189.797852 L 13.892578 187.950195 L 20.729980 187.950195 L 20.729980 189.797852 Z " fill="rgb(170, 120, 0)" fill-opacity="1.000000" />
<path d="M 23.878906 195.319336 L 23.878906 181.300781 L 24.738281 181.300781 L 24.738281 195.319336 Z " fill="rgb(0, 0, 0)" fill-opacity="1.000000" />
<path d="M 36.981934 187.955566 L 36.981934 191.108398 L 38.265625 191.108398 Q 39.210938 191.108398 39.613770 190.778076 Q 40.016602 190.447754 40.016602 189.690430 Q 40.016602 188.691406 39.592285 188.323486 Q 39.167969 187.955566 38.265625 187.955566 Z M 36.981934 184.872559 L 36.981934 187.074707 L 38.244141 187.074707 Q 39.028320 187.074707 39.380127 186.773926 Q 39.731934 186.473145 39.731934 186.016602 Q 39.731934 185.409668 39.385498 185.141113 Q 39.039062 184.872559 38.244141 184.872559 Z M 35.891602 183.980957 L 38.265625 183.980957 Q 39.495605 183.980957 40.161621 184.512695 Q 40.827637 185.044434 40.827637 186.016602 Q 40.827637 186.537598 40.475830 186.961914 Q 40.124023 187.386230 39.420410 187.493652 Q 40.209961 187.611816 40.658447 188.167725 Q 41.106934 188.723633 41.106934 189.797852 Q 41.106934 190.888184 40.392578 191.444092 Q 39.678223 192.000000 38.265625 192.000000 L 35.891602 192.000000 Z " fill="rgb(170, 120, 0)" fill-opacity="1.000000" />
<path d="M 51.878906 195.319336 L 51.878906 181.300781 L 52.738281 181.300781 L 52.738281 195.319336 Z " fill="rgb(0, 0, 0)" fill-opacity="1.000000" />
<path d="M 64.450195 191.092285 L 66.136719 191.092285 L 66.136719 185.033691 L 64.117188 186.005859 L 64.117188 184.963867 L 66.125977 184.007812 L 67.210938 184.007812 L 67.210938 191.092285 L 68.875977 191.092285 L 68.875977 192.000000 L 64.450195 192.000000 Z " fill="rgb(0, 0, 0)" fill-opacity="1.000000" />
<path d="M 79.878906 195.319336 L 79.878906 181.300781 L 80.738281 181.300781 L 80.738281 195.319336 Z " fill="rgb(0, 0, 0)" fill-opacity="1.000000" />
<path d="M 170.878906 195.319336 L 170.878906 181.300781 L 171.738281 181.300781 L 171.738281 195.319336 Z " fill="rgb(0, 0, 0)" fill-opacity="1.000000" />
<path d="M 185.308594 184.937012 L 184.164551 189.040527 L 186.452637 189.040527 Z M 184.653320 183.980957 L 185.969238 183.980957 L 188.423828 192.000000 L 187.301270 192.000000 L 186.710449 189.910645 L 183.901367 189.910645 L 183.321289 192.000000 L 182.198730 192.000000 Z " fill="rgb(0, 118, 0)" fill-opacity="1.000000" />
<path d="M 198.878906 195.319336 L 198.878906 181.300781 L 199.738281 181.300781 L 199.738281 195.319336 Z " fill="rgb(0, 0, 0)" fill-opacity="1.000000" />
<path d="M 212.003418 191.086914 L 215.687988 191.086914 L 215.687988 192.000000 L 210.816406 192.000000 L 210.816406 191.086914 Q 211.820801 190.028809 212.572754 189.217773 Q 213.324707 188.406738 213.609375 188.073730 Q 214.146484 187.418457 214.334473 187.012939 Q 214.522461 186.607422 214.522461 186.183105 Q 214.522461 185.511719 214.127686 185.130371 Q 213.732910 184.749023 213.045410 184.749023 Q 212.556641 184.749023 212.019531 184.926270 Q 211.482422 185.103516 210.880859 185.463379 L 210.880859 184.367676 Q 211.434082 184.104492 211.968506 183.970215 Q 212.502930 183.835938 213.023926 183.835938 Q 214.200195 183.835938 214.917236 184.461670 Q 215.634277 185.087402 215.634277 186.102539 Q 215.634277 186.618164 215.395264 187.133789 Q 215.156250 187.649414 214.619141 188.272461 Q 214.318359 188.621582 213.746338 189.239258 Q 213.174316 189.856934 212.003418 191.086914 Z " fill="rgb(0, 0, 0)" fill-opacity="1.000000" />
<path d="M 226.878906 195.319336 L 226.878906 181.300781 L 227.738281 181.300781 L 227.738281 195.319336 Z " fill="rgb(0, 0, 0)" fill-opacity="1.000000" />
<path d="M 268.449219 189.797852 L 268.449219 181.300781 L 270.167969 181.300781 L 270.167969 187.950195 L 272.729980 187.950195 L 272.729980 189.797852 Z " fill="rgb(170, 120, 0)" fill-opacity="1.000000" />
<path d="M 272.892578 189.797852 L 272.892578 187.950195 L 279.729980 187.950195 L 279.729980 189.797852 Z " fill="rgb(170, 120, 0)" fill-opacity="1.000000" />
<path d="M 279.892578 189.797852 L 279.892578 187.950195 L 286.729980 187.950195 L 286.729980 189.797852 Z " fill="rgb(170, 120, 0)" fill-opacity="1.000000" />
<path d="M 286.892578 189.797852 L 286.892578 187.950195 L 293.729980 187.950195 L 293.729980 189.797852 Z " fill="rgb(170, 120, 0)" fill-opacity="1.000000" />
<path d="M 293.892578 189.797852 L 293.892578 187.950195 L 300.729980 187.950195 L 300.729980 189.797852 Z " fill="rgb(170, 120, 0)" fill-opacity="1.000000" />
<path d="M 300.892578 189.797852 L 300.892578 187.950195 L 307.729980 187.950195 L 307.729980 189.797852 Z " fill="rgb(170, 120, 0)" fill-opacity="1.000000" />
<path d="M 308.032227 192.418945 L 308.032227 185.866211 L 314.590332 189.142578 Z " fill="rgb(170, 120, 0)" fill-opacity="1.000000" />
<path d="M 323.981934 187.955566 L 323.981934 191.108398 L 325.265625 191.108398 Q 326.210938 191.108398 326.613770 190.778076 Q 327.016602 190.447754 327.016602 189.690430 Q 327.016602 188.691406 326.592285 188.323486 Q 326.167969 187.955566 325.265625 187.955566 Z M 323.981934 184.872559 L 323.981934 187.074707 L 325.244141 187.074707 Q 326.028320 187.074707 326.380127 186.773926 Q 326.731934 186.473145 326.731934 186.016602 Q 326.731934 185.409668 326.385498 185.141113 Q 326.039062 184.872559 325.244141 184.872559 Z M 322.891602 183.980957 L 325.265625 183.980957 Q 326.495605 183.980957 327.161621 184.512695 Q 327.827637 185.044434 327.827637 186.016602 Q 327.827637 186.537598 327.475830 186.961914 Q 327.124023 187.386230 326.420410 187.493652 Q 327.209961 187.611816 327.658447 188.167725 Q 328.106934 188.723633 328.106934 189.797852 Q 328.106934 190.888184 327.392578 191.444092 Q 326.678223 192.000000 325.265625 192.000000 L 322.891602 192.000000 Z " fill="rgb(170, 120, 0)" fill-opacity="1.000000" />
<path d="M 338.878906 195.319336 L 338.878906 181.300781 L 339.738281 181.300781 L 339.738281 195.319336 Z " fill="rgb(0, 0, 0)" fill-opacity="1.000000" />
<path d="M 351.450195 191.092285 L 353.136719 191.092285 L 353.136719 185.033691 L 351.117188 186.005859 L 351.117188 184.963867 L 353.125977 184.007812 L 354.210938 184.007812 L 354.210938 191.092285 L 355.875977 191.092285 L 355.875977 192.000000 L 351.450195 192.000000 Z " fill="rgb(0, 0, 0)" fill-opacity="1.000000" />
<path d="M 366.878906 195.319336 L 366.878906 181.300781 L 367.738281 181.300781 L 367.738281 195.319336 Z " fill="rgb(0, 0, 0)" fill-opacity="1.000000" />
<path d="M 23.878906 182.319336 L 23.878906 168.300781 L 24.738281 168.300781 L 24.738281 175.412109 L 27.729980 175.412109 L 27.729980 176.335938 L 24.738281 176.335938 L 24.738281 182.319336 Z " fill="rgb(0, 0, 0)" fill-opacity="1.000000" />
<path d="M 27.892578 176.335938 L 27.892578 175.412109 L 34.729980 175.412109 L 34.729980 176.335938 Z " fill="rgb(0, 0, 0)" fill-opacity="1.000000" />
<path d="M 34.892578 176.335938 L 34.892578 175.412109 L 41.729980 175.412109 L 41.729980 176.335938 Z " fill="rgb(0, 0, 0)" fill-opacity="1.000000" />
<path d="M 41.892578 176.335938 L 41.892578 175.412109 L 48.729980 175.412109 L 48.729980 176.335938 Z " fill="rgb(0, 0, 0)" fill-opacity="1.000000" />
<path d="M 52.738281 176.335938 L 52.738281 182.319336 L 51.878906 182.319336 L 51.878906 176.335938 L 48.892578 176.335938 L 48.892578 175.412109 L 51.878906 175.412109 L 51.878906 168.300781 L 52.738281 168.300781 L 52.738281 175.412109 L 55.729980 175.412109 L 55.729980 176.335938 Z " fill="rgb(0, 0, 0)" fill-opacity="1.000000" />
<path d="M 55.892578 176.335938 L 55.892578 175.412109 L 62.729980 175.412109 L 62.729980 176.335938 Z " fill="rgb(0, 0, 0)" fill-opacity="1.000000" />
<path d="M 62.892578 176.335938 L 62.892578 175.412109 L 69.729980 175.412109 L 69.729980 176.335938 Z " fill="rgb(0, 0, 0)" fill-opacity="1.000000" />
<path d="M 69.892578 176.335938 L 69.892578 175.412109 L 76.729980 175.412109 L 76.729980 176.335938 Z " fill="rgb(0, 0, 0)" fill-opacity="1.000000" />
<path d="M 79.878906 182.319336 L 79.878906 176.335938 L 76.892578 176.335938 L 76.892578 175.412109 L 79.878906 175.412109 L 79.878906 168.300781 L 80.738281 168.300781 L 80.738281 182.319336 Z " fill="rgb(0, 0, 0)" fill-opacity="1.000000" />
<path d="M 170.878906 182.319336 L 170.878906 168.300781 L 171.738281 168.300781 L 171.738281 175.412109 L 174.729980 175.412109 L 174.729980 176.335938 L 171.738281 176.335938 L 171.738281 182.319336 Z " fill="rgb(0, 0, 0)" fill-opacity="1.000000" />
<path d="M 174.892578 176.335938 L 174.892578 175.412109 L 181.729980 175.412109 L 181.729980 176.335938 Z " fill="rgb(0, 0, 0)" fill-opacity="1.000000" />
<path d="M 181.892578 176.335938 L 181.892578 175.412109 L 188.729980 175.412109 L 188.729980 176.335938 Z " fill="rgb(0, 0, 0)" fill-opacity="1.000000" />
<path d="M 188.892578 176.335938 L 188.892578 175.412109 L 195.729980 175.412109 L 195.729980 176.335938 Z " fill="rgb(0, 0, 0)" fill-opacity="1.000000" />
<path d="M 199.738281 176.335938 L 199.738281 182.319336 L 198.878906 182.319336 L 198.878906 176.335938 L 195.892578 176.335938 L 195.892578 175.412109 L 198.878906 175.412109 L 198.878906 168.300781 L 199.738281 168.300781 L 199.738281 175.412109 L 202.729980 175.412109 L 202.729980 176.335938 Z " fill="rgb(0, 0, 0)" fill-opacity="1.000000" />
<path d="M 202.892578 176.335938 L 202.892578 175.412109 L 209.729980 175.412109 L 209.729980 176.335938 Z " fill="rgb(0, 0, 0)" fill-opacity="1.000000" />
<path d="M 209.892578 176.335938 L 209.892578 175.412109 L 216.729980 175.412109 L 216.729980 176.335938 Z " fill="rgb(0, 0, 0)" fill-opacity="1.000000" />
<path d="M 216.892578 176.335938 L 216.892578 175.412109 L 223.729980 175.412109 L 223.729980 176.335938 Z " fill="rgb(0, 0, 0)" fill-opacity="1.000000" />
<path d="M 226.878906 182.319336 L 226.878906 176.335938 L 223.892578 176.335938 L 223.892578 175.412109 L 226.878906 175.412109 L 226.878906 168.300781 L 227.738281 168.300781 L 227.738281 182.319336 Z " fill="rgb(0, 0, 0)" fill-opacity="1.000000" />
<path d="M 268.449219 182.319336 L 268.449219 168.300781 L 270.167969 168.300781 L 270.167969 182.319336 Z " fill="rgb(170, 120, 0)" fill-opacity="1.000000" />
<path d="M 310.878906 182.319336 L 310.878906 168.300781 L 311.738281 168.300781 L 311.738281 175.412109 L 314.729980 175.412109 L 314.729980 176.335938 L 311.738281 176.335938 L 311.738281 182.319336 Z " fill="rgb(0, 0, 0)" fill-opacity="1.000000" />
<path d="M 314.892578 176.335938 L 314.892578 175.412109 L 321.729980 175.412109 L 321.729980 176.335938 Z " fill="rgb(0, 0, 0)" fill-opacity="1.000000" />
<path d="M 321.892578 176.335938 L 321.892578 175.412109 L 328.729980 175.412109 L 328.729980 176.335938 Z " fill="rgb(0, 0, 0)" fill-opacity="1.000000" />
<path d="M 328.892578 176.335938 L 328.892578 175.412109 L 335.729980 175.412109 L 335.729980 176.335938 Z " fill="rgb(0, 0, 0)" fill-opacity="1.000000" />
<path d="M 339.738281 176.335938 L 339.738281 182.319336 L 338.878906 182.319336 L 338.878906 176.335938 L 335.892578 176.335938 L 335.892578 175.412109 L 338.878906 175.412109 L 338.878906 168.300781 L 339.738281 168.300781 L 339.738281 175.412109 L 342.729980 175.412109 L 342.729980 176.335938 Z " fill="rgb(0, 0, 0)" fill-opacity="1.000000" />
<path d="M 342.892578 176.335938 L 342.892578 175.412109 L 349.729980 175.412109 L 349.729980 176.335938 Z " fill="rgb(0, 0, 0)" fill-opacity="1.000000" />
<path d="M 349.892578 176.335938 L 349.892578 175.412109 L 356.729980 175.412109 L 356.729980 176.335938 Z " fill="rgb(0, 0, 0)" fill-opacity="1.000000" />
<path d="M 356.892578 176.335938 L 356.892578 175.412109 L 363.729980 175.412109 L 363.729980 176.335938 Z " fill="rgb(0, 0, 0)" fill-opacity="1.000000" />
<path d="M 366.878906 182.319336 L 366.878906 176.335938 L 363.892578 176.335938 L 363.892578 175.412109 L 366.878906 175.412109 L 366.878906 168.300781 L 367.738281 168.300781 L 367.738281 182.319336 Z " fill="rgb(0, 0, 0)" fill-opacity="1.000000" />
<path d="M 6.892578 163.797852 L 6.892578 161.950195 L 13.729980 161.950195 L 13.729980 163.797852 Z " fill="rgb(170, 120, 0)" fill-opacity="1.000000" />
<path d="M 13.892578 163.797852 L 13.892578 161.950195 L 20.729980 161.950195 L 20.729980 163.797852 Z " fill="rgb(170, 120, 0)" fill-opacity="1.000000" />
<path d="M 23.449219 169.319336 L 23.449219 163.797852 L 20.892578 163.797852 L 20.892578 161.950195 L 23.449219 161.950195 L 23.449219 155.300781 L 25.167969 155.300781 L 25.167969 169.319336 Z " fill="rgb(0, 0, 0)" fill-opacity="1.000000" />
<path d="M 38.308594 158.937012 L 37.164551 163.040527 L 39.452637 163.040527 Z M 37.653320 157.980957 L 38.969238 157.980957 L 41.423828 166.000000 L 40.301270 166.000000 L 39.710449 163.910645 L 36.901367 163.910645 L 36.321289 166.000000 L 35.198730 166.000000 Z " fill="rgb(64, 118, 0)" fill-opacity="1.000000" />
<path d="M 51.878906 169.319336 L 51.878906 155.300781 L 52.738281 155.300781 L 52.738281 169.319336 Z " fill="rgb(0, 0, 0)" fill-opacity="1.000000" />
<path d="M 65.003418 165.086914 L 68.687988 165.086914 L 68.687988 166.000000 L 63.816406 166.000000 L 63.816406 165.086914 Q 64.820801 164.028809 65.572754 163.217773 Q 66.324707 162.406738 66.609375 162.073730 Q 67.146484 161.418457 67.334473 161.012939 Q 67.522461 160.607422 67.522461 160.183105 Q 67.522461 159.511719 67.127686 159.130371 Q 66.732910 158.749023 66.045410 158.749023 Q 65.556641 158.749023 65.019531 158.926270 Q 64.482422 159.103516 63.880859 159.463379 L 63.880859 158.367676 Q 64.434082 158.104492 64.968506 157.970215 Q 65.502930 157.835938 66.023926 157.835938 Q 67.200195 157.835938 67.917236 158.461670 Q 68.634277 159.087402 68.634277 160.102539 Q 68.634277 160.618164 68.395264 161.133789 Q 68.156250 161.649414 67.619141 162.272461 Q 67.318359 162.621582 66.746338 163.239258 Q 66.174316 163.856934 65.003418 165.086914 Z " fill="rgb(0, 0, 0)" fill-opacity="1.000000" />
<path d="M 79.449219 169.319336 L 79.449219 155.300781 L 81.167969 155.300781 L 81.167969 161.950195 L 83.729980 161.950195 L 83.729980 163.797852 L 81.167969 163.797852 L 81.167969 169.319336 Z " fill="rgb(0, 0, 0)" fill-opacity="1.000000" />
<path d="M 83.892578 163.797852 L 83.892578 161.950195 L 90.729980 161.950195 L 90.729980 163.797852 Z " fill="rgb(170, 120, 0)" fill-opacity="1.000000" />
<path d="M 90.892578 163.797852 L 90.892578 161.950195 L 97.729980 161.950195 L 97.729980 163.797852 Z " fill="rgb(170, 120, 0)" fill-opacity="1.000000" />
<path d="M 97.892578 163.797852 L 97.892578 161.950195 L 104.729980 161.950195 L 104.729980 163.797852 Z " fill="rgb(170, 120, 0)" fill-opacity="1.000000" />
<path d="M 104.892578 163.797852 L 104.892578 161.950195 L 111.729980 161.950195 L 111.729980 163.797852 Z " fill="rgb(170, 120, 0)" fill-opacity="1.000000" />
<path d="M 111.892578 163.797852 L 111.892578 161.950195 L 118.729980 161.950195 L 118.729980 163.797852 Z " fill="rgb(170, 120, 0)" fill-opacity="1.000000" />
<path d="M 118.892578 163.797852 L 118.892578 161.950195 L 125.729980 161.950195 L 125.729980 163.797852 Z " fill="rgb(170, 120, 0)" fill-opacity="1.000000" />
<path d="M 125.892578 163.797852 L 125.892578 161.950195 L 132.729980 161.950195 L 132.729980 163.797852 Z " fill="rgb(170, 120, 0)" fill-opacity="1.000000" />
<path d="M 132.892578 163.797852 L 132.892578 161.950195 L 139.729980 161.950195 L 139.729980 163.797852 Z " fill="rgb(170, 120, 0)" fill-opacity="1.000000" />
<path d="M 139.892578 163.797852 L 139.892578 161.950195 L 146.729980 161.950195 L 146.729980 163.797852 Z " fill="rgb(170, 120, 0)" fill-opacity="1.000000" />
<path d="M 146.892578 163.797852 L 146.892578 161.950195 L 153.729980 161.950195 L 153.729980 163.797852 Z " fill="rgb(170, 120, 0)" fill-opacity="1.000000" />
<path d="M 153.892578 163.797852 L 153.892578 161.950195 L 160.729980 161.950195 L 160.729980 163.797852 Z " fill="rgb(170, 120, 0)" fill-opacity="1.000000" />
<path d="M 161.032227 166.418945 L 161.032227 159.866211 L 167.590332 163.142578 Z " fill="rgb(170, 120, 0)" fill-opacity="1.000000" />
<path d="M 170.878906 169.319336 L 170.878906 155.300781 L 171.738281 155.300781 L 171.738281 169.319336 Z " fill="rgb(0, 0, 0)" fill-opacity="1.000000" />
<path d="M 183.981934 161.955566 L 183.981934 165.108398 L 185.265625 165.108398 Q 186.210938 165.108398 186.613770 164.778076 Q 187.016602 164.447754 187.016602 163.690430 Q 187.016602 162.691406 186.592285 162.323486 Q 186.167969 161.955566 185.265625 161.955566 Z M 183.981934 158.872559 L 183.981934 161.074707 L 185.244141 161.074707 Q 186.028320 161.074707 186.380127 160.773926 Q 186.731934 160.473145 186.731934 160.016602 Q 186.731934 159.409668 186.385498 159.141113 Q 186.039062 158.872559 185.244141 158.872559 Z M 182.891602 157.980957 L 185.265625 157.980957 Q 186.495605 157.980957 187.161621 158.512695 Q 187.827637 159.044434 187.827637 160.016602 Q 187.827637 160.537598 187.475830 160.961914 Q 187.124023 161.386230 186.420410 161.493652 Q 187.209961 161.611816 187.658447 162.167725 Q 188.106934 162.723633 188.106934 163.797852 Q 188.106934 164.888184 187.392578 165.444092 Q 186.678223 166.000000 185.265625 166.000000 L 182.891602 166.000000 Z " fill="rgb(170, 120, 0)" fill-opacity="1.000000" />
<path d="M 198.878906 169.319336 L 198.878906 155.300781 L 199.738281 155.300781 L 199.738281 169.319336 Z " fill="rgb(0, 0, 0)" fill-opacity="1.000000" />
<path d="M 211.450195 165.092285 L 213.136719 165.092285 L 213.136719 159.033691 L 211.117188 160.005859 L 211.117188 158.963867 L 213.125977 158.007812 L 214.210938 158.007812 L 214.210938 165.092285 L 215.875977 165.092285 L 215.875977 166.000000 L 211.450195 166.000000 Z " fill="rgb(0, 0, 0)" fill-opacity="1.000000" />
<path d="M 226.878906 169.319336 L 226.878906 155.300781 L 227.738281 155.300781 L 227.738281 169.319336 Z " fill="rgb(0, 0, 0)" fill-opacity="1.000000" />
<path d="M 230.892578 163.797852 L 230.892578 161.950195 L 237.729980 161.950195 L 237.729980 163.797852 Z " fill="rgb(170, 120, 0)" fill-opacity="1.000000" />
<path d="M 237.892578 163.797852 L 237.892578 161.950195 L 244.729980 161.950195 L 244.729980 163.797852 Z " fill="rgb(170, 120, 0)" fill-opacity="1.000000" />
<path d="M 244.892578 163.797852 L 244.892578 161.950195 L 251.729980 161.950195 L 251.729980 163.797852 Z " fill="rgb(170, 120, 0)" fill-opacity="1.000000" />
<path d="M 251.892578 163.797852 L 251.892578 161.950195 L 258.729980 161.950195 L 258.729980 163.797852 Z " fill="rgb(170, 120, 0)" fill-opacity="1.000000" />
<path d="M 258.892578 163.797852 L 258.892578 161.950195 L 265.729980 161.950195 L 265.729980 163.797852 Z " fill="rgb(170, 120, 0)" fill-opacity="1.000000" />
<path d="M 268.449219 169.319336 L 268.449219 163.797852 L 265.892578 163.797852 L 265.892578 161.950195 L 270.167969 161.950195 L 270.167969 169.319336 Z " fill="rgb(170, 120, 0)" fill-opacity="1.000000" />
<path d="M 310.878906 169.319336 L 310.878906 155.300781 L 311.738281 155.300781 L 311.738281 169.319336 Z " fill="rgb(0, 0, 0)" fill-opacity="1.000000" />
<path d="M 325.308594 158.937012 L 324.164551 163.040527 L 326.452637 163.040527 Z M 324.653320 157.980957 L 325.969238 157.980957 L 328.423828 166.000000 L 327.301270 166.000000 L 326.710449 163.910645 L 323.901367 163.910645 L 323.321289 166.000000 L 322.198730 166.000000 Z " fill="rgb(0, 118, 0)" fill-opacity="1.000000" />
<path d="M 338.878906 169.319336 L 338.878906 155.300781 L 339.738281 155.300781 L 339.738281 169.319336 Z " fill="rgb(0, 0, 0)" fill-opacity="1.000000" />
<path d="M 353.947754 158.969238 L 351.417969 163.207031 L 353.947754 163.207031 Z M 353.770508 157.980957 L 355.027344 157.980957 L 355.027344 163.207031 L 356.096191 163.207031 L 356.096191 164.087891 L 355.027344 164.087891 L 355.027344 166.000000 L 353.947754 166.000000 L 353.947754 164.087891 L 350.547852 164.087891 L 350.547852 163.062012 Z " fill="rgb(0, 0, 0)" fill-opacity="1.000000" />
<path d="M 366.878906 169.319336 L 366.878906 155.300781 L 367.738281 155.300781 L 367.738281 169.319336 Z " fill="rgb(0, 0, 0)" fill-opacity="1.000000" />
<path d="M 23.878906 85.335938 L 23.878906 77.300781 L 24.738281 77.300781 L 24.738281 84.412109 L 27.729980 84.412109 L 27.729980 85.335938 Z " fill="rgb(0, 0, 0)" fill-opacity="1.000000" />
<path d="M 23.878906 130.319336 L 23.878906 123.412109 L 27.729980 123.412109 L 27.729980 124.335938 L 24.738281 124.335938 L 24.738281 130.319336 Z " fill="rgb(0, 0, 0)" fill-opacity="1.000000" />
<path d="M 23.878906 143.319336 L 23.878906 129.300781 L 24.738281 129.300781 L 24.738281 143.319336 Z " fill="rgb(0, 0, 0)" fill-opacity="1.000000" />
<path d="M 23.878906 156.319336 L 23.878906 142.300781 L 24.738281 142.300781 L 24.738281 149.412109 L 27.729980 149.412109 L 27.729980 150.335938 L 24.738281 150.335938 L 24.738281 156.319336 Z " fill="rgb(0, 0, 0)" fill-opacity="1.000000" />
<path d="M 27.892578 150.335938 L 27.892578 149.412109 L 34.729980 149.412109 L 34.729980 150.335938 Z " fill="rgb(0, 0, 0)" fill-opacity="1.000000" />
<path d="M 34.892578 150.335938 L 34.892578 149.412109 L 41.729980 149.412109 L 41.729980 150.335938 Z " fill="rgb(0, 0, 0)" fill-opacity="1.000000" />
<path d="M 41.892578 150.335938 L 41.892578 149.412109 L 48.729980 149.412109 L 48.729980 150.335938 Z " fill="rgb(0, 0, 0)" fill-opacity="1.000000" />
<path d="M 51.878906 156.319336 L 51.878906 150.335938 L 48.892578 150.335938 L 48.892578 149.412109 L 55.729980 149.412109 L 55.729980 150.335938 L 52.738281 150.335938 L 52.738281 156.319336 Z " fill="rgb(0, 0, 0)" fill-opacity="1.000000" />
<path d="M 55.892578 150.335938 L 55.892578 149.412109 L 62.729980 149.412109 L 62.729980 150.335938 Z " fill="rgb(0, 0, 0)" fill-opacity="1.000000" />
<path d="M 62.892578 150.335938 L 62.892578 149.412109 L 69.729980 149.412109 L 69.729980 150.335938 Z " fill="rgb(0, 0, 0)" fill-opacity="1.000000" />
<path d="M 69.892578 150.335938 L 69.892578 149.412109 L 76.729980 149.412109 L 76.729980 150.335938 Z " fill="rgb(0, 0, 0)" fill-opacity="1.000000" />
<path d="M 79.878906 156.319336 L 79.878906 150.335938 L 76.892578 150.335938 L 76.892578 149.412109 L 79.878906 149.412109 L 79.878906 142.300781 L 80.738281 142.300781 L 80.738281 156.319336 Z " fill="rgb(0, 0, 0)" fill-opacity="1.000000" />
<path d="M 170.878906 156.319336 L 170.878906 142.300781 L 171.738281 142.300781 L 171.738281 149.412109 L 174.729980 149.412109 L 174.729980 150.335938 L 171.738281 150.335938 L 171.738281 156.319336 Z " fill="rgb(0, 0, 0)" fill-opacity="1.000000" />
<path d="M 174.892578 150.335938 L 174.892578 149.412109 L 181.729980 149.412109 L 181.729980 150.335938 Z " fill="rgb(0, 0, 0)" fill-opacity="1.000000" />
<path d="M 181.892578 150.335938 L 181.892578 149.412109 L 188.729980 149.412109 L 188.729980 150.335938 Z " fill="rgb(0, 0, 0)" fill-opacity="1.000000" />
<path d="M 188.892578 150.335938 L 188.892578 149.412109 L 195.729980 149.412109 L 195.729980 150.335938 Z " fill="rgb(0, 0, 0)" fill-opacity="1.000000" />
<path d="M 198.878906 156.319336 L 198.878906 150.335938 L 195.892578 150.335938 L 195.892578 149.412109 L 202.729980 149.412109 L 202.729980 150.335938 L 199.738281 150.335938 L 199.738281 156.319336 Z " fill="rgb(0, 0, 0)" fill-opacity="1.000000" />
<path d="M 202.892578 150.335938 L 202.892578 149.412109 L 209.729980 149.412109 L 209.729980 150.335938 Z " fill="rgb(0, 0, 0)" fill-opacity="1.000000" />
<path d="M 209.892578 150.335938 L 209.892578 149.412109 L 216.729980 149.412109 L 216.729980 150.335938 Z " fill="rgb(0, 0, 0)" fill-opacity="1.000000" />
<path d="M 216.892578 150.335938 L 216.892578 149.412109 L 223.729980 149.412109 L 223.729980 150.335938 Z " fill="rgb(0, 0, 0)" fill-opacity="1.000000" />
<path d="M 226.878906 156.319336 L 226.878906 150.335938 L 223.892578 150.335938 L 223.892578 149.412109 L 226.878906 149.412109 L 226.878906 142.300781 L 227.738281 142.300781 L 227.738281 156.319336 Z " fill="rgb(0, 0, 0)" fill-opacity="1.000000" />
<path d="M 310.878906 156.319336 L 310.878906 142.300781 L 311.738281 142.300781 L 311.738281 149.412109 L 314.729980 149.412109 L 314.729980 150.335938 L 311.738281 150.335938 L 311.738281 156.319336 Z " fill="rgb(0, 0, 0)" fill-opacity="1.000000" />
<path d="M 314.892578 150.335938 L 314.892578 149.412109 L 321.729980 149.412109 L 321.729980 150.335938 Z " fill="rgb(0, 0, 0)" fill-opacity="1.000000" />
<path d="M 321.892578 150.335938 L 321.892578 149.412109 L 328.729980 149.412109 L 328.729980 150.335938 Z " fill="rgb(0, 0, 0)" fill-opacity="1.000000" />
<path d="M 328.892578 150.335938 L 328.892578 149.412109 L 335.729980 149.412109 L 335.729980 150.335938 Z " fill="rgb(0, 0, 0)" fill-opacity="1.000000" />
<path d="M 338.878906 156.319336 L 338.878906 150.335938 L 335.892578 150.335938 L 335.892578 149.412109 L 342.729980 149.412109 L 342.729980 150.335938 L 339.738281 150.335938 L 339.738281 156.319336 Z " fill="rgb(0, 0, 0)" fill-opacity="1.000000" />
<path d="M 342.892578 150.335938 L 342.892578 149.412109 L 349.729980 149.412109 L 349.729980 150.335938 Z " fill="rgb(0, 0, 0)" fill-opacity="1.000000" />
<path d="M 349.892578 150.335938 L 349.892578 149.412109 L 356.729980 149.412109 L 356.729980 150.335938 Z " fill="rgb(0, 0, 0)" fill-opacity="1.000000" />
<path d="M 356.892578 150.335938 L 356.892578 149.412109 L 363.729980 149.412109 L 363.729980 150.335938 Z " fill="rgb(0, 0, 0)" fill-opacity="1.000000" />
<path d="M 366.878906 156.319336 L 366.878906 150.335938 L 363.892578 150.335938 L 363.892578 149.412109 L 366.878906 149.412109 L 366.878906 142.300781 L 367.738281 142.300781 L 367.738281 156.319336 Z " fill="rgb(0, 0, 0)" fill-opacity="1.000000" />
<path d="M 33.226074 134.193848 L 33.226074 135.160645 Q 32.801758 134.913574 32.372070 134.790039 Q 31.942383 134.666504 31.496582 134.666504 Q 30.825195 134.666504 30.494873 134.884033 Q 30.164551 135.101562 30.164551 135.547363 Q 30.164551 135.950195 30.411621 136.148926 Q 30.658691 136.347656 31.641602 136.535645 L 32.039062 136.610840 Q 32.774902 136.750488 33.153564 137.169434 Q 33.532227 137.588379 33.532227 138.259766 Q 33.532227 139.151367 32.898438 139.653564 Q 32.264648 140.155762 31.136719 140.155762 Q 30.690918 140.155762 30.202148 140.061768 Q 29.713379 139.967773 29.144043 139.779785 L 29.144043 138.759277 Q 29.697266 139.043945 30.202148 139.186279 Q 30.707031 139.328613 31.158203 139.328613 Q 31.813477 139.328613 32.173340 139.062744 Q 32.533203 138.796875 32.533203 138.318848 Q 32.533203 137.631348 31.217285 137.368164 L 31.174316 137.357422 L 30.803711 137.282227 Q 29.949707 137.115723 29.557617 136.720947 Q 29.165527 136.326172 29.165527 135.644043 Q 29.165527 134.779297 29.750977 134.309326 Q 30.336426 133.839355 31.421387 133.839355 Q 31.904785 133.839355 32.350586 133.927979 Q 32.796387 134.016602 33.226074 134.193848 Z " fill="rgb(0, 0, 0)" fill-opacity="1.000000" />
<path d="M 36.450195 139.092285 L 38.136719 139.092285 L 38.136719 133.033691 L 36.117188 134.005859 L 36.117188 132.963867 L 38.125977 132.007812 L 39.210938 132.007812 L 39.210938 139.092285 L 40.875977 139.092285 L 40.875977 140.000000 L 36.450195 140.000000 Z " fill="rgb(0, 0, 0)" fill-opacity="1.000000" />
<path d="M 79.878906 143.319336 L 79.878906 129.300781 L 80.738281 129.300781 L 80.738281 143.319336 Z " fill="rgb(0, 0, 0)" fill-opacity="1.000000" />
<path d="M 170.878906 143.319336 L 170.878906 129.300781 L 171.738281 129.300781 L 171.738281 143.319336 Z " fill="rgb(0, 0, 0)" fill-opacity="1.000000" />
<path d="M 180.226074 134.193848 L 180.226074 135.160645 Q 179.801758 134.913574 179.372070 134.790039 Q 178.942383 134.666504 178.496582 134.666504 Q 177.825195 134.666504 177.494873 134.884033 Q 177.164551 135.101562 177.164551 135.547363 Q 177.164551 135.950195 177.411621 136.148926 Q 177.658691 136.347656 178.641602 136.535645 L 179.039062 136.610840 Q 179.774902 136.750488 180.153564 137.169434 Q 180.532227 137.588379 180.532227 138.259766 Q 180.532227 139.151367 179.898438 139.653564 Q 179.264648 140.155762 178.136719 140.155762 Q 177.690918 140.155762 177.202148 140.061768 Q 176.713379 139.967773 176.144043 139.779785 L 176.144043 138.759277 Q 176.697266 139.043945 177.202148 139.186279 Q 177.707031 139.328613 178.158203 139.328613 Q 178.813477 139.328613 179.173340 139.062744 Q 179.533203 138.796875 179.533203 138.318848 Q 179.533203 137.631348 178.217285 137.368164 L 178.174316 137.357422 L 177.803711 137.282227 Q 176.949707 137.115723 176.557617 136.720947 Q 176.165527 136.326172 176.165527 135.644043 Q 176.165527 134.779297 176.750977 134.309326 Q 177.336426 133.839355 178.421387 133.839355 Q 178.904785 133.839355 179.350586 133.927979 Q 179.796387 134.016602 180.226074 134.193848 Z " fill="rgb(0, 0, 0)" fill-opacity="1.000000" />
<path d="M 184.003418 139.086914 L 187.687988 139.086914 L 187.687988 140.000000 L 182.816406 140.000000 L 182.816406 139.086914 Q 183.820801 138.028809 184.572754 137.217773 Q 185.324707 136.406738 185.609375 136.073730 Q 186.146484 135.418457 186.334473 135.012939 Q 186.522461 134.607422 186.522461 134.183105 Q 186.522461 133.511719 186.127686 133.130371 Q 185.732910 132.749023 185.045410 132.749023 Q 184.556641 132.749023 184.019531 132.926270 Q 183.482422 133.103516 182.880859 133.463379 L 182.880859 132.367676 Q 183.434082 132.104492 183.968506 131.970215 Q 184.502930 131.835938 185.023926 131.835938 Q 186.200195 131.835938 186.917236 132.461670 Q 187.634277 133.087402 187.634277 134.102539 Q 187.634277 134.618164 187.395264 135.133789 Q 187.156250 135.649414 186.619141 136.272461 Q 186.318359 136.621582 185.746338 137.239258 Q 185.174316 137.856934 184.003418 139.086914 Z " fill="rgb(0, 0, 0)" fill-opacity="1.000000" />
<path d="M 226.878906 143.319336 L 226.878906 129.300781 L 227.738281 129.300781 L 227.738281 143.319336 Z " fill="rgb(0, 0, 0)" fill-opacity="1.000000" />
<path d="M 310.878906 143.319336 L 310.878906 129.300781 L 311.738281 129.300781 L 311.738281 143.319336 Z " fill="rgb(0, 0, 0)" fill-opacity="1.000000" />
<path d="M 320.226074 134.193848 L 320.226074 135.160645 Q 319.801758 134.913574 319.372070 134.790039 Q 318.942383 134.666504 318.496582 134.666504 Q 317.825195 134.666504 317.494873 134.884033 Q 317.164551 135.101562 317.164551 135.547363 Q 317.164551 135.950195 317.411621 136.148926 Q 317.658691 136.347656 318.641602 136.535645 L 319.039062 136.610840 Q 319.774902 136.750488 320.153564 137.169434 Q 320.532227 137.588379 320.532227 138.259766 Q 320.532227 139.151367 319.898438 139.653564 Q 319.264648 140.155762 318.136719 140.155762 Q 317.690918 140.155762 317.202148 140.061768 Q 316.713379 139.967773 316.144043 139.779785 L 316.144043 138.759277 Q 316.697266 139.043945 317.202148 139.186279 Q 317.707031 139.328613 318.158203 139.328613 Q 318.813477 139.328613 319.173340 139.062744 Q 319.533203 138.796875 319.533203 138.318848 Q 319.533203 137.631348 318.217285 137.368164 L 318.174316 137.357422 L 317.803711 137.282227 Q 316.949707 137.115723 316.557617 136.720947 Q 316.165527 136.326172 316.165527 135.644043 Q 316.165527 134.779297 316.750977 134.309326 Q 317.336426 133.839355 318.421387 133.839355 Q 318.904785 133.839355 319.350586 133.927979 Q 319.796387 134.016602 320.226074 134.193848 Z " fill="rgb(0, 0, 0)" fill-opacity="1.000000" />
<path d="M 326.167969 135.708496 Q 326.957520 135.917969 327.376465 136.452393 Q 327.795410 136.986816 327.795410 137.787109 Q 327.795410 138.893555 327.051514 139.524658 Q 326.307617 140.155762 324.991699 140.155762 Q 324.438477 140.155762 323.863770 140.053711 Q 323.289062 139.951660 322.735840 139.758301 L 322.735840 138.678711 Q 323.283691 138.963379 323.815430 139.103027 Q 324.347168 139.242676 324.873535 139.242676 Q 325.765137 139.242676 326.243164 138.839844 Q 326.721191 138.437012 326.721191 137.679688 Q 326.721191 136.981445 326.243164 136.570557 Q 325.765137 136.159668 324.948730 136.159668 L 324.121582 136.159668 L 324.121582 135.268066 L 324.948730 135.268066 Q 325.695312 135.268066 326.114258 134.940430 Q 326.533203 134.612793 326.533203 134.027344 Q 326.533203 133.409668 326.143799 133.079346 Q 325.754395 132.749023 325.034668 132.749023 Q 324.556641 132.749023 324.046387 132.856445 Q 323.536133 132.963867 322.977539 133.178711 L 322.977539 132.179688 Q 323.627441 132.007812 324.135010 131.921875 Q 324.642578 131.835938 325.034668 131.835938 Q 326.205566 131.835938 326.906494 132.424072 Q 327.607422 133.012207 327.607422 133.984375 Q 327.607422 134.645020 327.239502 135.085449 Q 326.871582 135.525879 326.167969 135.708496 Z " fill="rgb(0, 0, 0)" fill-opacity="1.000000" />
<path d="M 366.878906 143.319336 L 366.878906 129.300781 L 367.738281 129.300781 L 367.738281 143.319336 Z " fill="rgb(0, 0, 0)" fill-opacity="1.000000" />
<path d="M 27.892578 124.335938 L 27.892578 123.412109 L 34.729980 123.412109 L 34.729980 124.335938 Z " fill="rgb(0, 0, 0)" fill-opacity="1.000000" />
<path d="M 34.892578 124.335938 L 34.892578 123.412109 L 41.729980 123.412109 L 41.729980 124.335938 Z " fill="rgb(0, 0, 0)" fill-opacity="1.000000" />
<path d="M 41.892578 124.335938 L 41.892578 123.412109 L 48.729980 123.412109 L 48.729980 124.335938 Z " fill="rgb(0, 0, 0)" fill-opacity="1.000000" />
<path d="M 48.892578 124.335938 L 48.892578 123.412109 L 55.729980 123.412109 L 55.729980 124.335938 Z " fill="rgb(0, 0, 0)" fill-opacity="1.000000" />
<path d="M 55.892578 124.335938 L 55.892578 123.412109 L 62.729980 123.412109 L 62.729980 124.335938 Z " fill="rgb(0, 0, 0)" fill-opacity="1.000000" />
<path d="M 62.892578 124.335938 L 62.892578 123.412109 L 69.729980 123.412109 L 69.729980 124.335938 Z " fill="rgb(0, 0, 0)" fill-opacity="1.000000" />
<path d="M 69.892578 124.335938 L 69.892578 123.412109 L 76.729980 123.412109 L 76.729980 124.335938 Z " fill="rgb(0, 0, 0)" fill-opacity="1.000000" />
<path d="M 79.878906 130.319336 L 79.878906 124.335938 L 76.892578 124.335938 L 76.892578 123.412109 L 80.738281 123.412109 L 80.738281 130.319336 Z " fill="rgb(0, 0, 0)" fill-opacity="1.000000" />
<path d="M 170.878906 130.319336 L 170.878906 123.412109 L 174.729980 123.412109 L 174.729980 124.335938 L 171.738281 124.335938 L 171.738281 130.319336 Z " fill="rgb(0, 0, 0)" fill-opacity="1.000000" />
<path d="M 174.892578 124.335938 L 174.892578 123.412109 L 181.729980 123.412109 L 181.729980 124.335938 Z " fill="rgb(0, 0, 0)" fill-opacity="1.000000" />
<path d="M 181.892578 124.335938 L 181.892578 123.412109 L 188.729980 123.412109 L 188.729980 124.335938 Z " fill="rgb(0, 0, 0)" fill-opacity="1.000000" />
<path d="M 188.892578 124.335938 L 188.892578 123.412109 L 195.729980 123.412109 L 195.729980 124.335938 Z " fill="rgb(0, 0, 0)" fill-opacity="1.000000" />
<path d="M 195.892578 124.335938 L 195.892578 123.412109 L 202.729980 123.412109 L 202.729980 124.335938 Z " fill="rgb(0, 0, 0)" fill-opacity="1.000000" />
<path d="M 202.892578 124.335938 L 202.892578 123.412109 L 209.729980 123.412109 L 209.729980 124.335938 Z " fill="rgb(0, 0, 0)" fill-opacity="1.000000" />
<path d="M 209.892578 124.335938 L 209.892578 123.412109 L 216.729980 123.412109 L 216.729980 124.335938 Z " fill="rgb(0, 0, 0)" fill-opacity="1.000000" />
<path d="M 216.892578 124.335938 L 216.892578 123.412109 L 223.729980 123.412109 L 223.729980 124.335938 Z " fill="rgb(0, 0, 0)" fill-opacity="1.000000" />
<path d="M 226.878906 130.319336 L 226.878906 124.335938 L 223.892578 124.335938 L 223.892578 123.412109 L 227.738281 123.412109 L 227.738281 130.319336 Z " fill="rgb(0, 0, 0)" fill-opacity="1.000000" />
<path d="M 310.878906 130.319336 L 310.878906 123.412109 L 314.729980 123.412109 L 314.729980 124.335938 L 311.738281 124.335938 L 311.738281 130.319336 Z " fill="rgb(0, 0, 0)" fill-opacity="1.000000" />
<path d="M 314.892578 124.335938 L 314.892578 123.412109 L 321.729980 123.412109 L 321.729980 124.335938 Z " fill="rgb(0, 0, 0)" fill-opacity="1.000000" />
<path d="M 321.892578 124.335938 L 321.892578 123.412109 L 328.729980 123.412109 L 328.729980 124.335938 Z " fill="rgb(0, 0, 0)" fill-opacity="1.000000" />
<path d="M 328.892578 124.335938 L 328.892578 123.412109 L 335.729980 123.412109 L 335.729980 124.335938 Z " fill="rgb(0, 0, 0)" fill-opacity="1.000000" />
<path d="M 335.892578 124.335938 L 335.892578 123.412109 L 342.729980 123.412109 L 342.729980 124.335938 Z " fill="rgb(0, 0, 0)" fill-opacity="1.000000" />
<path d="M 342.892578 124.335938 L 342.892578 123.412109 L 349.729980 123.412109 L 349.729980 124.335938 Z " fill="rgb(0, 0, 0)" fill-opacity="1.000000" />
<path d="M 349.892578 124.335938 L 349.892578 123.412109 L 356.729980 123.412109 L 356.729980 124.335938 Z " fill="rgb(0, 0, 0)" fill-opacity="1.000000" />
<path d="M 356.892578 124.335938 L 356.892578 123.412109 L 363.729980 123.412109 L 363.729980 124.335938 Z " fill="rgb(0, 0, 0)" fill-opacity="1.000000" />
<path d="M 366.878906 130.319336 L 366.878906 124.335938 L 363.892578 124.335938 L 363.892578 123.412109 L 367.738281 123.412109 L 367.738281 130.319336 Z " fill="rgb(0, 0, 0)" fill-opacity="1.000000" />
<path d="M 27.892578 85.335938 L 27.892578 84.412109 L 34.729980 84.412109 L 34.729980 85.335938 Z " fill="rgb(0, 0, 0)" fill-opacity="1.000000" />
<path d="M 34.892578 85.335938 L 34.892578 84.412109 L 41.729980 84.412109 L 41.729980 85.335938 Z " fill="rgb(0, 0, 0)" fill-opacity="1.000000" />
<path d="M 41.892578 85.335938 L 41.892578 84.412109 L 48.729980 84.412109 L 48.729980 85.335938 Z " fill="rgb(0, 0, 0)" fill-opacity="1.000000" />
<path d="M 48.892578 85.335938 L 48.892578 84.412109 L 51.878906 84.412109 L 51.878906 77.300781 L 52.738281 77.300781 L 52.738281 84.412109 L 55.729980 84.412109 L 55.729980 85.335938 Z " fill="rgb(0, 0, 0)" fill-opacity="1.000000" />
<path d="M 55.892578 85.335938 L 55.892578 84.412109 L 62.729980 84.412109 L 62.729980 85.335938 Z " fill="rgb(0, 0, 0)" fill-opacity="1.000000" />
<path d="M 62.892578 85.335938 L 62.892578 84.412109 L 69.729980 84.412109 L 69.729980 85.335938 Z " fill="rgb(0, 0, 0)" fill-opacity="1.000000" />
<path d="M 69.892578 85.335938 L 69.892578 84.412109 L 76.729980 84.412109 L 76.729980 85.335938 Z " fill="rgb(0, 0, 0)" fill-opacity="1.000000" />
<path d="M 76.892578 85.335938 L 76.892578 84.412109 L 79.878906 84.412109 L 79.878906 77.300781 L 80.738281 77.300781 L 80.738281 85.335938 Z " fill="rgb(0, 0, 0)" fill-opacity="1.000000" />
<path d="M 170.878906 85.335938 L 170.878906 77.300781 L 171.738281 77.300781 L 171.738281 84.412109 L 174.729980 84.412109 L 174.729980 85.335938 Z " fill="rgb(0, 0, 0)" fill-opacity="1.000000" />
<path d="M 174.892578 85.335938 L 174.892578 84.412109 L 181.729980 84.412109 L 181.729980 85.335938 Z " fill="rgb(0, 0, 0)" fill-opacity="1.000000" />
<path d="M 181.892578 85.335938 L 181.892578 84.412109 L 188.729980 84.412109 L 188.729980 85.335938 Z " fill="rgb(0, 0, 0)" fill-opacity="1.000000" />
<path d="M 188.892578 85.335938 L 188.892578 84.412109 L 195.729980 84.412109 L 195.729980 85.335938 Z " fill="rgb(0, 0, 0)" fill-opacity="1.000000" />
<path d="M 195.892578 85.335938 L 195.892578 84.412109 L 198.878906 84.412109 L 198.878906 77.300781 L 199.738281 77.300781 L 199.738281 84.412109 L 202.729980 84.412109 L 202.729980 85.335938 Z " fill="rgb(0, 0, 0)" fill-opacity="1.000000" />
<path d="M 202.892578 85.335938 L 202.892578 84.412109 L 209.729980 84.412109 L 209.729980 85.335938 Z " fill="rgb(0, 0, 0)" fill-opacity="1.000000" />
<path d="M 209.892578 85.335938 L 209.892578 84.412109 L 216.729980 84.412109 L 216.729980 85.335938 Z " fill="rgb(0, 0, 0)" fill-opacity="1.000000" />
<path d="M 216.892578 85.335938 L 216.892578 84.412109 L 223.729980 84.412109 L 223.729980 85.335938 Z " fill="rgb(0, 0, 0)" fill-opacity="1.000000" />
<path d="M 223.892578 85.335938 L 223.892578 84.412109 L 226.878906 84.412109 L 226.878906 77.300781 L 227.738281 77.300781 L 227.738281 85.335938 Z " fill="rgb(0, 0, 0)" fill-opacity="1.000000" />
<path d="M 310.878906 85.335938 L 310.878906 77.300781 L 311.738281 77.300781 L 311.738281 84.412109 L 314.729980 84.412109 L 314.729980 85.335938 Z " fill="rgb(0, 0, 0)" fill-opacity="1.000000" />
<path d="M 314.892578 85.335938 L 314.892578 84.412109 L 321.729980 84.412109 L 321.729980 85.335938 Z " fill="rgb(0, 0, 0)" fill-opacity="1.000000" />
<path d="M 321.892578 85.335938 L 321.892578 84.412109 L 328.729980 84.412109 L 328.729980 85.335938 Z " fill="rgb(0, 0, 0)" fill-opacity="1.000000" />
<path d="M 328.892578 85.335938 L 328.892578 84.412109 L 335.729980 84.412109 L 335.729980 85.335938 Z " fill="rgb(0, 0, 0)" fill-opacity="1.000000" />
<path d="M 335.892578 85.335938 L 335.892578 84.412109 L 338.878906 84.412109 L 338.878906 77.300781 L 339.738281 77.300781 L 339.738281 84.412109 L 342.729980 84.412109 L 342.729980 85.335938 Z " fill="rgb(0, 0, 0)" fill-opacity="1.000000" />
<path d="M 342.892578 85.335938 L 342.892578 84.412109 L 349.729980 84.412109 L 349.729980 85.335938 Z " fill="rgb(0, 0, 0)" fill-opacity="1.000000" />
<path d="M 349.892578 85.335938 L 349.892578 84.412109 L 356.729980 84.412109 L 356.729980 85.335938 Z " fill="rgb(0, 0, 0)" fill-opacity="1.000000" />
<path d="M 356.892578 85.335938 L 356.892578 84.412109 L 363.729980 84.412109 L 363.729980 85.335938 Z " fill="rgb(0, 0, 0)" fill-opacity="1.000000" />
<path d="M 363.892578 85.335938 L 363.892578 84.412109 L 366.878906 84.412109 L 366.878906 77.300781 L 367.738281 77.300781 L 367.738281 85.335938 Z " fill="rgb(0, 0, 0)" fill-opacity="1.000000" />
<path d="M 6.892578 72.797852 L 6.892578 70.950195 L 13.729980 70.950195 L 13.729980 72.797852 Z " fill="rgb(0, 118, 0)" fill-opacity="1.000000" />
<path d="M 13.892578 72.797852 L 13.892578 70.950195 L 20.729980 70.950195 L 20.729980 72.797852 Z " fill="rgb(0, 118, 0)" fill-opacity="1.000000" />
<path d="M 23.449219 78.319336 L 23.449219 72.797852 L 20.892578 72.797852 L 20.892578 70.950195 L 23.449219 70.950195 L 23.449219 64.300781 L 25.167969 64.300781 L 25.167969 78.319336 Z " fill="rgb(0, 0, 0)" fill-opacity="1.000000" />
<path d="M 36.981934 70.955566 L 36.981934 74.108398 L 38.265625 74.108398 Q 39.210938 74.108398 39.613770 73.778076 Q 40.016602 73.447754 40.016602 72.690430 Q 40.016602 71.691406 39.592285 71.323486 Q 39.167969 70.955566 38.265625 70.955566 Z M 36.981934 67.872559 L 36.981934 70.074707 L 38.244141 70.074707 Q 39.028320 70.074707 39.380127 69.773926 Q 39.731934 69.473145 39.731934 69.016602 Q 39.731934 68.409668 39.385498 68.141113 Q 39.039062 67.872559 38.244141 67.872559 Z M 35.891602 66.980957 L 38.265625 66.980957 Q 39.495605 66.980957 40.161621 67.512695 Q 40.827637 68.044434 40.827637 69.016602 Q 40.827637 69.537598 40.475830 69.961914 Q 40.124023 70.386230 39.420410 70.493652 Q 40.209961 70.611816 40.658447 71.167725 Q 41.106934 71.723633 41.106934 72.797852 Q 41.106934 73.888184 40.392578 74.444092 Q 39.678223 75.000000 38.265625 75.000000 L 35.891602 75.000000 Z " fill="rgb(170, 120, 0)" fill-opacity="1.000000" />
<path d="M 51.878906 78.319336 L 51.878906 64.300781 L 52.738281 64.300781 L 52.738281 78.319336 Z " fill="rgb(0, 0, 0)" fill-opacity="1.000000" />
<path d="M 64.450195 74.092285 L 66.136719 74.092285 L 66.136719 68.033691 L 64.117188 69.005859 L 64.117188 67.963867 L 66.125977 67.007812 L 67.210938 67.007812 L 67.210938 74.092285 L 68.875977 74.092285 L 68.875977 75.000000 L 64.450195 75.000000 Z " fill="rgb(0, 0, 0)" fill-opacity="1.000000" />
<path d="M 79.449219 78.319336 L 79.449219 64.300781 L 81.167969 64.300781 L 81.167969 70.950195 L 83.729980 70.950195 L 83.729980 72.797852 L 81.167969 72.797852 L 81.167969 78.319336 Z " fill="rgb(0, 0, 0)" fill-opacity="1.000000" />
<path d="M 83.892578 72.797852 L 83.892578 70.950195 L 90.729980 70.950195 L 90.729980 72.797852 Z " fill="rgb(0, 118, 0)" fill-opacity="1.000000" />
<path d="M 90.892578 72.797852 L 90.892578 70.950195 L 97.729980 70.950195 L 97.729980 72.797852 Z " fill="rgb(0, 118, 0)" fill-opacity="1.000000" />
<path d="M 97.892578 72.797852 L 97.892578 70.950195 L 104.729980 70.950195 L 104.729980 72.797852 Z " fill="rgb(0, 118, 0)" fill-opacity="1.000000" />
<path d="M 104.892578 72.797852 L 104.892578 70.950195 L 111.729980 70.950195 L 111.729980 72.797852 Z " fill="rgb(0, 118, 0)" fill-opacity="1.000000" />
<path d="M 111.892578 72.797852 L 111.892578 70.950195 L 118.729980 70.950195 L 118.729980 72.797852 Z " fill="rgb(0, 118, 0)" fill-opacity="1.000000" />
<path d="M 118.892578 72.797852 L 118.892578 70.950195 L 125.729980 70.950195 L 125.729980 72.797852 Z " fill="rgb(0, 118, 0)" fill-opacity="1.000000" />
<path d="M 125.892578 72.797852 L 125.892578 70.950195 L 132.729980 70.950195 L 132.729980 72.797852 Z " fill="rgb(0, 118, 0)" fill-opacity="1.000000" />
<path d="M 132.892578 72.797852 L 132.892578 70.950195 L 139.729980 70.950195 L 139.729980 72.797852 Z " fill="rgb(0, 118, 0)" fill-opacity="1.000000" />
<path d="M 139.892578 72.797852 L 139.892578 70.950195 L 146.729980 70.950195 L 146.729980 72.797852 Z " fill="rgb(0, 118, 0)" fill-opacity="1.000000" />
<path d="M 146.892578 72.797852 L 146.892578 70.950195 L 153.729980 70.950195 L 153.729980 72.797852 Z " fill="rgb(0, 118, 0)" fill-opacity="1.000000" />
<path d="M 153.892578 72.797852 L 153.892578 70.950195 L 160.729980 70.950195 L 160.729980 72.797852 Z " fill="rgb(0, 118, 0)" fill-opacity="1.000000" />
<path d="M 161.032227 75.418945 L 161.032227 68.866211 L 167.590332 72.142578 Z " fill="rgb(0, 118, 0)" fill-opacity="1.000000" />
<path d="M 170.878906 78.319336 L 170.878906 64.300781 L 171.738281 64.300781 L 171.738281 78.319336 Z " fill="rgb(0, 0, 0)" fill-opacity="1.000000" />
<path d="M 185.308594 67.937012 L 184.164551 72.040527 L 186.452637 72.040527 Z M 184.653320 66.980957 L 185.969238 66.980957 L 188.423828 75.000000 L 187.301270 75.000000 L 186.710449 72.910645 L 183.901367 72.910645 L 183.321289 75.000000 L 182.198730 75.000000 Z " fill="rgb(0, 118, 0)" fill-opacity="1.000000" />
<path d="M 198.878906 78.319336 L 198.878906 64.300781 L 199.738281 64.300781 L 199.738281 78.319336 Z " fill="rgb(0, 0, 0)" fill-opacity="1.000000" />
<path d="M 212.003418 74.086914 L 215.687988 74.086914 L 215.687988 75.000000 L 210.816406 75.000000 L 210.816406 74.086914 Q 211.820801 73.028809 212.572754 72.217773 Q 213.324707 71.406738 213.609375 71.073730 Q 214.146484 70.418457 214.334473 70.012939 Q 214.522461 69.607422 214.522461 69.183105 Q 214.522461 68.511719 214.127686 68.130371 Q 213.732910 67.749023 213.045410 67.749023 Q 212.556641 67.749023 212.019531 67.926270 Q 211.482422 68.103516 210.880859 68.463379 L 210.880859 67.367676 Q 211.434082 67.104492 211.968506 66.970215 Q 212.502930 66.835938 213.023926 66.835938 Q 214.200195 66.835938 214.917236 67.461670 Q 215.634277 68.087402 215.634277 69.102539 Q 215.634277 69.618164 215.395264 70.133789 Q 215.156250 70.649414 214.619141 71.272461 Q 214.318359 71.621582 213.746338 72.239258 Q 213.174316 72.856934 212.003418 74.086914 Z " fill="rgb(0, 0, 0)" fill-opacity="1.000000" />
<path d="M 226.878906 78.319336 L 226.878906 64.300781 L 227.738281 64.300781 L 227.738281 78.319336 Z " fill="rgb(0, 0, 0)" fill-opacity="1.000000" />
<path d="M 230.892578 72.797852 L 230.892578 70.950195 L 237.729980 70.950195 L 237.729980 72.797852 Z " fill="rgb(0, 118, 0)" fill-opacity="1.000000" />
<path d="M 237.892578 72.797852 L 237.892578 70.950195 L 244.729980 70.950195 L 244.729980 72.797852 Z " fill="rgb(0, 118, 0)" fill-opacity="1.000000" />
<path d="M 244.892578 72.797852 L 244.892578 70.950195 L 251.729980 70.950195 L 251.729980 72.797852 Z " fill="rgb(0, 118, 0)" fill-opacity="1.000000" />
<path d="M 251.892578 72.797852 L 251.892578 70.950195 L 258.729980 70.950195 L 258.729980 72.797852 Z " fill="rgb(0, 118, 0)" fill-opacity="1.000000" />
<path d="M 258.892578 72.797852 L 258.892578 70.950195 L 265.729980 70.950195 L 265.729980 72.797852 Z " fill="rgb(0, 118, 0)" fill-opacity="1.000000" />
<path d="M 265.892578 72.797852 L 265.892578 70.950195 L 268.449219 70.950195 L 268.449219 64.300781 L 270.167969 64.300781 L 270.167969 72.797852 Z " fill="rgb(0, 118, 0)" fill-opacity="1.000000" />
<path d="M 310.878906 78.319336 L 310.878906 64.300781 L 311.738281 64.300781 L 311.738281 78.319336 Z " fill="rgb(0, 0, 0)" fill-opacity="1.000000" />
<path d="M 323.981934 70.955566 L 323.981934 74.108398 L 325.265625 74.108398 Q 326.210938 74.108398 326.613770 73.778076 Q 327.016602 73.447754 327.016602 72.690430 Q 327.016602 71.691406 326.592285 71.323486 Q 326.167969 70.955566 325.265625 70.955566 Z M 323.981934 67.872559 L 323.981934 70.074707 L 325.244141 70.074707 Q 326.028320 70.074707 326.380127 69.773926 Q 326.731934 69.473145 326.731934 69.016602 Q 326.731934 68.409668 326.385498 68.141113 Q 326.039062 67.872559 325.244141 67.872559 Z M 322.891602 66.980957 L 325.265625 66.980957 Q 326.495605 66.980957 327.161621 67.512695 Q 327.827637 68.044434 327.827637 69.016602 Q 327.827637 69.537598 327.475830 69.961914 Q 327.124023 70.386230 326.420410 70.493652 Q 327.209961 70.611816 327.658447 71.167725 Q 328.106934 71.723633 328.106934 72.797852 Q 328.106934 73.888184 327.392578 74.444092 Q 326.678223 75.000000 325.265625 75.000000 L 322.891602 75.000000 Z " fill="rgb(170, 120, 0)" fill-opacity="1.000000" />
<path d="M 338.878906 78.319336 L 338.878906 64.300781 L 339.738281 64.300781 L 339.738281 78.319336 Z " fill="rgb(0, 0, 0)" fill-opacity="1.000000" />
<path d="M 351.450195 74.092285 L 353.136719 74.092285 L 353.136719 68.033691 L 351.117188 69.005859 L 351.117188 67.963867 L 353.125977 67.007812 L 354.210938 67.007812 L 354.210938 74.092285 L 355.875977 74.092285 L 355.875977 75.000000 L 351.450195 75.000000 Z " fill="rgb(0, 0, 0)" fill-opacity="1.000000" />
<path d="M 366.878906 78.319336 L 366.878906 64.300781 L 367.738281 64.300781 L 367.738281 78.319336 Z " fill="rgb(0, 0, 0)" fill-opacity="1.000000" />
<path d="M 23.878906 65.319336 L 23.878906 51.300781 L 24.738281 51.300781 L 24.738281 58.412109 L 27.729980 58.412109 L 27.729980 59.335938 L 24.738281 59.335938 L 24.738281 65.319336 Z " fill="rgb(0, 0, 0)" fill-opacity="1.000000" />
<path d="M 27.892578 59.335938 L 27.892578 58.412109 L 34.729980 58.412109 L 34.729980 59.335938 Z " fill="rgb(0, 0, 0)" fill-opacity="1.000000" />
<path d="M 34.892578 59.335938 L 34.892578 58.412109 L 41.729980 58.412109 L 41.729980 59.335938 Z " fill="rgb(0, 0, 0)" fill-opacity="1.000000" />
<path d="M 41.892578 59.335938 L 41.892578 58.412109 L 48.729980 58.412109 L 48.729980 59.335938 Z " fill="rgb(0, 0, 0)" fill-opacity="1.000000" />
<path d="M 52.738281 59.335938 L 52.738281 65.319336 L 51.878906 65.319336 L 51.878906 59.335938 L 48.892578 59.335938 L 48.892578 58.412109 L 51.878906 58.412109 L 51.878906 51.300781 L 52.738281 51.300781 L 52.738281 58.412109 L 55.729980 58.412109 L 55.729980 59.335938 Z " fill="rgb(0, 0, 0)" fill-opacity="1.000000" />
<path d="M 55.892578 59.335938 L 55.892578 58.412109 L 62.729980 58.412109 L 62.729980 59.335938 Z " fill="rgb(0, 0, 0)" fill-opacity="1.000000" />
<path d="M 62.892578 59.335938 L 62.892578 58.412109 L 69.729980 58.412109 L 69.729980 59.335938 Z " fill="rgb(0, 0, 0)" fill-opacity="1.000000" />
<path d="M 69.892578 59.335938 L 69.892578 58.412109 L 76.729980 58.412109 L 76.729980 59.335938 Z " fill="rgb(0, 0, 0)" fill-opacity="1.000000" />
<path d="M 79.878906 65.319336 L 79.878906 59.335938 L 76.892578 59.335938 L 76.892578 58.412109 L 79.878906 58.412109 L 79.878906 51.300781 L 80.738281 51.300781 L 80.738281 65.319336 Z " fill="rgb(0, 0, 0)" fill-opacity="1.000000" />
<path d="M 170.878906 65.319336 L 170.878906 51.300781 L 171.738281 51.300781 L 171.738281 58.412109 L 174.729980 58.412109 L 174.729980 59.335938 L 171.738281 59.335938 L 171.738281 65.319336 Z " fill="rgb(0, 0, 0)" fill-opacity="1.000000" />
<path d="M 174.892578 59.335938 L 174.892578 58.412109 L 181.729980 58.412109 L 181.729980 59.335938 Z " fill="rgb(0, 0, 0)" fill-opacity="1.000000" />
<path d="M 181.892578 59.335938 L 181.892578 58.412109 L 188.729980 58.412109 L 188.729980 59.335938 Z " fill="rgb(0, 0, 0)" fill-opacity="1.000000" />
<path d="M 188.892578 59.335938 L 188.892578 58.412109 L 195.729980 58.412109 L 195.729980 59.335938 Z " fill="rgb(0, 0, 0)" fill-opacity="1.000000" />
<path d="M 199.738281 59.335938 L 199.738281 65.319336 L 198.878906 65.319336 L 198.878906 59.335938 L 195.892578 59.335938 L 195.892578 58.412109 L 198.878906 58.412109 L 198.878906 51.300781 L 199.738281 51.300781 L 199.738281 58.412109 L 202.729980 58.412109 L 202.729980 59.335938 Z " fill="rgb(0, 0, 0)" fill-opacity="1.000000" />
<path d="M 202.892578 59.335938 L 202.892578 58.412109 L 209.729980 58.412109 L 209.729980 59.335938 Z " fill="rgb(0, 0, 0)" fill-opacity="1.000000" />
<path d="M 209.892578 59.335938 L 209.892578 58.412109 L 216.729980 58.412109 L 216.729980 59.335938 Z " fill="rgb(0, 0, 0)" fill-opacity="1.000000" />
<path d="M 216.892578 59.335938 L 216.892578 58.412109 L 223.729980 58.412109 L 223.729980 59.335938 Z " fill="rgb(0, 0, 0)" fill-opacity="1.000000" />
<path d="M 226.878906 65.319336 L 226.878906 59.335938 L 223.892578 59.335938 L 223.892578 58.412109 L 226.878906 58.412109 L 226.878906 51.300781 L 227.738281 51.300781 L 227.738281 65.319336 Z " fill="rgb(0, 0, 0)" fill-opacity="1.000000" />
<path d="M 268.449219 65.319336 L 268.449219 51.300781 L 270.167969 51.300781 L 270.167969 65.319336 Z " fill="rgb(0, 118, 0)" fill-opacity="1.000000" />
<path d="M 310.878906 65.319336 L 310.878906 51.300781 L 311.738281 51.300781 L 311.738281 58.412109 L 314.729980 58.412109 L 314.729980 59.335938 L 311.738281 59.335938 L 311.738281 65.319336 Z " fill="rgb(0, 0, 0)" fill-opacity="1.000000" />
<path d="M 314.892578 59.335938 L 314.892578 58.412109 L 321.729980 58.412109 L 321.729980 59.335938 Z " fill="rgb(0, 0, 0)" fill-opacity="1.000000" />
<path d="M 321.892578 59.335938 L 321.892578 58.412109 L 328.729980 58.412109 L 328.729980 59.335938 Z " fill="rgb(0, 0, 0)" fill-opacity="1.000000" />
<path d="M 328.892578 59.335938 L 328.892578 58.412109 L 335.729980 58.412109 L 335.729980 59.335938 Z " fill="rgb(0, 0, 0)" fill-opacity="1.000000" />
<path d="M 339.738281 59.335938 L 339.738281 65.319336 L 338.878906 65.319336 L 338.878906 59.335938 L 335.892578 59.335938 L 335.892578 58.412109 L 338.878906 58.412109 L 338.878906 51.300781 L 339.738281 51.300781 L 339.738281 58.412109 L 342.729980 58.412109 L 342.729980 59.335938 Z " fill="rgb(0, 0, 0)" fill-opacity="1.000000" />
<path d="M 342.892578 59.335938 L 342.892578 58.412109 L 349.729980 58.412109 L 349.729980 59.335938 Z " fill="rgb(0, 0, 0)" fill-opacity="1.000000" />
<path d="M 349.892578 59.335938 L 349.892578 58.412109 L 356.729980 58.412109 L 356.729980 59.335938 Z " fill="rgb(0, 0, 0)" fill-opacity="1.000000" />
<path d="M 356.892578 59.335938 L 356.892578 58.412109 L 363.729980 58.412109 L 363.729980 59.335938 Z " fill="rgb(0, 0, 0)" fill-opacity="1.000000" />
<path d="M 366.878906 65.319336 L 366.878906 59.335938 L 363.892578 59.335938 L 363.892578 58.412109 L 366.878906 58.412109 L 366.878906 51.300781 L 367.738281 51.300781 L 367.738281 65.319336 Z " fill="rgb(0, 0, 0)" fill-opacity="1.000000" />
<path d="M 6.892578 46.797852 L 6.892578 44.950195 L 13.729980 44.950195 L 13.729980 46.797852 Z " fill="rgb(0, 118, 0)" fill-opacity="1.000000" />
<path d="M 14.032227 46.142578 Q 14.032227 44.251953 15.670410 43.306641 Q 16.486816 42.833984 17.308594 42.833984 Q 18.125000 42.833984 18.946777 43.306641 Q 20.590332 44.251953 20.590332 46.142578 Q 20.590332 48.033203 18.946777 48.978516 Q 18.125000 49.451172 17.308594 49.451172 Q 16.486816 49.451172 15.670410 48.978516 Q 14.032227 48.033203 14.032227 46.142578 Z " fill="rgb(0, 118, 0)" fill-opacity="1.000000" />
<path d="M 23.878906 52.319336 L 23.878906 38.300781 L 24.738281 38.300781 L 24.738281 52.319336 Z " fill="rgb(0, 0, 0)" fill-opacity="1.000000" />
<path d="M 38.308594 41.937012 L 37.164551 46.040527 L 39.452637 46.040527 Z M 37.653320 40.980957 L 38.969238 40.980957 L 41.423828 49.000000 L 40.301270 49.000000 L 39.710449 46.910645 L 36.901367 46.910645 L 36.321289 49.000000 L 35.198730 49.000000 Z " fill="rgb(64, 118, 0)" fill-opacity="1.000000" />
<path d="M 51.878906 52.319336 L 51.878906 38.300781 L 52.738281 38.300781 L 52.738281 52.319336 Z " fill="rgb(0, 0, 0)" fill-opacity="1.000000" />
<path d="M 65.003418 48.086914 L 68.687988 48.086914 L 68.687988 49.000000 L 63.816406 49.000000 L 63.816406 48.086914 Q 64.820801 47.028809 65.572754 46.217773 Q 66.324707 45.406738 66.609375 45.073730 Q 67.146484 44.418457 67.334473 44.012939 Q 67.522461 43.607422 67.522461 43.183105 Q 67.522461 42.511719 67.127686 42.130371 Q 66.732910 41.749023 66.045410 41.749023 Q 65.556641 41.749023 65.019531 41.926270 Q 64.482422 42.103516 63.880859 42.463379 L 63.880859 41.367676 Q 64.434082 41.104492 64.968506 40.970215 Q 65.502930 40.835938 66.023926 40.835938 Q 67.200195 40.835938 67.917236 41.461670 Q 68.634277 42.087402 68.634277 43.102539 Q 68.634277 43.618164 68.395264 44.133789 Q 68.156250 44.649414 67.619141 45.272461 Q 67.318359 45.621582 66.746338 46.239258 Q 66.174316 46.856934 65.003418 48.086914 Z " fill="rgb(0, 0, 0)" fill-opacity="1.000000" />
<path d="M 79.878906 52.319336 L 79.878906 38.300781 L 80.738281 38.300781 L 80.738281 52.319336 Z " fill="rgb(0, 0, 0)" fill-opacity="1.000000" />
<path d="M 170.878906 52.319336 L 170.878906 38.300781 L 171.738281 38.300781 L 171.738281 52.319336 Z " fill="rgb(0, 0, 0)" fill-opacity="1.000000" />
<path d="M 183.981934 44.955566 L 183.981934 48.108398 L 185.265625 48.108398 Q 186.210938 48.108398 186.613770 47.778076 Q 187.016602 47.447754 187.016602 46.690430 Q 187.016602 45.691406 186.592285 45.323486 Q 186.167969 44.955566 185.265625 44.955566 Z M 183.981934 41.872559 L 183.981934 44.074707 L 185.244141 44.074707 Q 186.028320 44.074707 186.380127 43.773926 Q 186.731934 43.473145 186.731934 43.016602 Q 186.731934 42.409668 186.385498 42.141113 Q 186.039062 41.872559 185.244141 41.872559 Z M 182.891602 40.980957 L 185.265625 40.980957 Q 186.495605 40.980957 187.161621 41.512695 Q 187.827637 42.044434 187.827637 43.016602 Q 187.827637 43.537598 187.475830 43.961914 Q 187.124023 44.386230 186.420410 44.493652 Q 187.209961 44.611816 187.658447 45.167725 Q 188.106934 45.723633 188.106934 46.797852 Q 188.106934 47.888184 187.392578 48.444092 Q 186.678223 49.000000 185.265625 49.000000 L 182.891602 49.000000 Z " fill="rgb(170, 120, 0)" fill-opacity="1.000000" />
<path d="M 198.878906 52.319336 L 198.878906 38.300781 L 199.738281 38.300781 L 199.738281 52.319336 Z " fill="rgb(0, 0, 0)" fill-opacity="1.000000" />
<path d="M 211.450195 48.092285 L 213.136719 48.092285 L 213.136719 42.033691 L 211.117188 43.005859 L 211.117188 41.963867 L 213.125977 41.007812 L 214.210938 41.007812 L 214.210938 48.092285 L 215.875977 48.092285 L 215.875977 49.000000 L 211.450195 49.000000 Z " fill="rgb(0, 0, 0)" fill-opacity="1.000000" />
<path d="M 226.878906 52.319336 L 226.878906 38.300781 L 227.738281 38.300781 L 227.738281 52.319336 Z " fill="rgb(0, 0, 0)" fill-opacity="1.000000" />
<path d="M 268.449219 52.319336 L 268.449219 44.950195 L 272.729980 44.950195 L 272.729980 46.797852 L 270.167969 46.797852 L 270.167969 52.319336 Z " fill="rgb(0, 118, 0)" fill-opacity="1.000000" />
<path d="M 272.892578 46.797852 L 272.892578 44.950195 L 279.729980 44.950195 L 279.729980 46.797852 Z " fill="rgb(0, 118, 0)" fill-opacity="1.000000" />
<path d="M 279.892578 46.797852 L 279.892578 44.950195 L 286.729980 44.950195 L 286.729980 46.797852 Z " fill="rgb(0, 118, 0)" fill-opacity="1.000000" />
<path d="M 286.892578 46.797852 L 286.892578 44.950195 L 293.729980 44.950195 L 293.729980 46.797852 Z " fill="rgb(0, 118, 0)" fill-opacity="1.000000" />
<path d="M 293.892578 46.797852 L 293.892578 44.950195 L 300.729980 44.950195 L 300.729980 46.797852 Z " fill="rgb(0, 118, 0)" fill-opacity="1.000000" />
<path d="M 300.892578 46.797852 L 300.892578 44.950195 L 307.729980 44.950195 L 307.729980 46.797852 Z " fill="rgb(0, 118, 0)" fill-opacity="1.000000" />
<path d="M 308.032227 49.418945 L 308.032227 42.866211 L 314.590332 46.142578 Z " fill="rgb(0, 118, 0)" fill-opacity="1.000000" />
<path d="M 325.308594 41.937012 L 324.164551 46.040527 L 326.452637 46.040527 Z M 324.653320 40.980957 L 325.969238 40.980957 L 328.423828 49.000000 L 327.301270 49.000000 L 326.710449 46.910645 L 323.901367 46.910645 L 323.321289 49.000000 L 322.198730 49.000000 Z " fill="rgb(0, 118, 0)" fill-opacity="1.000000" />
<path d="M 338.878906 52.319336 L 338.878906 38.300781 L 339.738281 38.300781 L 339.738281 52.319336 Z " fill="rgb(0, 0, 0)" fill-opacity="1.000000" />
<path d="M 353.947754 41.969238 L 351.417969 46.207031 L 353.947754 46.207031 Z M 353.770508 40.980957 L 355.027344 40.980957 L 355.027344 46.207031 L 356.096191 46.207031 L 356.096191 47.087891 L 355.027344 47.087891 L 355.027344 49.000000 L 353.947754 49.000000 L 353.947754 47.087891 L 350.547852 47.087891 L 350.547852 46.062012 Z " fill="rgb(0, 0, 0)" fill-opacity="1.000000" />
<path d="M 366.878906 52.319336 L 366.878906 38.300781 L 367.738281 38.300781 L 367.738281 52.319336 Z " fill="rgb(0, 0, 0)" fill-opacity="1.000000" />
<path d="M 23.878906 13.319336 L 23.878906 6.412109 L 27.729980 6.412109 L 27.729980 7.335938 L 24.738281 7.335938 L 24.738281 13.319336 Z " fill="rgb(0, 0, 0)" fill-opacity="1.000000" />
<path d="M 23.878906 26.319336 L 23.878906 12.300781 L 24.738281 12.300781 L 24.738281 26.319336 Z " fill="rgb(0, 0, 0)" fill-opacity="1.000000" />
<path d="M 23.878906 39.319336 L 23.878906 25.300781 L 24.738281 25.300781 L 24.738281 32.412109 L 27.729980 32.412109 L 27.729980 33.335938 L 24.738281 33.335938 L 24.738281 39.319336 Z " fill="rgb(0, 0, 0)" fill-opacity="1.000000" />
<path d="M 27.892578 33.335938 L 27.892578 32.412109 L 34.729980 32.412109 L 34.729980 33.335938 Z " fill="rgb(0, 0, 0)" fill-opacity="1.000000" />
<path d="M 34.892578 33.335938 L 34.892578 32.412109 L 41.729980 32.412109 L 41.729980 33.335938 Z " fill="rgb(0, 0, 0)" fill-opacity="1.000000" />
<path d="M 41.892578 33.335938 L 41.892578 32.412109 L 48.729980 32.412109 L 48.729980 33.335938 Z " fill="rgb(0, 0, 0)" fill-opacity="1.000000" />
<path d="M 51.878906 39.319336 L 51.878906 33.335938 L 48.892578 33.335938 L 48.892578 32.412109 L 55.729980 32.412109 L 55.729980 33.335938 L 52.738281 33.335938 L 52.738281 39.319336 Z " fill="rgb(0, 0, 0)" fill-opacity="1.000000" />
<path d="M 55.892578 33.335938 L 55.892578 32.412109 L 62.729980 32.412109 L 62.729980 33.335938 Z " fill="rgb(0, 0, 0)" fill-opacity="1.000000" />
<path d="M 62.892578 33.335938 L 62.892578 32.412109 L 69.729980 32.412109 L 69.729980 33.335938 Z " fill="rgb(0, 0, 0)" fill-opacity="1.000000" />
<path d="M 69.892578 33.335938 L 69.892578 32.412109 L 76.729980 32.412109 L 76.729980 33.335938 Z " fill="rgb(0, 0, 0)" fill-opacity="1.000000" />
<path d="M 79.878906 39.319336 L 79.878906 33.335938 L 76.892578 33.335938 L 76.892578 32.412109 L 79.878906 32.412109 L 79.878906 25.300781 L 80.738281 25.300781 L 80.738281 39.319336 Z " fill="rgb(0, 0, 0)" fill-opacity="1.000000" />
<path d="M 170.878906 39.319336 L 170.878906 25.300781 L 171.738281 25.300781 L 171.738281 32.412109 L 174.729980 32.412109 L 174.729980 33.335938 L 171.738281 33.335938 L 171.738281 39.319336 Z " fill="rgb(0, 0, 0)" fill-opacity="1.000000" />
<path d="M 174.892578 33.335938 L 174.892578 32.412109 L 181.729980 32.412109 L 181.729980 33.335938 Z " fill="rgb(0, 0, 0)" fill-opacity="1.000000" />
<path d="M 181.892578 33.335938 L 181.892578 32.412109 L 188.729980 32.412109 L 188.729980 33.335938 Z " fill="rgb(0, 0, 0)" fill-opacity="1.000000" />
<path d="M 188.892578 33.335938 L 188.892578 32.412109 L 195.729980 32.412109 L 195.729980 33.335938 Z " fill="rgb(0, 0, 0)" fill-opacity="1.000000" />
<path d="M 198.878906 39.319336 L 198.878906 33.335938 L 195.892578 33.335938 L 195.892578 32.412109 L 202.729980 32.412109 L 202.729980 33.335938 L 199.738281 33.335938 L 199.738281 39.319336 Z " fill="rgb(0, 0, 0)" fill-opacity="1.000000" />
<path d="M 202.892578 33.335938 L 202.892578 32.412109 L 209.729980 32.412109 L 209.729980 33.335938 Z " fill="rgb(0, 0, 0)" fill-opacity="1.000000" />
<path d="M 209.892578 33.335938 L 209.892578 32.412109 L 216.729980 32.412109 L 216.729980 33.335938 Z " fill="rgb(0, 0, 0)" fill-opacity="1.000000" />
<path d="M 216.892578 33.335938 L 216.892578 32.412109 L 223.729980 32.412109 L 223.729980 33.335938 Z " fill="rgb(0, 0, 0)" fill-opacity="1.000000" />
<path d="M 226.878906 39.319336 L 226.878906 33.335938 L 223.892578 33.335938 L 223.892578 32.412109 L 226.878906 32.412109 L 226.878906 25.300781 L 227.738281 25.300781 L 227.738281 39.319336 Z " fill="rgb(0, 0, 0)" fill-opacity="1.000000" />
<path d="M 310.878906 39.319336 L 310.878906 25.300781 L 311.738281 25.300781 L 311.738281 32.412109 L 314.729980 32.412109 L 314.729980 33.335938 L 311.738281 33.335938 L 311.738281 39.319336 Z " fill="rgb(0, 0, 0)" fill-opacity="1.000000" />
<path d="M 314.892578 33.335938 L 314.892578 32.412109 L 321.729980 32.412109 L 321.729980 33.335938 Z " fill="rgb(0, 0, 0)" fill-opacity="1.000000" />
<path d="M 321.892578 33.335938 L 321.892578 32.412109 L 328.729980 32.412109 L 328.729980 33.335938 Z " fill="rgb(0, 0, 0)" fill-opacity="1.000000" />
<path d="M 328.892578 33.335938 L 328.892578 32.412109 L 335.729980 32.412109 L 335.729980 33.335938 Z " fill="rgb(0, 0, 0)" fill-opacity="1.000000" />
<path d="M 338.878906 39.319336 L 338.878906 33.335938 L 335.892578 33.335938 L 335.892578 32.412109 L 342.729980 32.412109 L 342.729980 33.335938 L 339.738281 33.335938 L 339.738281 39.319336 Z " fill="rgb(0, 0, 0)" fill-opacity="1.000000" />
<path d="M 342.892578 33.335938 L 342.892578 32.412109 L 349.729980 32.412109 L 349.729980 33.335938 Z " fill="rgb(0, 0, 0)" fill-opacity="1.000000" />
<path d="M 349.892578 33.335938 L 349.892578 32.412109 L 356.729980 32.412109 L 356.729980 33.335938 Z " fill="rgb(0, 0, 0)" fill-opacity="1.000000" />
<path d="M 356.892578 33.335938 L 356.892578 32.412109 L 363.729980 32.412109 L 363.729980 33.335938 Z " fill="rgb(0, 0, 0)" fill-opacity="1.000000" />
<path d="M 366.878906 39.319336 L 366.878906 33.335938 L 363.892578 33.335938 L 363.892578 32.412109 L 366.878906 32.412109 L 366.878906 25.300781 L 367.738281 25.300781 L 367.738281 39.319336 Z " fill="rgb(0, 0, 0)" fill-opacity="1.000000" />
<path d="M 33.226074 17.193848 L 33.226074 18.160645 Q 32.801758 17.913574 32.372070 17.790039 Q 31.942383 17.666504 31.496582 17.666504 Q 30.825195 17.666504 30.494873 17.884033 Q 30.164551 18.101562 30.164551 18.547363 Q 30.164551 18.950195 30.411621 19.148926 Q 30.658691 19.347656 31.641602 19.535645 L 32.039062 19.610840 Q 32.774902 19.750488 33.153564 20.169434 Q 33.532227 20.588379 33.532227 21.259766 Q 33.532227 22.151367 32.898438 22.653564 Q 32.264648 23.155762 31.136719 23.155762 Q 30.690918 23.155762 30.202148 23.061768 Q 29.713379 22.967773 29.144043 22.779785 L 29.144043 21.759277 Q 29.697266 22.043945 30.202148 22.186279 Q 30.707031 22.328613 31.158203 22.328613 Q 31.813477 22.328613 32.173340 22.062744 Q 32.533203 21.796875 32.533203 21.318848 Q 32.533203 20.631348 31.217285 20.368164 L 31.174316 20.357422 L 30.803711 20.282227 Q 29.949707 20.115723 29.557617 19.720947 Q 29.165527 19.326172 29.165527 18.644043 Q 29.165527 17.779297 29.750977 17.309326 Q 30.336426 16.839355 31.421387 16.839355 Q 31.904785 16.839355 32.350586 16.927979 Q 32.796387 17.016602 33.226074 17.193848 Z " fill="rgb(0, 0, 0)" fill-opacity="1.000000" />
<path d="M 36.450195 22.092285 L 38.136719 22.092285 L 38.136719 16.033691 L 36.117188 17.005859 L 36.117188 15.963867 L 38.125977 15.007812 L 39.210938 15.007812 L 39.210938 22.092285 L 40.875977 22.092285 L 40.875977 23.000000 L 36.450195 23.000000 Z " fill="rgb(0, 0, 0)" fill-opacity="1.000000" />
<path d="M 79.878906 26.319336 L 79.878906 12.300781 L 80.738281 12.300781 L 80.738281 26.319336 Z " fill="rgb(0, 0, 0)" fill-opacity="1.000000" />
<path d="M 170.878906 26.319336 L 170.878906 12.300781 L 171.738281 12.300781 L 171.738281 26.319336 Z " fill="rgb(0, 0, 0)" fill-opacity="1.000000" />
<path d="M 180.226074 17.193848 L 180.226074 18.160645 Q 179.801758 17.913574 179.372070 17.790039 Q 178.942383 17.666504 178.496582 17.666504 Q 177.825195 17.666504 177.494873 17.884033 Q 177.164551 18.101562 177.164551 18.547363 Q 177.164551 18.950195 177.411621 19.148926 Q 177.658691 19.347656 178.641602 19.535645 L 179.039062 19.610840 Q 179.774902 19.750488 180.153564 20.169434 Q 180.532227 20.588379 180.532227 21.259766 Q 180.532227 22.151367 179.898438 22.653564 Q 179.264648 23.155762 178.136719 23.155762 Q 177.690918 23.155762 177.202148 23.061768 Q 176.713379 22.967773 176.144043 22.779785 L 176.144043 21.759277 Q 176.697266 22.043945 177.202148 22.186279 Q 177.707031 22.328613 178.158203 22.328613 Q 178.813477 22.328613 179.173340 22.062744 Q 179.533203 21.796875 179.533203 21.318848 Q 179.533203 20.631348 178.217285 20.368164 L 178.174316 20.357422 L 177.803711 20.282227 Q 176.949707 20.115723 176.557617 19.720947 Q 176.165527 19.326172 176.165527 18.644043 Q 176.165527 17.779297 176.750977 17.309326 Q 177.336426 16.839355 178.421387 16.839355 Q 178.904785 16.839355 179.350586 16.927979 Q 179.796387 17.016602 180.226074 17.193848 Z " fill="rgb(0, 0, 0)" fill-opacity="1.000000" />
<path d="M 184.003418 22.086914 L 187.687988 22.086914 L 187.687988 23.000000 L 182.816406 23.000000 L 182.816406 22.086914 Q 183.820801 21.028809 184.572754 20.217773 Q 185.324707 19.406738 185.609375 19.073730 Q 186.146484 18.418457 186.334473 18.012939 Q 186.522461 17.607422 186.522461 17.183105 Q 186.522461 16.511719 186.127686 16.130371 Q 185.732910 15.749023 185.045410 15.749023 Q 184.556641 15.749023 184.019531 15.926270 Q 183.482422 16.103516 182.880859 16.463379 L 182.880859 15.367676 Q 183.434082 15.104492 183.968506 14.970215 Q 184.502930 14.835938 185.023926 14.835938 Q 186.200195 14.835938 186.917236 15.461670 Q 187.634277 16.087402 187.634277 17.102539 Q 187.634277 17.618164 187.395264 18.133789 Q 187.156250 18.649414 186.619141 19.272461 Q 186.318359 19.621582 185.746338 20.239258 Q 185.174316 20.856934 184.003418 22.086914 Z " fill="rgb(0, 0, 0)" fill-opacity="1.000000" />
<path d="M 226.878906 26.319336 L 226.878906 12.300781 L 227.738281 12.300781 L 227.738281 26.319336 Z " fill="rgb(0, 0, 0)" fill-opacity="1.000000" />
<path d="M 310.878906 26.319336 L 310.878906 12.300781 L 311.738281 12.300781 L 311.738281 26.319336 Z " fill="rgb(0, 0, 0)" fill-opacity="1.000000" />
<path d="M 320.226074 17.193848 L 320.226074 18.160645 Q 319.801758 17.913574 319.372070 17.790039 Q 318.942383 17.666504 318.496582 17.666504 Q 317.825195 17.666504 317.494873 17.884033 Q 317.164551 18.101562 317.164551 18.547363 Q 317.164551 18.950195 317.411621 19.148926 Q 317.658691 19.347656 318.641602 19.535645 L 319.039062 19.610840 Q 319.774902 19.750488 320.153564 20.169434 Q 320.532227 20.588379 320.532227 21.259766 Q 320.532227 22.151367 319.898438 22.653564 Q 319.264648 23.155762 318.136719 23.155762 Q 317.690918 23.155762 317.202148 23.061768 Q 316.713379 22.967773 316.144043 22.779785 L 316.144043 21.759277 Q 316.697266 22.043945 317.202148 22.186279 Q 317.707031 22.328613 318.158203 22.328613 Q 318.813477 22.328613 319.173340 22.062744 Q 319.533203 21.796875 319.533203 21.318848 Q 319.533203 20.631348 318.217285 20.368164 L 318.174316 20.357422 L 317.803711 20.282227 Q 316.949707 20.115723 316.557617 19.720947 Q 316.165527 19.326172 316.165527 18.644043 Q 316.165527 17.779297 316.750977 17.309326 Q 317.336426 16.839355 318.421387 16.839355 Q 318.904785 16.839355 319.350586 16.927979 Q 319.796387 17.016602 320.226074 17.193848 Z " fill="rgb(0, 0, 0)" fill-opacity="1.000000" />
<path d="M 326.167969 18.708496 Q 326.957520 18.917969 327.376465 19.452393 Q 327.795410 19.986816 327.795410 20.787109 Q 327.795410 21.893555 327.051514 22.524658 Q 326.307617 23.155762 324.991699 23.155762 Q 324.438477 23.155762 323.863770 23.053711 Q 323.289062 22.951660 322.735840 22.758301 L 322.735840 21.678711 Q 323.283691 21.963379 323.815430 22.103027 Q 324.347168 22.242676 324.873535 22.242676 Q 325.765137 22.242676 326.243164 21.839844 Q 326.721191 21.437012 326.721191 20.679688 Q 326.721191 19.981445 326.243164 19.570557 Q 325.765137 19.159668 324.948730 19.159668 L 324.121582 19.159668 L 324.121582 18.268066 L 324.948730 18.268066 Q 325.695312 18.268066 326.114258 17.940430 Q 326.533203 17.612793 326.533203 17.027344 Q 326.533203 16.409668 326.143799 16.079346 Q 325.754395 15.749023 325.034668 15.749023 Q 324.556641 15.749023 324.046387 15.856445 Q 323.536133 15.963867 322.977539 16.178711 L 322.977539 15.179688 Q 323.627441 15.007812 324.135010 14.921875 Q 324.642578 14.835938 325.034668 14.835938 Q 326.205566 14.835938 326.906494 15.424072 Q 327.607422 16.012207 327.607422 16.984375 Q 327.607422 17.645020 327.239502 18.085449 Q 326.871582 18.525879 326.167969 18.708496 Z " fill="rgb(0, 0, 0)" fill-opacity="1.000000" />
<path d="M 366.878906 26.319336 L 366.878906 12.300781 L 367.738281 12.300781 L 367.738281 26.319336 Z " fill="rgb(0, 0, 0)" fill-opacity="1.000000" />
<path d="M 27.892578 7.335938 L 27.892578 6.412109 L 34.729980 6.412109 L 34.729980 7.335938 Z " fill="rgb(0, 0, 0)" fill-opacity="1.000000" />
<path d="M 34.892578 7.335938 L 34.892578 6.412109 L 41.729980 6.412109 L 41.729980 7.335938 Z " fill="rgb(0, 0, 0)" fill-opacity="1.000000" />
<path d="M 41.892578 7.335938 L 41.892578 6.412109 L 48.729980 6.412109 L 48.729980 7.335938 Z " fill="rgb(0, 0, 0)" fill-opacity="1.000000" />
<path d="M 48.892578 7.335938 L 48.892578 6.412109 L 55.729980 6.412109 L 55.729980 7.335938 Z " fill="rgb(0, 0, 0)" fill-opacity="1.000000" />
<path d="M 55.892578 7.335938 L 55.892578 6.412109 L 62.729980 6.412109 L 62.729980 7.335938 Z " fill="rgb(0, 0, 0)" fill-opacity="1.000000" />
<path d="M 62.892578 7.335938 L 62.892578 6.412109 L 69.729980 6.412109 L 69.729980 7.335938 Z " fill="rgb(0, 0, 0)" fill-opacity="1.000000" />
<path d="M 69.892578 7.335938 L 69.892578 6.412109 L 76.729980 6.412109 L 76.729980 7.335938 Z " fill="rgb(0, 0, 0)" fill-opacity="1.000000" />
<path d="M 79.878906 13.319336 L 79.878906 7.335938 L 76.892578 7.335938 L 76.892578 6.412109 L 80.738281 6.412109 L 80.738281 13.319336 Z " fill="rgb(0, 0, 0)" fill-opacity="1.000000" />
<path d="M 170.878906 13.319336 L 170.878906 6.412109 L 174.729980 6.412109 L 174.729980 7.335938 L 171.738281 7.335938 L 171.738281 13.319336 Z " fill="rgb(0, 0, 0)" fill-opacity="1.000000" />
<path d="M 174.892578 7.335938 L 174.892578 6.412109 L 181.729980 6.412109 L 181.729980 7.335938 Z " fill="rgb(0, 0, 0)" fill-opacity="1.000000" />
<path d="M 181.892578 7.335938 L 181.892578 6.412109 L 188.729980 6.412109 L 188.729980 7.335938 Z " fill="rgb(0, 0, 0)" fill-opacity="1.000000" />
<path d="M 188.892578 7.335938 L 188.892578 6.412109 L 195.729980 6.412109 L 195.729980 7.335938 Z " fill="rgb(0, 0, 0)" fill-opacity="1.000000" />
<path d="M 195.892578 7.335938 L 195.892578 6.412109 L 202.729980 6.412109 L 202.729980 7.335938 Z " fill="rgb(0, 0, 0)" fill-opacity="1.000000" />
<path d="M 202.892578 7.335938 L 202.892578 6.412109 L 209.729980 6.412109 L 209.729980 7.335938 Z " fill="rgb(0, 0, 0)" fill-opacity="1.000000" />
<path d="M 209.892578 7.335938 L 209.892578 6.412109 L 216.729980 6.412109 L 216.729980 7.335938 Z " fill="rgb(0, 0, 0)" fill-opacity="1.000000" />
<path d="M 216.892578 7.335938 L 216.892578 6.412109 L 223.729980 6.412109 L 223.729980 7.335938 Z " fill="rgb(0, 0, 0)" fill-opacity="1.000000" />
<path d="M 226.878906 13.319336 L 226.878906 7.335938 L 223.892578 7.335938 L 223.892578 6.412109 L 227.738281 6.412109 L 227.738281 13.319336 Z " fill="rgb(0, 0, 0)" fill-opacity="1.000000" />
<path d="M 310.878906 13.319336 L 310.878906 6.412109 L 314.729980 6.412109 L 314.729980 7.335938 L 311.738281 7.335938 L 311.738281 13.319336 Z " fill="rgb(0, 0, 0)" fill-opacity="1.000000" />
<path d="M 314.892578 7.335938 L 314.892578 6.412109 L 321.729980 6.412109 L 321.729980 7.335938 Z " fill="rgb(0, 0, 0)" fill-opacity="1.000000" />
<path d="M 321.892578 7.335938 L 321.892578 6.412109 L 328.729980 6.412109 L 328.729980 7.335938 Z " fill="rgb(0, 0, 0)" fill-opacity="1.000000" />
<path d="M 328.892578 7.335938 L 328.892578 6.412109 L 335.729980 6.412109 L 335.729980 7.335938 Z " fill="rgb(0, 0, 0)" fill-opacity="1.000000" />
<path d="M 335.892578 7.335938 L 335.892578 6.412109 L 342.729980 6.412109 L 342.729980 7.335938 Z " fill="rgb(0, 0, 0)" fill-opacity="1.000000" />
<path d="M 342.892578 7.335938 L 342.892578 6.412109 L 349.729980 6.412109 L 349.729980 7.335938 Z " fill="rgb(0, 0, 0)" fill-opacity="1.000000" />
<path d="M 349.892578 7.335938 L 349.892578 6.412109 L 356.729980 6.412109 L 356.729980 7.335938 Z " fill="rgb(0, 0, 0)" fill-opacity="1.000000" />
<path d="M 356.892578 7.335938 L 356.892578 6.412109 L 363.729980 6.412109 L 363.729980 7.335938 Z " fill="rgb(0, 0, 0)" fill-opacity="1.000000" />
<path d="M 366.878906 13.319336 L 366.878906 7.335938 L 363.892578 7.335938 L 363.892578 6.412109 L 367.738281 6.412109 L 367.738281 13.319336 Z " fill="rgb(0, 0, 0)" fill-opacity="1.000000" />
</svg>