<svg xmlns="http://www.w3.org/2000/svg" version="1.1" width="232" height="92">
<path d="M 2.878906 13.319336 L 2.878906 6.412109 L 6.729980 6.412109 L 6.729980 7.335938 L 3.738281 7.335938 L 3.738281 13.319336 Z " fill="rgb(0, 0, 0)" fill-opacity="1.000000" />
<path d="M 2.878906 26.319336 L 2.878906 12.300781 L 3.738281 12.300781 L 3.738281 26.319336 Z " fill="rgb(0, 0, 0)" fill-opacity="1.000000" />
<path d="M 2.878906 39.319336 L 2.878906 25.300781 L 3.738281 25.300781 L 3.738281 32.412109 L 6.729980 32.412109 L 6.729980 33.335938 L 3.738281 33.335938 L 3.738281 39.319336 Z " fill="rgb(0, 0, 0)" fill-opacity="1.000000" />
<path d="M 2.878906 52.319336 L 2.878906 38.300781 L 3.738281 38.300781 L 3.738281 52.319336 Z " fill="rgb(0, 0, 0)" fill-opacity="1.000000" />
<path d="M 2.878906 65.319336 L 2.878906 51.300781 L 3.738281 51.300781 L 3.738281 58.412109 L 6.729980 58.412109 L 6.729980 59.335938 L 3.738281 59.335938 L 3.738281 65.319336 Z " fill="rgb(0, 0, 0)" fill-opacity="1.000000" />
<path d="M 2.878906 78.319336 L 2.878906 64.300781 L 3.738281 64.300781 L 3.738281 78.319336 Z " fill="rgb(0, 0, 0)" fill-opacity="1.000000" />
<path d="M 2.878906 85.335938 L 2.878906 77.300781 L 3.738281 77.300781 L 3.738281 84.412109 L 6.729980 84.412109 L 6.729980 85.335938 Z " fill="rgb(0, 0, 0)" fill-opacity="1.000000" />
<path d="M 6.892578 85.335938 L 6.892578 84.412109 L 13.729980 84.412109 L 13.729980 85.335938 Z " fill="rgb(0, 0, 0)" fill-opacity="1.000000" />
<path d="M 13.892578 85.335938 L 13.892578 84.412109 L 20.729980 84.412109 L 20.729980 85.335938 Z " fill="rgb(0, 0, 0)" fill-opacity="1.000000" />
<path d="M 20.892578 85.335938 L 20.892578 84.412109 L 27.729980 84.412109 L 27.729980 85.335938 Z " fill="rgb(0, 0, 0)" fill-opacity="1.000000" />
<path d="M 27.892578 85.335938 L 27.892578 84.412109 L 30.878906 84.412109 L 30.878906 77.300781 L 31.738281 77.300781 L 31.738281 84.412109 L 34.729980 84.412109 L 34.729980 85.335938 Z " fill="rgb(0, 0, 0)" fill-opacity="1.000000" />
<path d="M 34.892578 85.335938 L 34.892578 84.412109 L 41.729980 84.412109 L 41.729980 85.335938 Z " fill="rgb(0, 0, 0)" fill-opacity="1.000000" />
<path d="M 41.892578 85.335938 L 41.892578 84.412109 L 48.729980 84.412109 L 48.729980 85.335938 Z " fill="rgb(0, 0, 0)" fill-opacity="1.000000" />
<path d="M 48.892578 85.335938 L 48.892578 84.412109 L 55.729980 84.412109 L 55.729980 85.335938 Z " fill="rgb(0, 0, 0)" fill-opacity="1.000000" />
<path d="M 55.892578 85.335938 L 55.892578 84.412109 L 58.878906 84.412109 L 58.878906 77.300781 L 59.738281 77.300781 L 59.738281 85.335938 Z " fill="rgb(0, 0, 0)" fill-opacity="1.000000" />
<path d="M 86.878906 85.335938 L 86.878906 77.300781 L 87.738281 77.300781 L 87.738281 84.412109 L 90.729980 84.412109 L 90.729980 85.335938 Z " fill="rgb(0, 0, 0)" fill-opacity="1.000000" />
<path d="M 90.892578 85.335938 L 90.892578 84.412109 L 97.729980 84.412109 L 97.729980 85.335938 Z " fill="rgb(0, 0, 0)" fill-opacity="1.000000" />
<path d="M 97.892578 85.335938 L 97.892578 84.412109 L 104.729980 84.412109 L 104.729980 85.335938 Z " fill="rgb(0, 0, 0)" fill-opacity="1.000000" />
<path d="M 104.892578 85.335938 L 104.892578 84.412109 L 111.729980 84.412109 L 111.729980 85.335938 Z " fill="rgb(0, 0, 0)" fill-opacity="1.000000" />
<path d="M 111.892578 85.335938 L 111.892578 84.412109 L 114.878906 84.412109 L 114.878906 77.300781 L 115.738281 77.300781 L 115.738281 84.412109 L 118.729980 84.412109 L 118.729980 85.335938 Z " fill="rgb(0, 0, 0)" fill-opacity="1.000000" />
<path d="M 118.892578 85.335938 L 118.892578 84.412109 L 125.729980 84.412109 L 125.729980 85.335938 Z " fill="rgb(0, 0, 0)" fill-opacity="1.000000" />
<path d="M 125.892578 85.335938 L 125.892578 84.412109 L 132.729980 84.412109 L 132.729980 85.335938 Z " fill="rgb(0, 0, 0)" fill-opacity="1.000000" />
<path d="M 132.892578 85.335938 L 132.892578 84.412109 L 139.729980 84.412109 L 139.729980 85.335938 Z " fill="rgb(0, 0, 0)" fill-opacity="1.000000" />
<path d="M 139.892578 85.335938 L 139.892578 84.412109 L 142.878906 84.412109 L 142.878906 77.300781 L 143.738281 77.300781 L 143.738281 85.335938 Z " fill="rgb(0, 0, 0)" fill-opacity="1.000000" />
<path d="M 170.878906 85.335938 L 170.878906 77.300781 L 171.738281 77.300781 L 171.738281 84.412109 L 174.729980 84.412109 L 174.729980 85.335938 Z " fill="rgb(0, 0, 0)" fill-opacity="1.000000" />
<path d="M 174.892578 85.335938 L 174.892578 84.412109 L 181.729980 84.412109 L 181.729980 85.335938 Z " fill="rgb(0, 0, 0)" fill-opacity="1.000000" />
<path d="M 181.892578 85.335938 L 181.892578 84.412109 L 188.729980 84.412109 L 188.729980 85.335938 Z " fill="rgb(0, 0, 0)" fill-opacity="1.000000" />
<path d="M 188.892578 85.335938 L 188.892578 84.412109 L 195.729980 84.412109 L 195.729980 85.335938 Z " fill="rgb(0, 0, 0)" fill-opacity="1.000000" />
<path d="M 195.892578 85.335938 L 195.892578 84.412109 L 198.878906 84.412109 L 198.878906 77.300781 L 199.738281 77.300781 L 199.738281 84.412109 L 202.729980 84.412109 L 202.729980 85.335938 Z " fill="rgb(0, 0, 0)" fill-opacity="1.000000" />
<path d="M 202.892578 85.335938 L 202.892578 84.412109 L 209.729980 84.412109 L 209.729980 85.335938 Z " fill="rgb(0, 0, 0)" fill-opacity="1.000000" />
<path d="M 209.892578 85.335938 L 209.892578 84.412109 L 216.729980 84.412109 L 216.729980 85.335938 Z " fill="rgb(0, 0, 0)" fill-opacity="1.000000" />
<path d="M 216.892578 85.335938 L 216.892578 84.412109 L 223.729980 84.412109 L 223.729980 85.335938 Z " fill="rgb(0, 0, 0)" fill-opacity="1.000000" />
<path d="M 223.892578 85.335938 L 223.892578 84.412109 L 226.878906 84.412109 L 226.878906 77.300781 L 227.738281 77.300781 L 227.738281 85.335938 Z " fill="rgb(0, 0, 0)" fill-opacity="1.000000" />
<path d="M 15.981934 70.955566 L 15.981934 74.108398 L 17.265625 74.108398 Q 18.210938 74.108398 18.613770 73.778076 Q 19.016602 73.447754 19.016602 72.690430 Q 19.016602 71.691406 18.592285 71.323486 Q 18.167969 70.955566 17.265625 70.955566 Z M 15.981934 67.872559 L 15.981934 70.074707 L 17.244141 70.074707 Q 18.028320 70.074707 18.380127 69.773926 Q 18.731934 69.473145 18.731934 69.016602 Q 18.731934 68.409668 18.385498 68.141113 Q 18.039062 67.872559 17.244141 67.872559 Z M 14.891602 66.980957 L 17.265625 66.980957 Q 18.495605 66.980957 19.161621 67.512695 Q 19.827637 68.044434 19.827637 69.016602 Q 19.827637 69.537598 19.475830 69.961914 Q 19.124023 70.386230 18.420410 70.493652 Q 19.209961 70.611816 19.658447 71.167725 Q 20.106934 71.723633 20.106934 72.797852 Q 20.106934 73.888184 19.392578 74.444092 Q 18.678223 75.000000 17.265625 75.000000 L 14.891602 75.000000 Z " fill="rgb(146, 144, 0)" fill-opacity="1.000000" />
<path d="M 30.878906 78.319336 L 30.878906 64.300781 L 31.738281 64.300781 L 31.738281 78.319336 Z " fill="rgb(0, 0, 0)" fill-opacity="1.000000" />
<path d="M 44.003418 74.086914 L 47.687988 74.086914 L 47.687988 75.000000 L 42.816406 75.000000 L 42.816406 74.086914 Q 43.820801 73.028809 44.572754 72.217773 Q 45.324707 71.406738 45.609375 71.073730 Q 46.146484 70.418457 46.334473 70.012939 Q 46.522461 69.607422 46.522461 69.183105 Q 46.522461 68.511719 46.127686 68.130371 Q 45.732910 67.749023 45.045410 67.749023 Q 44.556641 67.749023 44.019531 67.926270 Q 43.482422 68.103516 42.880859 68.463379 L 42.880859 67.367676 Q 43.434082 67.104492 43.968506 66.970215 Q 44.502930 66.835938 45.023926 66.835938 Q 46.200195 66.835938 46.917236 67.461670 Q 47.634277 68.087402 47.634277 69.102539 Q 47.634277 69.618164 47.395264 70.133789 Q 47.156250 70.649414 46.619141 71.272461 Q 46.318359 71.621582 45.746338 72.239258 Q 45.174316 72.856934 44.003418 74.086914 Z " fill="rgb(0, 0, 0)" fill-opacity="1.000000" />
<path d="M 58.878906 78.319336 L 58.878906 64.300781 L 59.738281 64.300781 L 59.738281 78.319336 Z " fill="rgb(0, 0, 0)" fill-opacity="1.000000" />
<path d="M 86.878906 78.319336 L 86.878906 64.300781 L 87.738281 64.300781 L 87.738281 78.319336 Z " fill="rgb(0, 0, 0)" fill-opacity="1.000000" />
<path d="M 101.308594 67.937012 L 100.164551 72.040527 L 102.452637 72.040527 Z M 100.653320 66.980957 L 101.969238 66.980957 L 104.423828 75.000000 L 103.301270 75.000000 L 102.710449 72.910645 L 99.901367 72.910645 L 99.321289 75.000000 L 98.198730 75.000000 Z " fill="rgb(0, 150, 255)" fill-opacity="1.000000" />
<path d="M 114.878906 78.319336 L 114.878906 64.300781 L 115.738281 64.300781 L 115.738281 78.319336 Z " fill="rgb(0, 0, 0)" fill-opacity="1.000000" />
<path d="M 128.003418 74.086914 L 131.687988 74.086914 L 131.687988 75.000000 L 126.816406 75.000000 L 126.816406 74.086914 Q 127.820801 73.028809 128.572754 72.217773 Q 129.324707 71.406738 129.609375 71.073730 Q 130.146484 70.418457 130.334473 70.012939 Q 130.522461 69.607422 130.522461 69.183105 Q 130.522461 68.511719 130.127686 68.130371 Q 129.732910 67.749023 129.045410 67.749023 Q 128.556641 67.749023 128.019531 67.926270 Q 127.482422 68.103516 126.880859 68.463379 L 126.880859 67.367676 Q 127.434082 67.104492 127.968506 66.970215 Q 128.502930 66.835938 129.023926 66.835938 Q 130.200195 66.835938 130.917236 67.461670 Q 131.634277 68.087402 131.634277 69.102539 Q 131.634277 69.618164 131.395264 70.133789 Q 131.156250 70.649414 130.619141 71.272461 Q 130.318359 71.621582 129.746338 72.239258 Q 129.174316 72.856934 128.003418 74.086914 Z " fill="rgb(0, 0, 0)" fill-opacity="1.000000" />
<path d="M 142.878906 78.319336 L 142.878906 64.300781 L 143.738281 64.300781 L 143.738281 78.319336 Z " fill="rgb(0, 0, 0)" fill-opacity="1.000000" />
<path d="M 170.878906 78.319336 L 170.878906 64.300781 L 171.738281 64.300781 L 171.738281 78.319336 Z " fill="rgb(0, 0, 0)" fill-opacity="1.000000" />
<path d="M 183.981934 70.955566 L 183.981934 74.108398 L 185.265625 74.108398 Q 186.210938 74.108398 186.613770 73.778076 Q 187.016602 73.447754 187.016602 72.690430 Q 187.016602 71.691406 186.592285 71.323486 Q 186.167969 70.955566 185.265625 70.955566 Z M 183.981934 67.872559 L 183.981934 70.074707 L 185.244141 70.074707 Q 186.028320 70.074707 186.380127 69.773926 Q 186.731934 69.473145 186.731934 69.016602 Q 186.731934 68.409668 186.385498 68.141113 Q 186.039062 67.872559 185.244141 67.872559 Z M 182.891602 66.980957 L 185.265625 66.980957 Q 186.495605 66.980957 187.161621 67.512695 Q 187.827637 68.044434 187.827637 69.016602 Q 187.827637 69.537598 187.475830 69.961914 Q 187.124023 70.386230 186.420410 70.493652 Q 187.209961 70.611816 187.658447 71.167725 Q 188.106934 71.723633 188.106934 72.797852 Q 188.106934 73.888184 187.392578 74.444092 Q 186.678223 75.000000 185.265625 75.000000 L 182.891602 75.000000 Z " fill="rgb(146, 144, 0)" fill-opacity="1.000000" />
<path d="M 198.878906 78.319336 L 198.878906 64.300781 L 199.738281 64.300781 L 199.738281 78.319336 Z " fill="rgb(0, 0, 0)" fill-opacity="1.000000" />
<path d="M 211.450195 74.092285 L 213.136719 74.092285 L 213.136719 68.033691 L 211.117188 69.005859 L 211.117188 67.963867 L 213.125977 67.007812 L 214.210938 67.007812 L 214.210938 74.092285 L 215.875977 74.092285 L 215.875977 75.000000 L 211.450195 75.000000 Z " fill="rgb(0, 0, 0)" fill-opacity="1.000000" />
<path d="M 226.878906 78.319336 L 226.878906 64.300781 L 227.738281 64.300781 L 227.738281 78.319336 Z " fill="rgb(0, 0, 0)" fill-opacity="1.000000" />
<path d="M 6.892578 59.335938 L 6.892578 58.412109 L 13.729980 58.412109 L 13.729980 59.335938 Z " fill="rgb(0, 0, 0)" fill-opacity="1.000000" />
<path d="M 13.892578 59.335938 L 13.892578 58.412109 L 20.729980 58.412109 L 20.729980 59.335938 Z " fill="rgb(0, 0, 0)" fill-opacity="1.000000" />
<path d="M 20.892578 59.335938 L 20.892578 58.412109 L 27.729980 58.412109 L 27.729980 59.335938 Z " fill="rgb(0, 0, 0)" fill-opacity="1.000000" />
<path d="M 31.738281 59.335938 L 31.738281 65.319336 L 30.878906 65.319336 L 30.878906 59.335938 L 27.892578 59.335938 L 27.892578 58.412109 L 30.878906 58.412109 L 30.878906 51.300781 L 31.738281 51.300781 L 31.738281 58.412109 L 34.729980 58.412109 L 34.729980 59.335938 Z " fill="rgb(0, 0, 0)" fill-opacity="1.000000" />
<path d="M 34.892578 59.335938 L 34.892578 58.412109 L 41.729980 58.412109 L 41.729980 59.335938 Z " fill="rgb(0, 0, 0)" fill-opacity="1.000000" />
<path d="M 41.892578 59.335938 L 41.892578 58.412109 L 48.729980 58.412109 L 48.729980 59.335938 Z " fill="rgb(0, 0, 0)" fill-opacity="1.000000" />
<path d="M 48.892578 59.335938 L 48.892578 58.412109 L 55.729980 58.412109 L 55.729980 59.335938 Z " fill="rgb(0, 0, 0)" fill-opacity="1.000000" />
<path d="M 58.878906 65.319336 L 58.878906 59.335938 L 55.892578 59.335938 L 55.892578 58.412109 L 58.878906 58.412109 L 58.878906 51.300781 L 59.738281 51.300781 L 59.738281 65.319336 Z " fill="rgb(0, 0, 0)" fill-opacity="1.000000" />
<path d="M 86.878906 65.319336 L 86.878906 51.300781 L 87.738281 51.300781 L 87.738281 58.412109 L 90.729980 58.412109 L 90.729980 59.335938 L 87.738281 59.335938 L 87.738281 65.319336 Z " fill="rgb(0, 0, 0)" fill-opacity="1.000000" />
<path d="M 90.892578 59.335938 L 90.892578 58.412109 L 97.729980 58.412109 L 97.729980 59.335938 Z " fill="rgb(0, 0, 0)" fill-opacity="1.000000" />
<path d="M 97.892578 59.335938 L 97.892578 58.412109 L 104.729980 58.412109 L 104.729980 59.335938 Z " fill="rgb(0, 0, 0)" fill-opacity="1.000000" />
<path d="M 104.892578 59.335938 L 104.892578 58.412109 L 111.729980 58.412109 L 111.729980 59.335938 Z " fill="rgb(0, 0, 0)" fill-opacity="1.000000" />
<path d="M 115.738281 59.335938 L 115.738281 65.319336 L 114.878906 65.319336 L 114.878906 59.335938 L 111.892578 59.335938 L 111.892578 58.412109 L 114.878906 58.412109 L 114.878906 51.300781 L 115.738281 51.300781 L 115.738281 58.412109 L 118.729980 58.412109 L 118.729980 59.335938 Z " fill="rgb(0, 0, 0)" fill-opacity="1.000000" />
<path d="M 118.892578 59.335938 L 118.892578 58.412109 L 125.729980 58.412109 L 125.729980 59.335938 Z " fill="rgb(0, 0, 0)" fill-opacity="1.000000" />
<path d="M 125.892578 59.335938 L 125.892578 58.412109 L 132.729980 58.412109 L 132.729980 59.335938 Z " fill="rgb(0, 0, 0)" fill-opacity="1.000000" />
<path d="M 132.892578 59.335938 L 132.892578 58.412109 L 139.729980 58.412109 L 139.729980 59.335938 Z " fill="rgb(0, 0, 0)" fill-opacity="1.000000" />
<path d="M 142.878906 65.319336 L 142.878906 59.335938 L 139.892578 59.335938 L 139.892578 58.412109 L 142.878906 58.412109 L 142.878906 51.300781 L 143.738281 51.300781 L 143.738281 65.319336 Z " fill="rgb(0, 0, 0)" fill-opacity="1.000000" />
<path d="M 170.878906 65.319336 L 170.878906 51.300781 L 171.738281 51.300781 L 171.738281 58.412109 L 174.729980 58.412109 L 174.729980 59.335938 L 171.738281 59.335938 L 171.738281 65.319336 Z " fill="rgb(0, 0, 0)" fill-opacity="1.000000" />
<path d="M 174.892578 59.335938 L 174.892578 58.412109 L 181.729980 58.412109 L 181.729980 59.335938 Z " fill="rgb(0, 0, 0)" fill-opacity="1.000000" />
<path d="M 181.892578 59.335938 L 181.892578 58.412109 L 188.729980 58.412109 L 188.729980 59.335938 Z " fill="rgb(0, 0, 0)" fill-opacity="1.000000" />
<path d="M 188.892578 59.335938 L 188.892578 58.412109 L 195.729980 58.412109 L 195.729980 59.335938 Z " fill="rgb(0, 0, 0)" fill-opacity="1.000000" />
<path d="M 199.738281 59.335938 L 199.738281 65.319336 L 198.878906 65.319336 L 198.878906 59.335938 L 195.892578 59.335938 L 195.892578 58.412109 L 198.878906 58.412109 L 198.878906 51.300781 L 199.738281 51.300781 L 199.738281 58.412109 L 202.729980 58.412109 L 202.729980 59.335938 Z " fill="rgb(0, 0, 0)" fill-opacity="1.000000" />
<path d="M 202.892578 59.335938 L 202.892578 58.412109 L 209.729980 58.412109 L 209.729980 59.335938 Z " fill="rgb(0, 0, 0)" fill-opacity="1.000000" />
<path d="M 209.892578 59.335938 L 209.892578 58.412109 L 216.729980 58.412109 L 216.729980 59.335938 Z " fill="rgb(0, 0, 0)" fill-opacity="1.000000" />
<path d="M 216.892578 59.335938 L 216.892578 58.412109 L 223.729980 58.412109 L 223.729980 59.335938 Z " fill="rgb(0, 0, 0)" fill-opacity="1.000000" />
<path d="M 226.878906 65.319336 L 226.878906 59.335938 L 223.892578 59.335938 L 223.892578 58.412109 L 226.878906 58.412109 L 226.878906 51.300781 L 227.738281 51.300781 L 227.738281 65.319336 Z " fill="rgb(0, 0, 0)" fill-opacity="1.000000" />
<path d="M 17.308594 41.937012 L 16.164551 46.040527 L 18.452637 46.040527 Z M 16.653320 40.980957 L 17.969238 40.980957 L 20.423828 49.000000 L 19.301270 49.000000 L 18.710449 46.910645 L 15.901367 46.910645 L 15.321289 49.000000 L 14.198730 49.000000 Z " fill="rgb(0, 150, 255)" fill-opacity="1.000000" />
<path d="M 30.878906 52.319336 L 30.878906 38.300781 L 31.738281 38.300781 L 31.738281 52.319336 Z " fill="rgb(0, 0, 0)" fill-opacity="1.000000" />
<path d="M 43.450195 48.092285 L 45.136719 48.092285 L 45.136719 42.033691 L 43.117188 43.005859 L 43.117188 41.963867 L 45.125977 41.007812 L 46.210938 41.007812 L 46.210938 48.092285 L 47.875977 48.092285 L 47.875977 49.000000 L 43.450195 49.000000 Z " fill="rgb(0, 0, 0)" fill-opacity="1.000000" />
<path d="M 58.878906 52.319336 L 58.878906 38.300781 L 59.738281 38.300781 L 59.738281 52.319336 Z " fill="rgb(0, 0, 0)" fill-opacity="1.000000" />
<path d="M 76.004883 42.984375 L 73.851074 45.863281 L 76.214355 49.000000 L 75.070312 49.000000 L 73.308594 46.588379 L 71.552246 49.000000 L 70.408203 49.000000 L 72.771484 45.863281 L 70.617676 42.984375 L 71.713379 42.984375 L 73.308594 45.159668 L 74.893066 42.984375 Z " fill="rgb(0, 0, 0)" fill-opacity="1.000000" />
<path d="M 86.878906 52.319336 L 86.878906 38.300781 L 87.738281 38.300781 L 87.738281 52.319336 Z " fill="rgb(0, 0, 0)" fill-opacity="1.000000" />
<path d="M 99.981934 44.955566 L 99.981934 48.108398 L 101.265625 48.108398 Q 102.210938 48.108398 102.613770 47.778076 Q 103.016602 47.447754 103.016602 46.690430 Q 103.016602 45.691406 102.592285 45.323486 Q 102.167969 44.955566 101.265625 44.955566 Z M 99.981934 41.872559 L 99.981934 44.074707 L 101.244141 44.074707 Q 102.028320 44.074707 102.380127 43.773926 Q 102.731934 43.473145 102.731934 43.016602 Q 102.731934 42.409668 102.385498 42.141113 Q 102.039062 41.872559 101.244141 41.872559 Z M 98.891602 40.980957 L 101.265625 40.980957 Q 102.495605 40.980957 103.161621 41.512695 Q 103.827637 42.044434 103.827637 43.016602 Q 103.827637 43.537598 103.475830 43.961914 Q 103.124023 44.386230 102.420410 44.493652 Q 103.209961 44.611816 103.658447 45.167725 Q 104.106934 45.723633 104.106934 46.797852 Q 104.106934 47.888184 103.392578 48.444092 Q 102.678223 49.000000 101.265625 49.000000 L 98.891602 49.000000 Z " fill="rgb(146, 144, 0)" fill-opacity="1.000000" />
<path d="M 114.878906 52.319336 L 114.878906 38.300781 L 115.738281 38.300781 L 115.738281 52.319336 Z " fill="rgb(0, 0, 0)" fill-opacity="1.000000" />
<path d="M 127.450195 48.092285 L 129.136719 48.092285 L 129.136719 42.033691 L 127.117188 43.005859 L 127.117188 41.963867 L 129.125977 41.007812 L 130.210938 41.007812 L 130.210938 48.092285 L 131.875977 48.092285 L 131.875977 49.000000 L 127.450195 49.000000 Z " fill="rgb(0, 0, 0)" fill-opacity="1.000000" />
<path d="M 142.878906 52.319336 L 142.878906 38.300781 L 143.738281 38.300781 L 143.738281 52.319336 Z " fill="rgb(0, 0, 0)" fill-opacity="1.000000" />
<path d="M 154.472656 46.314453 L 160.149902 46.314453 L 160.149902 47.222168 L 154.472656 47.222168 Z M 154.472656 43.784668 L 160.149902 43.784668 L 160.149902 44.692383 L 154.472656 44.692383 Z " fill="rgb(0, 0, 0)" fill-opacity="1.000000" />
<path d="M 170.878906 52.319336 L 170.878906 38.300781 L 171.738281 38.300781 L 171.738281 52.319336 Z " fill="rgb(0, 0, 0)" fill-opacity="1.000000" />
<path d="M 185.308594 41.937012 L 184.164551 46.040527 L 186.452637 46.040527 Z M 184.653320 40.980957 L 185.969238 40.980957 L 188.423828 49.000000 L 187.301270 49.000000 L 186.710449 46.910645 L 183.901367 46.910645 L 183.321289 49.000000 L 182.198730 49.000000 Z " fill="rgb(0, 150, 255)" fill-opacity="1.000000" />
<path d="M 198.878906 52.319336 L 198.878906 38.300781 L 199.738281 38.300781 L 199.738281 52.319336 Z " fill="rgb(0, 0, 0)" fill-opacity="1.000000" />
<path d="M 213.947754 41.969238 L 211.417969 46.207031 L 213.947754 46.207031 Z M 213.770508 40.980957 L 215.027344 40.980957 L 215.027344 46.207031 L 216.096191 46.207031 L 216.096191 47.087891 L 215.027344 47.087891 L 215.027344 49.000000 L 213.947754 49.000000 L 213.947754 47.087891 L 210.547852 47.087891 L 210.547852 46.062012 Z " fill="rgb(0, 0, 0)" fill-opacity="1.000000" />
<path d="M 226.878906 52.319336 L 226.878906 38.300781 L 227.738281 38.300781 L 227.738281 52.319336 Z " fill="rgb(0, 0, 0)" fill-opacity="1.000000" />
<path d="M 6.892578 33.335938 L 6.892578 32.412109 L 13.729980 32.412109 L 13.729980 33.335938 Z " fill="rgb(0, 0, 0)" fill-opacity="1.000000" />
<path d="M 13.892578 33.335938 L 13.892578 32.412109 L 20.729980 32.412109 L 20.729980 33.335938 Z " fill="rgb(0, 0, 0)" fill-opacity="1.000000" />
<path d="M 20.892578 33.335938 L 20.892578 32.412109 L 27.729980 32.412109 L 27.729980 33.335938 Z " fill="rgb(0, 0, 0)" fill-opacity="1.000000" />
<path d="M 30.878906 39.319336 L 30.878906 33.335938 L 27.892578 33.335938 L 27.892578 32.412109 L 34.729980 32.412109 L 34.729980 33.335938 L 31.738281 33.335938 L 31.738281 39.319336 Z " fill="rgb(0, 0, 0)" fill-opacity="1.000000" />
<path d="M 34.892578 33.335938 L 34.892578 32.412109 L 41.729980 32.412109 L 41.729980 33.335938 Z " fill="rgb(0, 0, 0)" fill-opacity="1.000000" />
<path d="M 41.892578 33.335938 L 41.892578 32.412109 L 48.729980 32.412109 L 48.729980 33.335938 Z " fill="rgb(0, 0, 0)" fill-opacity="1.000000" />
<path d="M 48.892578 33.335938 L 48.892578 32.412109 L 55.729980 32.412109 L 55.729980 33.335938 Z " fill="rgb(0, 0, 0)" fill-opacity="1.000000" />
<path d="M 58.878906 39.319336 L 58.878906 33.335938 L 55.892578 33.335938 L 55.892578 32.412109 L 58.878906 32.412109 L 58.878906 25.300781 L 59.738281 25.300781 L 59.738281 39.319336 Z " fill="rgb(0, 0, 0)" fill-opacity="1.000000" />
<path d="M 86.878906 39.319336 L 86.878906 25.300781 L 87.738281 25.300781 L 87.738281 32.412109 L 90.729980 32.412109 L 90.729980 33.335938 L 87.738281 33.335938 L 87.738281 39.319336 Z " fill="rgb(0, 0, 0)" fill-opacity="1.000000" />
<path d="M 90.892578 33.335938 L 90.892578 32.412109 L 97.729980 32.412109 L 97.729980 33.335938 Z " fill="rgb(0, 0, 0)" fill-opacity="1.000000" />
<path d="M 97.892578 33.335938 L 97.892578 32.412109 L 104.729980 32.412109 L 104.729980 33.335938 Z " fill="rgb(0, 0, 0)" fill-opacity="1.000000" />
<path d="M 104.892578 33.335938 L 104.892578 32.412109 L 111.729980 32.412109 L 111.729980 33.335938 Z " fill="rgb(0, 0, 0)" fill-opacity="1.000000" />
<path d="M 114.878906 39.319336 L 114.878906 33.335938 L 111.892578 33.335938 L 111.892578 32.412109 L 118.729980 32.412109 L 118.729980 33.335938 L 115.738281 33.335938 L 115.738281 39.319336 Z " fill="rgb(0, 0, 0)" fill-opacity="1.000000" />
<path d="M 118.892578 33.335938 L 118.892578 32.412109 L 125.729980 32.412109 L 125.729980 33.335938 Z " fill="rgb(0, 0, 0)" fill-opacity="1.000000" />
<path d="M 125.892578 33.335938 L 125.892578 32.412109 L 132.729980 32.412109 L 132.729980 33.335938 Z " fill="rgb(0, 0, 0)" fill-opacity="1.000000" />
<path d="M 132.892578 33.335938 L 132.892578 32.412109 L 139.729980 32.412109 L 139.729980 33.335938 Z " fill="rgb(0, 0, 0)" fill-opacity="1.000000" />
<path d="M 142.878906 39.319336 L 142.878906 33.335938 L 139.892578 33.335938 L 139.892578 32.412109 L 142.878906 32.412109 L 142.878906 25.300781 L 143.738281 25.300781 L 143.738281 39.319336 Z " fill="rgb(0, 0, 0)" fill-opacity="1.000000" />
<path d="M 170.878906 39.319336 L 170.878906 25.300781 L 171.738281 25.300781 L 171.738281 32.412109 L 174.729980 32.412109 L 174.729980 33.335938 L 171.738281 33.335938 L 171.738281 39.319336 Z " fill="rgb(0, 0, 0)" fill-opacity="1.000000" />
<path d="M 174.892578 33.335938 L 174.892578 32.412109 L 181.729980 32.412109 L 181.729980 33.335938 Z " fill="rgb(0, 0, 0)" fill-opacity="1.000000" />
<path d="M 181.892578 33.335938 L 181.892578 32.412109 L 188.729980 32.412109 L 188.729980 33.335938 Z " fill="rgb(0, 0, 0)" fill-opacity="1.000000" />
<path d="M 188.892578 33.335938 L 188.892578 32.412109 L 195.729980 32.412109 L 195.729980 33.335938 Z " fill="rgb(0, 0, 0)" fill-opacity="1.000000" />
<path d="M 198.878906 39.319336 L 198.878906 33.335938 L 195.892578 33.335938 L 195.892578 32.412109 L 202.729980 32.412109 L 202.729980 33.335938 L 199.738281 33.335938 L 199.738281 39.319336 Z " fill="rgb(0, 0, 0)" fill-opacity="1.000000" />
<path d="M 202.892578 33.335938 L 202.892578 32.412109 L 209.729980 32.412109 L 209.729980 33.335938 Z " fill="rgb(0, 0, 0)" fill-opacity="1.000000" />
<path d="M 209.892578 33.335938 L 209.892578 32.412109 L 216.729980 32.412109 L 216.729980 33.335938 Z " fill="rgb(0, 0, 0)" fill-opacity="1.000000" />
<path d="M 216.892578 33.335938 L 216.892578 32.412109 L 223.729980 32.412109 L 223.729980 33.335938 Z " fill="rgb(0, 0, 0)" fill-opacity="1.000000" />
<path d="M 226.878906 39.319336 L 226.878906 33.335938 L 223.892578 33.335938 L 223.892578 32.412109 L 226.878906 32.412109 L 226.878906 25.300781 L 227.738281 25.300781 L 227.738281 39.319336 Z " fill="rgb(0, 0, 0)" fill-opacity="1.000000" />
<path d="M 12.226074 17.193848 L 12.226074 18.160645 Q 11.801758 17.913574 11.372070 17.790039 Q 10.942383 17.666504 10.496582 17.666504 Q 9.825195 17.666504 9.494873 17.884033 Q 9.164551 18.101562 9.164551 18.547363 Q 9.164551 18.950195 9.411621 19.148926 Q 9.658691 19.347656 10.641602 19.535645 L 11.039062 19.610840 Q 11.774902 19.750488 12.153564 20.169434 Q 12.532227 20.588379 12.532227 21.259766 Q 12.532227 22.151367 11.898438 22.653564 Q 11.264648 23.155762 10.136719 23.155762 Q 9.690918 23.155762 9.202148 23.061768 Q 8.713379 22.967773 8.144043 22.779785 L 8.144043 21.759277 Q 8.697266 22.043945 9.202148 22.186279 Q 9.707031 22.328613 10.158203 22.328613 Q 10.813477 22.328613 11.173340 22.062744 Q 11.533203 21.796875 11.533203 21.318848 Q 11.533203 20.631348 10.217285 20.368164 L 10.174316 20.357422 L 9.803711 20.282227 Q 8.949707 20.115723 8.557617 19.720947 Q 8.165527 19.326172 8.165527 18.644043 Q 8.165527 17.779297 8.750977 17.309326 Q 9.336426 16.839355 10.421387 16.839355 Q 10.904785 16.839355 11.350586 16.927979 Q 11.796387 17.016602 12.226074 17.193848 Z " fill="rgb(0, 0, 0)" fill-opacity="1.000000" />
<path d="M 15.450195 22.092285 L 17.136719 22.092285 L 17.136719 16.033691 L 15.117188 17.005859 L 15.117188 15.963867 L 17.125977 15.007812 L 18.210938 15.007812 L 18.210938 22.092285 L 19.875977 22.092285 L 19.875977 23.000000 L 15.450195 23.000000 Z " fill="rgb(0, 0, 0)" fill-opacity="1.000000" />
<path d="M 58.878906 26.319336 L 58.878906 12.300781 L 59.738281 12.300781 L 59.738281 26.319336 Z " fill="rgb(0, 0, 0)" fill-opacity="1.000000" />
<path d="M 86.878906 26.319336 L 86.878906 12.300781 L 87.738281 12.300781 L 87.738281 26.319336 Z " fill="rgb(0, 0, 0)" fill-opacity="1.000000" />
<path d="M 96.226074 17.193848 L 96.226074 18.160645 Q 95.801758 17.913574 95.372070 17.790039 Q 94.942383 17.666504 94.496582 17.666504 Q 93.825195 17.666504 93.494873 17.884033 Q 93.164551 18.101562 93.164551 18.547363 Q 93.164551 18.950195 93.411621 19.148926 Q 93.658691 19.347656 94.641602 19.535645 L 95.039062 19.610840 Q 95.774902 19.750488 96.153564 20.169434 Q 96.532227 20.588379 96.532227 21.259766 Q 96.532227 22.151367 95.898438 22.653564 Q 95.264648 23.155762 94.136719 23.155762 Q 93.690918 23.155762 93.202148 23.061768 Q 92.713379 22.967773 92.144043 22.779785 L 92.144043 21.759277 Q 92.697266 22.043945 93.202148 22.186279 Q 93.707031 22.328613 94.158203 22.328613 Q 94.813477 22.328613 95.173340 22.062744 Q 95.533203 21.796875 95.533203 21.318848 Q 95.533203 20.631348 94.217285 20.368164 L 94.174316 20.357422 L 93.803711 20.282227 Q 92.949707 20.115723 92.557617 19.720947 Q 92.165527 19.326172 92.165527 18.644043 Q 92.165527 17.779297 92.750977 17.309326 Q 93.336426 16.839355 94.421387 16.839355 Q 94.904785 16.839355 95.350586 16.927979 Q 95.796387 17.016602 96.226074 17.193848 Z " fill="rgb(0, 0, 0)" fill-opacity="1.000000" />
<path d="M 100.003418 22.086914 L 103.687988 22.086914 L 103.687988 23.000000 L 98.816406 23.000000 L 98.816406 22.086914 Q 99.820801 21.028809 100.572754 20.217773 Q 101.324707 19.406738 101.609375 19.073730 Q 102.146484 18.418457 102.334473 18.012939 Q 102.522461 17.607422 102.522461 17.183105 Q 102.522461 16.511719 102.127686 16.130371 Q 101.732910 15.749023 101.045410 15.749023 Q 100.556641 15.749023 100.019531 15.926270 Q 99.482422 16.103516 98.880859 16.463379 L 98.880859 15.367676 Q 99.434082 15.104492 99.968506 14.970215 Q 100.502930 14.835938 101.023926 14.835938 Q 102.200195 14.835938 102.917236 15.461670 Q 103.634277 16.087402 103.634277 17.102539 Q 103.634277 17.618164 103.395264 18.133789 Q 103.156250 18.649414 102.619141 19.272461 Q 102.318359 19.621582 101.746338 20.239258 Q 101.174316 20.856934 100.003418 22.086914 Z " fill="rgb(0, 0, 0)" fill-opacity="1.000000" />
<path d="M 142.878906 26.319336 L 142.878906 12.300781 L 143.738281 12.300781 L 143.738281 26.319336 Z " fill="rgb(0, 0, 0)" fill-opacity="1.000000" />
<path d="M 170.878906 26.319336 L 170.878906 12.300781 L 171.738281 12.300781 L 171.738281 26.319336 Z " fill="rgb(0, 0, 0)" fill-opacity="1.000000" />
<path d="M 180.226074 17.193848 L 180.226074 18.160645 Q 179.801758 17.913574 179.372070 17.790039 Q 178.942383 17.666504 178.496582 17.666504 Q 177.825195 17.666504 177.494873 17.884033 Q 177.164551 18.101562 177.164551 18.547363 Q 177.164551 18.950195 177.411621 19.148926 Q 177.658691 19.347656 178.641602 19.535645 L 179.039062 19.610840 Q 179.774902 19.750488 180.153564 20.169434 Q 180.532227 20.588379 180.532227 21.259766 Q 180.532227 22.151367 179.898438 22.653564 Q 179.264648 23.155762 178.136719 23.155762 Q 177.690918 23.155762 177.202148 23.061768 Q 176.713379 22.967773 176.144043 22.779785 L 176.144043 21.759277 Q 176.697266 22.043945 177.202148 22.186279 Q 177.707031 22.328613 178.158203 22.328613 Q 178.813477 22.328613 179.173340 22.062744 Q 179.533203 21.796875 179.533203 21.318848 Q 179.533203 20.631348 178.217285 20.368164 L 178.174316 20.357422 L 177.803711 20.282227 Q 176.949707 20.115723 176.557617 19.720947 Q 176.165527 19.326172 176.165527 18.644043 Q 176.165527 17.779297 176.750977 17.309326 Q 177.336426 16.839355 178.421387 16.839355 Q 178.904785 16.839355 179.350586 16.927979 Q 179.796387 17.016602 180.226074 17.193848 Z " fill="rgb(0, 0, 0)" fill-opacity="1.000000" />
<path d="M 186.167969 18.708496 Q 186.957520 18.917969 187.376465 19.452393 Q 187.795410 19.986816 187.795410 20.787109 Q 187.795410 21.893555 187.051514 22.524658 Q 186.307617 23.155762 184.991699 23.155762 Q 184.438477 23.155762 183.863770 23.053711 Q 183.289062 22.951660 182.735840 22.758301 L 182.735840 21.678711 Q 183.283691 21.963379 183.815430 22.103027 Q 184.347168 22.242676 184.873535 22.242676 Q 185.765137 22.242676 186.243164 21.839844 Q 186.721191 21.437012 186.721191 20.679688 Q 186.721191 19.981445 186.243164 19.570557 Q 185.765137 19.159668 184.948730 19.159668 L 184.121582 19.159668 L 184.121582 18.268066 L 184.948730 18.268066 Q 185.695312 18.268066 186.114258 17.940430 Q 186.533203 17.612793 186.533203 17.027344 Q 186.533203 16.409668 186.143799 16.079346 Q 185.754395 15.749023 185.034668 15.749023 Q 184.556641 15.749023 184.046387 15.856445 Q 183.536133 15.963867 182.977539 16.178711 L 182.977539 15.179688 Q 183.627441 15.007812 184.135010 14.921875 Q 184.642578 14.835938 185.034668 14.835938 Q 186.205566 14.835938 186.906494 15.424072 Q 187.607422 16.012207 187.607422 16.984375 Q 187.607422 17.645020 187.239502 18.085449 Q 186.871582 18.525879 186.167969 18.708496 Z " fill="rgb(0, 0, 0)" fill-opacity="1.000000" />
<path d="M 226.878906 26.319336 L 226.878906 12.300781 L 227.738281 12.300781 L 227.738281 26.319336 Z " fill="rgb(0, 0, 0)" fill-opacity="1.000000" />
<path d="M 6.892578 7.335938 L 6.892578 6.412109 L 13.729980 6.412109 L 13.729980 7.335938 Z " fill="rgb(0, 0, 0)" fill-opacity="1.000000" />
<path d="M 13.892578 7.335938 L 13.892578 6.412109 L 20.729980 6.412109 L 20.729980 7.335938 Z " fill="rgb(0, 0, 0)" fill-opacity="1.000000" />
<path d="M 20.892578 7.335938 L 20.892578 6.412109 L 27.729980 6.412109 L 27.729980 7.335938 Z " fill="rgb(0, 0, 0)" fill-opacity="1.000000" />
<path d="M 27.892578 7.335938 L 27.892578 6.412109 L 34.729980 6.412109 L 34.729980 7.335938 Z " fill="rgb(0, 0, 0)" fill-opacity="1.000000" />
<path d="M 34.892578 7.335938 L 34.892578 6.412109 L 41.729980 6.412109 L 41.729980 7.335938 Z " fill="rgb(0, 0, 0)" fill-opacity="1.000000" />
<path d="M 41.892578 7.335938 L 41.892578 6.412109 L 48.729980 6.412109 L 48.729980 7.335938 Z " fill="rgb(0, 0, 0)" fill-opacity="1.000000" />
<path d="M 48.892578 7.335938 L 48.892578 6.412109 L 55.729980 6.412109 L 55.729980 7.335938 Z " fill="rgb(0, 0, 0)" fill-opacity="1.000000" />
<path d="M 58.878906 13.319336 L 58.878906 7.335938 L 55.892578 7.335938 L 55.892578 6.412109 L 59.738281 6.412109 L 59.738281 13.319336 Z " fill="rgb(0, 0, 0)" fill-opacity="1.000000" />
<path d="M 86.878906 13.319336 L 86.878906 6.412109 L 90.729980 6.412109 L 90.729980 7.335938 L 87.738281 7.335938 L 87.738281 13.319336 Z " fill="rgb(0, 0, 0)" fill-opacity="1.000000" />
<path d="M 90.892578 7.335938 L 90.892578 6.412109 L 97.729980 6.412109 L 97.729980 7.335938 Z " fill="rgb(0, 0, 0)" fill-opacity="1.000000" />
<path d="M 97.892578 7.335938 L 97.892578 6.412109 L 104.729980 6.412109 L 104.729980 7.335938 Z " fill="rgb(0, 0, 0)" fill-opacity="1.000000" />
<path d="M 104.892578 7.335938 L 104.892578 6.412109 L 111.729980 6.412109 L 111.729980 7.335938 Z " fill="rgb(0, 0, 0)" fill-opacity="1.000000" />
<path d="M 111.892578 7.335938 L 111.892578 6.412109 L 118.729980 6.412109 L 118.729980 7.335938 Z " fill="rgb(0, 0, 0)" fill-opacity="1.000000" />
<path d="M 118.892578 7.335938 L 118.892578 6.412109 L 125.729980 6.412109 L 125.729980 7.335938 Z " fill="rgb(0, 0, 0)" fill-opacity="1.000000" />
<path d="M 125.892578 7.335938 L 125.892578 6.412109 L 132.729980 6.412109 L 132.729980 7.335938 Z " fill="rgb(0, 0, 0)" fill-opacity="1.000000" />
<path d="M 132.892578 7.335938 L 132.892578 6.412109 L 139.729980 6.412109 L 139.729980 7.335938 Z " fill="rgb(0, 0, 0)" fill-opacity="1.000000" />
<path d="M 142.878906 13.319336 L 142.878906 7.335938 L 139.892578 7.335938 L 139.892578 6.412109 L 143.738281 6.412109 L 143.738281 13.319336 Z " fill="rgb(0, 0, 0)" fill-opacity="1.000000" />
<path d="M 170.878906 13.319336 L 170.878906 6.412109 L 174.729980 6.412109 L 174.729980 7.335938 L 171.738281 7.335938 L 171.738281 13.319336 Z " fill="rgb(0, 0, 0)" fill-opacity="1.000000" />
<path d="M 174.892578 7.335938 L 174.892578 6.412109 L 181.729980 6.412109 L 181.729980 7.335938 Z " fill="rgb(0, 0, 0)" fill-opacity="1.000000" />
<path d="M 181.892578 7.335938 L 181.892578 6.412109 L 188.729980 6.412109 L 188.729980 7.335938 Z " fill="rgb(0, 0, 0)" fill-opacity="1.000000" />
<path d="M 188.892578 7.335938 L 188.892578 6.412109 L 195.729980 6.412109 L 195.729980 7.335938 Z " fill="rgb(0, 0, 0)" fill-opacity="1.000000" />
<path d="M 195.892578 7.335938 L 195.892578 6.412109 L 202.729980 6.412109 L 202.729980 7.335938 Z " fill="rgb(0, 0, 0)" fill-opacity="1.000000" />
<path d="M 202.892578 7.335938 L 202.892578 6.412109 L 209.729980 6.412109 L 209.729980 7.335938 Z " fill="rgb(0, 0, 0)" fill-opacity="1.000000" />
<path d="M 209.892578 7.335938 L 209.892578 6.412109 L 216.729980 6.412109 L 216.729980 7.335938 Z " fill="rgb(0, 0, 0)" fill-opacity="1.000000" />
<path d="M 216.892578 7.335938 L 216.892578 6.412109 L 223.729980 6.412109 L 223.729980 7.335938 Z " fill="rgb(0, 0, 0)" fill-opacity="1.000000" />
<path d="M 226.878906 13.319336 L 226.878906 7.335938 L 223.892578 7.335938 L 223.892578 6.412109 L 227.738281 6.412109 L 227.738281 13.319336 Z " fill="rgb(0, 0, 0)" fill-opacity="1.000000" />
</svg>