<svg xmlns="http://www.w3.org/2000/svg" version="1.1" width="120" height="40">
<path d="M 2.878906 13.319336 L 2.878906 6.412109 L 6.729980 6.412109 L 6.729980 7.335938 L 3.738281 7.335938 L 3.738281 13.319336 Z " fill="rgb(0, 0, 0)" fill-opacity="1.000000" />
<path d="M 2.878906 26.319336 L 2.878906 12.300781 L 3.738281 12.300781 L 3.738281 26.319336 Z " fill="rgb(0, 0, 0)" fill-opacity="1.000000" />
<path d="M 2.878906 33.335938 L 2.878906 25.300781 L 3.738281 25.300781 L 3.738281 32.412109 L 6.729980 32.412109 L 6.729980 33.335938 Z " fill="rgb(0, 0, 0)" fill-opacity="1.000000" />
<path d="M 6.892578 33.335938 L 6.892578 32.412109 L 13.729980 32.412109 L 13.729980 33.335938 Z " fill="rgb(0, 0, 0)" fill-opacity="1.000000" />
<path d="M 13.892578 33.335938 L 13.892578 32.412109 L 20.729980 32.412109 L 20.729980 33.335938 Z " fill="rgb(0, 0, 0)" fill-opacity="1.000000" />
<path d="M 20.892578 33.335938 L 20.892578 32.412109 L 27.729980 32.412109 L 27.729980 33.335938 Z " fill="rgb(0, 0, 0)" fill-opacity="1.000000" />
<path d="M 27.892578 33.335938 L 27.892578 32.412109 L 30.878906 32.412109 L 30.878906 25.300781 L 31.738281 25.300781 L 31.738281 32.412109 L 34.729980 32.412109 L 34.729980 33.335938 Z " fill="rgb(0, 0, 0)" fill-opacity="1.000000" />
<path d="M 34.892578 33.335938 L 34.892578 32.412109 L 41.729980 32.412109 L 41.729980 33.335938 Z " fill="rgb(0, 0, 0)" fill-opacity="1.000000" />
<path d="M 41.892578 33.335938 L 41.892578 32.412109 L 48.729980 32.412109 L 48.729980 33.335938 Z " fill="rgb(0, 0, 0)" fill-opacity="1.000000" />
<path d="M 48.892578 33.335938 L 48.892578 32.412109 L 55.729980 32.412109 L 55.729980 33.335938 Z " fill="rgb(0, 0, 0)" fill-opacity="1.000000" />
<path d="M 55.892578 33.335938 L 55.892578 32.412109 L 58.878906 32.412109 L 58.878906 25.300781 L 59.738281 25.300781 L 59.738281 32.412109 L 62.729980 32.412109 L 62.729980 33.335938 Z " fill="rgb(0, 0, 0)" fill-opacity="1.000000" />
<path d="M 62.892578 33.335938 L 62.892578 32.412109 L 69.729980 32.412109 L 69.729980 33.335938 Z " fill="rgb(0, 0, 0)" fill-opacity="1.000000" />
<path d="M 69.892578 33.335938 L 69.892578 32.412109 L 76.729980 32.412109 L 76.729980 33.335938 Z " fill="rgb(0, 0, 0)" fill-opacity="1.000000" />
<path d="M 76.892578 33.335938 L 76.892578 32.412109 L 83.729980 32.412109 L 83.729980 33.335938 Z " fill="rgb(0, 0, 0)" fill-opacity="1.000000" />
<path d="M 83.892578 33.335938 L 83.892578 32.412109 L 86.878906 32.412109 L 86.878906 25.300781 L 87.738281 25.300781 L 87.738281 32.412109 L 90.729980 32.412109 L 90.729980 33.335938 Z " fill="rgb(0, 0, 0)" fill-opacity="1.000000" />
<path d="M 90.892578 33.335938 L 90.892578 32.412109 L 97.729980 32.412109 L 97.729980 33.335938 Z " fill="rgb(0, 0, 0)" fill-opacity="1.000000" />
<path d="M 97.892578 33.335938 L 97.892578 32.412109 L 104.729980 32.412109 L 104.729980 33.335938 Z " fill="rgb(0, 0, 0)" fill-opacity="1.000000" />
<path d="M 104.892578 33.335938 L 104.892578 32.412109 L 111.729980 32.412109 L 111.729980 33.335938 Z " fill="rgb(0, 0, 0)" fill-opacity="1.000000" />
<path d="M 111.892578 33.335938 L 111.892578 32.412109 L 114.878906 32.412109 L 114.878906 25.300781 L 115.738281 25.300781 L 115.738281 33.335938 Z " fill="rgb(0, 0, 0)" fill-opacity="1.000000" />
<path d="M 17.308594 19.191895 Q 16.583496 19.191895 16.188721 19.597412 Q 15.793945 20.002930 15.793945 20.744141 Q 15.793945 21.485352 16.194092 21.896240 Q 16.594238 22.307129 17.308594 22.307129 Q 18.039062 22.307129 18.433838 21.901611 Q 18.828613 21.496094 18.828613 20.744141 Q 18.828613 20.008301 18.428467 19.600098 Q 18.028320 19.191895 17.308594 19.191895 Z M 16.363281 18.740723 Q 15.670410 18.563477 15.281006 18.080078 Q 14.891602 17.596680 14.891602 16.914551 Q 14.891602 15.958496 15.541504 15.397217 Q 16.191406 14.835938 17.308594 14.835938 Q 18.431152 14.835938 19.081055 15.397217 Q 19.730957 15.958496 19.730957 16.914551 Q 19.730957 17.596680 19.341553 18.080078 Q 18.952148 18.563477 18.259277 18.740723 Q 19.064941 18.917969 19.491943 19.455078 Q 19.918945 19.992188 19.918945 20.846191 Q 19.918945 21.931152 19.226074 22.543457 Q 18.533203 23.155762 17.308594 23.155762 Q 16.083984 23.155762 15.393799 22.546143 Q 14.703613 21.936523 14.703613 20.856934 Q 14.703613 19.997559 15.130615 19.457764 Q 15.557617 18.917969 16.363281 18.740723 Z M 15.971191 17.016602 Q 15.971191 17.661133 16.314941 17.999512 Q 16.658691 18.337891 17.308594 18.337891 Q 17.963867 18.337891 18.307617 17.999512 Q 18.651367 17.661133 18.651367 17.016602 Q 18.651367 16.361328 18.310303 16.017578 Q 17.969238 15.673828 17.308594 15.673828 Q 16.658691 15.673828 16.314941 16.020264 Q 15.971191 16.366699 15.971191 17.016602 Z " fill="rgb(0, 0, 0)" fill-opacity="1.000000" />
<path d="M 30.878906 26.319336 L 30.878906 12.300781 L 31.738281 12.300781 L 31.738281 26.319336 Z " fill="rgb(0, 0, 0)" fill-opacity="1.000000" />
<path d="M 45.201172 19.444336 Q 45.894043 19.444336 46.288818 18.944824 Q 46.683594 18.445312 46.683594 17.564453 Q 46.683594 16.683594 46.288818 16.184082 Q 45.894043 15.684570 45.201172 15.684570 Q 44.481445 15.684570 44.116211 16.159912 Q 43.750977 16.635254 43.750977 17.564453 Q 43.750977 18.499023 44.113525 18.971680 Q 44.476074 19.444336 45.201172 19.444336 Z M 43.267578 22.833496 L 43.267578 21.834473 Q 43.605957 22.033203 43.987305 22.137939 Q 44.368652 22.242676 44.782227 22.242676 Q 45.813477 22.242676 46.342529 21.466553 Q 46.871582 20.690430 46.871582 19.181152 Q 46.619141 19.718262 46.162598 20.005615 Q 45.706055 20.292969 45.115234 20.292969 Q 43.955078 20.292969 43.318604 19.578613 Q 42.682129 18.864258 42.682129 17.553711 Q 42.682129 16.259277 43.334717 15.547607 Q 43.987305 14.835938 45.179688 14.835938 Q 46.576172 14.835938 47.226074 15.840332 Q 47.875977 16.844727 47.875977 18.998535 Q 47.875977 21.023438 47.094482 22.089600 Q 46.312988 23.155762 44.825195 23.155762 Q 44.433105 23.155762 44.035645 23.072510 Q 43.638184 22.989258 43.267578 22.833496 Z " fill="rgb(0, 0, 0)" fill-opacity="1.000000" />
<path d="M 58.878906 26.319336 L 58.878906 12.300781 L 59.738281 12.300781 L 59.738281 26.319336 Z " fill="rgb(0, 0, 0)" fill-opacity="1.000000" />
<path d="M 70.746582 14.980957 L 75.795410 14.980957 L 75.795410 15.442871 L 72.927246 23.000000 L 71.793945 23.000000 L 74.586914 15.894043 L 70.746582 15.894043 Z " fill="rgb(0, 0, 0)" fill-opacity="1.000000" />
<path d="M 86.878906 26.319336 L 86.878906 12.300781 L 87.738281 12.300781 L 87.738281 26.319336 Z " fill="rgb(0, 0, 0)" fill-opacity="1.000000" />
<path d="M 99.111816 14.980957 L 103.172363 14.980957 L 103.172363 15.894043 L 100.100098 15.894043 L 100.100098 17.865234 Q 100.331055 17.779297 100.564697 17.739014 Q 100.798340 17.698730 101.034668 17.698730 Q 102.280762 17.698730 103.011230 18.434570 Q 103.741699 19.170410 103.741699 20.427246 Q 103.741699 21.694824 102.976318 22.425293 Q 102.210938 23.155762 100.884277 23.155762 Q 100.245117 23.155762 99.716064 23.069824 Q 99.187012 22.983887 98.768066 22.812012 L 98.768066 21.710938 Q 99.262207 21.979492 99.761719 22.111084 Q 100.261230 22.242676 100.782227 22.242676 Q 101.679199 22.242676 102.165283 21.770020 Q 102.651367 21.297363 102.651367 20.427246 Q 102.651367 19.567871 102.149170 19.089844 Q 101.646973 18.611816 100.750000 18.611816 Q 100.314941 18.611816 99.901367 18.711182 Q 99.487793 18.810547 99.111816 19.009277 Z " fill="rgb(0, 0, 0)" fill-opacity="1.000000" />
<path d="M 114.878906 26.319336 L 114.878906 12.300781 L 115.738281 12.300781 L 115.738281 26.319336 Z " fill="rgb(0, 0, 0)" fill-opacity="1.000000" />
<path d="M 6.892578 7.335938 L 6.892578 6.412109 L 13.729980 6.412109 L 13.729980 7.335938 Z " fill="rgb(0, 0, 0)" fill-opacity="1.000000" />
<path d="M 13.892578 7.335938 L 13.892578 6.412109 L 20.729980 6.412109 L 20.729980 7.335938 Z " fill="rgb(0, 0, 0)" fill-opacity="1.000000" />
<path d="M 20.892578 7.335938 L 20.892578 6.412109 L 27.729980 6.412109 L 27.729980 7.335938 Z " fill="rgb(0, 0, 0)" fill-opacity="1.000000" />
<path d="M 30.878906 13.319336 L 30.878906 7.335938 L 27.892578 7.335938 L 27.892578 6.412109 L 34.729980 6.412109 L 34.729980 7.335938 L 31.738281 7.335938 L 31.738281 13.319336 Z " fill="rgb(0, 0, 0)" fill-opacity="1.000000" />
<path d="M 34.892578 7.335938 L 34.892578 6.412109 L 41.729980 6.412109 L 41.729980 7.335938 Z " fill="rgb(0, 0, 0)" fill-opacity="1.000000" />
<path d="M 41.892578 7.335938 L 41.892578 6.412109 L 48.729980 6.412109 L 48.729980 7.335938 Z " fill="rgb(0, 0, 0)" fill-opacity="1.000000" />
<path d="M 48.892578 7.335938 L 48.892578 6.412109 L 55.729980 6.412109 L 55.729980 7.335938 Z " fill="rgb(0, 0, 0)" fill-opacity="1.000000" />
<path d="M 58.878906 13.319336 L 58.878906 7.335938 L 55.892578 7.335938 L 55.892578 6.412109 L 62.729980 6.412109 L 62.729980 7.335938 L 59.738281 7.335938 L 59.738281 13.319336 Z " fill="rgb(0, 0, 0)" fill-opacity="1.000000" />
<path d="M 62.892578 7.335938 L 62.892578 6.412109 L 69.729980 6.412109 L 69.729980 7.335938 Z " fill="rgb(0, 0, 0)" fill-opacity="1.000000" />
<path d="M 69.892578 7.335938 L 69.892578 6.412109 L 76.729980 6.412109 L 76.729980 7.335938 Z " fill="rgb(0, 0, 0)" fill-opacity="1.000000" />
<path d="M 76.892578 7.335938 L 76.892578 6.412109 L 83.729980 6.412109 L 83.729980 7.335938 Z " fill="rgb(0, 0, 0)" fill-opacity="1.000000" />
<path d="M 86.878906 13.319336 L 86.878906 7.335938 L 83.892578 7.335938 L 83.892578 6.412109 L 90.729980 6.412109 L 90.729980 7.335938 L 87.738281 7.335938 L 87.738281 13.319336 Z " fill="rgb(0, 0, 0)" fill-opacity="1.000000" />
<path d="M 90.892578 7.335938 L 90.892578 6.412109 L 97.729980 6.412109 L 97.729980 7.335938 Z " fill="rgb(0, 0, 0)" fill-opacity="1.000000" />
<path d="M 97.892578 7.335938 L 97.892578 6.412109 L 104.729980 6.412109 L 104.729980 7.335938 Z " fill="rgb(0, 0, 0)" fill-opacity="1.000000" />
<path d="M 104.892578 7.335938 L 104.892578 6.412109 L 111.729980 6.412109 L 111.729980 7.335938 Z " fill="rgb(0, 0, 0)" fill-opacity="1.000000" />
<path d="M 114.878906 13.319336 L 114.878906 7.335938 L 111.892578 7.335938 L 111.892578 6.412109 L 115.738281 6.412109 L 115.738281 13.319336 Z " fill="rgb(0, 0, 0)" fill-opacity="1.000000" />
</svg>