<svg xmlns="http://www.w3.org/2000/svg" version="1.1" width="218" height="92">
<path d="M 2.878906 13.319336 L 2.878906 6.412109 L 6.729980 6.412109 L 6.729980 7.335938 L 3.738281 7.335938 L 3.738281 13.319336 Z " fill="rgb(0, 0, 0)" fill-opacity="1.000000" />
<path d="M 2.878906 26.319336 L 2.878906 12.300781 L 3.738281 12.300781 L 3.738281 26.319336 Z " fill="rgb(0, 0, 0)" fill-opacity="1.000000" />
<path d="M 2.878906 39.319336 L 2.878906 25.300781 L 3.738281 25.300781 L 3.738281 32.412109 L 6.729980 32.412109 L 6.729980 33.335938 L 3.738281 33.335938 L 3.738281 39.319336 Z " fill="rgb(0, 0, 0)" fill-opacity="1.000000" />
<path d="M 2.878906 52.319336 L 2.878906 38.300781 L 3.738281 38.300781 L 3.738281 52.319336 Z " fill="rgb(0, 0, 0)" fill-opacity="1.000000" />
<path d="M 2.878906 65.319336 L 2.878906 51.300781 L 3.738281 51.300781 L 3.738281 58.412109 L 6.729980 58.412109 L 6.729980 59.335938 L 3.738281 59.335938 L 3.738281 65.319336 Z " fill="rgb(0, 0, 0)" fill-opacity="1.000000" />
<path d="M 2.878906 78.319336 L 2.878906 64.300781 L 3.738281 64.300781 L 3.738281 78.319336 Z " fill="rgb(0, 0, 0)" fill-opacity="1.000000" />
<path d="M 2.878906 85.335938 L 2.878906 77.300781 L 3.738281 77.300781 L 3.738281 84.412109 L 6.729980 84.412109 L 6.729980 85.335938 Z " fill="rgb(0, 0, 0)" fill-opacity="1.000000" />
<path d="M 6.892578 85.335938 L 6.892578 84.412109 L 13.729980 84.412109 L 13.729980 85.335938 Z " fill="rgb(0, 0, 0)" fill-opacity="1.000000" />
<path d="M 13.892578 85.335938 L 13.892578 84.412109 L 20.729980 84.412109 L 20.729980 85.335938 Z " fill="rgb(0, 0, 0)" fill-opacity="1.000000" />
<path d="M 20.892578 85.335938 L 20.892578 84.412109 L 27.729980 84.412109 L 27.729980 85.335938 Z " fill="rgb(0, 0, 0)" fill-opacity="1.000000" />
<path d="M 27.892578 85.335938 L 27.892578 84.412109 L 30.878906 84.412109 L 30.878906 77.300781 L 31.738281 77.300781 L 31.738281 84.412109 L 34.729980 84.412109 L 34.729980 85.335938 Z " fill="rgb(0, 0, 0)" fill-opacity="1.000000" />
<path d="M 34.892578 85.335938 L 34.892578 84.412109 L 41.729980 84.412109 L 41.729980 85.335938 Z " fill="rgb(0, 0, 0)" fill-opacity="1.000000" />
<path d="M 41.892578 85.335938 L 41.892578 84.412109 L 48.729980 84.412109 L 48.729980 85.335938 Z " fill="rgb(0, 0, 0)" fill-opacity="1.000000" />
<path d="M 48.892578 85.335938 L 48.892578 84.412109 L 55.729980 84.412109 L 55.729980 85.335938 Z " fill="rgb(0, 0, 0)" fill-opacity="1.000000" />
<path d="M 55.892578 85.335938 L 55.892578 84.412109 L 58.878906 84.412109 L 58.878906 77.300781 L 59.738281 77.300781 L 59.738281 85.335938 Z " fill="rgb(0, 0, 0)" fill-opacity="1.000000" />
<path d="M 156.878906 85.335938 L 156.878906 77.300781 L 157.738281 77.300781 L 157.738281 84.412109 L 160.729980 84.412109 L 160.729980 85.335938 Z " fill="rgb(0, 0, 0)" fill-opacity="1.000000" />
<path d="M 160.892578 85.335938 L 160.892578 84.412109 L 167.729980 84.412109 L 167.729980 85.335938 Z " fill="rgb(0, 0, 0)" fill-opacity="1.000000" />
<path d="M 167.892578 85.335938 L 167.892578 84.412109 L 174.729980 84.412109 L 174.729980 85.335938 Z " fill="rgb(0, 0, 0)" fill-opacity="1.000000" />
<path d="M 174.892578 85.335938 L 174.892578 84.412109 L 181.729980 84.412109 L 181.729980 85.335938 Z " fill="rgb(0, 0, 0)" fill-opacity="1.000000" />
<path d="M 181.892578 85.335938 L 181.892578 84.412109 L 184.878906 84.412109 L 184.878906 77.300781 L 185.738281 77.300781 L 185.738281 84.412109 L 188.729980 84.412109 L 188.729980 85.335938 Z " fill="rgb(0, 0, 0)" fill-opacity="1.000000" />
<path d="M 188.892578 85.335938 L 188.892578 84.412109 L 195.729980 84.412109 L 195.729980 85.335938 Z " fill="rgb(0, 0, 0)" fill-opacity="1.000000" />
<path d="M 195.892578 85.335938 L 195.892578 84.412109 L 202.729980 84.412109 L 202.729980 85.335938 Z " fill="rgb(0, 0, 0)" fill-opacity="1.000000" />
<path d="M 202.892578 85.335938 L 202.892578 84.412109 L 209.729980 84.412109 L 209.729980 85.335938 Z " fill="rgb(0, 0, 0)" fill-opacity="1.000000" />
<path d="M 209.892578 85.335938 L 209.892578 84.412109 L 212.878906 84.412109 L 212.878906 77.300781 L 213.738281 77.300781 L 213.738281 85.335938 Z " fill="rgb(0, 0, 0)" fill-opacity="1.000000" />
<path d="M 15.981934 70.955566 L 15.981934 74.108398 L 17.265625 74.108398 Q 18.210938 74.108398 18.613770 73.778076 Q 19.016602 73.447754 19.016602 72.690430 Q 19.016602 71.691406 18.592285 71.323486 Q 18.167969 70.955566 17.265625 70.955566 Z M 15.981934 67.872559 L 15.981934 70.074707 L 17.244141 70.074707 Q 18.028320 70.074707 18.380127 69.773926 Q 18.731934 69.473145 18.731934 69.016602 Q 18.731934 68.409668 18.385498 68.141113 Q 18.039062 67.872559 17.244141 67.872559 Z M 14.891602 66.980957 L 17.265625 66.980957 Q 18.495605 66.980957 19.161621 67.512695 Q 19.827637 68.044434 19.827637 69.016602 Q 19.827637 69.537598 19.475830 69.961914 Q 19.124023 70.386230 18.420410 70.493652 Q 19.209961 70.611816 19.658447 71.167725 Q 20.106934 71.723633 20.106934 72.797852 Q 20.106934 73.888184 19.392578 74.444092 Q 18.678223 75.000000 17.265625 75.000000 L 14.891602 75.000000 Z " fill="rgb(170, 120, 0)" fill-opacity="1.000000" />
<path d="M 30.878906 78.319336 L 30.878906 64.300781 L 31.738281 64.300781 L 31.738281 78.319336 Z " fill="rgb(0, 0, 0)" fill-opacity="1.000000" />
<path d="M 43.450195 74.092285 L 45.136719 74.092285 L 45.136719 68.033691 L 43.117188 69.005859 L 43.117188 67.963867 L 45.125977 67.007812 L 46.210938 67.007812 L 46.210938 74.092285 L 47.875977 74.092285 L 47.875977 75.000000 L 43.450195 75.000000 Z " fill="rgb(0, 0, 0)" fill-opacity="1.000000" />
<path d="M 58.878906 78.319336 L 58.878906 64.300781 L 59.738281 64.300781 L 59.738281 78.319336 Z " fill="rgb(0, 0, 0)" fill-opacity="1.000000" />
<path d="M 156.878906 78.319336 L 156.878906 64.300781 L 157.738281 64.300781 L 157.738281 78.319336 Z " fill="rgb(0, 0, 0)" fill-opacity="1.000000" />
<path d="M 171.308594 67.937012 L 170.164551 72.040527 L 172.452637 72.040527 Z M 170.653320 66.980957 L 171.969238 66.980957 L 174.423828 75.000000 L 173.301270 75.000000 L 172.710449 72.910645 L 169.901367 72.910645 L 169.321289 75.000000 L 168.198730 75.000000 Z " fill="rgb(0, 118, 0)" fill-opacity="1.000000" />
<path d="M 184.878906 78.319336 L 184.878906 64.300781 L 185.738281 64.300781 L 185.738281 78.319336 Z " fill="rgb(0, 0, 0)" fill-opacity="1.000000" />
<path d="M 198.003418 74.086914 L 201.687988 74.086914 L 201.687988 75.000000 L 196.816406 75.000000 L 196.816406 74.086914 Q 197.820801 73.028809 198.572754 72.217773 Q 199.324707 71.406738 199.609375 71.073730 Q 200.146484 70.418457 200.334473 70.012939 Q 200.522461 69.607422 200.522461 69.183105 Q 200.522461 68.511719 200.127686 68.130371 Q 199.732910 67.749023 199.045410 67.749023 Q 198.556641 67.749023 198.019531 67.926270 Q 197.482422 68.103516 196.880859 68.463379 L 196.880859 67.367676 Q 197.434082 67.104492 197.968506 66.970215 Q 198.502930 66.835938 199.023926 66.835938 Q 200.200195 66.835938 200.917236 67.461670 Q 201.634277 68.087402 201.634277 69.102539 Q 201.634277 69.618164 201.395264 70.133789 Q 201.156250 70.649414 200.619141 71.272461 Q 200.318359 71.621582 199.746338 72.239258 Q 199.174316 72.856934 198.003418 74.086914 Z " fill="rgb(0, 0, 0)" fill-opacity="1.000000" />
<path d="M 212.878906 78.319336 L 212.878906 64.300781 L 213.738281 64.300781 L 213.738281 78.319336 Z " fill="rgb(0, 0, 0)" fill-opacity="1.000000" />
<path d="M 6.892578 59.335938 L 6.892578 58.412109 L 13.729980 58.412109 L 13.729980 59.335938 Z " fill="rgb(0, 0, 0)" fill-opacity="1.000000" />
<path d="M 13.892578 59.335938 L 13.892578 58.412109 L 20.729980 58.412109 L 20.729980 59.335938 Z " fill="rgb(0, 0, 0)" fill-opacity="1.000000" />
<path d="M 20.892578 59.335938 L 20.892578 58.412109 L 27.729980 58.412109 L 27.729980 59.335938 Z " fill="rgb(0, 0, 0)" fill-opacity="1.000000" />
<path d="M 31.738281 59.335938 L 31.738281 65.319336 L 30.878906 65.319336 L 30.878906 59.335938 L 27.892578 59.335938 L 27.892578 58.412109 L 30.878906 58.412109 L 30.878906 51.300781 L 31.738281 51.300781 L 31.738281 58.412109 L 34.729980 58.412109 L 34.729980 59.335938 Z " fill="rgb(0, 0, 0)" fill-opacity="1.000000" />
<path d="M 34.892578 59.335938 L 34.892578 58.412109 L 41.729980 58.412109 L 41.729980 59.335938 Z " fill="rgb(0, 0, 0)" fill-opacity="1.000000" />
<path d="M 41.892578 59.335938 L 41.892578 58.412109 L 48.729980 58.412109 L 48.729980 59.335938 Z " fill="rgb(0, 0, 0)" fill-opacity="1.000000" />
<path d="M 48.892578 59.335938 L 48.892578 58.412109 L 55.729980 58.412109 L 55.729980 59.335938 Z " fill="rgb(0, 0, 0)" fill-opacity="1.000000" />
<path d="M 58.878906 65.319336 L 58.878906 59.335938 L 55.892578 59.335938 L 55.892578 58.412109 L 58.878906 58.412109 L 58.878906 51.300781 L 59.738281 51.300781 L 59.738281 65.319336 Z " fill="rgb(0, 0, 0)" fill-opacity="1.000000" />
<path d="M 156.878906 65.319336 L 156.878906 51.300781 L 157.738281 51.300781 L 157.738281 58.412109 L 160.729980 58.412109 L 160.729980 59.335938 L 157.738281 59.335938 L 157.738281 65.319336 Z " fill="rgb(0, 0, 0)" fill-opacity="1.000000" />
<path d="M 160.892578 59.335938 L 160.892578 58.412109 L 167.729980 58.412109 L 167.729980 59.335938 Z " fill="rgb(0, 0, 0)" fill-opacity="1.000000" />
<path d="M 167.892578 59.335938 L 167.892578 58.412109 L 174.729980 58.412109 L 174.729980 59.335938 Z " fill="rgb(0, 0, 0)" fill-opacity="1.000000" />
<path d="M 174.892578 59.335938 L 174.892578 58.412109 L 181.729980 58.412109 L 181.729980 59.335938 Z " fill="rgb(0, 0, 0)" fill-opacity="1.000000" />
<path d="M 185.738281 59.335938 L 185.738281 65.319336 L 184.878906 65.319336 L 184.878906 59.335938 L 181.892578 59.335938 L 181.892578 58.412109 L 184.878906 58.412109 L 184.878906 51.300781 L 185.738281 51.300781 L 185.738281 58.412109 L 188.729980 58.412109 L 188.729980 59.335938 Z " fill="rgb(0, 0, 0)" fill-opacity="1.000000" />
<path d="M 188.892578 59.335938 L 188.892578 58.412109 L 195.729980 58.412109 L 195.729980 59.335938 Z " fill="rgb(0, 0, 0)" fill-opacity="1.000000" />
<path d="M 195.892578 59.335938 L 195.892578 58.412109 L 202.729980 58.412109 L 202.729980 59.335938 Z " fill="rgb(0, 0, 0)" fill-opacity="1.000000" />
<path d="M 202.892578 59.335938 L 202.892578 58.412109 L 209.729980 58.412109 L 209.729980 59.335938 Z " fill="rgb(0, 0, 0)" fill-opacity="1.000000" />
<path d="M 212.878906 65.319336 L 212.878906 59.335938 L 209.892578 59.335938 L 209.892578 58.412109 L 212.878906 58.412109 L 212.878906 51.300781 L 213.738281 51.300781 L 213.738281 65.319336 Z " fill="rgb(0, 0, 0)" fill-opacity="1.000000" />
<path d="M 17.308594 41.937012 L 16.164551 46.040527 L 18.452637 46.040527 Z M 16.653320 40.980957 L 17.969238 40.980957 L 20.423828 49.000000 L 19.301270 49.000000 L 18.710449 46.910645 L 15.901367 46.910645 L 15.321289 49.000000 L 14.198730 49.000000 Z " fill="rgb(64, 118, 0)" fill-opacity="1.000000" />
<path d="M 30.878906 52.319336 L 30.878906 38.300781 L 31.738281 38.300781 L 31.738281 52.319336 Z " fill="rgb(0, 0, 0)" fill-opacity="1.000000" />
<path d="M 44.003418 48.086914 L 47.687988 48.086914 L 47.687988 49.000000 L 42.816406 49.000000 L 42.816406 48.086914 Q 43.820801 47.028809 44.572754 46.217773 Q 45.324707 45.406738 45.609375 45.073730 Q 46.146484 44.418457 46.334473 44.012939 Q 46.522461 43.607422 46.522461 43.183105 Q 46.522461 42.511719 46.127686 42.130371 Q 45.732910 41.749023 45.045410 41.749023 Q 44.556641 41.749023 44.019531 41.926270 Q 43.482422 42.103516 42.880859 42.463379 L 42.880859 41.367676 Q 43.434082 41.104492 43.968506 40.970215 Q 44.502930 40.835938 45.023926 40.835938 Q 46.200195 40.835938 46.917236 41.461670 Q 47.634277 42.087402 47.634277 43.102539 Q 47.634277 43.618164 47.395264 44.133789 Q 47.156250 44.649414 46.619141 45.272461 Q 46.318359 45.621582 45.746338 46.239258 Q 45.174316 46.856934 44.003418 48.086914 Z " fill="rgb(0, 0, 0)" fill-opacity="1.000000" />
<path d="M 58.878906 52.319336 L 58.878906 38.300781 L 59.738281 38.300781 L 59.738281 52.319336 Z " fill="rgb(0, 0, 0)" fill-opacity="1.000000" />
<path d="M 70.032227 46.142578 L 76.590332 42.866211 L 76.590332 49.418945 Z " fill="rgb(0, 0, 0)" fill-opacity="1.000000" />
<path d="M 76.892578 45.412109 L 76.892578 44.488281 L 83.729980 44.488281 L 83.729980 45.412109 Z M 76.892578 47.259766 L 76.892578 46.335938 L 83.729980 46.335938 L 83.729980 47.259766 Z " fill="rgb(0, 0, 0)" fill-opacity="1.000000" />
<path d="M 83.892578 45.412109 L 83.892578 44.488281 L 90.729980 44.488281 L 90.729980 45.412109 Z M 83.892578 47.259766 L 83.892578 46.335938 L 90.729980 46.335938 L 90.729980 47.259766 Z " fill="rgb(0, 0, 0)" fill-opacity="1.000000" />
<path d="M 90.892578 45.412109 L 90.892578 44.488281 L 97.729980 44.488281 L 97.729980 45.412109 Z M 90.892578 47.259766 L 90.892578 46.335938 L 97.729980 46.335938 L 97.729980 47.259766 Z " fill="rgb(0, 0, 0)" fill-opacity="1.000000" />
<path d="M 97.892578 45.412109 L 97.892578 44.488281 L 104.729980 44.488281 L 104.729980 45.412109 Z M 97.892578 47.259766 L 97.892578 46.335938 L 104.729980 46.335938 L 104.729980 47.259766 Z " fill="rgb(0, 0, 0)" fill-opacity="1.000000" />
<path d="M 104.892578 45.412109 L 104.892578 44.488281 L 111.729980 44.488281 L 111.729980 45.412109 Z M 104.892578 47.259766 L 104.892578 46.335938 L 111.729980 46.335938 L 111.729980 47.259766 Z " fill="rgb(0, 0, 0)" fill-opacity="1.000000" />
<path d="M 111.892578 45.412109 L 111.892578 44.488281 L 118.729980 44.488281 L 118.729980 45.412109 Z M 111.892578 47.259766 L 111.892578 46.335938 L 118.729980 46.335938 L 118.729980 47.259766 Z " fill="rgb(0, 0, 0)" fill-opacity="1.000000" />
<path d="M 118.892578 45.412109 L 118.892578 44.488281 L 125.729980 44.488281 L 125.729980 45.412109 Z M 118.892578 47.259766 L 118.892578 46.335938 L 125.729980 46.335938 L 125.729980 47.259766 Z " fill="rgb(0, 0, 0)" fill-opacity="1.000000" />
<path d="M 125.892578 45.412109 L 125.892578 44.488281 L 132.729980 44.488281 L 132.729980 45.412109 Z M 125.892578 47.259766 L 125.892578 46.335938 L 132.729980 46.335938 L 132.729980 47.259766 Z " fill="rgb(0, 0, 0)" fill-opacity="1.000000" />
<path d="M 132.892578 45.412109 L 132.892578 44.488281 L 139.729980 44.488281 L 139.729980 45.412109 Z M 132.892578 47.259766 L 132.892578 46.335938 L 139.729980 46.335938 L 139.729980 47.259766 Z " fill="rgb(0, 0, 0)" fill-opacity="1.000000" />
<path d="M 140.032227 49.418945 L 140.032227 42.866211 L 146.590332 46.142578 Z " fill="rgb(0, 0, 0)" fill-opacity="1.000000" />
<path d="M 156.878906 52.319336 L 156.878906 38.300781 L 157.738281 38.300781 L 157.738281 52.319336 Z " fill="rgb(0, 0, 0)" fill-opacity="1.000000" />
<path d="M 169.981934 44.955566 L 169.981934 48.108398 L 171.265625 48.108398 Q 172.210938 48.108398 172.613770 47.778076 Q 173.016602 47.447754 173.016602 46.690430 Q 173.016602 45.691406 172.592285 45.323486 Q 172.167969 44.955566 171.265625 44.955566 Z M 169.981934 41.872559 L 169.981934 44.074707 L 171.244141 44.074707 Q 172.028320 44.074707 172.380127 43.773926 Q 172.731934 43.473145 172.731934 43.016602 Q 172.731934 42.409668 172.385498 42.141113 Q 172.039062 41.872559 171.244141 41.872559 Z M 168.891602 40.980957 L 171.265625 40.980957 Q 172.495605 40.980957 173.161621 41.512695 Q 173.827637 42.044434 173.827637 43.016602 Q 173.827637 43.537598 173.475830 43.961914 Q 173.124023 44.386230 172.420410 44.493652 Q 173.209961 44.611816 173.658447 45.167725 Q 174.106934 45.723633 174.106934 46.797852 Q 174.106934 47.888184 173.392578 48.444092 Q 172.678223 49.000000 171.265625 49.000000 L 168.891602 49.000000 Z " fill="rgb(170, 120, 0)" fill-opacity="1.000000" />
<path d="M 184.878906 52.319336 L 184.878906 38.300781 L 185.738281 38.300781 L 185.738281 52.319336 Z " fill="rgb(0, 0, 0)" fill-opacity="1.000000" />
<path d="M 197.450195 48.092285 L 199.136719 48.092285 L 199.136719 42.033691 L 197.117188 43.005859 L 197.117188 41.963867 L 199.125977 41.007812 L 200.210938 41.007812 L 200.210938 48.092285 L 201.875977 48.092285 L 201.875977 49.000000 L 197.450195 49.000000 Z " fill="rgb(0, 0, 0)" fill-opacity="1.000000" />
<path d="M 212.878906 52.319336 L 212.878906 38.300781 L 213.738281 38.300781 L 213.738281 52.319336 Z " fill="rgb(0, 0, 0)" fill-opacity="1.000000" />
<path d="M 6.892578 33.335938 L 6.892578 32.412109 L 13.729980 32.412109 L 13.729980 33.335938 Z " fill="rgb(0, 0, 0)" fill-opacity="1.000000" />
<path d="M 13.892578 33.335938 L 13.892578 32.412109 L 20.729980 32.412109 L 20.729980 33.335938 Z " fill="rgb(0, 0, 0)" fill-opacity="1.000000" />
<path d="M 20.892578 33.335938 L 20.892578 32.412109 L 27.729980 32.412109 L 27.729980 33.335938 Z " fill="rgb(0, 0, 0)" fill-opacity="1.000000" />
<path d="M 30.878906 39.319336 L 30.878906 33.335938 L 27.892578 33.335938 L 27.892578 32.412109 L 34.729980 32.412109 L 34.729980 33.335938 L 31.738281 33.335938 L 31.738281 39.319336 Z " fill="rgb(0, 0, 0)" fill-opacity="1.000000" />
<path d="M 34.892578 33.335938 L 34.892578 32.412109 L 41.729980 32.412109 L 41.729980 33.335938 Z " fill="rgb(0, 0, 0)" fill-opacity="1.000000" />
<path d="M 41.892578 33.335938 L 41.892578 32.412109 L 48.729980 32.412109 L 48.729980 33.335938 Z " fill="rgb(0, 0, 0)" fill-opacity="1.000000" />
<path d="M 48.892578 33.335938 L 48.892578 32.412109 L 55.729980 32.412109 L 55.729980 33.335938 Z " fill="rgb(0, 0, 0)" fill-opacity="1.000000" />
<path d="M 58.878906 39.319336 L 58.878906 33.335938 L 55.892578 33.335938 L 55.892578 32.412109 L 58.878906 32.412109 L 58.878906 25.300781 L 59.738281 25.300781 L 59.738281 39.319336 Z " fill="rgb(0, 0, 0)" fill-opacity="1.000000" />
<path d="M 91.193359 28.007812 L 92.643555 28.007812 L 94.029297 32.079102 L 95.425781 28.007812 L 96.881348 28.007812 L 96.881348 36.000000 L 95.876953 36.000000 L 95.876953 28.937012 L 94.448242 33.147949 L 93.626465 33.147949 L 92.192383 28.937012 L 92.192383 36.000000 L 91.193359 36.000000 Z " fill="rgb(0, 0, 0)" fill-opacity="1.000000" />
<path d="M 99.058105 27.980957 L 103.816895 27.980957 L 103.816895 28.894043 L 100.143066 28.894043 L 100.143066 31.053223 L 103.655762 31.053223 L 103.655762 31.966309 L 100.143066 31.966309 L 100.143066 35.086914 L 103.918945 35.086914 L 103.918945 36.000000 L 99.058105 36.000000 Z " fill="rgb(0, 0, 0)" fill-opacity="1.000000" />
<path d="M 109.082031 32.213379 Q 109.500977 32.320801 109.796387 32.618896 Q 110.091797 32.916992 110.532227 33.808594 L 111.622559 36.000000 L 110.457031 36.000000 L 109.500977 33.975098 Q 109.087402 33.110352 108.757080 32.860596 Q 108.426758 32.610840 107.895020 32.610840 L 106.858398 32.610840 L 106.858398 36.000000 L 105.768066 36.000000 L 105.768066 27.980957 L 108.002441 27.980957 Q 109.323730 27.980957 110.027344 28.577148 Q 110.730957 29.173340 110.730957 30.301270 Q 110.730957 31.096191 110.298584 31.598389 Q 109.866211 32.100586 109.082031 32.213379 Z M 106.858398 28.872559 L 106.858398 31.719238 L 108.045410 31.719238 Q 108.824219 31.719238 109.205566 31.370117 Q 109.586914 31.020996 109.586914 30.301270 Q 109.586914 29.608398 109.181396 29.240479 Q 108.775879 28.872559 108.002441 28.872559 Z " fill="rgb(0, 0, 0)" fill-opacity="1.000000" />
<path d="M 117.929688 35.339355 Q 117.494629 35.742188 116.949463 35.948975 Q 116.404297 36.155762 115.770508 36.155762 Q 114.245117 36.155762 113.396484 35.062744 Q 112.547852 33.969727 112.547852 31.998535 Q 112.547852 30.032715 113.407227 28.934326 Q 114.266602 27.835938 115.797363 27.835938 Q 116.302246 27.835938 116.764160 27.978271 Q 117.226074 28.120605 117.655762 28.410645 L 117.655762 29.522461 Q 117.220703 29.108887 116.764160 28.912842 Q 116.307617 28.716797 115.797363 28.716797 Q 114.739258 28.716797 114.210205 29.535889 Q 113.681152 30.354980 113.681152 31.998535 Q 113.681152 33.668945 114.194092 34.471924 Q 114.707031 35.274902 115.770508 35.274902 Q 116.130371 35.274902 116.401611 35.191650 Q 116.672852 35.108398 116.893066 34.931152 L 116.893066 32.777344 L 115.727539 32.777344 L 115.727539 31.885742 L 117.929688 31.885742 Z " fill="rgb(0, 0, 0)" fill-opacity="1.000000" />
<path d="M 120.058105 27.980957 L 124.816895 27.980957 L 124.816895 28.894043 L 121.143066 28.894043 L 121.143066 31.053223 L 124.655762 31.053223 L 124.655762 31.966309 L 121.143066 31.966309 L 121.143066 35.086914 L 124.918945 35.086914 L 124.918945 36.000000 L 120.058105 36.000000 Z " fill="rgb(0, 0, 0)" fill-opacity="1.000000" />
<path d="M 156.878906 39.319336 L 156.878906 25.300781 L 157.738281 25.300781 L 157.738281 32.412109 L 160.729980 32.412109 L 160.729980 33.335938 L 157.738281 33.335938 L 157.738281 39.319336 Z " fill="rgb(0, 0, 0)" fill-opacity="1.000000" />
<path d="M 160.892578 33.335938 L 160.892578 32.412109 L 167.729980 32.412109 L 167.729980 33.335938 Z " fill="rgb(0, 0, 0)" fill-opacity="1.000000" />
<path d="M 167.892578 33.335938 L 167.892578 32.412109 L 174.729980 32.412109 L 174.729980 33.335938 Z " fill="rgb(0, 0, 0)" fill-opacity="1.000000" />
<path d="M 174.892578 33.335938 L 174.892578 32.412109 L 181.729980 32.412109 L 181.729980 33.335938 Z " fill="rgb(0, 0, 0)" fill-opacity="1.000000" />
<path d="M 184.878906 39.319336 L 184.878906 33.335938 L 181.892578 33.335938 L 181.892578 32.412109 L 188.729980 32.412109 L 188.729980 33.335938 L 185.738281 33.335938 L 185.738281 39.319336 Z " fill="rgb(0, 0, 0)" fill-opacity="1.000000" />
<path d="M 188.892578 33.335938 L 188.892578 32.412109 L 195.729980 32.412109 L 195.729980 33.335938 Z " fill="rgb(0, 0, 0)" fill-opacity="1.000000" />
<path d="M 195.892578 33.335938 L 195.892578 32.412109 L 202.729980 32.412109 L 202.729980 33.335938 Z " fill="rgb(0, 0, 0)" fill-opacity="1.000000" />
<path d="M 202.892578 33.335938 L 202.892578 32.412109 L 209.729980 32.412109 L 209.729980 33.335938 Z " fill="rgb(0, 0, 0)" fill-opacity="1.000000" />
<path d="M 212.878906 39.319336 L 212.878906 33.335938 L 209.892578 33.335938 L 209.892578 32.412109 L 212.878906 32.412109 L 212.878906 25.300781 L 213.738281 25.300781 L 213.738281 39.319336 Z " fill="rgb(0, 0, 0)" fill-opacity="1.000000" />
<path d="M 12.226074 17.193848 L 12.226074 18.160645 Q 11.801758 17.913574 11.372070 17.790039 Q 10.942383 17.666504 10.496582 17.666504 Q 9.825195 17.666504 9.494873 17.884033 Q 9.164551 18.101562 9.164551 18.547363 Q 9.164551 18.950195 9.411621 19.148926 Q 9.658691 19.347656 10.641602 19.535645 L 11.039062 19.610840 Q 11.774902 19.750488 12.153564 20.169434 Q 12.532227 20.588379 12.532227 21.259766 Q 12.532227 22.151367 11.898438 22.653564 Q 11.264648 23.155762 10.136719 23.155762 Q 9.690918 23.155762 9.202148 23.061768 Q 8.713379 22.967773 8.144043 22.779785 L 8.144043 21.759277 Q 8.697266 22.043945 9.202148 22.186279 Q 9.707031 22.328613 10.158203 22.328613 Q 10.813477 22.328613 11.173340 22.062744 Q 11.533203 21.796875 11.533203 21.318848 Q 11.533203 20.631348 10.217285 20.368164 L 10.174316 20.357422 L 9.803711 20.282227 Q 8.949707 20.115723 8.557617 19.720947 Q 8.165527 19.326172 8.165527 18.644043 Q 8.165527 17.779297 8.750977 17.309326 Q 9.336426 16.839355 10.421387 16.839355 Q 10.904785 16.839355 11.350586 16.927979 Q 11.796387 17.016602 12.226074 17.193848 Z " fill="rgb(0, 0, 0)" fill-opacity="1.000000" />
<path d="M 15.450195 22.092285 L 17.136719 22.092285 L 17.136719 16.033691 L 15.117188 17.005859 L 15.117188 15.963867 L 17.125977 15.007812 L 18.210938 15.007812 L 18.210938 22.092285 L 19.875977 22.092285 L 19.875977 23.000000 L 15.450195 23.000000 Z " fill="rgb(0, 0, 0)" fill-opacity="1.000000" />
<path d="M 58.878906 26.319336 L 58.878906 12.300781 L 59.738281 12.300781 L 59.738281 26.319336 Z " fill="rgb(0, 0, 0)" fill-opacity="1.000000" />
<path d="M 156.878906 26.319336 L 156.878906 12.300781 L 157.738281 12.300781 L 157.738281 26.319336 Z " fill="rgb(0, 0, 0)" fill-opacity="1.000000" />
<path d="M 166.226074 17.193848 L 166.226074 18.160645 Q 165.801758 17.913574 165.372070 17.790039 Q 164.942383 17.666504 164.496582 17.666504 Q 163.825195 17.666504 163.494873 17.884033 Q 163.164551 18.101562 163.164551 18.547363 Q 163.164551 18.950195 163.411621 19.148926 Q 163.658691 19.347656 164.641602 19.535645 L 165.039062 19.610840 Q 165.774902 19.750488 166.153564 20.169434 Q 166.532227 20.588379 166.532227 21.259766 Q 166.532227 22.151367 165.898438 22.653564 Q 165.264648 23.155762 164.136719 23.155762 Q 163.690918 23.155762 163.202148 23.061768 Q 162.713379 22.967773 162.144043 22.779785 L 162.144043 21.759277 Q 162.697266 22.043945 163.202148 22.186279 Q 163.707031 22.328613 164.158203 22.328613 Q 164.813477 22.328613 165.173340 22.062744 Q 165.533203 21.796875 165.533203 21.318848 Q 165.533203 20.631348 164.217285 20.368164 L 164.174316 20.357422 L 163.803711 20.282227 Q 162.949707 20.115723 162.557617 19.720947 Q 162.165527 19.326172 162.165527 18.644043 Q 162.165527 17.779297 162.750977 17.309326 Q 163.336426 16.839355 164.421387 16.839355 Q 164.904785 16.839355 165.350586 16.927979 Q 165.796387 17.016602 166.226074 17.193848 Z " fill="rgb(0, 0, 0)" fill-opacity="1.000000" />
<path d="M 170.003418 22.086914 L 173.687988 22.086914 L 173.687988 23.000000 L 168.816406 23.000000 L 168.816406 22.086914 Q 169.820801 21.028809 170.572754 20.217773 Q 171.324707 19.406738 171.609375 19.073730 Q 172.146484 18.418457 172.334473 18.012939 Q 172.522461 17.607422 172.522461 17.183105 Q 172.522461 16.511719 172.127686 16.130371 Q 171.732910 15.749023 171.045410 15.749023 Q 170.556641 15.749023 170.019531 15.926270 Q 169.482422 16.103516 168.880859 16.463379 L 168.880859 15.367676 Q 169.434082 15.104492 169.968506 14.970215 Q 170.502930 14.835938 171.023926 14.835938 Q 172.200195 14.835938 172.917236 15.461670 Q 173.634277 16.087402 173.634277 17.102539 Q 173.634277 17.618164 173.395264 18.133789 Q 173.156250 18.649414 172.619141 19.272461 Q 172.318359 19.621582 171.746338 20.239258 Q 171.174316 20.856934 170.003418 22.086914 Z " fill="rgb(0, 0, 0)" fill-opacity="1.000000" />
<path d="M 212.878906 26.319336 L 212.878906 12.300781 L 213.738281 12.300781 L 213.738281 26.319336 Z " fill="rgb(0, 0, 0)" fill-opacity="1.000000" />
<path d="M 6.892578 7.335938 L 6.892578 6.412109 L 13.729980 6.412109 L 13.729980 7.335938 Z " fill="rgb(0, 0, 0)" fill-opacity="1.000000" />
<path d="M 13.892578 7.335938 L 13.892578 6.412109 L 20.729980 6.412109 L 20.729980 7.335938 Z " fill="rgb(0, 0, 0)" fill-opacity="1.000000" />
<path d="M 20.892578 7.335938 L 20.892578 6.412109 L 27.729980 6.412109 L 27.729980 7.335938 Z " fill="rgb(0, 0, 0)" fill-opacity="1.000000" />
<path d="M 27.892578 7.335938 L 27.892578 6.412109 L 34.729980 6.412109 L 34.729980 7.335938 Z " fill="rgb(0, 0, 0)" fill-opacity="1.000000" />
<path d="M 34.892578 7.335938 L 34.892578 6.412109 L 41.729980 6.412109 L 41.729980 7.335938 Z " fill="rgb(0, 0, 0)" fill-opacity="1.000000" />
<path d="M 41.892578 7.335938 L 41.892578 6.412109 L 48.729980 6.412109 L 48.729980 7.335938 Z " fill="rgb(0, 0, 0)" fill-opacity="1.000000" />
<path d="M 48.892578 7.335938 L 48.892578 6.412109 L 55.729980 6.412109 L 55.729980 7.335938 Z " fill="rgb(0, 0, 0)" fill-opacity="1.000000" />
<path d="M 58.878906 13.319336 L 58.878906 7.335938 L 55.892578 7.335938 L 55.892578 6.412109 L 59.738281 6.412109 L 59.738281 13.319336 Z " fill="rgb(0, 0, 0)" fill-opacity="1.000000" />
<path d="M 156.878906 13.319336 L 156.878906 6.412109 L 160.729980 6.412109 L 160.729980 7.335938 L 157.738281 7.335938 L 157.738281 13.319336 Z " fill="rgb(0, 0, 0)" fill-opacity="1.000000" />
<path d="M 160.892578 7.335938 L 160.892578 6.412109 L 167.729980 6.412109 L 167.729980 7.335938 Z " fill="rgb(0, 0, 0)" fill-opacity="1.000000" />
<path d="M 167.892578 7.335938 L 167.892578 6.412109 L 174.729980 6.412109 L 174.729980 7.335938 Z " fill="rgb(0, 0, 0)" fill-opacity="1.000000" />
<path d="M 174.892578 7.335938 L 174.892578 6.412109 L 181.729980 6.412109 L 181.729980 7.335938 Z " fill="rgb(0, 0, 0)" fill-opacity="1.000000" />
<path d="M 181.892578 7.335938 L 181.892578 6.412109 L 188.729980 6.412109 L 188.729980 7.335938 Z " fill="rgb(0, 0, 0)" fill-opacity="1.000000" />
<path d="M 188.892578 7.335938 L 188.892578 6.412109 L 195.729980 6.412109 L 195.729980 7.335938 Z " fill="rgb(0, 0, 0)" fill-opacity="1.000000" />
<path d="M 195.892578 7.335938 L 195.892578 6.412109 L 202.729980 6.412109 L 202.729980 7.335938 Z " fill="rgb(0, 0, 0)" fill-opacity="1.000000" />
<path d="M 202.892578 7.335938 L 202.892578 6.412109 L 209.729980 6.412109 L 209.729980 7.335938 Z " fill="rgb(0, 0, 0)" fill-opacity="1.000000" />
<path d="M 212.878906 13.319336 L 212.878906 7.335938 L 209.892578 7.335938 L 209.892578 6.412109 L 213.738281 6.412109 L 213.738281 13.319336 Z " fill="rgb(0, 0, 0)" fill-opacity="1.000000" />
</svg>