<svg xmlns="http://www.w3.org/2000/svg" version="1.1" width="162" height="196">
<path d="M -0.107422 150.335938 L -0.107422 149.412109 L 6.729980 149.412109 L 6.729980 150.335938 Z " fill="rgb(0, 0, 0)" fill-opacity="1.000000" />
<path d="M 6.892578 150.335938 L 6.892578 149.412109 L 13.729980 149.412109 L 13.729980 150.335938 Z " fill="rgb(0, 0, 0)" fill-opacity="1.000000" />
<path d="M 13.892578 150.335938 L 13.892578 149.412109 L 20.729980 149.412109 L 20.729980 150.335938 Z " fill="rgb(0, 0, 0)" fill-opacity="1.000000" />
<path d="M 20.892578 150.335938 L 20.892578 149.412109 L 27.729980 149.412109 L 27.729980 150.335938 Z " fill="rgb(0, 0, 0)" fill-opacity="1.000000" />
<path d="M 27.892578 150.335938 L 27.892578 149.412109 L 34.729980 149.412109 L 34.729980 150.335938 Z " fill="rgb(0, 0, 0)" fill-opacity="1.000000" />
<path d="M 34.892578 150.335938 L 34.892578 149.412109 L 41.729980 149.412109 L 41.729980 150.335938 Z " fill="rgb(0, 0, 0)" fill-opacity="1.000000" />
<path d="M 41.892578 150.335938 L 41.892578 149.412109 L 48.729980 149.412109 L 48.729980 150.335938 Z " fill="rgb(0, 0, 0)" fill-opacity="1.000000" />
<path d="M 48.892578 150.335938 L 48.892578 149.412109 L 55.729980 149.412109 L 55.729980 150.335938 Z " fill="rgb(0, 0, 0)" fill-opacity="1.000000" />
<path d="M 55.892578 150.335938 L 55.892578 149.412109 L 62.729980 149.412109 L 62.729980 150.335938 Z " fill="rgb(0, 0, 0)" fill-opacity="1.000000" />
<path d="M 62.892578 150.335938 L 62.892578 149.412109 L 69.729980 149.412109 L 69.729980 150.335938 Z " fill="rgb(0, 0, 0)" fill-opacity="1.000000" />
<path d="M 72.878906 169.319336 L 72.878906 155.300781 L 73.738281 155.300781 L 73.738281 169.319336 Z " fill="rgb(0, 0, 0)" fill-opacity="1.000000" />
<path d="M 72.878906 176.335938 L 72.878906 168.300781 L 73.738281 168.300781 L 73.738281 175.412109 L 76.729980 175.412109 L 76.729980 176.335938 Z " fill="rgb(0, 0, 0)" fill-opacity="1.000000" />
<path d="M 100.878906 189.335938 L 100.878906 181.300781 L 101.738281 181.300781 L 101.738281 188.412109 L 104.729980 188.412109 L 104.729980 189.335938 Z " fill="rgb(0, 0, 0)" fill-opacity="1.000000" />
<path d="M 104.892578 189.335938 L 104.892578 188.412109 L 111.729980 188.412109 L 111.729980 189.335938 Z " fill="rgb(0, 0, 0)" fill-opacity="1.000000" />
<path d="M 111.892578 189.335938 L 111.892578 188.412109 L 118.729980 188.412109 L 118.729980 189.335938 Z " fill="rgb(0, 0, 0)" fill-opacity="1.000000" />
<path d="M 118.892578 189.335938 L 118.892578 188.412109 L 125.729980 188.412109 L 125.729980 189.335938 Z " fill="rgb(0, 0, 0)" fill-opacity="1.000000" />
<path d="M 125.892578 189.335938 L 125.892578 188.412109 L 128.878906 188.412109 L 128.878906 181.300781 L 129.738281 181.300781 L 129.738281 188.412109 L 132.729980 188.412109 L 132.729980 189.335938 Z " fill="rgb(0, 0, 0)" fill-opacity="1.000000" />
<path d="M 132.892578 189.335938 L 132.892578 188.412109 L 139.729980 188.412109 L 139.729980 189.335938 Z " fill="rgb(0, 0, 0)" fill-opacity="1.000000" />
<path d="M 139.892578 189.335938 L 139.892578 188.412109 L 146.729980 188.412109 L 146.729980 189.335938 Z " fill="rgb(0, 0, 0)" fill-opacity="1.000000" />
<path d="M 146.892578 189.335938 L 146.892578 188.412109 L 153.729980 188.412109 L 153.729980 189.335938 Z " fill="rgb(0, 0, 0)" fill-opacity="1.000000" />
<path d="M 153.892578 189.335938 L 153.892578 188.412109 L 156.878906 188.412109 L 156.878906 181.300781 L 157.738281 181.300781 L 157.738281 189.335938 Z " fill="rgb(0, 0, 0)" fill-opacity="1.000000" />
<path d="M 76.892578 176.335938 L 76.892578 175.412109 L 83.729980 175.412109 L 83.729980 176.335938 Z " fill="rgb(0, 0, 0)" fill-opacity="1.000000" />
<path d="M 83.892578 176.335938 L 83.892578 175.412109 L 90.729980 175.412109 L 90.729980 176.335938 Z " fill="rgb(0, 0, 0)" fill-opacity="1.000000" />
<path d="M 100.878906 182.319336 L 100.878906 168.300781 L 101.738281 168.300781 L 101.738281 182.319336 Z " fill="rgb(0, 0, 0)" fill-opacity="1.000000" />
<path d="M 117.709473 170.642578 L 117.709473 171.464355 L 116.586914 171.464355 Q 116.055176 171.464355 115.848389 171.681885 Q 115.641602 171.899414 115.641602 172.452637 L 115.641602 172.984375 L 117.709473 172.984375 L 117.709473 173.752441 L 115.641602 173.752441 L 115.641602 179.000000 L 114.653320 179.000000 L 114.653320 173.752441 L 113.047363 173.752441 L 113.047363 172.984375 L 114.653320 172.984375 L 114.653320 172.565430 Q 114.653320 171.577148 115.107178 171.109863 Q 115.561035 170.642578 116.522461 170.642578 Z " fill="rgb(147, 81, 0)" fill-opacity="1.000000" />
<path d="M 128.878906 182.319336 L 128.878906 168.300781 L 129.738281 168.300781 L 129.738281 182.319336 Z " fill="rgb(0, 0, 0)" fill-opacity="1.000000" />
<path d="M 144.167969 174.708496 Q 144.957520 174.917969 145.376465 175.452393 Q 145.795410 175.986816 145.795410 176.787109 Q 145.795410 177.893555 145.051514 178.524658 Q 144.307617 179.155762 142.991699 179.155762 Q 142.438477 179.155762 141.863770 179.053711 Q 141.289062 178.951660 140.735840 178.758301 L 140.735840 177.678711 Q 141.283691 177.963379 141.815430 178.103027 Q 142.347168 178.242676 142.873535 178.242676 Q 143.765137 178.242676 144.243164 177.839844 Q 144.721191 177.437012 144.721191 176.679688 Q 144.721191 175.981445 144.243164 175.570557 Q 143.765137 175.159668 142.948730 175.159668 L 142.121582 175.159668 L 142.121582 174.268066 L 142.948730 174.268066 Q 143.695312 174.268066 144.114258 173.940430 Q 144.533203 173.612793 144.533203 173.027344 Q 144.533203 172.409668 144.143799 172.079346 Q 143.754395 171.749023 143.034668 171.749023 Q 142.556641 171.749023 142.046387 171.856445 Q 141.536133 171.963867 140.977539 172.178711 L 140.977539 171.179688 Q 141.627441 171.007812 142.135010 170.921875 Q 142.642578 170.835938 143.034668 170.835938 Q 144.205566 170.835938 144.906494 171.424072 Q 145.607422 172.012207 145.607422 172.984375 Q 145.607422 173.645020 145.239502 174.085449 Q 144.871582 174.525879 144.167969 174.708496 Z " fill="rgb(0, 0, 0)" fill-opacity="1.000000" />
<path d="M 156.878906 182.319336 L 156.878906 168.300781 L 157.738281 168.300781 L 157.738281 182.319336 Z " fill="rgb(0, 0, 0)" fill-opacity="1.000000" />
<path d="M 100.878906 169.319336 L 100.878906 155.300781 L 101.738281 155.300781 L 101.738281 162.412109 L 104.729980 162.412109 L 104.729980 163.335938 L 101.738281 163.335938 L 101.738281 169.319336 Z " fill="rgb(0, 0, 0)" fill-opacity="1.000000" />
<path d="M 104.892578 163.335938 L 104.892578 162.412109 L 111.729980 162.412109 L 111.729980 163.335938 Z " fill="rgb(0, 0, 0)" fill-opacity="1.000000" />
<path d="M 111.892578 163.335938 L 111.892578 162.412109 L 118.729980 162.412109 L 118.729980 163.335938 Z " fill="rgb(0, 0, 0)" fill-opacity="1.000000" />
<path d="M 118.892578 163.335938 L 118.892578 162.412109 L 125.729980 162.412109 L 125.729980 163.335938 Z " fill="rgb(0, 0, 0)" fill-opacity="1.000000" />
<path d="M 129.738281 163.335938 L 129.738281 169.319336 L 128.878906 169.319336 L 128.878906 163.335938 L 125.892578 163.335938 L 125.892578 162.412109 L 128.878906 162.412109 L 128.878906 155.300781 L 129.738281 155.300781 L 129.738281 162.412109 L 132.729980 162.412109 L 132.729980 163.335938 Z " fill="rgb(0, 0, 0)" fill-opacity="1.000000" />
<path d="M 132.892578 163.335938 L 132.892578 162.412109 L 139.729980 162.412109 L 139.729980 163.335938 Z " fill="rgb(0, 0, 0)" fill-opacity="1.000000" />
<path d="M 139.892578 163.335938 L 139.892578 162.412109 L 146.729980 162.412109 L 146.729980 163.335938 Z " fill="rgb(0, 0, 0)" fill-opacity="1.000000" />
<path d="M 146.892578 163.335938 L 146.892578 162.412109 L 153.729980 162.412109 L 153.729980 163.335938 Z " fill="rgb(0, 0, 0)" fill-opacity="1.000000" />
<path d="M 156.878906 169.319336 L 156.878906 163.335938 L 153.892578 163.335938 L 153.892578 162.412109 L 156.878906 162.412109 L 156.878906 155.300781 L 157.738281 155.300781 L 157.738281 169.319336 Z " fill="rgb(0, 0, 0)" fill-opacity="1.000000" />
<path d="M 73.738281 150.335938 L 73.738281 156.319336 L 72.878906 156.319336 L 72.878906 150.335938 L 69.892578 150.335938 L 69.892578 149.412109 L 72.878906 149.412109 L 72.878906 142.300781 L 73.738281 142.300781 L 73.738281 149.412109 L 76.729980 149.412109 L 76.729980 150.335938 Z " fill="rgb(0, 0, 0)" fill-opacity="1.000000" />
<path d="M 76.892578 150.335938 L 76.892578 149.412109 L 83.729980 149.412109 L 83.729980 150.335938 Z " fill="rgb(0, 0, 0)" fill-opacity="1.000000" />
<path d="M 83.892578 150.335938 L 83.892578 149.412109 L 90.729980 149.412109 L 90.729980 150.335938 Z " fill="rgb(0, 0, 0)" fill-opacity="1.000000" />
<path d="M 90.892578 150.335938 L 90.892578 149.412109 L 97.729980 149.412109 L 97.729980 150.335938 Z " fill="rgb(0, 0, 0)" fill-opacity="1.000000" />
<path d="M 98.032227 153.418945 L 98.032227 146.866211 L 104.590332 150.142578 Z " fill="rgb(0, 0, 0)" fill-opacity="1.000000" />
<path d="M 118.015625 149.498047 L 118.015625 149.981445 L 113.734863 149.981445 L 113.734863 150.013672 Q 113.691895 151.243652 114.204834 151.780762 Q 114.717773 152.317871 115.652344 152.317871 Q 116.125000 152.317871 116.640625 152.167480 Q 117.156250 152.017090 117.741699 151.710938 L 117.741699 152.693848 Q 117.177734 152.924805 116.654053 153.040283 Q 116.130371 153.155762 115.641602 153.155762 Q 114.239746 153.155762 113.450195 152.315186 Q 112.660645 151.474609 112.660645 149.997559 Q 112.660645 148.558105 113.434082 147.698730 Q 114.207520 146.839355 115.496582 146.839355 Q 116.645996 146.839355 117.309326 147.618164 Q 117.972656 148.396973 118.015625 149.498047 Z M 117.027344 149.208008 Q 116.962891 148.584961 116.573486 148.131104 Q 116.184082 147.677246 115.453613 147.677246 Q 114.739258 147.677246 114.277344 148.149902 Q 113.815430 148.622559 113.772461 149.213379 Z " fill="rgb(147, 81, 0)" fill-opacity="1.000000" />
<path d="M 128.878906 156.319336 L 128.878906 142.300781 L 129.738281 142.300781 L 129.738281 156.319336 Z " fill="rgb(0, 0, 0)" fill-opacity="1.000000" />
<path d="M 143.947754 145.969238 L 141.417969 150.207031 L 143.947754 150.207031 Z M 143.770508 144.980957 L 145.027344 144.980957 L 145.027344 150.207031 L 146.096191 150.207031 L 146.096191 151.087891 L 145.027344 151.087891 L 145.027344 153.000000 L 143.947754 153.000000 L 143.947754 151.087891 L 140.547852 151.087891 L 140.547852 150.062012 Z " fill="rgb(0, 0, 0)" fill-opacity="1.000000" />
<path d="M 156.878906 156.319336 L 156.878906 142.300781 L 157.738281 142.300781 L 157.738281 156.319336 Z " fill="rgb(0, 0, 0)" fill-opacity="1.000000" />
<path d="M 29.154785 131.980957 L 30.245117 131.980957 L 30.245117 139.086914 L 34.117676 139.086914 L 34.117676 140.000000 L 29.154785 140.000000 Z " fill="rgb(0, 0, 0)" fill-opacity="1.000000" />
<path d="M 38.770508 136.976074 L 38.442871 136.976074 Q 37.578125 136.976074 37.140381 137.279541 Q 36.702637 137.583008 36.702637 138.184570 Q 36.702637 138.727051 37.030273 139.027832 Q 37.357910 139.328613 37.937988 139.328613 Q 38.754395 139.328613 39.221680 138.761963 Q 39.688965 138.195312 39.694336 137.196289 L 39.694336 136.976074 Z M 40.687988 136.567871 L 40.687988 140.000000 L 39.694336 140.000000 L 39.694336 139.108398 Q 39.377441 139.645508 38.896729 139.900635 Q 38.416016 140.155762 37.728516 140.155762 Q 36.810059 140.155762 36.262207 139.637451 Q 35.714355 139.119141 35.714355 138.249023 Q 35.714355 137.244629 36.388428 136.723633 Q 37.062500 136.202637 38.367676 136.202637 L 39.694336 136.202637 L 39.694336 136.046875 Q 39.688965 135.327148 39.329102 135.002197 Q 38.969238 134.677246 38.179688 134.677246 Q 37.674805 134.677246 37.159180 134.822266 Q 36.643555 134.967285 36.154785 135.246582 L 36.154785 134.258301 Q 36.702637 134.048828 37.204834 133.944092 Q 37.707031 133.839355 38.179688 133.839355 Q 38.926270 133.839355 39.455322 134.059570 Q 39.984375 134.279785 40.312012 134.720215 Q 40.516113 134.988770 40.602051 135.383545 Q 40.687988 135.778320 40.687988 136.567871 Z " fill="rgb(0, 0, 0)" fill-opacity="1.000000" />
<path d="M 46.930664 136.997559 Q 46.930664 135.848145 46.565430 135.262695 Q 46.200195 134.677246 45.485840 134.677246 Q 44.766113 134.677246 44.395508 135.265381 Q 44.024902 135.853516 44.024902 136.997559 Q 44.024902 138.136230 44.395508 138.727051 Q 44.766113 139.317871 45.485840 139.317871 Q 46.200195 139.317871 46.565430 138.732422 Q 46.930664 138.146973 46.930664 136.997559 Z M 44.024902 134.752441 Q 44.261230 134.312012 44.677490 134.075684 Q 45.093750 133.839355 45.641602 133.839355 Q 46.726562 133.839355 47.349609 134.674561 Q 47.972656 135.509766 47.972656 136.976074 Q 47.972656 138.463867 47.346924 139.309814 Q 46.721191 140.155762 45.630859 140.155762 Q 45.093750 140.155762 44.682861 139.922119 Q 44.271973 139.688477 44.024902 139.242676 L 44.024902 140.000000 L 43.036621 140.000000 L 43.036621 131.642578 L 44.024902 131.642578 Z " fill="rgb(0, 0, 0)" fill-opacity="1.000000" />
<path d="M 55.015625 136.498047 L 55.015625 136.981445 L 50.734863 136.981445 L 50.734863 137.013672 Q 50.691895 138.243652 51.204834 138.780762 Q 51.717773 139.317871 52.652344 139.317871 Q 53.125000 139.317871 53.640625 139.167480 Q 54.156250 139.017090 54.741699 138.710938 L 54.741699 139.693848 Q 54.177734 139.924805 53.654053 140.040283 Q 53.130371 140.155762 52.641602 140.155762 Q 51.239746 140.155762 50.450195 139.315186 Q 49.660645 138.474609 49.660645 136.997559 Q 49.660645 135.558105 50.434082 134.698730 Q 51.207520 133.839355 52.496582 133.839355 Q 53.645996 133.839355 54.309326 134.618164 Q 54.972656 135.396973 55.015625 136.498047 Z M 54.027344 136.208008 Q 53.962891 135.584961 53.573486 135.131104 Q 53.184082 134.677246 52.453613 134.677246 Q 51.739258 134.677246 51.277344 135.149902 Q 50.815430 135.622559 50.772461 136.213379 Z " fill="rgb(0, 0, 0)" fill-opacity="1.000000" />
<path d="M 59.861816 137.824707 Q 59.861816 138.490723 60.106201 138.829102 Q 60.350586 139.167480 60.828613 139.167480 L 61.983398 139.167480 L 61.983398 140.000000 L 60.731934 140.000000 Q 59.845703 140.000000 59.359619 139.433350 Q 58.873535 138.866699 58.873535 137.824707 L 58.873535 132.383789 L 57.289062 132.383789 L 57.289062 131.610352 L 59.861816 131.610352 Z " fill="rgb(0, 0, 0)" fill-opacity="1.000000" />
<path d="M 72.878906 143.319336 L 72.878906 129.300781 L 73.738281 129.300781 L 73.738281 143.319336 Z " fill="rgb(0, 0, 0)" fill-opacity="1.000000" />
<path d="M 100.878906 143.319336 L 100.878906 129.300781 L 101.738281 129.300781 L 101.738281 136.412109 L 104.729980 136.412109 L 104.729980 137.335938 L 101.738281 137.335938 L 101.738281 143.319336 Z " fill="rgb(0, 0, 0)" fill-opacity="1.000000" />
<path d="M 104.892578 137.335938 L 104.892578 136.412109 L 111.729980 136.412109 L 111.729980 137.335938 Z " fill="rgb(0, 0, 0)" fill-opacity="1.000000" />
<path d="M 111.892578 137.335938 L 111.892578 136.412109 L 118.729980 136.412109 L 118.729980 137.335938 Z " fill="rgb(0, 0, 0)" fill-opacity="1.000000" />
<path d="M 118.892578 137.335938 L 118.892578 136.412109 L 125.729980 136.412109 L 125.729980 137.335938 Z " fill="rgb(0, 0, 0)" fill-opacity="1.000000" />
<path d="M 129.738281 137.335938 L 129.738281 143.319336 L 128.878906 143.319336 L 128.878906 137.335938 L 125.892578 137.335938 L 125.892578 136.412109 L 128.878906 136.412109 L 128.878906 129.300781 L 129.738281 129.300781 L 129.738281 136.412109 L 132.729980 136.412109 L 132.729980 137.335938 Z " fill="rgb(0, 0, 0)" fill-opacity="1.000000" />
<path d="M 132.892578 137.335938 L 132.892578 136.412109 L 139.729980 136.412109 L 139.729980 137.335938 Z " fill="rgb(0, 0, 0)" fill-opacity="1.000000" />
<path d="M 139.892578 137.335938 L 139.892578 136.412109 L 146.729980 136.412109 L 146.729980 137.335938 Z " fill="rgb(0, 0, 0)" fill-opacity="1.000000" />
<path d="M 146.892578 137.335938 L 146.892578 136.412109 L 153.729980 136.412109 L 153.729980 137.335938 Z " fill="rgb(0, 0, 0)" fill-opacity="1.000000" />
<path d="M 156.878906 143.319336 L 156.878906 137.335938 L 153.892578 137.335938 L 153.892578 136.412109 L 156.878906 136.412109 L 156.878906 129.300781 L 157.738281 129.300781 L 157.738281 143.319336 Z " fill="rgb(0, 0, 0)" fill-opacity="1.000000" />
<path d="M 72.878906 130.319336 L 72.878906 116.300781 L 73.738281 116.300781 L 73.738281 130.319336 Z " fill="rgb(0, 0, 0)" fill-opacity="1.000000" />
<path d="M 100.878906 130.319336 L 100.878906 116.300781 L 101.738281 116.300781 L 101.738281 130.319336 Z " fill="rgb(0, 0, 0)" fill-opacity="1.000000" />
<path d="M 116.608398 121.752441 L 116.608398 118.642578 L 117.596680 118.642578 L 117.596680 127.000000 L 116.608398 127.000000 L 116.608398 126.242676 Q 116.361328 126.688477 115.950439 126.922119 Q 115.539551 127.155762 115.002441 127.155762 Q 113.912109 127.155762 113.286377 126.309814 Q 112.660645 125.463867 112.660645 123.976074 Q 112.660645 122.509766 113.289062 121.674561 Q 113.917480 120.839355 115.002441 120.839355 Q 115.544922 120.839355 115.958496 121.072998 Q 116.372070 121.306641 116.608398 121.752441 Z M 113.702637 123.997559 Q 113.702637 125.146973 114.067871 125.732422 Q 114.433105 126.317871 115.147461 126.317871 Q 115.861816 126.317871 116.235107 125.727051 Q 116.608398 125.136230 116.608398 123.997559 Q 116.608398 122.853516 116.235107 122.265381 Q 115.861816 121.677246 115.147461 121.677246 Q 114.433105 121.677246 114.067871 122.262695 Q 113.702637 122.848145 113.702637 123.997559 Z " fill="rgb(147, 81, 0)" fill-opacity="1.000000" />
<path d="M 128.878906 130.319336 L 128.878906 116.300781 L 129.738281 116.300781 L 129.738281 130.319336 Z " fill="rgb(0, 0, 0)" fill-opacity="1.000000" />
<path d="M 141.111816 118.980957 L 145.172363 118.980957 L 145.172363 119.894043 L 142.100098 119.894043 L 142.100098 121.865234 Q 142.331055 121.779297 142.564697 121.739014 Q 142.798340 121.698730 143.034668 121.698730 Q 144.280762 121.698730 145.011230 122.434570 Q 145.741699 123.170410 145.741699 124.427246 Q 145.741699 125.694824 144.976318 126.425293 Q 144.210938 127.155762 142.884277 127.155762 Q 142.245117 127.155762 141.716064 127.069824 Q 141.187012 126.983887 140.768066 126.812012 L 140.768066 125.710938 Q 141.262207 125.979492 141.761719 126.111084 Q 142.261230 126.242676 142.782227 126.242676 Q 143.679199 126.242676 144.165283 125.770020 Q 144.651367 125.297363 144.651367 124.427246 Q 144.651367 123.567871 144.149170 123.089844 Q 143.646973 122.611816 142.750000 122.611816 Q 142.314941 122.611816 141.901367 122.711182 Q 141.487793 122.810547 141.111816 123.009277 Z " fill="rgb(0, 0, 0)" fill-opacity="1.000000" />
<path d="M 156.878906 130.319336 L 156.878906 116.300781 L 157.738281 116.300781 L 157.738281 130.319336 Z " fill="rgb(0, 0, 0)" fill-opacity="1.000000" />
<path d="M 72.878906 117.319336 L 72.878906 103.300781 L 73.738281 103.300781 L 73.738281 117.319336 Z " fill="rgb(0, 0, 0)" fill-opacity="1.000000" />
<path d="M 100.878906 117.319336 L 100.878906 103.300781 L 101.738281 103.300781 L 101.738281 110.412109 L 104.729980 110.412109 L 104.729980 111.335938 L 101.738281 111.335938 L 101.738281 117.319336 Z " fill="rgb(0, 0, 0)" fill-opacity="1.000000" />
<path d="M 104.892578 111.335938 L 104.892578 110.412109 L 111.729980 110.412109 L 111.729980 111.335938 Z " fill="rgb(0, 0, 0)" fill-opacity="1.000000" />
<path d="M 111.892578 111.335938 L 111.892578 110.412109 L 118.729980 110.412109 L 118.729980 111.335938 Z " fill="rgb(0, 0, 0)" fill-opacity="1.000000" />
<path d="M 118.892578 111.335938 L 118.892578 110.412109 L 125.729980 110.412109 L 125.729980 111.335938 Z " fill="rgb(0, 0, 0)" fill-opacity="1.000000" />
<path d="M 129.738281 111.335938 L 129.738281 117.319336 L 128.878906 117.319336 L 128.878906 111.335938 L 125.892578 111.335938 L 125.892578 110.412109 L 128.878906 110.412109 L 128.878906 103.300781 L 129.738281 103.300781 L 129.738281 110.412109 L 132.729980 110.412109 L 132.729980 111.335938 Z " fill="rgb(0, 0, 0)" fill-opacity="1.000000" />
<path d="M 132.892578 111.335938 L 132.892578 110.412109 L 139.729980 110.412109 L 139.729980 111.335938 Z " fill="rgb(0, 0, 0)" fill-opacity="1.000000" />
<path d="M 139.892578 111.335938 L 139.892578 110.412109 L 146.729980 110.412109 L 146.729980 111.335938 Z " fill="rgb(0, 0, 0)" fill-opacity="1.000000" />
<path d="M 146.892578 111.335938 L 146.892578 110.412109 L 153.729980 110.412109 L 153.729980 111.335938 Z " fill="rgb(0, 0, 0)" fill-opacity="1.000000" />
<path d="M 156.878906 117.319336 L 156.878906 111.335938 L 153.892578 111.335938 L 153.892578 110.412109 L 156.878906 110.412109 L 156.878906 103.300781 L 157.738281 103.300781 L 157.738281 117.319336 Z " fill="rgb(0, 0, 0)" fill-opacity="1.000000" />
<path d="M 72.878906 104.319336 L 72.878906 90.300781 L 73.738281 90.300781 L 73.738281 104.319336 Z " fill="rgb(0, 0, 0)" fill-opacity="1.000000" />
<path d="M 100.878906 104.319336 L 100.878906 90.300781 L 101.738281 90.300781 L 101.738281 104.319336 Z " fill="rgb(0, 0, 0)" fill-opacity="1.000000" />
<path d="M 117.698730 100.693848 Q 117.301270 100.924805 116.879639 101.040283 Q 116.458008 101.155762 116.017578 101.155762 Q 114.621094 101.155762 113.834229 100.317871 Q 113.047363 99.479980 113.047363 97.997559 Q 113.047363 96.515137 113.834229 95.677246 Q 114.621094 94.839355 116.017578 94.839355 Q 116.452637 94.839355 116.866211 94.952148 Q 117.279785 95.064941 117.698730 95.301270 L 117.698730 96.337891 Q 117.306641 95.988770 116.911865 95.833008 Q 116.517090 95.677246 116.017578 95.677246 Q 115.088379 95.677246 114.588867 96.278809 Q 114.089355 96.880371 114.089355 97.997559 Q 114.089355 99.109375 114.591553 99.713623 Q 115.093750 100.317871 116.017578 100.317871 Q 116.533203 100.317871 116.941406 100.159424 Q 117.349609 100.000977 117.698730 99.667969 Z " fill="rgb(147, 81, 0)" fill-opacity="1.000000" />
<path d="M 128.878906 104.319336 L 128.878906 90.300781 L 129.738281 90.300781 L 129.738281 104.319336 Z " fill="rgb(0, 0, 0)" fill-opacity="1.000000" />
<path d="M 140.746582 92.980957 L 145.795410 92.980957 L 145.795410 93.442871 L 142.927246 101.000000 L 141.793945 101.000000 L 144.586914 93.894043 L 140.746582 93.894043 Z " fill="rgb(0, 0, 0)" fill-opacity="1.000000" />
<path d="M 156.878906 104.319336 L 156.878906 90.300781 L 157.738281 90.300781 L 157.738281 104.319336 Z " fill="rgb(0, 0, 0)" fill-opacity="1.000000" />
<path d="M 29.079590 79.980957 L 33.532227 79.980957 L 33.532227 80.894043 L 31.851074 80.894043 L 31.851074 87.086914 L 33.532227 87.086914 L 33.532227 88.000000 L 29.079590 88.000000 L 29.079590 87.086914 L 30.760742 87.086914 L 30.760742 80.894043 L 29.079590 80.894043 Z " fill="rgb(147, 81, 0)" fill-opacity="1.000000" />
<path d="M 40.645020 84.272461 L 40.645020 88.000000 L 39.651367 88.000000 L 39.651367 84.272461 Q 39.651367 83.461426 39.366699 83.080078 Q 39.082031 82.698730 38.475098 82.698730 Q 37.782227 82.698730 37.408936 83.190186 Q 37.035645 83.681641 37.035645 84.600098 L 37.035645 88.000000 L 36.047363 88.000000 L 36.047363 81.984375 L 37.035645 81.984375 L 37.035645 82.886719 Q 37.298828 82.371094 37.750000 82.105225 Q 38.201172 81.839355 38.818848 81.839355 Q 39.737305 81.839355 40.191162 82.443604 Q 40.645020 83.047852 40.645020 84.272461 Z " fill="rgb(147, 81, 0)" fill-opacity="1.000000" />
<path d="M 46.608398 82.752441 L 46.608398 79.642578 L 47.596680 79.642578 L 47.596680 88.000000 L 46.608398 88.000000 L 46.608398 87.242676 Q 46.361328 87.688477 45.950439 87.922119 Q 45.539551 88.155762 45.002441 88.155762 Q 43.912109 88.155762 43.286377 87.309814 Q 42.660645 86.463867 42.660645 84.976074 Q 42.660645 83.509766 43.289062 82.674561 Q 43.917480 81.839355 45.002441 81.839355 Q 45.544922 81.839355 45.958496 82.072998 Q 46.372070 82.306641 46.608398 82.752441 Z M 43.702637 84.997559 Q 43.702637 86.146973 44.067871 86.732422 Q 44.433105 87.317871 45.147461 87.317871 Q 45.861816 87.317871 46.235107 86.727051 Q 46.608398 86.136230 46.608398 84.997559 Q 46.608398 83.853516 46.235107 83.265381 Q 45.861816 82.677246 45.147461 82.677246 Q 44.433105 82.677246 44.067871 83.262695 Q 43.702637 83.848145 43.702637 84.997559 Z " fill="rgb(147, 81, 0)" fill-opacity="1.000000" />
<path d="M 55.015625 84.498047 L 55.015625 84.981445 L 50.734863 84.981445 L 50.734863 85.013672 Q 50.691895 86.243652 51.204834 86.780762 Q 51.717773 87.317871 52.652344 87.317871 Q 53.125000 87.317871 53.640625 87.167480 Q 54.156250 87.017090 54.741699 86.710938 L 54.741699 87.693848 Q 54.177734 87.924805 53.654053 88.040283 Q 53.130371 88.155762 52.641602 88.155762 Q 51.239746 88.155762 50.450195 87.315186 Q 49.660645 86.474609 49.660645 84.997559 Q 49.660645 83.558105 50.434082 82.698730 Q 51.207520 81.839355 52.496582 81.839355 Q 53.645996 81.839355 54.309326 82.618164 Q 54.972656 83.396973 55.015625 84.498047 Z M 54.027344 84.208008 Q 53.962891 83.584961 53.573486 83.131104 Q 53.184082 82.677246 52.453613 82.677246 Q 51.739258 82.677246 51.277344 83.149902 Q 50.815430 83.622559 50.772461 84.213379 Z " fill="rgb(147, 81, 0)" fill-opacity="1.000000" />
<path d="M 62.004883 81.984375 L 59.851074 84.863281 L 62.214355 88.000000 L 61.070312 88.000000 L 59.308594 85.588379 L 57.552246 88.000000 L 56.408203 88.000000 L 58.771484 84.863281 L 56.617676 81.984375 L 57.713379 81.984375 L 59.308594 84.159668 L 60.893066 81.984375 Z " fill="rgb(147, 81, 0)" fill-opacity="1.000000" />
<path d="M 72.878906 91.319336 L 72.878906 77.300781 L 73.738281 77.300781 L 73.738281 91.319336 Z " fill="rgb(0, 0, 0)" fill-opacity="1.000000" />
<path d="M 100.878906 91.319336 L 100.878906 77.300781 L 101.738281 77.300781 L 101.738281 84.412109 L 104.729980 84.412109 L 104.729980 85.335938 L 101.738281 85.335938 L 101.738281 91.319336 Z " fill="rgb(0, 0, 0)" fill-opacity="1.000000" />
<path d="M 104.892578 85.335938 L 104.892578 84.412109 L 111.729980 84.412109 L 111.729980 85.335938 Z " fill="rgb(0, 0, 0)" fill-opacity="1.000000" />
<path d="M 111.892578 85.335938 L 111.892578 84.412109 L 118.729980 84.412109 L 118.729980 85.335938 Z " fill="rgb(0, 0, 0)" fill-opacity="1.000000" />
<path d="M 118.892578 85.335938 L 118.892578 84.412109 L 125.729980 84.412109 L 125.729980 85.335938 Z " fill="rgb(0, 0, 0)" fill-opacity="1.000000" />
<path d="M 129.738281 85.335938 L 129.738281 91.319336 L 128.878906 91.319336 L 128.878906 85.335938 L 125.892578 85.335938 L 125.892578 84.412109 L 128.878906 84.412109 L 128.878906 77.300781 L 129.738281 77.300781 L 129.738281 84.412109 L 132.729980 84.412109 L 132.729980 85.335938 Z " fill="rgb(0, 0, 0)" fill-opacity="1.000000" />
<path d="M 132.892578 85.335938 L 132.892578 84.412109 L 139.729980 84.412109 L 139.729980 85.335938 Z " fill="rgb(0, 0, 0)" fill-opacity="1.000000" />
<path d="M 139.892578 85.335938 L 139.892578 84.412109 L 146.729980 84.412109 L 146.729980 85.335938 Z " fill="rgb(0, 0, 0)" fill-opacity="1.000000" />
<path d="M 146.892578 85.335938 L 146.892578 84.412109 L 153.729980 84.412109 L 153.729980 85.335938 Z " fill="rgb(0, 0, 0)" fill-opacity="1.000000" />
<path d="M 156.878906 91.319336 L 156.878906 85.335938 L 153.892578 85.335938 L 153.892578 84.412109 L 156.878906 84.412109 L 156.878906 77.300781 L 157.738281 77.300781 L 157.738281 91.319336 Z " fill="rgb(0, 0, 0)" fill-opacity="1.000000" />
<path d="M 72.878906 78.319336 L 72.878906 64.300781 L 73.738281 64.300781 L 73.738281 78.319336 Z " fill="rgb(0, 0, 0)" fill-opacity="1.000000" />
<path d="M 100.878906 78.319336 L 100.878906 64.300781 L 101.738281 64.300781 L 101.738281 78.319336 Z " fill="rgb(0, 0, 0)" fill-opacity="1.000000" />
<path d="M 116.930664 71.997559 Q 116.930664 70.848145 116.565430 70.262695 Q 116.200195 69.677246 115.485840 69.677246 Q 114.766113 69.677246 114.395508 70.265381 Q 114.024902 70.853516 114.024902 71.997559 Q 114.024902 73.136230 114.395508 73.727051 Q 114.766113 74.317871 115.485840 74.317871 Q 116.200195 74.317871 116.565430 73.732422 Q 116.930664 73.146973 116.930664 71.997559 Z M 114.024902 69.752441 Q 114.261230 69.312012 114.677490 69.075684 Q 115.093750 68.839355 115.641602 68.839355 Q 116.726562 68.839355 117.349609 69.674561 Q 117.972656 70.509766 117.972656 71.976074 Q 117.972656 73.463867 117.346924 74.309814 Q 116.721191 75.155762 115.630859 75.155762 Q 115.093750 75.155762 114.682861 74.922119 Q 114.271973 74.688477 114.024902 74.242676 L 114.024902 75.000000 L 113.036621 75.000000 L 113.036621 66.642578 L 114.024902 66.642578 Z " fill="rgb(147, 81, 0)" fill-opacity="1.000000" />
<path d="M 128.878906 78.319336 L 128.878906 64.300781 L 129.738281 64.300781 L 129.738281 78.319336 Z " fill="rgb(0, 0, 0)" fill-opacity="1.000000" />
<path d="M 143.201172 71.444336 Q 143.894043 71.444336 144.288818 70.944824 Q 144.683594 70.445312 144.683594 69.564453 Q 144.683594 68.683594 144.288818 68.184082 Q 143.894043 67.684570 143.201172 67.684570 Q 142.481445 67.684570 142.116211 68.159912 Q 141.750977 68.635254 141.750977 69.564453 Q 141.750977 70.499023 142.113525 70.971680 Q 142.476074 71.444336 143.201172 71.444336 Z M 141.267578 74.833496 L 141.267578 73.834473 Q 141.605957 74.033203 141.987305 74.137939 Q 142.368652 74.242676 142.782227 74.242676 Q 143.813477 74.242676 144.342529 73.466553 Q 144.871582 72.690430 144.871582 71.181152 Q 144.619141 71.718262 144.162598 72.005615 Q 143.706055 72.292969 143.115234 72.292969 Q 141.955078 72.292969 141.318604 71.578613 Q 140.682129 70.864258 140.682129 69.553711 Q 140.682129 68.259277 141.334717 67.547607 Q 141.987305 66.835938 143.179688 66.835938 Q 144.576172 66.835938 145.226074 67.840332 Q 145.875977 68.844727 145.875977 70.998535 Q 145.875977 73.023438 145.094482 74.089600 Q 144.312988 75.155762 142.825195 75.155762 Q 142.433105 75.155762 142.035645 75.072510 Q 141.638184 74.989258 141.267578 74.833496 Z " fill="rgb(0, 0, 0)" fill-opacity="1.000000" />
<path d="M 156.878906 78.319336 L 156.878906 64.300781 L 157.738281 64.300781 L 157.738281 78.319336 Z " fill="rgb(0, 0, 0)" fill-opacity="1.000000" />
<path d="M 72.878906 52.319336 L 72.878906 45.412109 L 76.729980 45.412109 L 76.729980 46.335938 L 73.738281 46.335938 L 73.738281 52.319336 Z " fill="rgb(0, 0, 0)" fill-opacity="1.000000" />
<path d="M 72.878906 65.319336 L 72.878906 51.300781 L 73.738281 51.300781 L 73.738281 65.319336 Z " fill="rgb(0, 0, 0)" fill-opacity="1.000000" />
<path d="M 100.878906 65.319336 L 100.878906 51.300781 L 101.738281 51.300781 L 101.738281 58.412109 L 104.729980 58.412109 L 104.729980 59.335938 L 101.738281 59.335938 L 101.738281 65.319336 Z " fill="rgb(0, 0, 0)" fill-opacity="1.000000" />
<path d="M 104.892578 59.335938 L 104.892578 58.412109 L 111.729980 58.412109 L 111.729980 59.335938 Z " fill="rgb(0, 0, 0)" fill-opacity="1.000000" />
<path d="M 111.892578 59.335938 L 111.892578 58.412109 L 118.729980 58.412109 L 118.729980 59.335938 Z " fill="rgb(0, 0, 0)" fill-opacity="1.000000" />
<path d="M 118.892578 59.335938 L 118.892578 58.412109 L 125.729980 58.412109 L 125.729980 59.335938 Z " fill="rgb(0, 0, 0)" fill-opacity="1.000000" />
<path d="M 129.738281 59.335938 L 129.738281 65.319336 L 128.878906 65.319336 L 128.878906 59.335938 L 125.892578 59.335938 L 125.892578 58.412109 L 128.878906 58.412109 L 128.878906 51.300781 L 129.738281 51.300781 L 129.738281 58.412109 L 132.729980 58.412109 L 132.729980 59.335938 Z " fill="rgb(0, 0, 0)" fill-opacity="1.000000" />
<path d="M 132.892578 59.335938 L 132.892578 58.412109 L 139.729980 58.412109 L 139.729980 59.335938 Z " fill="rgb(0, 0, 0)" fill-opacity="1.000000" />
<path d="M 139.892578 59.335938 L 139.892578 58.412109 L 146.729980 58.412109 L 146.729980 59.335938 Z " fill="rgb(0, 0, 0)" fill-opacity="1.000000" />
<path d="M 146.892578 59.335938 L 146.892578 58.412109 L 153.729980 58.412109 L 153.729980 59.335938 Z " fill="rgb(0, 0, 0)" fill-opacity="1.000000" />
<path d="M 156.878906 65.319336 L 156.878906 59.335938 L 153.892578 59.335938 L 153.892578 58.412109 L 156.878906 58.412109 L 156.878906 51.300781 L 157.738281 51.300781 L 157.738281 65.319336 Z " fill="rgb(0, 0, 0)" fill-opacity="1.000000" />
<path d="M 76.892578 46.335938 L 76.892578 45.412109 L 83.729980 45.412109 L 83.729980 46.335938 Z " fill="rgb(0, 0, 0)" fill-opacity="1.000000" />
<path d="M 83.892578 46.335938 L 83.892578 45.412109 L 90.729980 45.412109 L 90.729980 46.335938 Z " fill="rgb(0, 0, 0)" fill-opacity="1.000000" />
<path d="M 100.878906 52.319336 L 100.878906 38.300781 L 101.738281 38.300781 L 101.738281 52.319336 Z " fill="rgb(0, 0, 0)" fill-opacity="1.000000" />
<path d="M 115.770508 45.976074 L 115.442871 45.976074 Q 114.578125 45.976074 114.140381 46.279541 Q 113.702637 46.583008 113.702637 47.184570 Q 113.702637 47.727051 114.030273 48.027832 Q 114.357910 48.328613 114.937988 48.328613 Q 115.754395 48.328613 116.221680 47.761963 Q 116.688965 47.195312 116.694336 46.196289 L 116.694336 45.976074 Z M 117.687988 45.567871 L 117.687988 49.000000 L 116.694336 49.000000 L 116.694336 48.108398 Q 116.377441 48.645508 115.896729 48.900635 Q 115.416016 49.155762 114.728516 49.155762 Q 113.810059 49.155762 113.262207 48.637451 Q 112.714355 48.119141 112.714355 47.249023 Q 112.714355 46.244629 113.388428 45.723633 Q 114.062500 45.202637 115.367676 45.202637 L 116.694336 45.202637 L 116.694336 45.046875 Q 116.688965 44.327148 116.329102 44.002197 Q 115.969238 43.677246 115.179688 43.677246 Q 114.674805 43.677246 114.159180 43.822266 Q 113.643555 43.967285 113.154785 44.246582 L 113.154785 43.258301 Q 113.702637 43.048828 114.204834 42.944092 Q 114.707031 42.839355 115.179688 42.839355 Q 115.926270 42.839355 116.455322 43.059570 Q 116.984375 43.279785 117.312012 43.720215 Q 117.516113 43.988770 117.602051 44.383545 Q 117.687988 44.778320 117.687988 45.567871 Z " fill="rgb(147, 81, 0)" fill-opacity="1.000000" />
<path d="M 128.878906 52.319336 L 128.878906 38.300781 L 129.738281 38.300781 L 129.738281 52.319336 Z " fill="rgb(0, 0, 0)" fill-opacity="1.000000" />
<path d="M 143.308594 45.191895 Q 142.583496 45.191895 142.188721 45.597412 Q 141.793945 46.002930 141.793945 46.744141 Q 141.793945 47.485352 142.194092 47.896240 Q 142.594238 48.307129 143.308594 48.307129 Q 144.039062 48.307129 144.433838 47.901611 Q 144.828613 47.496094 144.828613 46.744141 Q 144.828613 46.008301 144.428467 45.600098 Q 144.028320 45.191895 143.308594 45.191895 Z M 142.363281 44.740723 Q 141.670410 44.563477 141.281006 44.080078 Q 140.891602 43.596680 140.891602 42.914551 Q 140.891602 41.958496 141.541504 41.397217 Q 142.191406 40.835938 143.308594 40.835938 Q 144.431152 40.835938 145.081055 41.397217 Q 145.730957 41.958496 145.730957 42.914551 Q 145.730957 43.596680 145.341553 44.080078 Q 144.952148 44.563477 144.259277 44.740723 Q 145.064941 44.917969 145.491943 45.455078 Q 145.918945 45.992188 145.918945 46.846191 Q 145.918945 47.931152 145.226074 48.543457 Q 144.533203 49.155762 143.308594 49.155762 Q 142.083984 49.155762 141.393799 48.546143 Q 140.703613 47.936523 140.703613 46.856934 Q 140.703613 45.997559 141.130615 45.457764 Q 141.557617 44.917969 142.363281 44.740723 Z M 141.971191 43.016602 Q 141.971191 43.661133 142.314941 43.999512 Q 142.658691 44.337891 143.308594 44.337891 Q 143.963867 44.337891 144.307617 43.999512 Q 144.651367 43.661133 144.651367 43.016602 Q 144.651367 42.361328 144.310303 42.017578 Q 143.969238 41.673828 143.308594 41.673828 Q 142.658691 41.673828 142.314941 42.020264 Q 141.971191 42.366699 141.971191 43.016602 Z " fill="rgb(0, 0, 0)" fill-opacity="1.000000" />
<path d="M 156.878906 52.319336 L 156.878906 38.300781 L 157.738281 38.300781 L 157.738281 52.319336 Z " fill="rgb(0, 0, 0)" fill-opacity="1.000000" />
<path d="M 100.878906 13.319336 L 100.878906 6.412109 L 104.729980 6.412109 L 104.729980 7.335938 L 101.738281 7.335938 L 101.738281 13.319336 Z " fill="rgb(0, 0, 0)" fill-opacity="1.000000" />
<path d="M 100.878906 26.319336 L 100.878906 12.300781 L 101.738281 12.300781 L 101.738281 26.319336 Z " fill="rgb(0, 0, 0)" fill-opacity="1.000000" />
<path d="M 100.878906 39.319336 L 100.878906 25.300781 L 101.738281 25.300781 L 101.738281 32.412109 L 104.729980 32.412109 L 104.729980 33.335938 L 101.738281 33.335938 L 101.738281 39.319336 Z " fill="rgb(0, 0, 0)" fill-opacity="1.000000" />
<path d="M 104.892578 33.335938 L 104.892578 32.412109 L 111.729980 32.412109 L 111.729980 33.335938 Z " fill="rgb(0, 0, 0)" fill-opacity="1.000000" />
<path d="M 111.892578 33.335938 L 111.892578 32.412109 L 118.729980 32.412109 L 118.729980 33.335938 Z " fill="rgb(0, 0, 0)" fill-opacity="1.000000" />
<path d="M 118.892578 33.335938 L 118.892578 32.412109 L 125.729980 32.412109 L 125.729980 33.335938 Z " fill="rgb(0, 0, 0)" fill-opacity="1.000000" />
<path d="M 128.878906 39.319336 L 128.878906 33.335938 L 125.892578 33.335938 L 125.892578 32.412109 L 132.729980 32.412109 L 132.729980 33.335938 L 129.738281 33.335938 L 129.738281 39.319336 Z " fill="rgb(0, 0, 0)" fill-opacity="1.000000" />
<path d="M 132.892578 33.335938 L 132.892578 32.412109 L 139.729980 32.412109 L 139.729980 33.335938 Z " fill="rgb(0, 0, 0)" fill-opacity="1.000000" />
<path d="M 139.892578 33.335938 L 139.892578 32.412109 L 146.729980 32.412109 L 146.729980 33.335938 Z " fill="rgb(0, 0, 0)" fill-opacity="1.000000" />
<path d="M 146.892578 33.335938 L 146.892578 32.412109 L 153.729980 32.412109 L 153.729980 33.335938 Z " fill="rgb(0, 0, 0)" fill-opacity="1.000000" />
<path d="M 156.878906 39.319336 L 156.878906 33.335938 L 153.892578 33.335938 L 153.892578 32.412109 L 156.878906 32.412109 L 156.878906 25.300781 L 157.738281 25.300781 L 157.738281 39.319336 Z " fill="rgb(0, 0, 0)" fill-opacity="1.000000" />
<path d="M 110.435547 15.254883 L 110.435547 16.355957 Q 109.941406 16.039062 109.444580 15.877930 Q 108.947754 15.716797 108.442871 15.716797 Q 107.674805 15.716797 107.229004 16.073975 Q 106.783203 16.431152 106.783203 17.038086 Q 106.783203 17.569824 107.075928 17.849121 Q 107.368652 18.128418 108.168945 18.316406 L 108.738281 18.445312 Q 109.866211 18.708496 110.381836 19.272461 Q 110.897461 19.836426 110.897461 20.808594 Q 110.897461 21.952637 110.188477 22.554199 Q 109.479492 23.155762 108.125977 23.155762 Q 107.562012 23.155762 106.992676 23.034912 Q 106.423340 22.914062 105.848633 22.672363 L 105.848633 21.517578 Q 106.466309 21.909668 107.016846 22.092285 Q 107.567383 22.274902 108.125977 22.274902 Q 108.947754 22.274902 109.404297 21.906982 Q 109.860840 21.539062 109.860840 20.878418 Q 109.860840 20.276855 109.546631 19.959961 Q 109.232422 19.643066 108.453613 19.471191 L 107.873535 19.336914 Q 106.756348 19.084473 106.251465 18.574219 Q 105.746582 18.063965 105.746582 17.204590 Q 105.746582 16.130371 106.468994 15.483154 Q 107.191406 14.835938 108.389160 14.835938 Q 108.851074 14.835938 109.361328 14.940674 Q 109.871582 15.045410 110.435547 15.254883 Z " fill="rgb(0, 0, 0)" fill-opacity="1.000000" />
<path d="M 118.015625 19.498047 L 118.015625 19.981445 L 113.734863 19.981445 L 113.734863 20.013672 Q 113.691895 21.243652 114.204834 21.780762 Q 114.717773 22.317871 115.652344 22.317871 Q 116.125000 22.317871 116.640625 22.167480 Q 117.156250 22.017090 117.741699 21.710938 L 117.741699 22.693848 Q 117.177734 22.924805 116.654053 23.040283 Q 116.130371 23.155762 115.641602 23.155762 Q 114.239746 23.155762 113.450195 22.315186 Q 112.660645 21.474609 112.660645 19.997559 Q 112.660645 18.558105 113.434082 17.698730 Q 114.207520 16.839355 115.496582 16.839355 Q 116.645996 16.839355 117.309326 17.618164 Q 117.972656 18.396973 118.015625 19.498047 Z M 117.027344 19.208008 Q 116.962891 18.584961 116.573486 18.131104 Q 116.184082 17.677246 115.453613 17.677246 Q 114.739258 17.677246 114.277344 18.149902 Q 113.815430 18.622559 113.772461 19.213379 Z " fill="rgb(0, 0, 0)" fill-opacity="1.000000" />
<path d="M 125.203613 18.225098 Q 124.886719 17.978027 124.559082 17.865234 Q 124.231445 17.752441 123.839355 17.752441 Q 122.915527 17.752441 122.426758 18.332520 Q 121.937988 18.912598 121.937988 20.008301 L 121.937988 23.000000 L 120.944336 23.000000 L 120.944336 16.984375 L 121.937988 16.984375 L 121.937988 18.160645 Q 122.185059 17.521484 122.697998 17.180420 Q 123.210938 16.839355 123.914551 16.839355 Q 124.279785 16.839355 124.596680 16.930664 Q 124.913574 17.021973 125.203613 17.215332 Z " fill="rgb(0, 0, 0)" fill-opacity="1.000000" />
<path d="M 127.697266 17.005859 L 130.227051 17.005859 L 130.227051 22.231934 L 132.187500 22.231934 L 132.187500 23.000000 L 127.278320 23.000000 L 127.278320 22.231934 L 129.238770 22.231934 L 129.238770 17.773926 L 127.697266 17.773926 Z M 129.238770 14.669434 L 130.227051 14.669434 L 130.227051 15.915527 L 129.238770 15.915527 Z " fill="rgb(0, 0, 0)" fill-opacity="1.000000" />
<path d="M 139.015625 19.498047 L 139.015625 19.981445 L 134.734863 19.981445 L 134.734863 20.013672 Q 134.691895 21.243652 135.204834 21.780762 Q 135.717773 22.317871 136.652344 22.317871 Q 137.125000 22.317871 137.640625 22.167480 Q 138.156250 22.017090 138.741699 21.710938 L 138.741699 22.693848 Q 138.177734 22.924805 137.654053 23.040283 Q 137.130371 23.155762 136.641602 23.155762 Q 135.239746 23.155762 134.450195 22.315186 Q 133.660645 21.474609 133.660645 19.997559 Q 133.660645 18.558105 134.434082 17.698730 Q 135.207520 16.839355 136.496582 16.839355 Q 137.645996 16.839355 138.309326 17.618164 Q 138.972656 18.396973 139.015625 19.498047 Z M 138.027344 19.208008 Q 137.962891 18.584961 137.573486 18.131104 Q 137.184082 17.677246 136.453613 17.677246 Q 135.739258 17.677246 135.277344 18.149902 Q 134.815430 18.622559 134.772461 19.213379 Z " fill="rgb(0, 0, 0)" fill-opacity="1.000000" />
<path d="M 145.226074 17.193848 L 145.226074 18.160645 Q 144.801758 17.913574 144.372070 17.790039 Q 143.942383 17.666504 143.496582 17.666504 Q 142.825195 17.666504 142.494873 17.884033 Q 142.164551 18.101562 142.164551 18.547363 Q 142.164551 18.950195 142.411621 19.148926 Q 142.658691 19.347656 143.641602 19.535645 L 144.039062 19.610840 Q 144.774902 19.750488 145.153564 20.169434 Q 145.532227 20.588379 145.532227 21.259766 Q 145.532227 22.151367 144.898438 22.653564 Q 144.264648 23.155762 143.136719 23.155762 Q 142.690918 23.155762 142.202148 23.061768 Q 141.713379 22.967773 141.144043 22.779785 L 141.144043 21.759277 Q 141.697266 22.043945 142.202148 22.186279 Q 142.707031 22.328613 143.158203 22.328613 Q 143.813477 22.328613 144.173340 22.062744 Q 144.533203 21.796875 144.533203 21.318848 Q 144.533203 20.631348 143.217285 20.368164 L 143.174316 20.357422 L 142.803711 20.282227 Q 141.949707 20.115723 141.557617 19.720947 Q 141.165527 19.326172 141.165527 18.644043 Q 141.165527 17.779297 141.750977 17.309326 Q 142.336426 16.839355 143.421387 16.839355 Q 143.904785 16.839355 144.350586 16.927979 Q 144.796387 17.016602 145.226074 17.193848 Z " fill="rgb(0, 0, 0)" fill-opacity="1.000000" />
<path d="M 156.878906 26.319336 L 156.878906 12.300781 L 157.738281 12.300781 L 157.738281 26.319336 Z " fill="rgb(0, 0, 0)" fill-opacity="1.000000" />
<path d="M 104.892578 7.335938 L 104.892578 6.412109 L 111.729980 6.412109 L 111.729980 7.335938 Z " fill="rgb(0, 0, 0)" fill-opacity="1.000000" />
<path d="M 111.892578 7.335938 L 111.892578 6.412109 L 118.729980 6.412109 L 118.729980 7.335938 Z " fill="rgb(0, 0, 0)" fill-opacity="1.000000" />
<path d="M 118.892578 7.335938 L 118.892578 6.412109 L 125.729980 6.412109 L 125.729980 7.335938 Z " fill="rgb(0, 0, 0)" fill-opacity="1.000000" />
<path d="M 125.892578 7.335938 L 125.892578 6.412109 L 132.729980 6.412109 L 132.729980 7.335938 Z " fill="rgb(0, 0, 0)" fill-opacity="1.000000" />
<path d="M 132.892578 7.335938 L 132.892578 6.412109 L 139.729980 6.412109 L 139.729980 7.335938 Z " fill="rgb(0, 0, 0)" fill-opacity="1.000000" />
<path d="M 139.892578 7.335938 L 139.892578 6.412109 L 146.729980 6.412109 L 146.729980 7.335938 Z " fill="rgb(0, 0, 0)" fill-opacity="1.000000" />
<path d="M 146.892578 7.335938 L 146.892578 6.412109 L 153.729980 6.412109 L 153.729980 7.335938 Z " fill="rgb(0, 0, 0)" fill-opacity="1.000000" />
<path d="M 156.878906 13.319336 L 156.878906 7.335938 L 153.892578 7.335938 L 153.892578 6.412109 L 157.738281 6.412109 L 157.738281 13.319336 Z " fill="rgb(0, 0, 0)" fill-opacity="1.000000" />
</svg>